  0
SECTION
  2
HEADER
  9
$ACADVER
  1
AC1009
  9
$DWGCODEPAGE
  3
ansi_1252
  9
$INSBASE
 10
0.0
 20
0.0
 30
0.0
  9
$EXTMIN
 10
0.0
 20
0.0
 30
0.0
  9
$EXTMAX
 10
420.0
 20
297.0
 30
0.0
  9
$LIMMIN
 10
0.0
 20
0.0
  9
$LIMMAX
 10
420.0
 20
297.0
  9
$ORTHOMODE
 70
     0
  9
$REGENMODE
 70
     1
  9
$FILLMODE
 70
     1
  9
$QTEXTMODE
 70
     0
  9
$MIRRTEXT
 70
     1
  9
$DRAGMODE
 70
     2
  9
$LTSCALE
 40
1.0
  9
$OSMODE
 70
    37
  9
$ATTMODE
 70
     1
  9
$TEXTSIZE
 40
3.5
  9
$TRACEWID
 40
1.0
  9
$TEXTSTYLE
  7
STANDARD
  9
$CLAYER
  8
0
  9
$CELTYPE
  6
BYLAYER
  9
$CECOLOR
 62
   256
  9
$DIMSCALE
 40
1.0
  9
$DIMASZ
 40
3.302
  9
$DIMEXO
 40
1.0
  9
$DIMDLI
 40
3.75
  9
$DIMRND
 40
0.0
  9
$DIMDLE
 40
0.0
  9
$DIMEXE
 40
1.0
  9
$DIMTP
 40
0.0
  9
$DIMTM
 40
0.0
  9
$DIMTXT
 40
3.5
  9
$DIMCEN
 40
2.5
  9
$DIMTSZ
 40
0.0
  9
$DIMTOL
 70
     0
  9
$DIMLIM
 70
     0
  9
$DIMTIH
 70
     1
  9
$DIMTOH
 70
     1
  9
$DIMSE1
 70
     0
  9
$DIMSE2
 70
     0
  9
$DIMTAD
 70
     1
  9
$DIMZIN
 70
     0
  9
$DIMBLK
  1

  9
$DIMASO
 70
     1
  9
$DIMSHO
 70
     1
  9
$DIMPOST
  1

  9
$DIMAPOST
  1

  9
$DIMALT
 70
     0
  9
$DIMALTD
 70
     3
  9
$DIMALTF
 40
0.0393700787
  9
$DIMLFAC
 40
0.5
  9
$DIMTOFL
 70
     1
  9
$DIMTVP
 40
0.0
  9
$DIMTIX
 70
     0
  9
$DIMSOXD
 70
     0
  9
$DIMSAH
 70
     0
  9
$DIMBLK1
  1

  9
$DIMBLK2
  1

  9
$DIMSTYLE
  2
ISO-25
  9
$DIMCLRD
 70
     0
  9
$DIMCLRE
 70
     0
  9
$DIMCLRT
 70
     0
  9
$DIMTFAC
 40
1.0
  9
$DIMGAP
 40
1.524
  9
$LUNITS
 70
     2
  9
$LUPREC
 70
     2
  9
$SKETCHINC
 40
1.0
  9
$FILLETRAD
 40
10.0
  9
$AUNITS
 70
     0
  9
$AUPREC
 70
     2
  9
$MENU
  1
.
  9
$ELEVATION
 40
0.0
  9
$PELEVATION
 40
0.0
  9
$THICKNESS
 40
0.0
  9
$LIMCHECK
 70
     0
  9
$CHAMFERA
 40
0.0
  9
$CHAMFERB
 40
0.0
  9
$SKPOLY
 70
     0
  9
$TDCREATE
 40
2457549.486305428
  9
$TDUPDATE
 40
2457549.486305579
  9
$TDINDWG
 40
0.0000000116
  9
$TDUSRTIMER
 40
0.0000000116
  9
$USRTIMER
 70
     1
  9
$ANGBASE
 50
0.0
  9
$ANGDIR
 70
     0
  9
$PDMODE
 70
     0
  9
$PDSIZE
 40
-1.0
  9
$PLINEWID
 40
0.0
  9
$COORDS
 70
     1
  9
$SPLFRAME
 70
     0
  9
$SPLINETYPE
 70
     6
  9
$SPLINESEGS
 70
     8
  9
$ATTDIA
 70
     0
  9
$ATTREQ
 70
     1
  9
$HANDLING
 70
     1
  9
$HANDSEED
  5
10F
  9
$SURFTAB1
 70
     6
  9
$SURFTAB2
 70
     6
  9
$SURFTYPE
 70
     6
  9
$SURFU
 70
     6
  9
$SURFV
 70
     6
  9
$UCSNAME
  2

  9
$UCSORG
 10
0.0
 20
0.0
 30
0.0
  9
$UCSXDIR
 10
1.0
 20
0.0
 30
0.0
  9
$UCSYDIR
 10
0.0
 20
1.0
 30
0.0
  9
$PUCSNAME
  2

  9
$PUCSORG
 10
0.0
 20
0.0
 30
0.0
  9
$PUCSXDIR
 10
1.0
 20
0.0
 30
0.0
  9
$PUCSYDIR
 10
0.0
 20
1.0
 30
0.0
  9
$USERI1
 70
     0
  9
$USERI2
 70
     0
  9
$USERI3
 70
     0
  9
$USERI4
 70
     0
  9
$USERI5
 70
     0
  9
$USERR1
 40
0.0
  9
$USERR2
 40
0.0
  9
$USERR3
 40
0.0
  9
$USERR4
 40
0.0
  9
$USERR5
 40
0.0
  9
$WORLDVIEW
 70
     1
  9
$SHADEDGE
 70
     3
  9
$SHADEDIF
 70
    70
  9
$TILEMODE
 70
     1
  9
$MAXACTVP
 70
    64
  9
$PLIMCHECK
 70
     0
  9
$PEXTMIN
 10
1.0000000000E+20
 20
1.0000000000E+20
 30
1.0000000000E+20
  9
$PEXTMAX
 10
-1.0000000000E+20
 20
-1.0000000000E+20
 30
-1.0000000000E+20
  9
$PLIMMIN
 10
0.0
 20
0.0
  9
$PLIMMAX
 10
420.0
 20
297.0
  9
$UNITMODE
 70
     0
  9
$VISRETAIN
 70
     1
  9
$PLINEGEN
 70
     0
  9
$PSLTSCALE
 70
     1
  0
ENDSEC
  0
SECTION
  2
TABLES
  0
TABLE
  2
VPORT
 70
     1
  0
VPORT
  2
*ACTIVE
 70
     0
 10
0.0
 20
0.0
 11
1.0
 21
1.0
 12
210.0
 22
148.5
 13
0.0
 23
0.0
 14
10.0
 24
10.0
 15
10.0
 25
10.0
 16
0.0
 26
0.0
 36
1.0
 17
0.0
 27
0.0
 37
0.0
 40
297.0
 41
1.4141414141
 42
50.0
 43
0.0
 44
0.0
 50
0.0
 51
0.0
 71
     0
 72
  2000
 73
     1
 74
     3
 75
     0
 76
     0
 77
     0
 78
     0
  0
ENDTAB
  0
TABLE
  2
LTYPE
 70
     6
  0
LTYPE
  2
CONTINUOUS
 70
     0
  3
Solid line
 72
    65
 73
     0
 40
0.0
  0
LTYPE
  2
HIDDEN
 70
     0
  3
Hidden __ __ __ __ __ __ __ __ __ __ __ __ __ __
 72
    65
 73
     2
 40
1.905
 49
1.27
 49
-0.635
  0
LTYPE
  2
PHANTOM
 70
     0
  3
Phantom ______  __  __  ______  __  __  ______
 72
    65
 73
     6
 40
12.7
 49
6.35
 49
-1.27
 49
1.27
 49
-1.27
 49
1.27
 49
-1.27
  0
LTYPE
  2
CENTER
 70
     0
  3
Center ____ _ ____ _ ____ _ ____ _ ____ _ ____
 72
    65
 73
     4
 40
10.16
 49
6.35
 49
-1.27
 49
1.27
 49
-1.27
  0
LTYPE
  2
CENTERX2
 70
     0
  3
Center (2x) ________  __  ________  __  _____
 72
    65
 73
     4
 40
20.32
 49
12.7
 49
-2.54
 49
2.54
 49
-2.54
  0
LTYPE
  2
DOT2
 70
     0
  3
Dot (.5x) ........................................
 72
    65
 73
     2
 40
0.635
 49
0.0
 49
-0.635
  0
ENDTAB
  0
TABLE
  2
LAYER
 70
     2
  0
LAYER
  2
0
 70
     0
 62
     7
  6
CONTINUOUS
  0
LAYER
  2
FORMAT
 70
     0
 62
     7
  6
CONTINUOUS
  0
ENDTAB
  0
TABLE
  2
STYLE
 70
     1
  0
STYLE
  2
STANDARD
 70
     0
 40
0.0
 41
1.0
 50
0.0
 71
     0
 42
3.5
  3
txt
  4

  0
ENDTAB
  0
TABLE
  2
VIEW
 70
     0
  0
ENDTAB
  0
TABLE
  2
UCS
 70
     0
  0
ENDTAB
  0
TABLE
  2
APPID
 70
     1
  0
APPID
  2
ACAD
 70
     0
  0
ENDTAB
  0
TABLE
  2
DIMSTYLE
 70
     1
  0
DIMSTYLE
  2
ISO-25
 70
     0
  3

  4

  5

  6

  7

 40
1.0
 41
2.5
 42
0.625
 43
3.75
 44
1.25
 45
0.0
 46
0.0
 47
0.0
 48
0.0
140
2.5
141
2.5
142
0.0
143
0.0393700787
144
1.0
145
0.0
146
1.0
147
0.625
 71
     0
 72
     0
 73
     0
 74
     0
 75
     0
 76
     0
 77
     1
 78
     8
170
     0
171
     3
172
     1
173
     0
174
     0
175
     0
176
     0
177
     0
178
     0
  0
ENDTAB
  0
ENDSEC
  0
SECTION
  2
BLOCKS
  0
BLOCK
  8
0
  2
$MODEL_SPACE
 70
     0
 10
0.0
 20
0.0
 30
0.0
  3
$MODEL_SPACE
  1

  0
ENDBLK
  5
21
  8
0
  0
BLOCK
 67
     1
  8
0
  2
$PAPER_SPACE
 70
     0
 10
0.0
 20
0.0
 30
0.0
  3
$PAPER_SPACE
  1

  0
ENDBLK
  5
1D
 67
     1
  8
0
  0
ENDSEC
  0
SECTION
  2
ENTITIES
  0
ARC
  5
70
  8
0
  6
CONTINUOUS
 62
     7
 10
209.8257470011
 20
168.4992911668
 30
0.0
 40
0.5
 50
180.0
 51
270.0
  0
ARC
  5
71
  8
0
  6
CONTINUOUS
 62
     7
 10
202.3257470011
 20
165.7492911668
 30
0.0
 40
0.5
 50
90.0
 51
180.0
  0
ARC
  5
72
  8
0
  6
CONTINUOUS
 62
     7
 10
200.3282532825
 20
164.9492911668
 30
0.0
 40
0.5000000000000203
 50
5.7391704773
 51
90.0
  0
ARC
  5
73
  8
0
  6
CONTINUOUS
 62
     7
 10
187.8232407196
 20
164.9492911668
 30
0.0
 40
0.5000000000000203
 50
90.0
 51
174.2608295227
  0
ARC
  5
74
  8
0
  6
CONTINUOUS
 62
     7
 10
173.8257470011
 20
165.7492911668
 30
0.0
 40
0.5
 50
0.0
 51
90.0
  0
ARC
  5
75
  8
0
  6
CONTINUOUS
 62
     7
 10
174.3257470011
 20
168.4992911668
 30
0.0
 40
0.5
 50
270.0
 51
0.0
  0
ARC
  5
76
  8
0
  6
CONTINUOUS
 62
     7
 10
174.9257470011
 20
176.4992911668
 30
0.0
 40
0.0999999999999943
 50
90.0
 51
180.0
  0
ARC
  5
77
  8
0
  6
CONTINUOUS
 62
     7
 10
175.2257470011
 20
176.4992911668
 30
0.0
 40
0.1000000000000227
 50
0.0
 51
90.0
  0
ARC
  5
78
  8
0
  6
CONTINUOUS
 62
     7
 10
175.8257470011
 20
168.4992911668
 30
0.0
 40
0.5
 50
180.0
 51
270.0
  0
ARC
  5
79
  8
0
  6
CONTINUOUS
 62
     7
 10
176.3257470011
 20
168.4992911668
 30
0.0
 40
0.5
 50
270.0
 51
0.0
  0
ARC
  5
7A
  8
0
  6
CONTINUOUS
 62
     7
 10
176.9257470011
 20
176.4992911668
 30
0.0
 40
0.1000000000000227
 50
90.0
 51
180.0
  0
ARC
  5
7B
  8
0
  6
CONTINUOUS
 62
     7
 10
177.2257470011
 20
176.4992911668
 30
0.0
 40
0.0999999999999943
 50
0.0
 51
90.0
  0
ARC
  5
7C
  8
0
  6
CONTINUOUS
 62
     7
 10
177.8257470011
 20
168.4992911668
 30
0.0
 40
0.5
 50
180.0
 51
270.0
  0
ARC
  5
7D
  8
0
  6
CONTINUOUS
 62
     7
 10
178.3257470011
 20
168.4992911668
 30
0.0
 40
0.5
 50
270.0
 51
0.0
  0
ARC
  5
7E
  8
0
  6
CONTINUOUS
 62
     7
 10
178.9257470011
 20
176.4992911668
 30
0.0
 40
0.1000000000000227
 50
90.0
 51
180.0
  0
ARC
  5
7F
  8
0
  6
CONTINUOUS
 62
     7
 10
179.2257470011
 20
176.4992911668
 30
0.0
 40
0.0999999999999943
 50
0.0
 51
90.0
  0
ARC
  5
80
  8
0
  6
CONTINUOUS
 62
     7
 10
179.8257470011
 20
168.4992911668
 30
0.0
 40
0.5
 50
180.0
 51
270.0
  0
ARC
  5
81
  8
0
  6
CONTINUOUS
 62
     7
 10
180.3257470011
 20
168.4992911668
 30
0.0
 40
0.5
 50
270.0
 51
0.0
  0
ARC
  5
82
  8
0
  6
CONTINUOUS
 62
     7
 10
180.9257470011
 20
176.4992911668
 30
0.0
 40
0.1000000000000227
 50
90.0
 51
180.0
  0
ARC
  5
83
  8
0
  6
CONTINUOUS
 62
     7
 10
181.2257470011
 20
176.4992911668
 30
0.0
 40
0.0999999999999943
 50
0.0
 51
90.0
  0
ARC
  5
84
  8
0
  6
CONTINUOUS
 62
     7
 10
181.8257470011
 20
168.4992911668
 30
0.0
 40
0.5
 50
180.0
 51
270.0
  0
ARC
  5
85
  8
0
  6
CONTINUOUS
 62
     7
 10
182.3257470011
 20
168.4992911668
 30
0.0
 40
0.5
 50
270.0
 51
0.0
  0
ARC
  5
86
  8
0
  6
CONTINUOUS
 62
     7
 10
182.9257470011
 20
176.4992911668
 30
0.0
 40
0.1000000000000227
 50
90.0
 51
180.0
  0
ARC
  5
87
  8
0
  6
CONTINUOUS
 62
     7
 10
183.2257470011
 20
176.4992911668
 30
0.0
 40
0.0999999999999943
 50
0.0
 51
90.0
  0
ARC
  5
88
  8
0
  6
CONTINUOUS
 62
     7
 10
183.8257470011
 20
168.4992911668
 30
0.0
 40
0.5
 50
180.0
 51
270.0
  0
ARC
  5
89
  8
0
  6
CONTINUOUS
 62
     7
 10
184.3257470011
 20
168.4992911668
 30
0.0
 40
0.5
 50
270.0
 51
0.0
  0
ARC
  5
8A
  8
0
  6
CONTINUOUS
 62
     7
 10
184.9257470011
 20
176.4992911668
 30
0.0
 40
0.1000000000000227
 50
90.0
 51
180.0
  0
ARC
  5
8B
  8
0
  6
CONTINUOUS
 62
     7
 10
185.2257470011
 20
176.4992911668
 30
0.0
 40
0.0999999999999943
 50
0.0
 51
90.0
  0
ARC
  5
8C
  8
0
  6
CONTINUOUS
 62
     7
 10
185.8257470011
 20
168.4992911668
 30
0.0
 40
0.5
 50
180.0
 51
270.0
  0
ARC
  5
8D
  8
0
  6
CONTINUOUS
 62
     7
 10
186.3257470011
 20
168.4992911668
 30
0.0
 40
0.5
 50
270.0
 51
0.0
  0
ARC
  5
8E
  8
0
  6
CONTINUOUS
 62
     7
 10
186.9257470011
 20
176.4992911668
 30
0.0
 40
0.1000000000000227
 50
90.0
 51
180.0
  0
ARC
  5
8F
  8
0
  6
CONTINUOUS
 62
     7
 10
187.2257470011
 20
176.4992911668
 30
0.0
 40
0.0999999999999943
 50
0.0
 51
90.0
  0
ARC
  5
90
  8
0
  6
CONTINUOUS
 62
     7
 10
187.8257470011
 20
168.4992911668
 30
0.0
 40
0.5
 50
180.0
 51
270.0
  0
ARC
  5
91
  8
0
  6
CONTINUOUS
 62
     7
 10
188.3257470011
 20
168.4992911668
 30
0.0
 40
0.5000000000000284
 50
270.0
 51
0.0
  0
ARC
  5
92
  8
0
  6
CONTINUOUS
 62
     7
 10
188.9257470011
 20
176.4992911668
 30
0.0
 40
0.0999999999999943
 50
90.0
 51
180.0
  0
ARC
  5
93
  8
0
  6
CONTINUOUS
 62
     7
 10
189.2257470011
 20
176.4992911668
 30
0.0
 40
0.0999999999999943
 50
0.0
 51
90.0
  0
ARC
  5
94
  8
0
  6
CONTINUOUS
 62
     7
 10
189.8257470011
 20
168.4992911668
 30
0.0
 40
0.5
 50
180.0
 51
270.0
  0
ARC
  5
95
  8
0
  6
CONTINUOUS
 62
     7
 10
190.3257470011
 20
168.4992911668
 30
0.0
 40
0.5
 50
270.0
 51
0.0
  0
ARC
  5
96
  8
0
  6
CONTINUOUS
 62
     7
 10
190.9257470011
 20
176.4992911668
 30
0.0
 40
0.0999999999999943
 50
90.0
 51
180.0
  0
ARC
  5
97
  8
0
  6
CONTINUOUS
 62
     7
 10
191.2257470011
 20
176.4992911668
 30
0.0
 40
0.0999999999999943
 50
0.0
 51
90.0
  0
ARC
  5
98
  8
0
  6
CONTINUOUS
 62
     7
 10
191.8257470011
 20
168.4992911668
 30
0.0
 40
0.5
 50
180.0
 51
270.0
  0
ARC
  5
99
  8
0
  6
CONTINUOUS
 62
     7
 10
192.3257470011
 20
168.4992911668
 30
0.0
 40
0.5
 50
270.0
 51
0.0
  0
ARC
  5
9A
  8
0
  6
CONTINUOUS
 62
     7
 10
192.9257470011
 20
176.4992911668
 30
0.0
 40
0.0999999999999943
 50
90.0
 51
180.0
  0
ARC
  5
9B
  8
0
  6
CONTINUOUS
 62
     7
 10
193.2257470011
 20
176.4992911668
 30
0.0
 40
0.0999999999999943
 50
0.0
 51
90.0
  0
ARC
  5
9C
  8
0
  6
CONTINUOUS
 62
     7
 10
193.8257470011
 20
168.4992911668
 30
0.0
 40
0.5
 50
180.0
 51
270.0
  0
ARC
  5
9D
  8
0
  6
CONTINUOUS
 62
     7
 10
194.3257470011
 20
168.4992911668
 30
0.0
 40
0.5
 50
270.0
 51
0.0
  0
ARC
  5
9E
  8
0
  6
CONTINUOUS
 62
     7
 10
194.9257470011
 20
176.4992911668
 30
0.0
 40
0.0999999999999943
 50
90.0
 51
180.0
  0
ARC
  5
9F
  8
0
  6
CONTINUOUS
 62
     7
 10
195.2257470011
 20
176.4992911668
 30
0.0
 40
0.1000000000000227
 50
0.0
 51
90.0
  0
ARC
  5
A0
  8
0
  6
CONTINUOUS
 62
     7
 10
195.8257470011
 20
168.4992911668
 30
0.0
 40
0.5
 50
180.0
 51
270.0
  0
ARC
  5
A1
  8
0
  6
CONTINUOUS
 62
     7
 10
196.3257470011
 20
168.4992911668
 30
0.0
 40
0.5
 50
270.0
 51
0.0
  0
ARC
  5
A2
  8
0
  6
CONTINUOUS
 62
     7
 10
196.9257470011
 20
176.4992911668
 30
0.0
 40
0.0999999999999943
 50
90.0
 51
180.0
  0
ARC
  5
A3
  8
0
  6
CONTINUOUS
 62
     7
 10
197.2257470011
 20
176.4992911668
 30
0.0
 40
0.1000000000000227
 50
0.0
 51
90.0
  0
ARC
  5
A4
  8
0
  6
CONTINUOUS
 62
     7
 10
197.8257470011
 20
168.4992911668
 30
0.0
 40
0.5
 50
180.0
 51
270.0
  0
ARC
  5
A5
  8
0
  6
CONTINUOUS
 62
     7
 10
198.3257470011
 20
168.4992911668
 30
0.0
 40
0.5
 50
270.0
 51
0.0
  0
ARC
  5
A6
  8
0
  6
CONTINUOUS
 62
     7
 10
198.9257470011
 20
176.4992911668
 30
0.0
 40
0.0999999999999943
 50
90.0
 51
180.0
  0
ARC
  5
A7
  8
0
  6
CONTINUOUS
 62
     7
 10
199.2257470011
 20
176.4992911668
 30
0.0
 40
0.1000000000000227
 50
0.0
 51
90.0
  0
ARC
  5
A8
  8
0
  6
CONTINUOUS
 62
     7
 10
199.8257470011
 20
168.4992911668
 30
0.0
 40
0.5
 50
180.0
 51
270.0
  0
ARC
  5
A9
  8
0
  6
CONTINUOUS
 62
     7
 10
200.3257470011
 20
168.4992911668
 30
0.0
 40
0.5
 50
270.0
 51
0.0
  0
ARC
  5
AA
  8
0
  6
CONTINUOUS
 62
     7
 10
200.9257470011
 20
176.4992911668
 30
0.0
 40
0.0999999999999943
 50
90.0
 51
180.0
  0
ARC
  5
AB
  8
0
  6
CONTINUOUS
 62
     7
 10
201.2257470011
 20
176.4992911668
 30
0.0
 40
0.1000000000000227
 50
0.0
 51
90.0
  0
ARC
  5
AC
  8
0
  6
CONTINUOUS
 62
     7
 10
201.8257470011
 20
168.4992911668
 30
0.0
 40
0.5
 50
180.0
 51
270.0
  0
ARC
  5
AD
  8
0
  6
CONTINUOUS
 62
     7
 10
202.3257470011
 20
168.4992911668
 30
0.0
 40
0.5
 50
270.0
 51
0.0
  0
ARC
  5
AE
  8
0
  6
CONTINUOUS
 62
     7
 10
202.9257470011
 20
176.4992911668
 30
0.0
 40
0.0999999999999943
 50
90.0
 51
180.0
  0
ARC
  5
AF
  8
0
  6
CONTINUOUS
 62
     7
 10
203.2257470011
 20
176.4992911668
 30
0.0
 40
0.1000000000000227
 50
0.0
 51
90.0
  0
ARC
  5
B0
  8
0
  6
CONTINUOUS
 62
     7
 10
203.8257470011
 20
168.4992911668
 30
0.0
 40
0.5
 50
180.0
 51
270.0
  0
ARC
  5
B1
  8
0
  6
CONTINUOUS
 62
     7
 10
204.3257470011
 20
168.4992911668
 30
0.0
 40
0.5
 50
270.0
 51
0.0
  0
ARC
  5
B2
  8
0
  6
CONTINUOUS
 62
     7
 10
204.9257470011
 20
176.4992911668
 30
0.0
 40
0.1000000000000227
 50
90.0
 51
180.0
  0
ARC
  5
B3
  8
0
  6
CONTINUOUS
 62
     7
 10
205.2257470011
 20
176.4992911668
 30
0.0
 40
0.0999999999999943
 50
0.0
 51
90.0
  0
ARC
  5
B4
  8
0
  6
CONTINUOUS
 62
     7
 10
205.8257470011
 20
168.4992911668
 30
0.0
 40
0.5
 50
180.0
 51
270.0
  0
ARC
  5
B5
  8
0
  6
CONTINUOUS
 62
     7
 10
206.3257470011
 20
168.4992911668
 30
0.0
 40
0.5
 50
270.0
 51
0.0
  0
ARC
  5
B6
  8
0
  6
CONTINUOUS
 62
     7
 10
206.9257470011
 20
176.4992911668
 30
0.0
 40
0.1000000000000227
 50
90.0
 51
180.0
  0
ARC
  5
B7
  8
0
  6
CONTINUOUS
 62
     7
 10
207.2257470011
 20
176.4992911668
 30
0.0
 40
0.0999999999999943
 50
0.0
 51
90.0
  0
ARC
  5
B8
  8
0
  6
CONTINUOUS
 62
     7
 10
207.8257470011
 20
168.4992911668
 30
0.0
 40
0.5
 50
180.0
 51
270.0
  0
ARC
  5
B9
  8
0
  6
CONTINUOUS
 62
     7
 10
208.3257470011
 20
168.4992911668
 30
0.0
 40
0.5
 50
270.0
 51
0.0
  0
ARC
  5
BA
  8
0
  6
CONTINUOUS
 62
     7
 10
208.9257470011
 20
176.4992911668
 30
0.0
 40
0.1000000000000227
 50
90.0
 51
180.0
  0
ARC
  5
BB
  8
0
  6
CONTINUOUS
 62
     7
 10
209.2257470011
 20
176.4992911668
 30
0.0
 40
0.0999999999999943
 50
0.0
 51
90.0
  0
LINE
  5
BC
  8
0
  6
CONTINUOUS
 62
     7
 10
174.3257470011
 20
164.9992911668
 30
0.0
 11
187.3257470011
 21
164.9992911668
 31
0.0
  0
LINE
  5
BD
  8
0
  6
CONTINUOUS
 62
     7
 10
174.3257470011
 20
165.7492911668
 30
0.0
 11
174.3257470011
 21
164.9992911668
 31
0.0
  0
LINE
  5
BE
  8
0
  6
CONTINUOUS
 62
     7
 10
168.8257470011
 20
166.2492911668
 30
0.0
 11
168.8257470011
 21
167.9992911668
 31
0.0
  0
LINE
  5
BF
  8
0
  6
CONTINUOUS
 62
     7
 10
174.8257470011
 20
176.4992911668
 30
0.0
 11
174.8257470011
 21
168.4992911668
 31
0.0
  0
LINE
  5
C0
  8
0
  6
CONTINUOUS
 62
     7
 10
174.9257470011
 20
176.5992911668
 30
0.0
 11
175.2257470011
 21
176.5992911668
 31
0.0
  0
LINE
  5
C1
  8
0
  6
CONTINUOUS
 62
     7
 10
175.3257470011
 20
168.4992911668
 30
0.0
 11
175.3257470011
 21
176.4992911668
 31
0.0
  0
LINE
  5
C2
  8
0
  6
CONTINUOUS
 62
     7
 10
175.8257470011
 20
167.9992911668
 30
0.0
 11
176.3257470011
 21
167.9992911668
 31
0.0
  0
LINE
  5
C3
  8
0
  6
CONTINUOUS
 62
     7
 10
176.8257470011
 20
176.4992911668
 30
0.0
 11
176.8257470011
 21
168.4992911668
 31
0.0
  0
LINE
  5
C4
  8
0
  6
CONTINUOUS
 62
     7
 10
176.9257470011
 20
176.5992911668
 30
0.0
 11
177.2257470011
 21
176.5992911668
 31
0.0
  0
LINE
  5
C5
  8
0
  6
CONTINUOUS
 62
     7
 10
177.3257470011
 20
168.4992911668
 30
0.0
 11
177.3257470011
 21
176.4992911668
 31
0.0
  0
LINE
  5
C6
  8
0
  6
CONTINUOUS
 62
     7
 10
177.8257470011
 20
167.9992911668
 30
0.0
 11
178.3257470011
 21
167.9992911668
 31
0.0
  0
LINE
  5
C7
  8
0
  6
CONTINUOUS
 62
     7
 10
178.8257470011
 20
176.4992911668
 30
0.0
 11
178.8257470011
 21
168.4992911668
 31
0.0
  0
LINE
  5
C8
  8
0
  6
CONTINUOUS
 62
     7
 10
178.9257470011
 20
176.5992911668
 30
0.0
 11
179.2257470011
 21
176.5992911668
 31
0.0
  0
LINE
  5
C9
  8
0
  6
CONTINUOUS
 62
     7
 10
179.3257470011
 20
168.4992911668
 30
0.0
 11
179.3257470011
 21
176.4992911668
 31
0.0
  0
LINE
  5
CA
  8
0
  6
CONTINUOUS
 62
     7
 10
179.8257470011
 20
167.9992911668
 30
0.0
 11
180.3257470011
 21
167.9992911668
 31
0.0
  0
LINE
  5
CB
  8
0
  6
CONTINUOUS
 62
     7
 10
180.8257470011
 20
176.4992911668
 30
0.0
 11
180.8257470011
 21
168.4992911668
 31
0.0
  0
LINE
  5
CC
  8
0
  6
CONTINUOUS
 62
     7
 10
180.9257470011
 20
176.5992911668
 30
0.0
 11
181.2257470011
 21
176.5992911668
 31
0.0
  0
LINE
  5
CD
  8
0
  6
CONTINUOUS
 62
     7
 10
181.3257470011
 20
168.4992911668
 30
0.0
 11
181.3257470011
 21
176.4992911668
 31
0.0
  0
LINE
  5
CE
  8
0
  6
CONTINUOUS
 62
     7
 10
181.8257470011
 20
167.9992911668
 30
0.0
 11
182.3257470011
 21
167.9992911668
 31
0.0
  0
LINE
  5
CF
  8
0
  6
CONTINUOUS
 62
     7
 10
182.8257470011
 20
176.4992911668
 30
0.0
 11
182.8257470011
 21
168.4992911668
 31
0.0
  0
LINE
  5
D0
  8
0
  6
CONTINUOUS
 62
     7
 10
182.9257470011
 20
176.5992911668
 30
0.0
 11
183.2257470011
 21
176.5992911668
 31
0.0
  0
LINE
  5
D1
  8
0
  6
CONTINUOUS
 62
     7
 10
183.3257470011
 20
168.4992911668
 30
0.0
 11
183.3257470011
 21
176.4992911668
 31
0.0
  0
LINE
  5
D2
  8
0
  6
CONTINUOUS
 62
     7
 10
183.8257470011
 20
167.9992911668
 30
0.0
 11
184.3257470011
 21
167.9992911668
 31
0.0
  0
LINE
  5
D3
  8
0
  6
CONTINUOUS
 62
     7
 10
184.8257470011
 20
176.4992911668
 30
0.0
 11
184.8257470011
 21
168.4992911668
 31
0.0
  0
LINE
  5
D4
  8
0
  6
CONTINUOUS
 62
     7
 10
184.9257470011
 20
176.5992911668
 30
0.0
 11
185.2257470011
 21
176.5992911668
 31
0.0
  0
LINE
  5
D5
  8
0
  6
CONTINUOUS
 62
     7
 10
185.3257470011
 20
168.4992911668
 30
0.0
 11
185.3257470011
 21
176.4992911668
 31
0.0
  0
LINE
  5
D6
  8
0
  6
CONTINUOUS
 62
     7
 10
185.8257470011
 20
167.9992911668
 30
0.0
 11
186.3257470011
 21
167.9992911668
 31
0.0
  0
LINE
  5
D7
  8
0
  6
CONTINUOUS
 62
     7
 10
186.8257470011
 20
176.4992911668
 30
0.0
 11
186.8257470011
 21
168.4992911668
 31
0.0
  0
LINE
  5
D8
  8
0
  6
CONTINUOUS
 62
     7
 10
186.9257470011
 20
176.5992911668
 30
0.0
 11
187.2257470011
 21
176.5992911668
 31
0.0
  0
LINE
  5
D9
  8
0
  6
CONTINUOUS
 62
     7
 10
187.3257470011
 20
168.4992911668
 30
0.0
 11
187.3257470011
 21
176.4992911668
 31
0.0
  0
LINE
  5
DA
  8
0
  6
CONTINUOUS
 62
     7
 10
187.8257470011
 20
167.9992911668
 30
0.0
 11
188.3257470011
 21
167.9992911668
 31
0.0
  0
LINE
  5
DB
  8
0
  6
CONTINUOUS
 62
     7
 10
188.8257470011
 20
176.4992911668
 30
0.0
 11
188.8257470011
 21
168.4992911668
 31
0.0
  0
LINE
  5
DC
  8
0
  6
CONTINUOUS
 62
     7
 10
188.9257470011
 20
176.5992911668
 30
0.0
 11
189.2257470011
 21
176.5992911668
 31
0.0
  0
LINE
  5
DD
  8
0
  6
CONTINUOUS
 62
     7
 10
189.3257470011
 20
168.4992911668
 30
0.0
 11
189.3257470011
 21
176.4992911668
 31
0.0
  0
LINE
  5
DE
  8
0
  6
CONTINUOUS
 62
     7
 10
189.8257470011
 20
167.9992911668
 30
0.0
 11
190.3257470011
 21
167.9992911668
 31
0.0
  0
LINE
  5
DF
  8
0
  6
CONTINUOUS
 62
     7
 10
190.8257470011
 20
176.4992911668
 30
0.0
 11
190.8257470011
 21
168.4992911668
 31
0.0
  0
LINE
  5
E0
  8
0
  6
CONTINUOUS
 62
     7
 10
190.9257470011
 20
176.5992911668
 30
0.0
 11
191.2257470011
 21
176.5992911668
 31
0.0
  0
LINE
  5
E1
  8
0
  6
CONTINUOUS
 62
     7
 10
191.3257470011
 20
168.4992911668
 30
0.0
 11
191.3257470011
 21
176.4992911668
 31
0.0
  0
LINE
  5
E2
  8
0
  6
CONTINUOUS
 62
     7
 10
191.8257470011
 20
167.9992911668
 30
0.0
 11
192.3257470011
 21
167.9992911668
 31
0.0
  0
LINE
  5
E3
  8
0
  6
CONTINUOUS
 62
     7
 10
192.8257470011
 20
176.4992911668
 30
0.0
 11
192.8257470011
 21
168.4992911668
 31
0.0
  0
LINE
  5
E4
  8
0
  6
CONTINUOUS
 62
     7
 10
192.9257470011
 20
176.5992911668
 30
0.0
 11
193.2257470011
 21
176.5992911668
 31
0.0
  0
LINE
  5
E5
  8
0
  6
CONTINUOUS
 62
     7
 10
193.3257470011
 20
168.4992911668
 30
0.0
 11
193.3257470011
 21
176.4992911668
 31
0.0
  0
LINE
  5
E6
  8
0
  6
CONTINUOUS
 62
     7
 10
193.8257470011
 20
167.9992911668
 30
0.0
 11
194.3257470011
 21
167.9992911668
 31
0.0
  0
LINE
  5
E7
  8
0
  6
CONTINUOUS
 62
     7
 10
194.8257470011
 20
176.4992911668
 30
0.0
 11
194.8257470011
 21
168.4992911668
 31
0.0
  0
LINE
  5
E8
  8
0
  6
CONTINUOUS
 62
     7
 10
194.9257470011
 20
176.5992911668
 30
0.0
 11
195.2257470011
 21
176.5992911668
 31
0.0
  0
LINE
  5
E9
  8
0
  6
CONTINUOUS
 62
     7
 10
195.3257470011
 20
168.4992911668
 30
0.0
 11
195.3257470011
 21
176.4992911668
 31
0.0
  0
LINE
  5
EA
  8
0
  6
CONTINUOUS
 62
     7
 10
195.8257470011
 20
167.9992911668
 30
0.0
 11
196.3257470011
 21
167.9992911668
 31
0.0
  0
LINE
  5
EB
  8
0
  6
CONTINUOUS
 62
     7
 10
196.8257470011
 20
176.4992911668
 30
0.0
 11
196.8257470011
 21
168.4992911668
 31
0.0
  0
LINE
  5
EC
  8
0
  6
CONTINUOUS
 62
     7
 10
196.9257470011
 20
176.5992911668
 30
0.0
 11
197.2257470011
 21
176.5992911668
 31
0.0
  0
LINE
  5
ED
  8
0
  6
CONTINUOUS
 62
     7
 10
197.3257470011
 20
168.4992911668
 30
0.0
 11
197.3257470011
 21
176.4992911668
 31
0.0
  0
LINE
  5
EE
  8
0
  6
CONTINUOUS
 62
     7
 10
197.8257470011
 20
167.9992911668
 30
0.0
 11
198.3257470011
 21
167.9992911668
 31
0.0
  0
LINE
  5
EF
  8
0
  6
CONTINUOUS
 62
     7
 10
198.8257470011
 20
176.4992911668
 30
0.0
 11
198.8257470011
 21
168.4992911668
 31
0.0
  0
LINE
  5
F0
  8
0
  6
CONTINUOUS
 62
     7
 10
198.9257470011
 20
176.5992911668
 30
0.0
 11
199.2257470011
 21
176.5992911668
 31
0.0
  0
LINE
  5
F1
  8
0
  6
CONTINUOUS
 62
     7
 10
199.3257470011
 20
168.4992911668
 30
0.0
 11
199.3257470011
 21
176.4992911668
 31
0.0
  0
LINE
  5
F2
  8
0
  6
CONTINUOUS
 62
     7
 10
199.8257470011
 20
167.9992911668
 30
0.0
 11
200.3257470011
 21
167.9992911668
 31
0.0
  0
LINE
  5
F3
  8
0
  6
CONTINUOUS
 62
     7
 10
200.8257470011
 20
176.4992911668
 30
0.0
 11
200.8257470011
 21
168.4992911668
 31
0.0
  0
LINE
  5
F4
  8
0
  6
CONTINUOUS
 62
     7
 10
200.9257470011
 20
176.5992911668
 30
0.0
 11
201.2257470011
 21
176.5992911668
 31
0.0
  0
LINE
  5
F5
  8
0
  6
CONTINUOUS
 62
     7
 10
201.3257470011
 20
168.4992911668
 30
0.0
 11
201.3257470011
 21
176.4992911668
 31
0.0
  0
LINE
  5
F6
  8
0
  6
CONTINUOUS
 62
     7
 10
201.8257470011
 20
167.9992911668
 30
0.0
 11
202.3257470011
 21
167.9992911668
 31
0.0
  0
LINE
  5
F7
  8
0
  6
CONTINUOUS
 62
     7
 10
202.8257470011
 20
176.4992911668
 30
0.0
 11
202.8257470011
 21
168.4992911668
 31
0.0
  0
LINE
  5
F8
  8
0
  6
CONTINUOUS
 62
     7
 10
202.9257470011
 20
176.5992911668
 30
0.0
 11
203.2257470011
 21
176.5992911668
 31
0.0
  0
LINE
  5
F9
  8
0
  6
CONTINUOUS
 62
     7
 10
203.3257470011
 20
168.4992911668
 30
0.0
 11
203.3257470011
 21
176.4992911668
 31
0.0
  0
LINE
  5
FA
  8
0
  6
CONTINUOUS
 62
     7
 10
203.8257470011
 20
167.9992911668
 30
0.0
 11
204.3257470011
 21
167.9992911668
 31
0.0
  0
LINE
  5
FB
  8
0
  6
CONTINUOUS
 62
     7
 10
204.8257470011
 20
176.4992911668
 30
0.0
 11
204.8257470011
 21
168.4992911668
 31
0.0
  0
LINE
  5
FC
  8
0
  6
CONTINUOUS
 62
     7
 10
204.9257470011
 20
176.5992911668
 30
0.0
 11
205.2257470011
 21
176.5992911668
 31
0.0
  0
LINE
  5
FD
  8
0
  6
CONTINUOUS
 62
     7
 10
205.3257470011
 20
168.4992911668
 30
0.0
 11
205.3257470011
 21
176.4992911668
 31
0.0
  0
LINE
  5
FE
  8
0
  6
CONTINUOUS
 62
     7
 10
205.8257470011
 20
167.9992911668
 30
0.0
 11
206.3257470011
 21
167.9992911668
 31
0.0
  0
LINE
  5
FF
  8
0
  6
CONTINUOUS
 62
     7
 10
206.8257470011
 20
176.4992911668
 30
0.0
 11
206.8257470011
 21
168.4992911668
 31
0.0
  0
LINE
  5
100
  8
0
  6
CONTINUOUS
 62
     7
 10
206.9257470011
 20
176.5992911668
 30
0.0
 11
207.2257470011
 21
176.5992911668
 31
0.0
  0
LINE
  5
101
  8
0
  6
CONTINUOUS
 62
     7
 10
207.3257470011
 20
168.4992911668
 30
0.0
 11
207.3257470011
 21
176.4992911668
 31
0.0
  0
LINE
  5
102
  8
0
  6
CONTINUOUS
 62
     7
 10
207.8257470011
 20
167.9992911668
 30
0.0
 11
208.3257470011
 21
167.9992911668
 31
0.0
  0
LINE
  5
103
  8
0
  6
CONTINUOUS
 62
     7
 10
208.8257470011
 20
176.4992911668
 30
0.0
 11
208.8257470011
 21
168.4992911668
 31
0.0
  0
LINE
  5
104
  8
0
  6
CONTINUOUS
 62
     7
 10
208.9257470011
 20
176.5992911668
 30
0.0
 11
209.2257470011
 21
176.5992911668
 31
0.0
  0
LINE
  5
105
  8
0
  6
CONTINUOUS
 62
     7
 10
209.3257470011
 20
168.4992911668
 30
0.0
 11
209.3257470011
 21
176.4992911668
 31
0.0
  0
LINE
  5
106
  8
0
  6
CONTINUOUS
 62
     7
 10
215.8257470011
 20
166.2492911668
 30
0.0
 11
215.8257470011
 21
167.9992911668
 31
0.0
  0
LINE
  5
107
  8
0
  6
CONTINUOUS
 62
     7
 10
201.8257470011
 20
165.7492911668
 30
0.0
 11
201.8257470011
 21
164.9992911668
 31
0.0
  0
LINE
  5
108
  8
0
  6
CONTINUOUS
 62
     7
 10
200.8257470011
 20
164.9992911668
 30
0.0
 11
201.8257470011
 21
164.9992911668
 31
0.0
  0
LINE
  5
109
  8
0
  6
CONTINUOUS
 62
     7
 10
187.8232407196
 20
165.4492911668
 30
0.0
 11
200.3282532825
 21
165.4492911668
 31
0.0
  0
LINE
  5
10A
  8
0
  6
CONTINUOUS
 62
     7
 10
168.8257470011
 20
166.2492911668
 30
0.0
 11
173.8257470011
 21
166.2492911668
 31
0.0
  0
LINE
  5
10B
  8
0
  6
CONTINUOUS
 62
     7
 10
168.8257470011
 20
167.9992911668
 30
0.0
 11
174.3257470011
 21
167.9992911668
 31
0.0
  0
LINE
  5
10C
  8
0
  6
CONTINUOUS
 62
     7
 10
215.8257470011
 20
167.9992911668
 30
0.0
 11
209.8257470011
 21
167.9992911668
 31
0.0
  0
LINE
  5
10D
  8
0
  6
CONTINUOUS
 62
     7
 10
215.8257470011
 20
166.2492911668
 30
0.0
 11
202.3257470011
 21
166.2492911668
 31
0.0
  0
TEXT
  5
10E
  8
0
  6
CONTINUOUS
 62
     7
 10
180.0417195886
 20
157.6400068531
 30
0.0
 40
3.5
  1
SCALE 1 : 1
 41
0.6045454545
 11
180.0417195886
 21
156.4035966364
 31
0.0
 73
     1
  0
ENDSEC
  0
EOF
