; Version : LOCAL
; Job     : \\Venus\job\SolidRun\hummingboard 2-v1.2\PCB\hummingboard 2-v1.2.pcb
; User    : EARTH:Itzik
; Date    : Thu Jun 25 13:49:20 2015
; Format  : 3.3 / Absolute / MM / Leading
; Contents: Thru / Drill / Plated
M48
METRIC,TZ
FMAT,2
ICI,OFF
T20C0.2032
T21C0.2540
T22C0.3048
T18C0.7874
T16C0.8890
T03C0.9200
T01C0.9906
T15C1.0000
T02C1.0160
T19C1.3970
T24C1.5000
T28C1.6000
T17C1.6510
T04C2.3000
T13C2.4000
T10C2.8500
T29C3.5000
T09C3.6000
%
M71
G90
G93X0Y0
T20
X84397Y4335
X7098Y10067
X7334Y8353
X27628Y7840
X35896Y12224
X34471Y12051
X33018Y12128
X31483Y12204
X28416Y12279
X7120Y10966
X4581Y13299
X6466Y14320
X8718Y14922
X25354Y14472
X31933Y14649
X34828Y14760
X85547Y13189
X86621Y15022
X94796Y13146
X88990Y16699
X87791Y15943
X71163Y16186
X36708Y17456
X11531Y16452
X9533Y17050
X7765Y16621
X6489Y17318
X6466Y15320
X6671Y18710
X8319Y19319
X8807Y18657
X9466Y19395
X15643Y18222
X17653Y20092
X17722Y19319
X18371Y19245
X18746Y19852
X19470Y19710
X23233Y19050
X26171Y18013
X37336Y19434
X58840Y18394
X66742Y18200
X67170Y19599
X67260Y20286
X75194Y19615
X75241Y20288
X84598Y19780
X90484Y19046
X91132Y20194
X94092Y20381
X91828Y22015
X90973Y20795
X90497Y20344
X84657Y21305
X84633Y20390
X84411Y22254
X75927Y21774
X66923Y21112
X66610Y20335
X46691Y21998
X37051Y21493
X36814Y22484
X21177Y21164
X19832Y20790
X19389Y21680
X19367Y20356
X16951Y21816
X10620Y22129
X6514Y21338
Y24338
X10480Y25004
X16825Y24232
X19057Y24064
X31238Y24620
X42075Y24610
X48444Y25025
X56525Y24187
X57064Y24564
X80848Y24542
X82663Y23523
X85020Y24904
X87027Y23690
X68937Y27242
X56718Y27825
X53780Y25492
X37713Y26136
X32717Y27830
X24338Y26369
X19132Y27172
X16787Y27209
X10285Y27823
X6514Y27338
X6574Y30329
X18648Y30204
X21844Y30454
X30387Y29696
X35843Y28751
X36000Y29989
X37114Y30422
X37140Y28437
X40554Y28674
X42692Y29172
X48329Y29030
X64373Y28462
X65349
X48435Y31681
X38592Y32018
X38551Y32724
X38308Y31453
X34678Y30537
X34672Y31411
X33801Y30534
X33749Y31356
X33637Y31994
X32937Y31399
X32819Y31994
X31899Y32241
X31334Y31560
X30311Y32283
X29120Y30797
X28318Y30558
X17932Y32902
X10352Y30774
X8523Y30494
X6494Y31355
X9669Y35126
X16043Y33888
X19243Y34577
X27784Y35189
X28769Y35203
X29439Y33117
X30023Y33176
X30877Y33295
X31017Y34952
X31042Y34271
X32134Y33567
X32449Y33056
X34816Y34280
X34842Y35045
X35048Y33150
X38457Y35438
X42015Y33117
X48573Y34595
X56588Y35088
X77605Y33178
X69202Y37257
X68612Y37917
X63498Y37487
X62769Y36783
X61952Y35954
X56620Y35825
X53688Y36699
X51000Y35601
X50251
X50093Y37756
X48566Y36284
Y37835
X42640Y36270
Y36869
X42612Y35646
X42564Y37921
X41914Y37329
X38742Y35979
X38280Y36766
X35291Y37842
X35179Y35900
X35166Y36713
X34797Y37493
X32376Y36795
X32127Y37526
X31294Y35866
X29047Y35957
X29034Y38027
X28061Y36940
X28026Y36208
X28003Y37669
X27316Y37129
X27005Y37680
X25516Y36450
X17081Y36501
X16795Y37771
X8190Y36019
X6212Y37288
X5296Y40532
X8134Y39583
X8553Y38754
X9853Y38210
X10916Y38595
X12725Y39398
X13164Y39803
X13791Y40593
X16795Y38971
X16982Y39939
X17239Y38589
X17243Y39373
X20217Y40516
X20235Y38157
X20320Y39199
X20896Y40621
X27302Y38701
X28301Y38673
X38301Y40620
X38321Y39275
X38506Y38389
X38548Y40036
X41750Y39183
X42307Y40580
X42939Y40614
X43077Y39801
X49873Y38575
X51708Y38943
X61524Y39410
X61567Y38624
X61954Y40198
X62778Y38433
X62906Y40225
X65675Y39614
X67260Y38959
X79545Y38667
X79441Y41853
X73582
X53691Y42225
Y42953
X52030Y41242
X48917Y42535
X48614Y41722
X42374Y41837
X42261Y42576
X41748Y41850
X41723Y40809
X38644Y43130
X38576Y42454
X38555Y41197
X38353Y41782
X35151Y42367
X34936Y42951
X34546Y40788
X34337Y42714
X33478Y42599
X31006Y40811
X30157Y41683
X30130Y40807
X29748Y42574
X29246Y41816
X27538Y40948
X27531Y41928
X20368Y41441
X17223Y43159
X17174Y42575
X17017Y40859
X16938Y41989
X13751Y41714
X13633Y43155
X12878Y42218
X12379Y41712
X12293Y42402
X12111Y40718
X7210Y41109
X4561Y42434
X3891Y43056
X4000Y43780
X4547Y43374
X8524Y44286
X9579Y44297
X10273Y43949
X12193Y43281
X13210Y44430
X13686Y45301
X13702Y44044
X13795Y44634
X16780Y45566
X16876Y43638
X16939Y44225
X17142Y45073
X20299Y43371
X20888Y44559
X33552Y44482
X34729Y45230
X35082Y44171
X41738Y43211
X41814Y44430
X48568Y44817
X48657Y43832
X49311Y44410
X51786Y43339
X52082Y45577
X52690Y45590
X53691Y44625
X58276Y44229
X59994Y44841
X60479Y44434
X60654Y45330
X61590Y45575
X67960Y43276
X72682Y44612
X75652
X87144Y45233
X87873Y45237
X87274Y47178
X86377Y47188
X82399Y46018
X81666Y47165
X75340Y47115
X60468Y45975
X48580Y46494
X42039Y46874
X38535Y47901
X38508Y46123
X38487Y47317
X38479Y46733
X35269Y45970
X34928Y46472
X34685Y45889
X32022Y47790
X22254Y48259
X20445Y46714
X20298Y48171
X17198Y48162
X17188Y47571
X17159Y46167
X13794Y46593
X13188Y45768
X13118Y46621
X9402Y46258
X8794
X7045Y47814
X6865Y46277
X9687Y49636
X10166Y49984
X10712Y49378
X12045Y49069
X12967Y49523
X13296Y50057
X13344Y50656
X13562Y49498
X13638Y48914
X16922Y50259
X17091Y48829
X20414Y49591
X20416Y50235
X21047Y48438
X21083Y49905
X21672Y48507
X22476Y49130
X22719Y50581
X23537Y50042
X31369Y49443
X31416Y48657
X31575Y50136
X31826Y49074
X32897Y49750
X33096Y48748
X33984Y49710
X42065Y50229
X42743Y50499
X43499Y50458
X46135Y49377
X48679Y49586
X49739Y50290
X50645Y50679
X51550Y50722
X52224Y49781
X56495Y49912
X56507Y50578
X56804Y49395
X57186Y50541
X57308Y48749
X60980Y48723
X61217Y49900
X61614Y49382
X61942Y49934
X82464Y49063
X91782Y48805
X95099Y51334
X74914Y52943
X73195Y53081
X60657Y51523
X60168Y51156
X60166Y51906
X54269Y53109
X54223Y52496
X50012Y51699
X49222Y51182
X48657Y51457
X46223Y52985
X45607Y50862
X44969Y50865
X44248
X43667Y51067
X38448Y51896
X37827Y52425
X36962Y52386
X36086Y52436
X34523Y52303
X33643Y52450
X31786Y52392
X30936Y52358
X30123Y52303
X27323
X26123
X23126Y51000
X21391Y50987
X20860Y51402
X20240Y51403
X20217Y52096
X16942Y51623
X16893Y50986
X16888Y52281
X13805Y51021
X10648Y50970
X10330Y52082
X9699Y52084
X6954Y51538
X4490Y52961
X3962Y53331
X4006Y53915
X4330Y54489
X6600Y55722
X9373Y53884
X9957Y54106
X10509Y54976
X10550Y54391
X10587Y55817
X11278Y54704
X20186Y55489
X21284Y55487
X22114Y55492
X23663Y55774
X27100Y54630
X29134Y54703
X29927Y54730
X30536Y54676
X31349Y54544
X32231Y54881
X33053Y54470
X33841Y54910
X34606Y54482
X35414Y54899
X36541Y54595
X54729Y53547
X54802Y54157
X55412Y53946
X56022Y54084
X56632Y54192
X73083Y54223
X74545Y54797
X85442Y56424
Y57046
X74192Y57205
X71293Y57114
X67705Y56512
X65678Y56545
X65211Y56949
X64561Y56976
X63925Y56941
X61456Y57291
X58439Y57435
X58014Y56861
X57381Y56849
X56908Y57345
X56374Y58411
X53091Y57281
X44142Y58265
X43606Y57562
X38470Y56877
X37563Y57765
X36323Y57139
X36064Y58021
X35248Y57739
X34530Y56952
X34344Y57853
X33717Y56943
X31312Y57375
X30917Y56943
X30350Y57203
X29728Y57630
X29266Y56942
X28793Y57388
X24848Y57110
X24822Y58088
X22844Y57074
X22311Y57703
X21487Y58046
X20754Y58037
X19255Y58333
X19102Y57749
X18170Y58324
X17015Y56061
X12654Y57639
X10922Y57450
X10046Y56102
X8575Y57623
X7762Y56821
X7733Y57538
X7023Y56819
X6530Y57349
X4561Y57307
X3953Y57291
X3644Y56648
X5308Y59912
X8534Y58827
X10546Y60731
X17807Y60458
X18448Y59219
X20244Y60953
X25226Y59978
X54605Y60185
X57216Y58424
X57624Y60346
X63407Y60120
X64026Y60142
X69023Y58494
X71863Y60925
X72293Y60128
X78491Y61568
X73621Y61416
X70771Y63150
X59847Y61507
X58554Y62137
X56178Y61529
X41996Y63082
X41893Y62101
X40649Y62043
X38103Y62292
X36976Y62906
X28750Y61221
X28711Y62814
X26212Y61830
X25017Y63403
X9833Y61203
X8021Y61207
X23048Y63827
X23049Y65104
X42036Y65362
X66329Y65162
X67348Y65586
X60190Y67663
X49953Y68338
X42584Y68308
X28122Y67024
X27259Y67330
X24989Y67462
X19558Y67356
X19365Y67940
X18927Y70450
X19343Y68793
X39709Y70637
X59493Y69486
X60449Y69545
X68841Y69149
X70473Y69095
X72243Y69049
X58607Y71311
X56737Y72252
X55920Y72249
X55249Y72209
X54436Y72186
X54071Y71379
T21
X93785Y1761
X88241Y1726
X79761Y1683
X73967Y1761
X66969Y1726
X59277
X51517Y1622
X43964Y1518
X31353Y1449
X17217Y1206
X10877Y1068
X8718Y1167
X13683Y4186
X27403Y3937
X34471Y4290
X84356Y3581
X95205Y5814
X87869Y6013
X83712
X76176
X70615
X65886Y6065
X60326
X50192Y5494
X43955Y5546
X6661Y5214
X1107Y6646
X2874Y9799
X8159Y8079
X52147Y9831
X54037Y10119
X62664Y9183
X69212Y8508
X73266Y8716
X93178Y9002
X50296Y10223
X43799Y10171
X22836Y12376
X15320Y11596
X10696Y11162
X8074Y11314
X1072Y13055
X22667Y13454
X94163Y14219
X96905Y13344
X98497Y17309
X91801Y15286
X90899Y15297
X82356Y17186
X75345Y15851
X75294Y17312
X24874Y17017
X17489Y16382
X15058Y17029
X14330Y17287
X9416Y16285
X2943Y16381
X20677Y20144
X41646Y20081
X63098Y18272
X64292Y18276
X70078Y19952
X71077Y20001
X72130
X75335Y18377
X82404Y18068
X85448Y19923
X86512Y19910
X87613Y19928
X87625Y20688
X86728Y20682
X85890Y20664
X79785Y22102
X79003Y22234
X72092Y20899
Y21915
X71143Y20886
X71119Y21958
X70107Y21904
X70090Y20886
X59619Y21169
X58797Y21542
X57882Y21751
X46557Y22806
X40051Y22463
X1141Y20643
X39816Y24721
X40656Y23110
X43246Y25180
X48876Y24259
X50234Y24478
X72085Y23583
X74595Y23664
X75820Y24703
X76836Y24712
X84260Y23917
X96972Y23730
X92074Y27766
X82514Y26680
X82502Y25705
X82029Y27704
X81377Y27432
X75215Y26647
X75206Y25636
X73212Y25509
X62622Y27054
X56931Y25850
X40720Y27207
X950Y27509
X3151Y29928
X48380Y29786
X50850Y28647
X53055Y28635
X53070Y29588
X56775Y30108
X62492Y27990
X63279Y28546
X94689Y32158
X56865Y31084
X48380Y30603
X28753Y32750
X24467Y32102
X1037Y32422
X3116Y35090
X10554Y35378
X38581Y33911
Y34746
X48617Y33778
X48753Y35425
X49858Y33547
X53420Y34547
X56600Y33425
X56661Y34225
X99009Y33169
X96438Y37972
X88712Y37391
X80098Y35839
X56615Y36627
X38491Y37630
X27374Y36246
X7273Y36107
X899Y37689
X3532Y38589
X68122Y39642
X73500Y39084
X98940Y42661
X88612Y41255
X71895Y42602
X3177Y41938
X7231Y43182
X8979Y43676
X50007Y45348
X81800Y45396
X82016Y44608
X83145Y45124
X86264Y44300
X91424Y45715
X93530Y47821
X80224Y47573
X77576Y46329
X71869Y46412
X53340Y47734
X53299Y46312
X74582Y49620
X83131Y49743
X84783Y49716
X87333Y50629
X91835Y49785
X98871Y49383
X83239Y52254
X77182Y51898
X70841Y52832
X50970Y51926
X50969Y52861
X59507Y53441
X62539
X84155Y54973
X94135Y55107
X97443Y54237
X98871Y58367
X6208Y60249
X74127Y63318
X71580Y63338
X58904Y61268
X55326Y61176
X53298Y63230
X50397Y62684
X47831Y63177
X43280Y62577
X25707Y61122
X23883Y63256
X23157Y62486
X23078Y61471
X45142Y65277
X46285Y65289
X58042Y65924
X70806Y64490
X80046Y64219
X83690Y64050
X87531Y64219
X94320Y67606
X74407Y67493
X70806Y66420
X56725Y68371
X55404Y68390
X53019Y69099
X55289Y69492
X55574Y70392
X57011Y70343
X76192Y69454
X80672Y69130
X85401
X89890Y69262
X94028Y69182
T22
X84401Y46928
Y47928
X83401Y46928
Y47928
T18
X10570Y71663
X8030
X5490
T16
X58035Y15430
X55495
X52955
X50415
X47875
X46605Y17970
X49145
X51685
X54225
X56765
T03
X75820Y11260
X73320
X71320
X68820
Y13880
X71320
X73320
X75820
X80170Y60050
X82670
X84670
X87170
Y62670
X84670
X82670
X80170
T01
X98049Y8820
Y11360
X83749Y11487
Y14027
X98298Y19812
Y22352
X98252Y24949
Y27489
X75392Y31557
X72852
T15
X12950Y66600
X12930Y71680
T02
X45995Y4000
X56105
X58645Y5702
X48535
X95712Y31557
X93172
X90632
X88092
X85552
X83012
X80472
X77932
X8336Y32188
Y34728
Y37268
X77932Y54417
X80472
X83012
X85552
X88092
X90632
X93172
X95712
X9657Y62592
X7117
X4577
X2037
Y65132
X4577
X7117
X9657
X12950Y64060
X15490
X18030
X30710
X33250
X35790
X38330
X40870
X43410
Y66600
X40870
X38330
X35790
X33250
X30710
X18030
X15490
X12930Y69140
X15470
X18010
X21844Y70866
X24384
X26924
X30710Y69140
X33250
X35790
X38330
X40870
X43410
Y71680
X40870
X38330
X35790
X33250
X30710
X18010
X15470
T19
X36957Y6096
X31877
X26797
X51140Y64920
X56220
X61300
T24
X72090Y36226
Y48977
T28
X71127Y30365
X52660Y52987
T17
X60207Y12229
X44433
T04
X65750Y8550
X78890
X65750Y14230
X78890
X77100Y59700
X90240
X77100Y65380
X90240
T13
X41560Y15730
X28261Y15530
X15260Y58430
T10
X4098Y2838
X97820Y4330
X16002Y5969
X2320Y68730
X97820
T29
X92910Y42987
T09
X92910Y42990
T00
M30
