<?xml version="1.0" encoding="UTF-8"?>
<svg xmlns="http://www.w3.org/2000/svg" xmlns:xlink="http://www.w3.org/1999/xlink" width="217pt" height="201pt" viewBox="0 0 217 201" version="1.1">
<g id="surface1">
<path style=" stroke:none;fill-rule:evenodd;fill:rgb(0%,0%,0%);fill-opacity:1;" d="M 13.242188 192.183594 C 13.242188 186.804688 5.175781 186.804688 5.175781 192.183594 C 5.175781 197.558594 13.242188 197.558594 13.242188 192.183594 "/>
<path style=" stroke:none;fill-rule:evenodd;fill:rgb(0%,0%,0%);fill-opacity:1;" d="M 54.34375 192.183594 C 54.34375 186.804688 46.277344 186.804688 46.277344 192.183594 C 46.277344 197.558594 54.34375 197.558594 54.34375 192.183594 "/>
<path style=" stroke:none;fill-rule:evenodd;fill:rgb(0%,0%,0%);fill-opacity:1;" d="M 12.953125 175.289062 C 12.953125 170.296875 5.464844 170.296875 5.464844 175.289062 C 5.464844 180.28125 12.953125 180.28125 12.953125 175.289062 "/>
<path style=" stroke:none;fill-rule:evenodd;fill:rgb(0%,0%,0%);fill-opacity:1;" d="M 54.054688 175.289062 C 54.054688 170.296875 46.566406 170.296875 46.566406 175.289062 C 46.566406 180.28125 54.054688 180.28125 54.054688 175.289062 "/>
<path style=" stroke:none;fill-rule:evenodd;fill:rgb(0%,0%,0%);fill-opacity:1;" d="M 134.535156 24.480469 C 134.535156 18.335938 125.320312 18.335938 125.320312 24.480469 C 125.320312 30.625 134.535156 30.625 134.535156 24.480469 "/>
<path style=" stroke:none;fill-rule:evenodd;fill:rgb(0%,0%,0%);fill-opacity:1;" d="M 118.945312 24.480469 C 118.945312 18.335938 109.730469 18.335938 109.730469 24.480469 C 109.730469 30.625 118.945312 30.625 118.945312 24.480469 "/>
<path style=" stroke:none;fill-rule:evenodd;fill:rgb(0%,0%,0%);fill-opacity:1;" d="M 90.683594 24.480469 C 90.683594 18.335938 81.46875 18.335938 81.46875 24.480469 C 81.46875 30.625 90.683594 30.625 90.683594 24.480469 "/>
<path style=" stroke:none;fill-rule:evenodd;fill:rgb(0%,0%,0%);fill-opacity:1;" d="M 75.09375 24.480469 C 75.09375 18.335938 65.878906 18.335938 65.878906 24.480469 C 65.878906 30.625 75.09375 30.625 75.09375 24.480469 "/>
<path style=" stroke:none;fill-rule:evenodd;fill:rgb(0%,0%,0%);fill-opacity:1;" d="M 122.488281 9.457031 C 122.488281 3.3125 113.273438 3.3125 113.273438 9.457031 C 113.273438 15.601562 122.488281 15.601562 122.488281 9.457031 "/>
<path style=" stroke:none;fill-rule:evenodd;fill:rgb(0%,0%,0%);fill-opacity:1;" d="M 78.636719 9.457031 C 78.636719 3.3125 69.421875 3.3125 69.421875 9.457031 C 69.421875 15.601562 78.636719 15.601562 78.636719 9.457031 "/>
<path style=" stroke:none;fill-rule:evenodd;fill:rgb(0%,0%,0%);fill-opacity:1;" d="M 212.167969 172.59375 C 212.167969 169.519531 207.5625 169.519531 207.5625 172.59375 C 207.5625 175.664062 212.167969 175.664062 212.167969 172.59375 "/>
<path style=" stroke:none;fill-rule:evenodd;fill:rgb(0%,0%,0%);fill-opacity:1;" d="M 199.132812 181.097656 C 199.132812 177.640625 193.949219 177.640625 193.949219 181.097656 C 193.949219 184.550781 199.132812 184.550781 199.132812 181.097656 "/>
<path style=" stroke:none;fill-rule:evenodd;fill:rgb(0%,0%,0%);fill-opacity:1;" d="M 199.421875 164.089844 C 199.421875 160.246094 193.660156 160.246094 193.660156 164.089844 C 193.660156 167.929688 199.421875 167.929688 199.421875 164.089844 "/>
</g>
</svg>
