<?xml version="1.0" encoding="UTF-8"?>
<svg xmlns="http://www.w3.org/2000/svg" xmlns:xlink="http://www.w3.org/1999/xlink" width="190pt" height="208pt" viewBox="0 0 190 208" version="1.1">
<g id="surface1">
<path style=" stroke:none;fill-rule:evenodd;fill:rgb(0%,0%,0%);fill-opacity:1;" d="M 53.546875 201.609375 C 53.546875 199.71875 50.714844 199.71875 50.714844 201.609375 C 50.714844 203.5 53.546875 203.5 53.546875 201.609375 "/>
<path style=" stroke:none;fill-rule:evenodd;fill:rgb(0%,0%,0%);fill-opacity:1;" d="M 30.871094 201.609375 C 30.871094 199.71875 28.035156 199.71875 28.035156 201.609375 C 28.035156 203.5 30.871094 203.5 30.871094 201.609375 "/>
<path style=" stroke:none;fill-rule:evenodd;fill:rgb(0%,0%,0%);fill-opacity:1;" d="M 142.203125 26.863281 C 142.203125 24.972656 139.371094 24.972656 139.371094 26.863281 C 139.371094 28.753906 142.203125 28.753906 142.203125 26.863281 "/>
<path style=" stroke:none;fill-rule:evenodd;fill:rgb(0%,0%,0%);fill-opacity:1;" d="M 186.054688 26.863281 C 186.054688 24.972656 183.222656 24.972656 183.222656 26.863281 C 183.222656 28.753906 186.054688 28.753906 186.054688 26.863281 "/>
<path style=" stroke:none;fill-rule:evenodd;fill:rgb(0%,0%,0%);fill-opacity:1;" d="M 186.054688 5.601562 C 186.054688 3.710938 183.222656 3.710938 183.222656 5.601562 C 183.222656 7.492188 186.054688 7.492188 186.054688 5.601562 "/>
<path style=" stroke:none;fill-rule:evenodd;fill:rgb(0%,0%,0%);fill-opacity:1;" d="M 142.203125 5.601562 C 142.203125 3.710938 139.371094 3.710938 139.371094 5.601562 C 139.371094 7.492188 142.203125 7.492188 142.203125 5.601562 "/>
<path style=" stroke:none;fill-rule:evenodd;fill:rgb(0%,0%,0%);fill-opacity:1;" d="M 147.832031 141.625 C 147.832031 139.542969 144.714844 139.542969 144.714844 141.625 C 144.714844 143.703125 147.832031 143.703125 147.832031 141.625 "/>
<path style=" stroke:none;fill-rule:evenodd;fill:rgb(0%,0%,0%);fill-opacity:1;" d="M 152.4375 114.800781 C 152.4375 112.722656 149.320312 112.722656 149.320312 114.800781 C 149.320312 116.878906 152.4375 116.878906 152.4375 114.800781 "/>
<path style=" stroke:none;fill-rule:evenodd;fill:rgb(0%,0%,0%);fill-opacity:1;" d="M 170.769531 77.445312 C 170.769531 75.367188 167.652344 75.367188 167.652344 77.445312 C 167.652344 79.527344 170.769531 79.527344 170.769531 77.445312 "/>
<path style=" stroke:none;fill-rule:evenodd;fill:rgb(0%,0%,0%);fill-opacity:1;" d="M 148.539062 70.757812 C 148.539062 67.734375 144.003906 67.734375 144.003906 70.757812 C 144.003906 73.78125 148.539062 73.78125 148.539062 70.757812 "/>
<path style=" stroke:none;fill-rule:evenodd;fill:rgb(0%,0%,0%);fill-opacity:1;" d="M 138.390625 182.570312 C 138.390625 176.332031 129.039062 176.332031 129.039062 182.570312 C 129.039062 188.804688 138.390625 188.804688 138.390625 182.570312 "/>
<path style=" stroke:none;fill-rule:evenodd;fill:rgb(0%,0%,0%);fill-opacity:1;" d="M 170.792969 182.570312 C 170.792969 176.332031 161.4375 176.332031 161.4375 182.570312 C 161.4375 188.804688 170.792969 188.804688 170.792969 182.570312 "/>
<path style=" stroke:none;fill-rule:evenodd;fill:rgb(0%,0%,0%);fill-opacity:1;" d="M 15.3125 140.488281 C 15.3125 133.308594 4.539062 133.308594 4.539062 140.488281 C 4.539062 147.671875 15.3125 147.671875 15.3125 140.488281 "/>
<path style=" stroke:none;fill-rule:evenodd;fill:rgb(0%,0%,0%);fill-opacity:1;" d="M 83.769531 140.488281 C 83.769531 133.308594 72.996094 133.308594 72.996094 140.488281 C 72.996094 147.671875 83.769531 147.671875 83.769531 140.488281 "/>
<path style=" stroke:none;fill-rule:evenodd;fill:rgb(0%,0%,0%);fill-opacity:1;" d="M 83.769531 71.890625 C 83.769531 64.710938 72.996094 64.710938 72.996094 71.890625 C 72.996094 79.070312 83.769531 79.070312 83.769531 71.890625 "/>
<path style=" stroke:none;fill-rule:evenodd;fill:rgb(0%,0%,0%);fill-opacity:1;" d="M 15.3125 71.890625 C 15.3125 64.710938 4.539062 64.710938 4.539062 71.890625 C 4.539062 79.070312 15.3125 79.070312 15.3125 71.890625 "/>
</g>
</svg>
