  0
SECTION
  2
HEADER
  9
$ACADVER
  1
AC1009
  9
$DWGCODEPAGE
  3
ansi_1252
  9
$INSBASE
 10
0.0
 20
0.0
 30
0.0
  9
$EXTMIN
 10
0.0
 20
0.0
 30
0.0
  9
$EXTMAX
 10
420.0
 20
297.0
 30
0.0
  9
$LIMMIN
 10
0.0
 20
0.0
  9
$LIMMAX
 10
420.0
 20
297.0
  9
$ORTHOMODE
 70
     0
  9
$REGENMODE
 70
     1
  9
$FILLMODE
 70
     1
  9
$QTEXTMODE
 70
     0
  9
$MIRRTEXT
 70
     1
  9
$DRAGMODE
 70
     2
  9
$LTSCALE
 40
1.0
  9
$OSMODE
 70
    37
  9
$ATTMODE
 70
     1
  9
$TEXTSIZE
 40
3.5
  9
$TRACEWID
 40
1.0
  9
$TEXTSTYLE
  7
STANDARD
  9
$CLAYER
  8
0
  9
$CELTYPE
  6
BYLAYER
  9
$CECOLOR
 62
   256
  9
$DIMSCALE
 40
1.0
  9
$DIMASZ
 40
3.302
  9
$DIMEXO
 40
1.0
  9
$DIMDLI
 40
3.75
  9
$DIMRND
 40
0.0
  9
$DIMDLE
 40
0.0
  9
$DIMEXE
 40
1.0
  9
$DIMTP
 40
0.0
  9
$DIMTM
 40
0.0
  9
$DIMTXT
 40
3.5
  9
$DIMCEN
 40
2.5
  9
$DIMTSZ
 40
0.0
  9
$DIMTOL
 70
     0
  9
$DIMLIM
 70
     0
  9
$DIMTIH
 70
     1
  9
$DIMTOH
 70
     1
  9
$DIMSE1
 70
     0
  9
$DIMSE2
 70
     0
  9
$DIMTAD
 70
     1
  9
$DIMZIN
 70
     0
  9
$DIMBLK
  1

  9
$DIMASO
 70
     1
  9
$DIMSHO
 70
     1
  9
$DIMPOST
  1

  9
$DIMAPOST
  1

  9
$DIMALT
 70
     0
  9
$DIMALTD
 70
     3
  9
$DIMALTF
 40
0.0393700787
  9
$DIMLFAC
 40
1.0
  9
$DIMTOFL
 70
     1
  9
$DIMTVP
 40
0.0
  9
$DIMTIX
 70
     0
  9
$DIMSOXD
 70
     0
  9
$DIMSAH
 70
     0
  9
$DIMBLK1
  1

  9
$DIMBLK2
  1

  9
$DIMSTYLE
  2
ISO-25
  9
$DIMCLRD
 70
     0
  9
$DIMCLRE
 70
     0
  9
$DIMCLRT
 70
     0
  9
$DIMTFAC
 40
1.0
  9
$DIMGAP
 40
1.524
  9
$LUNITS
 70
     2
  9
$LUPREC
 70
     2
  9
$SKETCHINC
 40
1.0
  9
$FILLETRAD
 40
10.0
  9
$AUNITS
 70
     0
  9
$AUPREC
 70
     2
  9
$MENU
  1
.
  9
$ELEVATION
 40
0.0
  9
$PELEVATION
 40
0.0
  9
$THICKNESS
 40
0.0
  9
$LIMCHECK
 70
     0
  9
$CHAMFERA
 40
0.0
  9
$CHAMFERB
 40
0.0
  9
$SKPOLY
 70
     0
  9
$TDCREATE
 40
2457867.641676643
  9
$TDUPDATE
 40
2457867.641677315
  9
$TDINDWG
 40
0.0000000116
  9
$TDUSRTIMER
 40
0.0000000116
  9
$USRTIMER
 70
     1
  9
$ANGBASE
 50
0.0
  9
$ANGDIR
 70
     0
  9
$PDMODE
 70
     0
  9
$PDSIZE
 40
-1.0
  9
$PLINEWID
 40
0.0
  9
$COORDS
 70
     1
  9
$SPLFRAME
 70
     0
  9
$SPLINETYPE
 70
     6
  9
$SPLINESEGS
 70
     8
  9
$ATTDIA
 70
     0
  9
$ATTREQ
 70
     1
  9
$HANDLING
 70
     1
  9
$HANDSEED
  5
234
  9
$SURFTAB1
 70
     6
  9
$SURFTAB2
 70
     6
  9
$SURFTYPE
 70
     6
  9
$SURFU
 70
     6
  9
$SURFV
 70
     6
  9
$UCSNAME
  2

  9
$UCSORG
 10
0.0
 20
0.0
 30
0.0
  9
$UCSXDIR
 10
1.0
 20
0.0
 30
0.0
  9
$UCSYDIR
 10
0.0
 20
1.0
 30
0.0
  9
$PUCSNAME
  2

  9
$PUCSORG
 10
0.0
 20
0.0
 30
0.0
  9
$PUCSXDIR
 10
1.0
 20
0.0
 30
0.0
  9
$PUCSYDIR
 10
0.0
 20
1.0
 30
0.0
  9
$USERI1
 70
     0
  9
$USERI2
 70
     0
  9
$USERI3
 70
     0
  9
$USERI4
 70
     0
  9
$USERI5
 70
     0
  9
$USERR1
 40
0.0
  9
$USERR2
 40
0.0
  9
$USERR3
 40
0.0
  9
$USERR4
 40
0.0
  9
$USERR5
 40
0.0
  9
$WORLDVIEW
 70
     1
  9
$SHADEDGE
 70
     3
  9
$SHADEDIF
 70
    70
  9
$TILEMODE
 70
     1
  9
$MAXACTVP
 70
    64
  9
$PLIMCHECK
 70
     0
  9
$PEXTMIN
 10
1.0000000000E+20
 20
1.0000000000E+20
 30
1.0000000000E+20
  9
$PEXTMAX
 10
-1.0000000000E+20
 20
-1.0000000000E+20
 30
-1.0000000000E+20
  9
$PLIMMIN
 10
0.0
 20
0.0
  9
$PLIMMAX
 10
420.0
 20
297.0
  9
$UNITMODE
 70
     0
  9
$VISRETAIN
 70
     1
  9
$PLINEGEN
 70
     0
  9
$PSLTSCALE
 70
     1
  0
ENDSEC
  0
SECTION
  2
TABLES
  0
TABLE
  2
VPORT
 70
     1
  0
VPORT
  2
*ACTIVE
 70
     0
 10
0.0
 20
0.0
 11
1.0
 21
1.0
 12
210.0
 22
148.5
 13
0.0
 23
0.0
 14
10.0
 24
10.0
 15
10.0
 25
10.0
 16
0.0
 26
0.0
 36
1.0
 17
0.0
 27
0.0
 37
0.0
 40
297.0
 41
1.4141414141
 42
50.0
 43
0.0
 44
0.0
 50
0.0
 51
0.0
 71
     0
 72
  2000
 73
     1
 74
     3
 75
     0
 76
     0
 77
     0
 78
     0
  0
ENDTAB
  0
TABLE
  2
LTYPE
 70
     6
  0
LTYPE
  2
CONTINUOUS
 70
     0
  3
Solid line
 72
    65
 73
     0
 40
0.0
  0
LTYPE
  2
HIDDEN
 70
     0
  3
Hidden __ __ __ __ __ __ __ __ __ __ __ __ __ __
 72
    65
 73
     2
 40
1.905
 49
1.27
 49
-0.635
  0
LTYPE
  2
PHANTOM
 70
     0
  3
Phantom ______  __  __  ______  __  __  ______
 72
    65
 73
     6
 40
12.7
 49
6.35
 49
-1.27
 49
1.27
 49
-1.27
 49
1.27
 49
-1.27
  0
LTYPE
  2
CENTER
 70
     0
  3
Center ____ _ ____ _ ____ _ ____ _ ____ _ ____
 72
    65
 73
     4
 40
10.16
 49
6.35
 49
-1.27
 49
1.27
 49
-1.27
  0
LTYPE
  2
CENTERX2
 70
     0
  3
Center (2x) ________  __  ________  __  _____
 72
    65
 73
     4
 40
20.32
 49
12.7
 49
-2.54
 49
2.54
 49
-2.54
  0
LTYPE
  2
DOT2
 70
     0
  3
Dot (.5x) ........................................
 72
    65
 73
     2
 40
0.635
 49
0.0
 49
-0.635
  0
ENDTAB
  0
TABLE
  2
LAYER
 70
     2
  0
LAYER
  2
0
 70
     0
 62
     7
  6
CONTINUOUS
  0
LAYER
  2
FORMAT
 70
     0
 62
     7
  6
CONTINUOUS
  0
ENDTAB
  0
TABLE
  2
STYLE
 70
     1
  0
STYLE
  2
STANDARD
 70
     0
 40
0.0
 41
1.0
 50
0.0
 71
     0
 42
3.5
  3
txt
  4

  0
ENDTAB
  0
TABLE
  2
VIEW
 70
     0
  0
ENDTAB
  0
TABLE
  2
UCS
 70
     0
  0
ENDTAB
  0
TABLE
  2
APPID
 70
     1
  0
APPID
  2
ACAD
 70
     0
  0
ENDTAB
  0
TABLE
  2
DIMSTYLE
 70
     1
  0
DIMSTYLE
  2
ISO-25
 70
     0
  3

  4

  5

  6

  7

 40
1.0
 41
2.5
 42
0.625
 43
3.75
 44
1.25
 45
0.0
 46
0.0
 47
0.0
 48
0.0
140
2.5
141
2.5
142
0.0
143
0.0393700787
144
1.0
145
0.0
146
1.0
147
0.625
 71
     0
 72
     0
 73
     0
 74
     0
 75
     0
 76
     0
 77
     1
 78
     8
170
     0
171
     3
172
     1
173
     0
174
     0
175
     0
176
     0
177
     0
178
     0
  0
ENDTAB
  0
ENDSEC
  0
SECTION
  2
BLOCKS
  0
BLOCK
  8
0
  2
$MODEL_SPACE
 70
     0
 10
0.0
 20
0.0
 30
0.0
  3
$MODEL_SPACE
  1

  0
ENDBLK
  5
21
  8
0
  0
BLOCK
 67
     1
  8
0
  2
$PAPER_SPACE
 70
     0
 10
0.0
 20
0.0
 30
0.0
  3
$PAPER_SPACE
  1

  0
ENDBLK
  5
1D
 67
     1
  8
0
  0
ENDSEC
  0
SECTION
  2
ENTITIES
  0
ARC
  5
70
  8
0
  6
CONTINUOUS
 62
     7
 10
191.9561613958
 20
-135.5278500525
 30
0.0
 40
315.1885962264038
 50
80.9970049725
 51
82.7420641506
  0
LINE
  5
71
  8
0
  6
CONTINUOUS
 62
     7
 10
152.1363806587
 20
177.1352854593
 30
0.0
 11
231.775942133
 21
177.1352854593
 31
0.0
  0
ARC
  5
72
  8
0
  6
CONTINUOUS
 62
     7
 10
191.9561613958
 20
-135.5278500525
 30
0.0
 40
315.1885962264014
 50
97.2579358494
 51
99.0029950275
  0
ARC
  5
73
  8
0
  6
CONTINUOUS
 62
     7
 10
144.6991454346
 20
162.7402955703
 30
0.0
 40
13.20000000000181
 50
99.0029950275
 51
180.0
  0
LINE
  5
74
  8
0
  6
CONTINUOUS
 62
     7
 10
131.4991441231
 20
162.7402955236
 30
0.0
 11
131.4991441231
 21
156.3314846753
 31
0.0
  0
LINE
  5
75
  8
0
  6
CONTINUOUS
 62
     7
 10
131.1728496712
 20
156.2565234525
 30
0.0
 11
131.4991441231
 21
156.3314846753
 31
0.0
  0
ARC
  5
76
  8
0
  6
CONTINUOUS
 62
     7
 10
144.6991454349
 20
162.74029557
 30
0.0
 40
15.00000000000001
 50
203.4756170239
 51
205.6105295488
  0
LINE
  5
77
  8
0
  6
CONTINUOUS
 62
     7
 10
131.3548897069
 20
157.0674781723
 30
0.0
 11
130.9407007557
 21
156.7649138196
 31
0.0
  0
LINE
  5
78
  8
0
  6
CONTINUOUS
 62
     7
 10
131.167239384
 20
157.5309294312
 30
0.0
 11
131.3548897069
 21
157.0674781723
 31
0.0
  0
LINE
  5
79
  8
0
  6
CONTINUOUS
 62
     7
 10
130.659221546
 20
157.4600902422
 30
0.0
 11
131.167239384
 21
157.5309294312
 31
0.0
  0
ARC
  5
7A
  8
0
  6
CONTINUOUS
 62
     7
 10
144.6991454349
 20
162.74029557
 30
0.0
 40
15.00000000000002
 50
198.4756170239
 51
200.6105295488
  0
LINE
  5
7B
  8
0
  6
CONTINUOUS
 62
     7
 10
130.9112523359
 20
158.2520934789
 30
0.0
 11
130.4722678524
 21
157.9867801665
 31
0.0
  0
LINE
  5
7C
  8
0
  6
CONTINUOUS
 62
     7
 10
130.7647068661
 20
158.7301357685
 30
0.0
 11
130.9112523359
 21
158.2520934789
 31
0.0
  0
LINE
  5
7D
  8
0
  6
CONTINUOUS
 62
     7
 10
130.2524496477
 20
158.7038431352
 30
0.0
 11
130.7647068661
 21
158.7301357685
 31
0.0
  0
ARC
  5
7E
  8
0
  6
CONTINUOUS
 62
     7
 10
144.6991454349
 20
162.74029557
 30
0.0
 40
15.0
 50
193.4756170239
 51
195.6105295488
  0
LINE
  5
7F
  8
0
  6
CONTINUOUS
 62
     7
 10
130.5725452166
 20
159.4708664378
 30
0.0
 11
130.1121067863
 21
159.2448223418
 31
0.0
  0
LINE
  5
80
  8
0
  6
CONTINUOUS
 62
     7
 10
130.4682221871
 20
159.9598620123
 30
0.0
 11
130.5725452166
 21
159.4708664378
 31
0.0
  0
LINE
  5
81
  8
0
  6
CONTINUOUS
 62
     7
 10
129.955622242
 20
159.9783157034
 30
0.0
 11
130.4682221871
 21
159.9598620123
 31
0.0
  0
ARC
  5
82
  8
0
  6
CONTINUOUS
 62
     7
 10
144.6991454349
 20
162.74029557
 30
0.0
 40
15.00000000000002
 50
188.4756170239
 51
190.6105295488
  0
LINE
  5
83
  8
0
  6
CONTINUOUS
 62
     7
 10
130.3413499754
 20
160.7145220077
 30
0.0
 11
129.8629668217
 21
160.5294677465
 31
0.0
  0
LINE
  5
84
  8
0
  6
CONTINUOUS
 62
     7
 10
130.280042873
 20
161.2107488362
 30
0.0
 11
130.3413499754
 21
160.7145220077
 31
0.0
  0
LINE
  5
85
  8
0
  6
CONTINUOUS
 62
     7
 10
129.7710043054
 20
161.2738086878
 30
0.0
 11
130.280042873
 21
161.2107488362
 31
0.0
  0
ARC
  5
86
  8
0
  6
CONTINUOUS
 62
     7
 10
144.6991454349
 20
162.74029557
 30
0.0
 40
15.00000000000001
 50
183.4756170239
 51
185.6105295488
  0
LINE
  5
87
  8
0
  6
CONTINUOUS
 62
     7
 10
130.2194286745
 20
161.9735946914
 30
0.0
 11
129.7267366808
 21
161.8309388904
 31
0.0
  0
LINE
  5
88
  8
0
  6
CONTINUOUS
 62
     7
 10
130.2016031604
 20
162.4732769596
 30
0.0
 11
130.2194286745
 21
161.9735946914
 31
0.0
  0
LINE
  5
89
  8
0
  6
CONTINUOUS
 62
     7
 10
129.6999965471
 20
162.580462409
 30
0.0
 11
130.2016031604
 21
162.4732769596
 31
0.0
  0
ARC
  5
8A
  8
0
  6
CONTINUOUS
 62
     7
 10
144.6991454349
 20
162.74029557
 30
0.0
 40
15.00000000000001
 50
178.4756170239
 51
180.6105295488
  0
LINE
  5
8B
  8
0
  6
CONTINUOUS
 62
     7
 10
130.207705186
 20
163.2385025768
 30
0.0
 11
129.7044557195
 21
163.1393309253
 31
0.0
  0
LINE
  5
8C
  8
0
  6
CONTINUOUS
 62
     7
 10
130.233499096
 20
163.7378369959
 30
0.0
 11
130.207705186
 21
163.2385025768
 31
0.0
  0
LINE
  5
8D
  8
0
  6
CONTINUOUS
 62
     7
 10
129.7431428593
 20
163.8883324376
 30
0.0
 11
130.233499096
 21
163.7378369959
 31
0.0
  0
ARC
  5
8E
  8
0
  6
CONTINUOUS
 62
     7
 10
144.6991454349
 20
162.74029557
 30
0.0
 40
15.00000000000001
 50
173.4756170239
 51
175.6105295488
  0
LINE
  5
8F
  8
0
  6
CONTINUOUS
 62
     7
 10
130.306272642
 20
164.4996189315
 30
0.0
 11
129.796291576
 21
164.4446860336
 31
0.0
  0
LINE
  5
90
  8
0
  6
CONTINUOUS
 62
     7
 10
130.3754885357
 20
164.9948051235
 30
0.0
 11
130.306272642
 21
164.4996189315
 31
0.0
  0
LINE
  5
91
  8
0
  6
CONTINUOUS
 62
     7
 10
129.9001116913
 20
165.1874653798
 30
0.0
 11
130.3754885357
 21
164.9948051235
 31
0.0
  0
ARC
  5
92
  8
0
  6
CONTINUOUS
 62
     7
 10
144.6991454349
 20
162.74029557
 30
0.0
 40
15.00000000000002
 50
168.4756170239
 51
170.6105295488
  0
LINE
  5
93
  8
0
  6
CONTINUOUS
 62
     7
 10
130.5143785339
 20
165.7473456616
 30
0.0
 11
130.0015476208
 21
165.7370696229
 31
0.0
  0
LINE
  5
94
  8
0
  6
CONTINUOUS
 62
     7
 10
130.6264874202
 20
166.2346151024
 30
0.0
 11
130.5143785339
 21
165.7473456616
 31
0.0
  0
LINE
  5
95
  8
0
  6
CONTINUOUS
 62
     7
 10
130.1697109502
 20
166.4679737914
 30
0.0
 11
130.6264874202
 21
166.2346151024
 31
0.0
  0
ARC
  5
96
  8
0
  6
CONTINUOUS
 62
     7
 10
144.6991454349
 20
162.74029557
 30
0.0
 40
15.00000000000001
 50
163.4756170239
 51
165.6105295488
  0
LINE
  5
97
  8
0
  6
CONTINUOUS
 62
     7
 10
130.8304358881
 20
166.9721869438
 30
0.0
 11
130.3186629575
 21
167.0066459373
 31
0.0
  0
LINE
  5
98
  8
0
  6
CONTINUOUS
 62
     7
 10
130.9845884007
 20
167.4478312524
 30
0.0
 11
130.8304358881
 21
166.9721869438
 31
0.0
  0
LINE
  5
99
  8
0
  6
CONTINUOUS
 62
     7
 10
130.5498917263
 20
167.7201123711
 30
0.0
 11
130.9845884007
 21
167.4478312524
 31
0.0
  0
ARC
  5
9A
  8
0
  6
CONTINUOUS
 62
     7
 10
144.6991454349
 20
162.74029557
 30
0.0
 40
15.00000000000002
 50
158.4756170239
 51
160.6105295488
  0
LINE
  5
9B
  8
0
  6
CONTINUOUS
 62
     7
 10
131.2520456176
 20
168.164820996
 30
0.0
 11
130.7452235978
 21
168.243752796
 31
0.0
  0
LINE
  5
9C
  8
0
  6
CONTINUOUS
 62
     7
 10
131.4470645648
 20
168.6252201943
 30
0.0
 11
131.2520456176
 21
168.164820996
 31
0.0
  0
LINE
  5
9D
  8
0
  6
CONTINUOUS
 62
     7
 10
131.0377520185
 20
168.9343515354
 30
0.0
 11
131.4470645648
 21
168.6252201943
 31
0.0
  0
ARC
  5
9E
  8
0
  6
CONTINUOUS
 62
     7
 10
144.6991454349
 20
162.74029557
 30
0.0
 40
15.00000000000001
 50
153.4756170239
 51
155.6105295488
  0
LINE
  5
9F
  8
0
  6
CONTINUOUS
 62
     7
 10
131.775992797
 20
169.3161709735
 30
0.0
 11
131.2779810887
 21
169.4389749354
 31
0.0
  0
LINE
  5
A0
  8
0
  6
CONTINUOUS
 62
     7
 10
132.0103955131
 20
169.7578211351
 30
0.0
 11
131.775992797
 21
169.3161709735
 31
0.0
  0
LINE
  5
A1
  8
0
  6
CONTINUOUS
 62
     7
 10
131.6295851629
 20
170.1014500613
 30
0.0
 11
132.0103955131
 21
169.7578211351
 31
0.0
  0
ARC
  5
A2
  8
0
  6
CONTINUOUS
 62
     7
 10
144.6991454349
 20
162.74029557
 30
0.0
 40
15.00000000000001
 50
148.4756170239
 51
150.6105295488
  0
LINE
  5
A3
  8
0
  6
CONTINUOUS
 62
     7
 10
132.3982950907
 20
170.4174745864
 30
0.0
 11
131.912878589
 21
170.5832160114
 31
0.0
  0
LINE
  5
A4
  8
0
  6
CONTINUOUS
 62
     7
 10
132.6703008872
 20
170.8370149171
 30
0.0
 11
132.3982950907
 21
170.4174745864
 31
0.0
  0
LINE
  5
A5
  8
0
  6
CONTINUOUS
 62
     7
 10
132.3208872836
 20
171.2125260419
 30
0.0
 11
132.6703008872
 21
170.8370149171
 31
0.0
  0
ARC
  5
A6
  8
0
  6
CONTINUOUS
 62
     7
 10
144.6991454349
 20
162.74029557
 30
0.0
 40
15.0
 50
143.4756170239
 51
145.6105295488
  0
LINE
  5
A7
  8
0
  6
CONTINUOUS
 62
     7
 10
133.1142139297
 20
171.4603505133
 30
0.0
 11
132.6450918477
 21
171.6677681579
 31
0.0
  0
LINE
  5
A8
  8
0
  6
CONTINUOUS
 62
     7
 10
133.4217478197
 20
171.8545872754
 30
0.0
 11
133.1142139297
 21
171.4603505133
 31
0.0
  0
LINE
  5
A9
  8
0
  6
CONTINUOUS
 62
     7
 10
133.1063908201
 20
172.2591230681
 30
0.0
 11
133.4217478197
 21
171.8545872754
 31
0.0
  0
ARC
  5
AA
  8
0
  6
CONTINUOUS
 62
     7
 10
144.6991454349
 20
162.74029557
 30
0.0
 40
15.00000000000001
 50
138.4756170239
 51
140.6105295488
  0
LINE
  5
AB
  8
0
  6
CONTINUOUS
 62
     7
 10
133.9182992142
 20
172.4368613249
 30
0.0
 11
133.4690403801
 21
172.6843761316
 31
0.0
  0
LINE
  5
AC
  8
0
  6
CONTINUOUS
 62
     7
 10
134.2590254408
 20
172.8027947283
 30
0.0
 11
133.9182992142
 21
172.4368613249
 31
0.0
  0
LINE
  5
AD
  8
0
  6
CONTINUOUS
 62
     7
 10
133.9801278573
 20
173.233275771
 30
0.0
 11
134.2590254408
 21
172.8027947283
 31
0.0
  0
ARC
  5
AE
  8
0
  6
CONTINUOUS
 62
     7
 10
144.6991454349
 20
162.74029557
 30
0.0
 40
15.00000000000001
 50
133.4756170239
 51
135.6105295488
  0
LINE
  5
AF
  8
0
  6
CONTINUOUS
 62
     7
 10
134.8044377428
 20
173.3395755327
 30
0.0
 11
134.3784582477
 21
173.6253043672
 31
0.0
  0
LINE
  5
B0
  8
0
  6
CONTINUOUS
 62
     7
 10
135.1757560533
 20
173.6744199915
 30
0.0
 11
134.8044377428
 21
173.3395755327
 31
0.0
  0
LINE
  5
B1
  8
0
  6
CONTINUOUS
 62
     7
 10
134.9354375761
 20
174.1275708227
 30
0.0
 11
135.1757560533
 21
173.6744199915
 31
0.0
  0
ARC
  5
B2
  8
0
  6
CONTINUOUS
 62
     7
 10
144.6991454349
 20
162.74029557
 30
0.0
 40
15.00000000000001
 50
128.4756170239
 51
130.6105295488
  0
LINE
  5
B3
  8
0
  6
CONTINUOUS
 62
     7
 10
135.7658755642
 20
174.16162277
 30
0.0
 11
135.3664238613
 21
174.4833909942
 31
0.0
  0
LINE
  5
B4
  8
0
  6
CONTINUOUS
 62
     7
 10
136.1649696391
 20
174.4628301857
 30
0.0
 11
135.7658755642
 21
174.16162277
 31
0.0
  0
LINE
  5
B5
  8
0
  6
CONTINUOUS
 62
     7
 10
135.9650593858
 20
174.9352016522
 30
0.0
 11
136.1649696391
 21
174.4628301857
 31
0.0
  0
ARC
  5
B6
  8
0
  6
CONTINUOUS
 62
     7
 10
144.6991454349
 20
162.74029557
 30
0.0
 40
14.99999999999999
 50
123.4756170239
 51
125.6105295488
  0
LINE
  5
B7
  8
0
  6
CONTINUOUS
 62
     7
 10
136.7953036588
 20
174.8967473431
 30
0.0
 11
136.4254158598
 21
175.2521046473
 31
0.0
  0
LINE
  5
B8
  8
0
  6
CONTINUOUS
 62
     7
 10
137.219129936
 20
175.1620252652
 30
0.0
 11
136.7953036588
 21
174.8967473431
 31
0.0
  0
LINE
  5
B9
  8
0
  6
CONTINUOUS
 62
     7
 10
137.0611515504
 20
175.6500224619
 30
0.0
 11
137.219129936
 21
175.1620252652
 31
0.0
  0
ARC
  5
BA
  8
0
  6
CONTINUOUS
 62
     7
 10
144.6991454349
 20
162.74029557
 30
0.0
 40
15.00000000000001
 50
118.4756170239
 51
120.6105295488
  0
LINE
  5
BB
  8
0
  6
CONTINUOUS
 62
     7
 10
137.8848877412
 20
175.5393534003
 30
0.0
 11
137.5473727148
 21
175.9255970864
 31
0.0
  0
LINE
  5
BC
  8
0
  6
CONTINUOUS
 62
     7
 10
138.3302201193
 20
175.7666827215
 30
0.0
 11
137.8848877412
 21
175.5393534003
 31
0.0
  0
LINE
  5
BD
  8
0
  6
CONTINUOUS
 62
     7
 10
138.2153731447
 20
176.2665924652
 30
0.0
 11
138.3302201193
 21
175.7666827215
 31
0.0
  0
ARC
  5
BE
  8
0
  6
CONTINUOUS
 62
     7
 10
144.6991454349
 20
162.74029557
 30
0.0
 40
15.00000000000001
 50
113.4756170239
 51
115.6105295488
  0
LINE
  5
BF
  8
0
  6
CONTINUOUS
 62
     7
 10
139.0263278645
 20
176.0845505668
 30
0.0
 11
138.7237635117
 21
176.4987404494
 31
0.0
  0
LINE
  5
C0
  8
0
  6
CONTINUOUS
 62
     7
 10
139.4897800546
 20
176.2722027524
 30
0.0
 11
139.0263278645
 21
176.0845505668
 31
0.0
  0
LINE
  5
C1
  8
0
  6
CONTINUOUS
 62
     7
 10
139.4189399343
 20
176.7802187277
 30
0.0
 11
139.4897800546
 21
176.2722027524
 31
0.0
  0
ARC
  5
C2
  8
0
  6
CONTINUOUS
 62
     7
 10
144.6991454349
 20
162.74029557
 30
0.0
 40
15.00000000000002
 50
108.4756170239
 51
110.6105295488
  0
LINE
  5
C3
  8
0
  6
CONTINUOUS
 62
     7
 10
140.2109441024
 20
176.5281898005
 30
0.0
 11
139.9456289273
 21
176.967174284
 31
0.0
  0
LINE
  5
C4
  8
0
  6
CONTINUOUS
 62
     7
 10
140.6889845293
 20
176.6747352703
 30
0.0
 11
140.2109441024
 21
176.5281898005
 31
0.0
  0
LINE
  5
C5
  8
0
  6
CONTINUOUS
 62
     7
 10
140.6626914304
 20
177.1869924886
 30
0.0
 11
140.6889845293
 21
176.6747352703
 31
0.0
  0
ARC
  5
C6
  8
0
  6
CONTINUOUS
 62
     7
 10
144.6991454349
 20
162.74029557
 30
0.0
 40
14.99999999999999
 50
103.4756170239
 51
105.6105295488
  0
LINE
  5
C7
  8
0
  6
CONTINUOUS
 62
     7
 10
141.429717527
 20
176.8668959884
 30
0.0
 11
141.203670637
 21
177.3273334874
 31
0.0
  0
LINE
  5
C8
  8
0
  6
CONTINUOUS
 62
     7
 10
141.9187103074
 20
176.9712190179
 30
0.0
 11
141.429717527
 21
176.8668959884
 31
0.0
  0
LINE
  5
C9
  8
0
  6
CONTINUOUS
 62
     7
 10
141.9371653956
 20
177.4838180317
 30
0.0
 11
141.9187103074
 21
176.9712190179
 31
0.0
  0
ARC
  5
CA
  8
0
  6
CONTINUOUS
 62
     7
 10
144.6991454349
 20
162.74029557
 30
0.0
 40
15.00000000000007
 50
98.7005818012
 51
100.6105295488
  0
ARC
  5
CB
  8
0
  6
CONTINUOUS
 62
     7
 10
191.9561613959
 20
-146.0647148208
 30
0.0
 40
327.3999999999963
 50
97.3634117882
 51
98.7005818012
  0
LINE
  5
CC
  8
0
  6
CONTINUOUS
 62
     7
 10
149.9958214026
 20
178.6352847738
 30
0.0
 11
150.955821262
 21
178.6352847738
 31
0.0
  0
LINE
  5
CD
  8
0
  6
CONTINUOUS
 62
     7
 10
150.955821262
 20
178.6352847738
 30
0.0
 11
151.2058217686
 21
177.6352855413
 31
0.0
  0
LINE
  5
CE
  8
0
  6
CONTINUOUS
 62
     7
 10
151.2058217686
 20
177.6352855413
 30
0.0
 11
151.7058227819
 21
177.6352855413
 31
0.0
  0
LINE
  5
CF
  8
0
  6
CONTINUOUS
 62
     7
 10
151.7058227819
 20
177.6352855413
 30
0.0
 11
151.9558232885
 21
178.6352847738
 31
0.0
  0
LINE
  5
D0
  8
0
  6
CONTINUOUS
 62
     7
 10
151.9558232885
 20
178.6352847738
 30
0.0
 11
152.4558243018
 21
178.6352847738
 31
0.0
  0
LINE
  5
D1
  8
0
  6
CONTINUOUS
 62
     7
 10
152.4558243018
 20
178.6352847738
 30
0.0
 11
152.7058248084
 21
177.6352855413
 31
0.0
  0
LINE
  5
D2
  8
0
  6
CONTINUOUS
 62
     7
 10
152.7058248084
 20
177.6352855413
 30
0.0
 11
153.2058220964
 21
177.6352855413
 31
0.0
  0
LINE
  5
D3
  8
0
  6
CONTINUOUS
 62
     7
 10
153.2058220964
 20
177.6352855413
 30
0.0
 11
153.4558226031
 21
178.6352847738
 31
0.0
  0
LINE
  5
D4
  8
0
  6
CONTINUOUS
 62
     7
 10
153.4558226031
 20
178.6352847738
 30
0.0
 11
153.9558236163
 21
178.6352847738
 31
0.0
  0
LINE
  5
D5
  8
0
  6
CONTINUOUS
 62
     7
 10
153.9558236163
 20
178.6352847738
 30
0.0
 11
154.205824123
 21
177.6352855413
 31
0.0
  0
LINE
  5
D6
  8
0
  6
CONTINUOUS
 62
     7
 10
154.205824123
 20
177.6352855413
 30
0.0
 11
154.705821411
 21
177.6352855413
 31
0.0
  0
LINE
  5
D7
  8
0
  6
CONTINUOUS
 62
     7
 10
154.705821411
 20
177.6352855413
 30
0.0
 11
154.9558219176
 21
178.6352847738
 31
0.0
  0
LINE
  5
D8
  8
0
  6
CONTINUOUS
 62
     7
 10
154.9558219176
 20
178.6352847738
 30
0.0
 11
155.4558229309
 21
178.6352847738
 31
0.0
  0
LINE
  5
D9
  8
0
  6
CONTINUOUS
 62
     7
 10
155.4558229309
 20
178.6352847738
 30
0.0
 11
155.7058234375
 21
177.6352855413
 31
0.0
  0
LINE
  5
DA
  8
0
  6
CONTINUOUS
 62
     7
 10
155.7058234375
 20
177.6352855413
 30
0.0
 11
156.2058244508
 21
177.6352855413
 31
0.0
  0
LINE
  5
DB
  8
0
  6
CONTINUOUS
 62
     7
 10
156.2058244508
 20
177.6352855413
 30
0.0
 11
156.4558212321
 21
178.6352847738
 31
0.0
  0
LINE
  5
DC
  8
0
  6
CONTINUOUS
 62
     7
 10
156.4558212321
 20
178.6352847738
 30
0.0
 11
156.9558222454
 21
178.6352847738
 31
0.0
  0
LINE
  5
DD
  8
0
  6
CONTINUOUS
 62
     7
 10
156.9558222454
 20
178.6352847738
 30
0.0
 11
157.2058227521
 21
177.6352855413
 31
0.0
  0
LINE
  5
DE
  8
0
  6
CONTINUOUS
 62
     7
 10
157.2058227521
 20
177.6352855413
 30
0.0
 11
157.7058237653
 21
177.6352855413
 31
0.0
  0
LINE
  5
DF
  8
0
  6
CONTINUOUS
 62
     7
 10
157.7058237653
 20
177.6352855413
 30
0.0
 11
157.955824272
 21
178.6352847738
 31
0.0
  0
LINE
  5
E0
  8
0
  6
CONTINUOUS
 62
     7
 10
157.955824272
 20
178.6352847738
 30
0.0
 11
158.45582156
 21
178.6352847738
 31
0.0
  0
LINE
  5
E1
  8
0
  6
CONTINUOUS
 62
     7
 10
158.45582156
 20
178.6352847738
 30
0.0
 11
158.7058220666
 21
177.6352855413
 31
0.0
  0
LINE
  5
E2
  8
0
  6
CONTINUOUS
 62
     7
 10
158.7058220666
 20
177.6352855413
 30
0.0
 11
159.2058230799
 21
177.6352855413
 31
0.0
  0
LINE
  5
E3
  8
0
  6
CONTINUOUS
 62
     7
 10
159.2058230799
 20
177.6352855413
 30
0.0
 11
159.4558235865
 21
178.6352847738
 31
0.0
  0
LINE
  5
E4
  8
0
  6
CONTINUOUS
 62
     7
 10
159.4558235865
 20
178.6352847738
 30
0.0
 11
159.9558245998
 21
178.6352847738
 31
0.0
  0
LINE
  5
E5
  8
0
  6
CONTINUOUS
 62
     7
 10
159.9558245998
 20
178.6352847738
 30
0.0
 11
160.2058213812
 21
177.6352855413
 31
0.0
  0
LINE
  5
E6
  8
0
  6
CONTINUOUS
 62
     7
 10
160.2058213812
 20
177.6352855413
 30
0.0
 11
160.7058223944
 21
177.6352855413
 31
0.0
  0
LINE
  5
E7
  8
0
  6
CONTINUOUS
 62
     7
 10
160.7058223944
 20
177.6352855413
 30
0.0
 11
160.9558229011
 21
178.6352847738
 31
0.0
  0
LINE
  5
E8
  8
0
  6
CONTINUOUS
 62
     7
 10
160.9558229011
 20
178.6352847738
 30
0.0
 11
161.4558220517
 21
178.6352847738
 31
0.0
  0
LINE
  5
E9
  8
0
  6
CONTINUOUS
 62
     7
 10
161.4558220517
 20
178.6352847738
 30
0.0
 11
161.7058225584
 21
177.6352855413
 31
0.0
  0
LINE
  5
EA
  8
0
  6
CONTINUOUS
 62
     7
 10
161.7058225584
 20
177.6352855413
 30
0.0
 11
162.2058235716
 21
177.6352855413
 31
0.0
  0
LINE
  5
EB
  8
0
  6
CONTINUOUS
 62
     7
 10
162.2058235716
 20
177.6352855413
 30
0.0
 11
162.4558222156
 21
178.6352847738
 31
0.0
  0
LINE
  5
EC
  8
0
  6
CONTINUOUS
 62
     7
 10
162.4558222156
 20
178.6352847738
 30
0.0
 11
162.9558232289
 21
178.6352847738
 31
0.0
  0
LINE
  5
ED
  8
0
  6
CONTINUOUS
 62
     7
 10
162.9558232289
 20
178.6352847738
 30
0.0
 11
163.2058237355
 21
177.6352855413
 31
0.0
  0
LINE
  5
EE
  8
0
  6
CONTINUOUS
 62
     7
 10
163.2058237355
 20
177.6352855413
 30
0.0
 11
163.7058228862
 21
177.6352855413
 31
0.0
  0
LINE
  5
EF
  8
0
  6
CONTINUOUS
 62
     7
 10
163.7058228862
 20
177.6352855413
 30
0.0
 11
163.9558233928
 21
178.6352847738
 31
0.0
  0
LINE
  5
F0
  8
0
  6
CONTINUOUS
 62
     7
 10
163.9558233928
 20
178.6352847738
 30
0.0
 11
164.4558225435
 21
178.6352847738
 31
0.0
  0
LINE
  5
F1
  8
0
  6
CONTINUOUS
 62
     7
 10
164.4558225435
 20
178.6352847738
 30
0.0
 11
164.7058230501
 21
177.6352855413
 31
0.0
  0
LINE
  5
F2
  8
0
  6
CONTINUOUS
 62
     7
 10
164.7058230501
 20
177.6352855413
 30
0.0
 11
165.2058222007
 21
177.6352855413
 31
0.0
  0
LINE
  5
F3
  8
0
  6
CONTINUOUS
 62
     7
 10
165.4558227074
 20
178.6352847738
 30
0.0
 11
165.9558237206
 21
178.6352847738
 31
0.0
  0
LINE
  5
F4
  8
0
  6
CONTINUOUS
 62
     7
 10
166.7058233779
 20
177.6352855413
 30
0.0
 11
166.9558238846
 21
178.6352847738
 31
0.0
  0
LINE
  5
F5
  8
0
  6
CONTINUOUS
 62
     7
 10
166.9558238846
 20
178.6352847738
 30
0.0
 11
167.4558230352
 21
178.6352847738
 31
0.0
  0
LINE
  5
F6
  8
0
  6
CONTINUOUS
 62
     7
 10
168.4558231991
 20
178.6352847738
 30
0.0
 11
168.9558223497
 21
178.6352847738
 31
0.0
  0
LINE
  5
F7
  8
0
  6
CONTINUOUS
 62
     7
 10
168.9558223497
 20
178.6352847738
 30
0.0
 11
169.2058228564
 21
177.6352855413
 31
0.0
  0
LINE
  5
F8
  8
0
  6
CONTINUOUS
 62
     7
 10
169.2058228564
 20
177.6352855413
 30
0.0
 11
169.7058238697
 21
177.6352855413
 31
0.0
  0
LINE
  5
F9
  8
0
  6
CONTINUOUS
 62
     7
 10
169.7058238697
 20
177.6352855413
 30
0.0
 11
169.9558225136
 21
178.6352847738
 31
0.0
  0
LINE
  5
FA
  8
0
  6
CONTINUOUS
 62
     7
 10
169.9558225136
 20
178.6352847738
 30
0.0
 11
170.4558235269
 21
178.6352847738
 31
0.0
  0
LINE
  5
FB
  8
0
  6
CONTINUOUS
 62
     7
 10
170.4558235269
 20
178.6352847738
 30
0.0
 11
170.7058221709
 21
177.6352855413
 31
0.0
  0
LINE
  5
FC
  8
0
  6
CONTINUOUS
 62
     7
 10
170.7058221709
 20
177.6352855413
 30
0.0
 11
171.2058231842
 21
177.6352855413
 31
0.0
  0
LINE
  5
FD
  8
0
  6
CONTINUOUS
 62
     7
 10
171.4558236908
 20
178.6352847738
 30
0.0
 11
171.9558228415
 21
178.6352847738
 31
0.0
  0
LINE
  5
FE
  8
0
  6
CONTINUOUS
 62
     7
 10
172.9558230054
 20
178.6352847738
 30
0.0
 11
173.455822156
 21
178.6352847738
 31
0.0
  0
LINE
  5
FF
  8
0
  6
CONTINUOUS
 62
     7
 10
173.455822156
 20
178.6352847738
 30
0.0
 11
173.7058226627
 21
177.6352855413
 31
0.0
  0
LINE
  5
100
  8
0
  6
CONTINUOUS
 62
     7
 10
174.4558223199
 20
178.6352847738
 30
0.0
 11
174.9558233332
 21
178.6352847738
 31
0.0
  0
LINE
  5
101
  8
0
  6
CONTINUOUS
 62
     7
 10
175.2058238399
 20
177.6352855413
 30
0.0
 11
175.7058229905
 21
177.6352855413
 31
0.0
  0
LINE
  5
102
  8
0
  6
CONTINUOUS
 62
     7
 10
175.7058229905
 20
177.6352855413
 30
0.0
 11
175.9558234971
 21
178.6352847738
 31
0.0
  0
LINE
  5
103
  8
0
  6
CONTINUOUS
 62
     7
 10
175.9558234971
 20
178.6352847738
 30
0.0
 11
176.4558226478
 21
178.6352847738
 31
0.0
  0
LINE
  5
104
  8
0
  6
CONTINUOUS
 62
     7
 10
176.4558226478
 20
178.6352847738
 30
0.0
 11
176.7058231544
 21
177.6352855413
 31
0.0
  0
LINE
  5
105
  8
0
  6
CONTINUOUS
 62
     7
 10
176.7058231544
 20
177.6352855413
 30
0.0
 11
177.2058232364
 21
177.6352855413
 31
0.0
  0
LINE
  5
106
  8
0
  6
CONTINUOUS
 62
     7
 10
177.2058232364
 20
177.6352855413
 30
0.0
 11
177.4558228117
 21
178.6352847738
 31
0.0
  0
LINE
  5
107
  8
0
  6
CONTINUOUS
 62
     7
 10
177.4558228117
 20
178.6352847738
 30
0.0
 11
177.9558228936
 21
178.6352847738
 31
0.0
  0
LINE
  5
108
  8
0
  6
CONTINUOUS
 62
     7
 10
178.9558230575
 20
178.6352847738
 30
0.0
 11
179.4558231395
 21
178.6352847738
 31
0.0
  0
LINE
  5
109
  8
0
  6
CONTINUOUS
 62
     7
 10
179.4558231395
 20
178.6352847738
 30
0.0
 11
179.7058227148
 21
177.6352855413
 31
0.0
  0
LINE
  5
10A
  8
0
  6
CONTINUOUS
 62
     7
 10
180.4558233034
 20
178.6352847738
 30
0.0
 11
180.9558233854
 21
178.6352847738
 31
0.0
  0
LINE
  5
10B
  8
0
  6
CONTINUOUS
 62
     7
 10
181.2058229607
 20
177.6352855413
 30
0.0
 11
181.7058230426
 21
177.6352855413
 31
0.0
  0
LINE
  5
10C
  8
0
  6
CONTINUOUS
 62
     7
 10
181.7058230426
 20
177.6352855413
 30
0.0
 11
181.955822618
 21
178.6352847738
 31
0.0
  0
LINE
  5
10D
  8
0
  6
CONTINUOUS
 62
     7
 10
181.955822618
 20
178.6352847738
 30
0.0
 11
182.4558226999
 21
178.6352847738
 31
0.0
  0
LINE
  5
10E
  8
0
  6
CONTINUOUS
 62
     7
 10
182.4558226999
 20
178.6352847738
 30
0.0
 11
182.7058232066
 21
177.6352855413
 31
0.0
  0
LINE
  5
10F
  8
0
  6
CONTINUOUS
 62
     7
 10
182.7058232066
 20
177.6352855413
 30
0.0
 11
183.2058232885
 21
177.6352855413
 31
0.0
  0
LINE
  5
110
  8
0
  6
CONTINUOUS
 62
     7
 10
183.2058232885
 20
177.6352855413
 30
0.0
 11
183.4558228638
 21
178.6352847738
 31
0.0
  0
LINE
  5
111
  8
0
  6
CONTINUOUS
 62
     7
 10
183.4558228638
 20
178.6352847738
 30
0.0
 11
183.9558229458
 21
178.6352847738
 31
0.0
  0
LINE
  5
112
  8
0
  6
CONTINUOUS
 62
     7
 10
183.9558229458
 20
178.6352847738
 30
0.0
 11
184.2058229868
 21
177.6352855413
 31
0.0
  0
LINE
  5
113
  8
0
  6
CONTINUOUS
 62
     7
 10
184.2058229868
 20
177.6352855413
 30
0.0
 11
184.7058230687
 21
177.6352855413
 31
0.0
  0
LINE
  5
114
  8
0
  6
CONTINUOUS
 62
     7
 10
184.7058230687
 20
177.6352855413
 30
0.0
 11
184.9558231097
 21
178.6352847738
 31
0.0
  0
LINE
  5
115
  8
0
  6
CONTINUOUS
 62
     7
 10
195.9558230501
 20
178.6352847738
 30
0.0
 11
196.2058230911
 21
177.6352855413
 31
0.0
  0
LINE
  5
116
  8
0
  6
CONTINUOUS
 62
     7
 10
196.2058230911
 20
177.6352855413
 30
0.0
 11
196.705823173
 21
177.6352855413
 31
0.0
  0
LINE
  5
117
  8
0
  6
CONTINUOUS
 62
     7
 10
196.705823173
 20
177.6352855413
 30
0.0
 11
196.9558227483
 21
178.6352847738
 31
0.0
  0
LINE
  5
118
  8
0
  6
CONTINUOUS
 62
     7
 10
197.4558228303
 20
178.6352847738
 30
0.0
 11
197.7058228713
 21
177.6352855413
 31
0.0
  0
LINE
  5
119
  8
0
  6
CONTINUOUS
 62
     7
 10
197.7058228713
 20
177.6352855413
 30
0.0
 11
198.2058229532
 21
177.6352855413
 31
0.0
  0
LINE
  5
11A
  8
0
  6
CONTINUOUS
 62
     7
 10
198.2058229532
 20
177.6352855413
 30
0.0
 11
198.4558229942
 21
178.6352847738
 31
0.0
  0
LINE
  5
11B
  8
0
  6
CONTINUOUS
 62
     7
 10
198.9558230762
 20
178.6352847738
 30
0.0
 11
199.2058231171
 21
177.6352855413
 31
0.0
  0
LINE
  5
11C
  8
0
  6
CONTINUOUS
 62
     7
 10
199.2058231171
 20
177.6352855413
 30
0.0
 11
199.7058231991
 21
177.6352855413
 31
0.0
  0
LINE
  5
11D
  8
0
  6
CONTINUOUS
 62
     7
 10
199.7058231991
 20
177.6352855413
 30
0.0
 11
199.9558227744
 21
178.6352847738
 31
0.0
  0
LINE
  5
11E
  8
0
  6
CONTINUOUS
 62
     7
 10
199.9558227744
 20
178.6352847738
 30
0.0
 11
200.4558228564
 21
178.6352847738
 31
0.0
  0
LINE
  5
11F
  8
0
  6
CONTINUOUS
 62
     7
 10
200.4558228564
 20
178.6352847738
 30
0.0
 11
200.705823363
 21
177.6352855413
 31
0.0
  0
LINE
  5
120
  8
0
  6
CONTINUOUS
 62
     7
 10
200.705823363
 20
177.6352855413
 30
0.0
 11
201.205823445
 21
177.6352855413
 31
0.0
  0
LINE
  5
121
  8
0
  6
CONTINUOUS
 62
     7
 10
201.205823445
 20
177.6352855413
 30
0.0
 11
201.4558230203
 21
178.6352847738
 31
0.0
  0
LINE
  5
122
  8
0
  6
CONTINUOUS
 62
     7
 10
201.4558230203
 20
178.6352847738
 30
0.0
 11
201.9558231022
 21
178.6352847738
 31
0.0
  0
LINE
  5
123
  8
0
  6
CONTINUOUS
 62
     7
 10
201.9558231022
 20
178.6352847738
 30
0.0
 11
202.2058226776
 21
177.6352855413
 31
0.0
  0
LINE
  5
124
  8
0
  6
CONTINUOUS
 62
     7
 10
202.2058226776
 20
177.6352855413
 30
0.0
 11
202.7058227595
 21
177.6352855413
 31
0.0
  0
LINE
  5
125
  8
0
  6
CONTINUOUS
 62
     7
 10
202.7058227595
 20
177.6352855413
 30
0.0
 11
202.9558232662
 21
178.6352847738
 31
0.0
  0
LINE
  5
126
  8
0
  6
CONTINUOUS
 62
     7
 10
202.9558232662
 20
178.6352847738
 30
0.0
 11
203.4558233481
 21
178.6352847738
 31
0.0
  0
LINE
  5
127
  8
0
  6
CONTINUOUS
 62
     7
 10
203.4558233481
 20
178.6352847738
 30
0.0
 11
203.7058229234
 21
177.6352855413
 31
0.0
  0
LINE
  5
128
  8
0
  6
CONTINUOUS
 62
     7
 10
203.7058229234
 20
177.6352855413
 30
0.0
 11
204.2058230054
 21
177.6352855413
 31
0.0
  0
LINE
  5
129
  8
0
  6
CONTINUOUS
 62
     7
 10
204.2058230054
 20
177.6352855413
 30
0.0
 11
204.4558225807
 21
178.6352847738
 31
0.0
  0
LINE
  5
12A
  8
0
  6
CONTINUOUS
 62
     7
 10
204.4558225807
 20
178.6352847738
 30
0.0
 11
204.9558226627
 21
178.6352847738
 31
0.0
  0
LINE
  5
12B
  8
0
  6
CONTINUOUS
 62
     7
 10
204.9558226627
 20
178.6352847738
 30
0.0
 11
205.2058231693
 21
177.6352855413
 31
0.0
  0
LINE
  5
12C
  8
0
  6
CONTINUOUS
 62
     7
 10
205.2058231693
 20
177.6352855413
 30
0.0
 11
205.7058232513
 21
177.6352855413
 31
0.0
  0
LINE
  5
12D
  8
0
  6
CONTINUOUS
 62
     7
 10
205.7058232513
 20
177.6352855413
 30
0.0
 11
205.9558228266
 21
178.6352847738
 31
0.0
  0
LINE
  5
12E
  8
0
  6
CONTINUOUS
 62
     7
 10
205.9558228266
 20
178.6352847738
 30
0.0
 11
206.4558229085
 21
178.6352847738
 31
0.0
  0
LINE
  5
12F
  8
0
  6
CONTINUOUS
 62
     7
 10
206.4558229085
 20
178.6352847738
 30
0.0
 11
206.7058234152
 21
177.6352855413
 31
0.0
  0
LINE
  5
130
  8
0
  6
CONTINUOUS
 62
     7
 10
206.7058234152
 20
177.6352855413
 30
0.0
 11
207.2058225658
 21
177.6352855413
 31
0.0
  0
LINE
  5
131
  8
0
  6
CONTINUOUS
 62
     7
 10
207.2058225658
 20
177.6352855413
 30
0.0
 11
207.4558230724
 21
178.6352847738
 31
0.0
  0
LINE
  5
132
  8
0
  6
CONTINUOUS
 62
     7
 10
207.4558230724
 20
178.6352847738
 30
0.0
 11
207.9558231544
 21
178.6352847738
 31
0.0
  0
LINE
  5
133
  8
0
  6
CONTINUOUS
 62
     7
 10
208.205823661
 20
177.6352855413
 30
0.0
 11
208.7058228117
 21
177.6352855413
 31
0.0
  0
LINE
  5
134
  8
0
  6
CONTINUOUS
 62
     7
 10
208.7058228117
 20
177.6352855413
 30
0.0
 11
208.9558233183
 21
178.6352847738
 31
0.0
  0
LINE
  5
135
  8
0
  6
CONTINUOUS
 62
     7
 10
209.4558224689
 20
178.6352847738
 30
0.0
 11
209.7058229756
 21
177.6352855413
 31
0.0
  0
LINE
  5
136
  8
0
  6
CONTINUOUS
 62
     7
 10
209.7058229756
 20
177.6352855413
 30
0.0
 11
210.2058221262
 21
177.6352855413
 31
0.0
  0
LINE
  5
137
  8
0
  6
CONTINUOUS
 62
     7
 10
210.2058221262
 20
177.6352855413
 30
0.0
 11
210.4558226329
 21
178.6352847738
 31
0.0
  0
LINE
  5
138
  8
0
  6
CONTINUOUS
 62
     7
 10
210.4558226329
 20
178.6352847738
 30
0.0
 11
210.9558236461
 21
178.6352847738
 31
0.0
  0
LINE
  5
139
  8
0
  6
CONTINUOUS
 62
     7
 10
210.9558236461
 20
178.6352847738
 30
0.0
 11
211.2058222901
 21
177.6352855413
 31
0.0
  0
LINE
  5
13A
  8
0
  6
CONTINUOUS
 62
     7
 10
211.2058222901
 20
177.6352855413
 30
0.0
 11
211.7058233034
 21
177.6352855413
 31
0.0
  0
LINE
  5
13B
  8
0
  6
CONTINUOUS
 62
     7
 10
211.95582381
 20
178.6352847738
 30
0.0
 11
212.4558229607
 21
178.6352847738
 31
0.0
  0
LINE
  5
13C
  8
0
  6
CONTINUOUS
 62
     7
 10
212.4558229607
 20
178.6352847738
 30
0.0
 11
212.7058234673
 21
177.6352855413
 31
0.0
  0
LINE
  5
13D
  8
0
  6
CONTINUOUS
 62
     7
 10
212.7058234673
 20
177.6352855413
 30
0.0
 11
213.205822618
 21
177.6352855413
 31
0.0
  0
LINE
  5
13E
  8
0
  6
CONTINUOUS
 62
     7
 10
213.205822618
 20
177.6352855413
 30
0.0
 11
213.4558231246
 21
178.6352847738
 31
0.0
  0
LINE
  5
13F
  8
0
  6
CONTINUOUS
 62
     7
 10
213.4558231246
 20
178.6352847738
 30
0.0
 11
213.9558222752
 21
178.6352847738
 31
0.0
  0
LINE
  5
140
  8
0
  6
CONTINUOUS
 62
     7
 10
213.9558222752
 20
178.6352847738
 30
0.0
 11
214.2058227819
 21
177.6352855413
 31
0.0
  0
LINE
  5
141
  8
0
  6
CONTINUOUS
 62
     7
 10
214.2058227819
 20
177.6352855413
 30
0.0
 11
214.7058237951
 21
177.6352855413
 31
0.0
  0
LINE
  5
142
  8
0
  6
CONTINUOUS
 62
     7
 10
214.7058237951
 20
177.6352855413
 30
0.0
 11
214.9558224391
 21
178.6352847738
 31
0.0
  0
LINE
  5
143
  8
0
  6
CONTINUOUS
 62
     7
 10
214.9558224391
 20
178.6352847738
 30
0.0
 11
215.4558234524
 21
178.6352847738
 31
0.0
  0
LINE
  5
144
  8
0
  6
CONTINUOUS
 62
     7
 10
215.4558234524
 20
178.6352847738
 30
0.0
 11
215.7058220964
 21
177.6352855413
 31
0.0
  0
LINE
  5
145
  8
0
  6
CONTINUOUS
 62
     7
 10
215.7058220964
 20
177.6352855413
 30
0.0
 11
216.2058231097
 21
177.6352855413
 31
0.0
  0
LINE
  5
146
  8
0
  6
CONTINUOUS
 62
     7
 10
216.2058231097
 20
177.6352855413
 30
0.0
 11
216.4558236163
 21
178.6352847738
 31
0.0
  0
LINE
  5
147
  8
0
  6
CONTINUOUS
 62
     7
 10
216.955822767
 20
178.6352847738
 30
0.0
 11
217.2058232736
 21
177.6352855413
 31
0.0
  0
LINE
  5
148
  8
0
  6
CONTINUOUS
 62
     7
 10
217.2058232736
 20
177.6352855413
 30
0.0
 11
217.7058224242
 21
177.6352855413
 31
0.0
  0
LINE
  5
149
  8
0
  6
CONTINUOUS
 62
     7
 10
217.7058224242
 20
177.6352855413
 30
0.0
 11
217.9558229309
 21
178.6352847738
 31
0.0
  0
LINE
  5
14A
  8
0
  6
CONTINUOUS
 62
     7
 10
217.9558229309
 20
178.6352847738
 30
0.0
 11
218.4558220815
 21
178.6352847738
 31
0.0
  0
LINE
  5
14B
  8
0
  6
CONTINUOUS
 62
     7
 10
218.4558220815
 20
178.6352847738
 30
0.0
 11
218.7058225882
 21
177.6352855413
 31
0.0
  0
LINE
  5
14C
  8
0
  6
CONTINUOUS
 62
     7
 10
218.7058225882
 20
177.6352855413
 30
0.0
 11
219.2058236014
 21
177.6352855413
 31
0.0
  0
LINE
  5
14D
  8
0
  6
CONTINUOUS
 62
     7
 10
219.2058236014
 20
177.6352855413
 30
0.0
 11
219.4558222454
 21
178.6352847738
 31
0.0
  0
LINE
  5
14E
  8
0
  6
CONTINUOUS
 62
     7
 10
219.4558222454
 20
178.6352847738
 30
0.0
 11
219.9558232587
 21
178.6352847738
 31
0.0
  0
LINE
  5
14F
  8
0
  6
CONTINUOUS
 62
     7
 10
219.9558232587
 20
178.6352847738
 30
0.0
 11
220.2058237653
 21
177.6352855413
 31
0.0
  0
LINE
  5
150
  8
0
  6
CONTINUOUS
 62
     7
 10
220.2058237653
 20
177.6352855413
 30
0.0
 11
220.705822916
 21
177.6352855413
 31
0.0
  0
LINE
  5
151
  8
0
  6
CONTINUOUS
 62
     7
 10
220.705822916
 20
177.6352855413
 30
0.0
 11
220.9558234226
 21
178.6352847738
 31
0.0
  0
LINE
  5
152
  8
0
  6
CONTINUOUS
 62
     7
 10
220.9558234226
 20
178.6352847738
 30
0.0
 11
221.4558225733
 21
178.6352847738
 31
0.0
  0
LINE
  5
153
  8
0
  6
CONTINUOUS
 62
     7
 10
221.4558225733
 20
178.6352847738
 30
0.0
 11
221.7058230799
 21
177.6352855413
 31
0.0
  0
LINE
  5
154
  8
0
  6
CONTINUOUS
 62
     7
 10
221.7058230799
 20
177.6352855413
 30
0.0
 11
222.2058222305
 21
177.6352855413
 31
0.0
  0
LINE
  5
155
  8
0
  6
CONTINUOUS
 62
     7
 10
222.2058222305
 20
177.6352855413
 30
0.0
 11
222.4558227372
 21
178.6352847738
 31
0.0
  0
LINE
  5
156
  8
0
  6
CONTINUOUS
 62
     7
 10
222.4558227372
 20
178.6352847738
 30
0.0
 11
222.9558237504
 21
178.6352847738
 31
0.0
  0
LINE
  5
157
  8
0
  6
CONTINUOUS
 62
     7
 10
222.9558237504
 20
178.6352847738
 30
0.0
 11
223.2058223944
 21
177.6352855413
 31
0.0
  0
LINE
  5
158
  8
0
  6
CONTINUOUS
 62
     7
 10
223.7058234077
 20
177.6352855413
 30
0.0
 11
223.9558239144
 21
178.6352847738
 31
0.0
  0
LINE
  5
159
  8
0
  6
CONTINUOUS
 62
     7
 10
223.9558239144
 20
178.6352847738
 30
0.0
 11
224.4558212023
 21
178.6352847738
 31
0.0
  0
LINE
  5
15A
  8
0
  6
CONTINUOUS
 62
     7
 10
224.4558212023
 20
178.6352847738
 30
0.0
 11
224.705821709
 21
177.6352855413
 31
0.0
  0
LINE
  5
15B
  8
0
  6
CONTINUOUS
 62
     7
 10
224.705821709
 20
177.6352855413
 30
0.0
 11
225.2058227223
 21
177.6352855413
 31
0.0
  0
LINE
  5
15C
  8
0
  6
CONTINUOUS
 62
     7
 10
225.2058227223
 20
177.6352855413
 30
0.0
 11
225.4558232289
 21
178.6352847738
 31
0.0
  0
LINE
  5
15D
  8
0
  6
CONTINUOUS
 62
     7
 10
225.4558232289
 20
178.6352847738
 30
0.0
 11
225.9558242422
 21
178.6352847738
 31
0.0
  0
LINE
  5
15E
  8
0
  6
CONTINUOUS
 62
     7
 10
225.9558242422
 20
178.6352847738
 30
0.0
 11
226.2058247488
 21
177.6352855413
 31
0.0
  0
LINE
  5
15F
  8
0
  6
CONTINUOUS
 62
     7
 10
226.2058247488
 20
177.6352855413
 30
0.0
 11
226.7058220368
 21
177.6352855413
 31
0.0
  0
LINE
  5
160
  8
0
  6
CONTINUOUS
 62
     7
 10
226.7058220368
 20
177.6352855413
 30
0.0
 11
226.9558225435
 21
178.6352847738
 31
0.0
  0
LINE
  5
161
  8
0
  6
CONTINUOUS
 62
     7
 10
227.4558235567
 20
178.6352847738
 30
0.0
 11
227.7058240634
 21
177.6352855413
 31
0.0
  0
LINE
  5
162
  8
0
  6
CONTINUOUS
 62
     7
 10
227.7058240634
 20
177.6352855413
 30
0.0
 11
228.2058213514
 21
177.6352855413
 31
0.0
  0
LINE
  5
163
  8
0
  6
CONTINUOUS
 62
     7
 10
228.2058213514
 20
177.6352855413
 30
0.0
 11
228.455821858
 21
178.6352847738
 31
0.0
  0
LINE
  5
164
  8
0
  6
CONTINUOUS
 62
     7
 10
228.455821858
 20
178.6352847738
 30
0.0
 11
228.9558228713
 21
178.6352847738
 31
0.0
  0
LINE
  5
165
  8
0
  6
CONTINUOUS
 62
     7
 10
228.9558228713
 20
178.6352847738
 30
0.0
 11
229.2058233779
 21
177.6352855413
 31
0.0
  0
LINE
  5
166
  8
0
  6
CONTINUOUS
 62
     7
 10
229.2058233779
 20
177.6352855413
 30
0.0
 11
229.7058243912
 21
177.6352855413
 31
0.0
  0
LINE
  5
167
  8
0
  6
CONTINUOUS
 62
     7
 10
229.7058243912
 20
177.6352855413
 30
0.0
 11
229.9558211725
 21
178.6352847738
 31
0.0
  0
LINE
  5
168
  8
0
  6
CONTINUOUS
 62
     7
 10
229.9558211725
 20
178.6352847738
 30
0.0
 11
230.4558221858
 21
178.6352847738
 31
0.0
  0
LINE
  5
169
  8
0
  6
CONTINUOUS
 62
     7
 10
230.4558221858
 20
178.6352847738
 30
0.0
 11
230.7058226925
 21
177.6352855413
 31
0.0
  0
LINE
  5
16A
  8
0
  6
CONTINUOUS
 62
     7
 10
230.7058226925
 20
177.6352855413
 30
0.0
 11
231.2058237057
 21
177.6352855413
 31
0.0
  0
LINE
  5
16B
  8
0
  6
CONTINUOUS
 62
     7
 10
231.2058237057
 20
177.6352855413
 30
0.0
 11
231.4558242124
 21
178.6352847738
 31
0.0
  0
LINE
  5
16C
  8
0
  6
CONTINUOUS
 62
     7
 10
231.4558242124
 20
178.6352847738
 30
0.0
 11
231.9558215004
 21
178.6352847738
 31
0.0
  0
LINE
  5
16D
  8
0
  6
CONTINUOUS
 62
     7
 10
231.9558215004
 20
178.6352847738
 30
0.0
 11
232.205822007
 21
177.6352855413
 31
0.0
  0
LINE
  5
16E
  8
0
  6
CONTINUOUS
 62
     7
 10
232.205822007
 20
177.6352855413
 30
0.0
 11
232.7058230203
 21
177.6352855413
 31
0.0
  0
LINE
  5
16F
  8
0
  6
CONTINUOUS
 62
     7
 10
232.7058230203
 20
177.6352855413
 30
0.0
 11
232.9558235269
 21
178.6352847738
 31
0.0
  0
LINE
  5
170
  8
0
  6
CONTINUOUS
 62
     7
 10
232.9558235269
 20
178.6352847738
 30
0.0
 11
233.9165013891
 21
178.6352847738
 31
0.0
  0
ARC
  5
171
  8
0
  6
CONTINUOUS
 62
     7
 10
191.9561613959
 20
-146.0647148208
 30
0.0
 40
327.3999999999963
 50
81.2994181988
 51
82.6365882118
  0
ARC
  5
172
  8
0
  6
CONTINUOUS
 62
     7
 10
239.2131773568
 20
162.74029557
 30
0.0
 40
15.00000000000003
 50
79.3894704512
 51
81.2994181988
  0
LINE
  5
173
  8
0
  6
CONTINUOUS
 62
     7
 10
241.9751573961
 20
177.4838180317
 30
0.0
 11
241.9936124843
 21
176.9712190179
 31
0.0
  0
LINE
  5
174
  8
0
  6
CONTINUOUS
 62
     7
 10
241.9936124843
 20
176.9712190179
 30
0.0
 11
242.4826052647
 21
176.8668959884
 31
0.0
  0
LINE
  5
175
  8
0
  6
CONTINUOUS
 62
     7
 10
242.4826052647
 20
176.8668959884
 30
0.0
 11
242.7086521548
 21
177.3273334874
 31
0.0
  0
ARC
  5
176
  8
0
  6
CONTINUOUS
 62
     7
 10
239.2131773568
 20
162.74029557
 30
0.0
 40
14.99999999999998
 50
74.3894704512
 51
76.5243829761
  0
LINE
  5
177
  8
0
  6
CONTINUOUS
 62
     7
 10
243.2496313613
 20
177.1869924886
 30
0.0
 11
243.2233382624
 21
176.6747352703
 31
0.0
  0
LINE
  5
178
  8
0
  6
CONTINUOUS
 62
     7
 10
243.2233382624
 20
176.6747352703
 30
0.0
 11
243.7013786894
 21
176.5281898005
 31
0.0
  0
LINE
  5
179
  8
0
  6
CONTINUOUS
 62
     7
 10
243.7013786894
 20
176.5281898005
 30
0.0
 11
243.9666938644
 21
176.967174284
 31
0.0
  0
ARC
  5
17A
  8
0
  6
CONTINUOUS
 62
     7
 10
239.2131773568
 20
162.74029557
 30
0.0
 40
15.00000000000001
 50
69.3894704512
 51
71.5243829761
  0
LINE
  5
17B
  8
0
  6
CONTINUOUS
 62
     7
 10
244.4933828574
 20
176.7802187277
 30
0.0
 11
244.4225427371
 21
176.2722027524
 31
0.0
  0
LINE
  5
17C
  8
0
  6
CONTINUOUS
 62
     7
 10
244.4225427371
 20
176.2722027524
 30
0.0
 11
244.8859949272
 21
176.0845505668
 31
0.0
  0
LINE
  5
17D
  8
0
  6
CONTINUOUS
 62
     7
 10
244.8859949272
 20
176.0845505668
 30
0.0
 11
245.18855928
 21
176.4987404494
 31
0.0
  0
ARC
  5
17E
  8
0
  6
CONTINUOUS
 62
     7
 10
239.2131773568
 20
162.74029557
 30
0.0
 40
15.0
 50
64.3894704512
 51
66.5243829761
  0
LINE
  5
17F
  8
0
  6
CONTINUOUS
 62
     7
 10
245.696949647
 20
176.2665924652
 30
0.0
 11
245.5821026724
 21
175.7666827215
 31
0.0
  0
LINE
  5
180
  8
0
  6
CONTINUOUS
 62
     7
 10
245.5821026724
 20
175.7666827215
 30
0.0
 11
246.0274350506
 21
175.5393534003
 31
0.0
  0
LINE
  5
181
  8
0
  6
CONTINUOUS
 62
     7
 10
246.0274350506
 20
175.5393534003
 30
0.0
 11
246.3649500769
 21
175.9255970864
 31
0.0
  0
ARC
  5
182
  8
0
  6
CONTINUOUS
 62
     7
 10
239.2131773568
 20
162.74029557
 30
0.0
 40
14.99999999999998
 50
59.3894704512
 51
61.5243829761
  0
LINE
  5
183
  8
0
  6
CONTINUOUS
 62
     7
 10
246.8511712414
 20
175.6500224619
 30
0.0
 11
246.6931928557
 21
175.1620252652
 31
0.0
  0
LINE
  5
184
  8
0
  6
CONTINUOUS
 62
     7
 10
246.6931928557
 20
175.1620252652
 30
0.0
 11
247.1170191329
 21
174.8967473431
 31
0.0
  0
LINE
  5
185
  8
0
  6
CONTINUOUS
 62
     7
 10
247.1170191329
 20
174.8967473431
 30
0.0
 11
247.4869069319
 21
175.2521046473
 31
0.0
  0
ARC
  5
186
  8
0
  6
CONTINUOUS
 62
     7
 10
239.2131773568
 20
162.74029557
 30
0.0
 40
15.0
 50
54.3894704512
 51
56.5243829761
  0
LINE
  5
187
  8
0
  6
CONTINUOUS
 62
     7
 10
247.9472634059
 20
174.9352016522
 30
0.0
 11
247.7473531526
 21
174.4628301857
 31
0.0
  0
LINE
  5
188
  8
0
  6
CONTINUOUS
 62
     7
 10
247.7473531526
 20
174.4628301857
 30
0.0
 11
248.1464472275
 21
174.16162277
 31
0.0
  0
LINE
  5
189
  8
0
  6
CONTINUOUS
 62
     7
 10
248.1464472275
 20
174.16162277
 30
0.0
 11
248.5458989304
 21
174.4833909942
 31
0.0
  0
LINE
  5
18A
  8
0
  6
CONTINUOUS
 62
     7
 10
248.9768852156
 20
174.1275708227
 30
0.0
 11
248.7365667384
 21
173.6744199915
 31
0.0
  0
LINE
  5
18B
  8
0
  6
CONTINUOUS
 62
     7
 10
248.7365667384
 20
173.6744199915
 30
0.0
 11
249.1078850489
 21
173.3395755327
 31
0.0
  0
LINE
  5
18C
  8
0
  6
CONTINUOUS
 62
     7
 10
249.1078850489
 20
173.3395755327
 30
0.0
 11
249.533864544
 21
173.6253043672
 31
0.0
  0
LINE
  5
18D
  8
0
  6
CONTINUOUS
 62
     7
 10
249.9321949344
 20
173.233275771
 30
0.0
 11
249.653297351
 21
172.8027947283
 31
0.0
  0
LINE
  5
18E
  8
0
  6
CONTINUOUS
 62
     7
 10
249.653297351
 20
172.8027947283
 30
0.0
 11
249.9940235775
 21
172.4368613249
 31
0.0
  0
LINE
  5
18F
  8
0
  6
CONTINUOUS
 62
     7
 10
249.9940235775
 20
172.4368613249
 30
0.0
 11
250.4432824116
 21
172.6843761316
 31
0.0
  0
ARC
  5
190
  8
0
  6
CONTINUOUS
 62
     7
 10
239.2131773568
 20
162.74029557
 30
0.0
 40
14.99999999999998
 50
39.3894704512
 51
41.5243829761
  0
LINE
  5
191
  8
0
  6
CONTINUOUS
 62
     7
 10
250.8059319716
 20
172.2591230681
 30
0.0
 11
250.490574972
 21
171.8545872754
 31
0.0
  0
LINE
  5
192
  8
0
  6
CONTINUOUS
 62
     7
 10
250.490574972
 20
171.8545872754
 30
0.0
 11
250.798108862
 21
171.4603505133
 31
0.0
  0
LINE
  5
193
  8
0
  6
CONTINUOUS
 62
     7
 10
250.798108862
 20
171.4603505133
 30
0.0
 11
251.267230944
 21
171.6677681579
 31
0.0
  0
ARC
  5
194
  8
0
  6
CONTINUOUS
 62
     7
 10
239.2131773568
 20
162.74029557
 30
0.0
 40
15.00000000000001
 50
34.3894704512
 51
36.5243829761
  0
LINE
  5
195
  8
0
  6
CONTINUOUS
 62
     7
 10
251.5914355081
 20
171.2125260419
 30
0.0
 11
251.2420219045
 21
170.8370149171
 31
0.0
  0
LINE
  5
196
  8
0
  6
CONTINUOUS
 62
     7
 10
251.2420219045
 20
170.8370149171
 30
0.0
 11
251.514027701
 21
170.4174745864
 31
0.0
  0
LINE
  5
197
  8
0
  6
CONTINUOUS
 62
     7
 10
251.514027701
 20
170.4174745864
 30
0.0
 11
251.9994442027
 21
170.5832160114
 31
0.0
  0
LINE
  5
198
  8
0
  6
CONTINUOUS
 62
     7
 10
252.2827376288
 20
170.1014500613
 30
0.0
 11
251.9019272786
 21
169.7578211351
 31
0.0
  0
LINE
  5
199
  8
0
  6
CONTINUOUS
 62
     7
 10
251.9019272786
 20
169.7578211351
 30
0.0
 11
252.1363299947
 21
169.3161709735
 31
0.0
  0
LINE
  5
19A
  8
0
  6
CONTINUOUS
 62
     7
 10
252.1363299947
 20
169.3161709735
 30
0.0
 11
252.634341703
 21
169.4389749354
 31
0.0
  0
LINE
  5
19B
  8
0
  6
CONTINUOUS
 62
     7
 10
252.6602771741
 20
168.164820996
 30
0.0
 11
253.1670991939
 21
168.243752796
 31
0.0
  0
ARC
  5
19C
  8
0
  6
CONTINUOUS
 62
     7
 10
239.2131773568
 20
162.74029557
 30
0.0
 40
14.99999999999998
 50
19.3894704512
 51
21.5243829761
  0
LINE
  5
19D
  8
0
  6
CONTINUOUS
 62
     7
 10
253.3624310654
 20
167.7201123711
 30
0.0
 11
252.927734391
 21
167.4478312524
 31
0.0
  0
LINE
  5
19E
  8
0
  6
CONTINUOUS
 62
     7
 10
252.927734391
 20
167.4478312524
 30
0.0
 11
253.0818869036
 21
166.9721869438
 31
0.0
  0
ARC
  5
19F
  8
0
  6
CONTINUOUS
 62
     7
 10
239.2131773568
 20
162.74029557
 30
0.0
 40
15.00000000000001
 50
14.3894704512
 51
16.5243829761
  0
LINE
  5
1A0
  8
0
  6
CONTINUOUS
 62
     7
 10
253.7426118415
 20
166.4679737914
 30
0.0
 11
253.2858353716
 21
166.2346151024
 31
0.0
  0
LINE
  5
1A1
  8
0
  6
CONTINUOUS
 62
     7
 10
253.2858353716
 20
166.2346151024
 30
0.0
 11
253.3979442578
 21
165.7473456616
 31
0.0
  0
ARC
  5
1A2
  8
0
  6
CONTINUOUS
 62
     7
 10
239.2131773568
 20
162.74029557
 30
0.0
 40
15.00000000000001
 50
9.3894704512
 51
11.5243829761
  0
LINE
  5
1A3
  8
0
  6
CONTINUOUS
 62
     7
 10
254.0122111004
 20
165.1874653798
 30
0.0
 11
253.536834256
 21
164.9948051235
 31
0.0
  0
LINE
  5
1A4
  8
0
  6
CONTINUOUS
 62
     7
 10
253.536834256
 20
164.9948051235
 30
0.0
 11
253.6060501497
 21
164.4996189315
 31
0.0
  0
LINE
  5
1A5
  8
0
  6
CONTINUOUS
 62
     7
 10
253.6060501497
 20
164.4996189315
 30
0.0
 11
254.1160312157
 21
164.4446860336
 31
0.0
  0
ARC
  5
1A6
  8
0
  6
CONTINUOUS
 62
     7
 10
239.2131773568
 20
162.74029557
 30
0.0
 40
15.00000000000001
 50
4.3894704512
 51
6.5243829761
  0
LINE
  5
1A7
  8
0
  6
CONTINUOUS
 62
     7
 10
253.7046176058
 20
163.2385025768
 30
0.0
 11
254.2078670722
 21
163.1393309253
 31
0.0
  0
ARC
  5
1A8
  8
0
  6
CONTINUOUS
 62
     7
 10
239.2131773568
 20
162.74029557
 30
0.0
 40
15.00000000000002
 50
359.3894704512
 51
1.5243829761
  0
LINE
  5
1A9
  8
0
  6
CONTINUOUS
 62
     7
 10
254.2123262447
 20
162.580462409
 30
0.0
 11
253.7107196313
 21
162.4732769596
 31
0.0
  0
LINE
  5
1AA
  8
0
  6
CONTINUOUS
 62
     7
 10
253.6928941172
 20
161.9735946914
 30
0.0
 11
254.1855861109
 21
161.8309388904
 31
0.0
  0
ARC
  5
1AB
  8
0
  6
CONTINUOUS
 62
     7
 10
239.2131773568
 20
162.74029557
 30
0.0
 40
15.00000000000003
 50
354.3894704512
 51
356.5243829761
  0
LINE
  5
1AC
  8
0
  6
CONTINUOUS
 62
     7
 10
254.1413184863
 20
161.2738086878
 30
0.0
 11
253.6322799187
 21
161.2107488362
 31
0.0
  0
LINE
  5
1AD
  8
0
  6
CONTINUOUS
 62
     7
 10
253.6322799187
 20
161.2107488362
 30
0.0
 11
253.5709728163
 21
160.7145220077
 31
0.0
  0
LINE
  5
1AE
  8
0
  6
CONTINUOUS
 62
     7
 10
253.5709728163
 20
160.7145220077
 30
0.0
 11
254.04935597
 21
160.5294677465
 31
0.0
  0
ARC
  5
1AF
  8
0
  6
CONTINUOUS
 62
     7
 10
239.2131773568
 20
162.74029557
 30
0.0
 40
15.00000000000002
 50
349.3894704512
 51
351.5243829761
  0
LINE
  5
1B0
  8
0
  6
CONTINUOUS
 62
     7
 10
253.9567005497
 20
159.9783157034
 30
0.0
 11
253.4441006046
 21
159.9598620123
 31
0.0
  0
LINE
  5
1B1
  8
0
  6
CONTINUOUS
 62
     7
 10
253.4441006046
 20
159.9598620123
 30
0.0
 11
253.3397775751
 21
159.4708664378
 31
0.0
  0
LINE
  5
1B2
  8
0
  6
CONTINUOUS
 62
     7
 10
253.3397775751
 20
159.4708664378
 30
0.0
 11
253.8002160054
 21
159.2448223418
 31
0.0
  0
ARC
  5
1B3
  8
0
  6
CONTINUOUS
 62
     7
 10
239.2131773568
 20
162.74029557
 30
0.0
 40
15.00000000000003
 50
344.3894704512
 51
346.5243829761
  0
LINE
  5
1B4
  8
0
  6
CONTINUOUS
 62
     7
 10
253.659873144
 20
158.7038431352
 30
0.0
 11
253.1476159256
 21
158.7301357685
 31
0.0
  0
LINE
  5
1B5
  8
0
  6
CONTINUOUS
 62
     7
 10
253.1476159256
 20
158.7301357685
 30
0.0
 11
253.0010704559
 21
158.2520934789
 31
0.0
  0
LINE
  5
1B6
  8
0
  6
CONTINUOUS
 62
     7
 10
253.0010704559
 20
158.2520934789
 30
0.0
 11
253.4400549393
 21
157.9867801665
 31
0.0
  0
ARC
  5
1B7
  8
0
  6
CONTINUOUS
 62
     7
 10
239.2131773568
 20
162.74029557
 30
0.0
 40
14.99999999999999
 50
339.3894704512
 51
341.5243829761
  0
LINE
  5
1B8
  8
0
  6
CONTINUOUS
 62
     7
 10
253.2531012457
 20
157.4600902422
 30
0.0
 11
252.7450834077
 21
157.5309294312
 31
0.0
  0
LINE
  5
1B9
  8
0
  6
CONTINUOUS
 62
     7
 10
252.7450834077
 20
157.5309294312
 30
0.0
 11
252.5574330848
 21
157.0674781723
 31
0.0
  0
LINE
  5
1BA
  8
0
  6
CONTINUOUS
 62
     7
 10
252.5574330848
 20
157.0674781723
 30
0.0
 11
252.971622036
 21
156.7649138196
 31
0.0
  0
ARC
  5
1BB
  8
0
  6
CONTINUOUS
 62
     7
 10
239.2131773568
 20
162.74029557
 30
0.0
 40
15.00000000000002
 50
334.3894704512
 51
336.5243829761
  0
LINE
  5
1BC
  8
0
  6
CONTINUOUS
 62
     7
 10
252.7394731205
 20
156.2565234525
 30
0.0
 11
252.4131786686
 21
156.3314846753
 31
0.0
  0
LINE
  5
1BD
  8
0
  6
CONTINUOUS
 62
     7
 10
252.4131786686
 20
156.3314846753
 30
0.0
 11
252.4131786686
 21
162.7402955236
 31
0.0
  0
ARC
  5
1BE
  8
0
  6
CONTINUOUS
 62
     7
 10
239.2131773571
 20
162.7402955703
 30
0.0
 40
13.19999999999982
 50
0.0
 51
80.9970049725
  0
LINE
  5
1BF
  8
0
  6
CONTINUOUS
 62
     7
 10
180.9558233854
 20
178.6352847738
 30
0.0
 11
181.2058229607
 21
177.6352855413
 31
0.0
  0
LINE
  5
1C0
  8
0
  6
CONTINUOUS
 62
     7
 10
184.9558231097
 20
178.6352847738
 30
0.0
 11
195.9558230501
 21
178.6352847738
 31
0.0
  0
LINE
  5
1C1
  8
0
  6
CONTINUOUS
 62
     7
 10
196.9558227483
 20
178.6352847738
 30
0.0
 11
197.4558228303
 21
178.6352847738
 31
0.0
  0
LINE
  5
1C2
  8
0
  6
CONTINUOUS
 62
     7
 10
198.4558229942
 20
178.6352847738
 30
0.0
 11
198.9558230762
 21
178.6352847738
 31
0.0
  0
LINE
  5
1C3
  8
0
  6
CONTINUOUS
 62
     7
 10
179.7058227148
 20
177.6352855413
 30
0.0
 11
180.2058227968
 21
177.6352855413
 31
0.0
  0
LINE
  5
1C4
  8
0
  6
CONTINUOUS
 62
     7
 10
180.2058227968
 20
177.6352855413
 30
0.0
 11
180.4558233034
 21
178.6352847738
 31
0.0
  0
LINE
  5
1C5
  8
0
  6
CONTINUOUS
 62
     7
 10
177.9558228936
 20
178.6352847738
 30
0.0
 11
178.2058234003
 21
177.6352855413
 31
0.0
  0
LINE
  5
1C6
  8
0
  6
CONTINUOUS
 62
     7
 10
178.2058234003
 20
177.6352855413
 30
0.0
 11
178.7058225509
 21
177.6352855413
 31
0.0
  0
LINE
  5
1C7
  8
0
  6
CONTINUOUS
 62
     7
 10
178.7058225509
 20
177.6352855413
 30
0.0
 11
178.9558230575
 21
178.6352847738
 31
0.0
  0
LINE
  5
1C8
  8
0
  6
CONTINUOUS
 62
     7
 10
223.2058223944
 20
177.6352855413
 30
0.0
 11
223.7058234077
 21
177.6352855413
 31
0.0
  0
LINE
  5
1C9
  8
0
  6
CONTINUOUS
 62
     7
 10
208.9558233183
 20
178.6352847738
 30
0.0
 11
209.4558224689
 21
178.6352847738
 31
0.0
  0
LINE
  5
1CA
  8
0
  6
CONTINUOUS
 62
     7
 10
253.7107196313
 20
162.4732769596
 30
0.0
 11
253.6928941172
 21
161.9735946914
 31
0.0
  0
LINE
  5
1CB
  8
0
  6
CONTINUOUS
 62
     7
 10
174.9558233332
 20
178.6352847738
 30
0.0
 11
175.2058238399
 21
177.6352855413
 31
0.0
  0
LINE
  5
1CC
  8
0
  6
CONTINUOUS
 62
     7
 10
254.1691799324
 20
163.8883324376
 30
0.0
 11
253.6788236957
 21
163.7378369959
 31
0.0
  0
LINE
  5
1CD
  8
0
  6
CONTINUOUS
 62
     7
 10
253.6788236957
 20
163.7378369959
 30
0.0
 11
253.7046176058
 21
163.2385025768
 31
0.0
  0
LINE
  5
1CE
  8
0
  6
CONTINUOUS
 62
     7
 10
216.4558236163
 20
178.6352847738
 30
0.0
 11
216.955822767
 21
178.6352847738
 31
0.0
  0
LINE
  5
1CF
  8
0
  6
CONTINUOUS
 62
     7
 10
173.7058226627
 20
177.6352855413
 30
0.0
 11
174.2058236759
 21
177.6352855413
 31
0.0
  0
LINE
  5
1D0
  8
0
  6
CONTINUOUS
 62
     7
 10
174.2058236759
 20
177.6352855413
 30
0.0
 11
174.4558223199
 21
178.6352847738
 31
0.0
  0
LINE
  5
1D1
  8
0
  6
CONTINUOUS
 62
     7
 10
171.9558228415
 20
178.6352847738
 30
0.0
 11
172.2058233481
 21
177.6352855413
 31
0.0
  0
LINE
  5
1D2
  8
0
  6
CONTINUOUS
 62
     7
 10
172.2058233481
 20
177.6352855413
 30
0.0
 11
172.7058224987
 21
177.6352855413
 31
0.0
  0
LINE
  5
1D3
  8
0
  6
CONTINUOUS
 62
     7
 10
172.7058224987
 20
177.6352855413
 30
0.0
 11
172.9558230054
 21
178.6352847738
 31
0.0
  0
LINE
  5
1D4
  8
0
  6
CONTINUOUS
 62
     7
 10
253.3979442578
 20
165.7473456616
 30
0.0
 11
253.9107751709
 21
165.7370696229
 31
0.0
  0
LINE
  5
1D5
  8
0
  6
CONTINUOUS
 62
     7
 10
226.9558225435
 20
178.6352847738
 30
0.0
 11
227.4558235567
 21
178.6352847738
 31
0.0
  0
LINE
  5
1D6
  8
0
  6
CONTINUOUS
 62
     7
 10
171.2058231842
 20
177.6352855413
 30
0.0
 11
171.4558236908
 21
178.6352847738
 31
0.0
  0
LINE
  5
1D7
  8
0
  6
CONTINUOUS
 62
     7
 10
253.0818869036
 20
166.9721869438
 30
0.0
 11
253.5936598342
 21
167.0066459373
 31
0.0
  0
LINE
  5
1D8
  8
0
  6
CONTINUOUS
 62
     7
 10
252.8745707732
 20
168.9343515354
 30
0.0
 11
252.4652582269
 21
168.6252201943
 31
0.0
  0
LINE
  5
1D9
  8
0
  6
CONTINUOUS
 62
     7
 10
252.4652582269
 20
168.6252201943
 30
0.0
 11
252.6602771741
 21
168.164820996
 31
0.0
  0
LINE
  5
1DA
  8
0
  6
CONTINUOUS
 62
     7
 10
167.4558230352
 20
178.6352847738
 30
0.0
 11
167.7058235418
 21
177.6352855413
 31
0.0
  0
LINE
  5
1DB
  8
0
  6
CONTINUOUS
 62
     7
 10
167.7058235418
 20
177.6352855413
 30
0.0
 11
168.2058226925
 21
177.6352855413
 31
0.0
  0
LINE
  5
1DC
  8
0
  6
CONTINUOUS
 62
     7
 10
168.2058226925
 20
177.6352855413
 30
0.0
 11
168.4558231991
 21
178.6352847738
 31
0.0
  0
LINE
  5
1DD
  8
0
  6
CONTINUOUS
 62
     7
 10
165.9558237206
 20
178.6352847738
 30
0.0
 11
166.2058223646
 21
177.6352855413
 31
0.0
  0
LINE
  5
1DE
  8
0
  6
CONTINUOUS
 62
     7
 10
166.2058223646
 20
177.6352855413
 30
0.0
 11
166.7058233779
 21
177.6352855413
 31
0.0
  0
ARC
  5
1DF
  8
0
  6
CONTINUOUS
 62
     7
 10
239.2131773568
 20
162.74029557
 30
0.0
 40
15.0
 50
49.3894704512
 51
51.5243829761
  0
ARC
  5
1E0
  8
0
  6
CONTINUOUS
 62
     7
 10
239.2131773568
 20
162.74029557
 30
0.0
 40
14.99999999999999
 50
44.3894704512
 51
46.5243829761
  0
LINE
  5
1E1
  8
0
  6
CONTINUOUS
 62
     7
 10
211.7058233034
 20
177.6352855413
 30
0.0
 11
211.95582381
 21
178.6352847738
 31
0.0
  0
LINE
  5
1E2
  8
0
  6
CONTINUOUS
 62
     7
 10
165.2058222007
 20
177.6352855413
 30
0.0
 11
165.4558227074
 21
178.6352847738
 31
0.0
  0
ARC
  5
1E3
  8
0
  6
CONTINUOUS
 62
     7
 10
239.2131773568
 20
162.74029557
 30
0.0
 40
14.99999999999999
 50
29.3894704512
 51
31.5243829761
  0
ARC
  5
1E4
  8
0
  6
CONTINUOUS
 62
     7
 10
239.2131773568
 20
162.74029557
 30
0.0
 40
14.99999999999998
 50
24.3894704512
 51
26.5243829761
  0
LINE
  5
1E5
  8
0
  6
CONTINUOUS
 62
     7
 10
207.9558231544
 20
178.6352847738
 30
0.0
 11
208.205823661
 21
177.6352855413
 31
0.0
  0
CIRCLE
  5
1E6
  8
0
  6
CONTINUOUS
 62
     7
 10
247.4761613959
 20
155.7734792374
 30
0.0
 40
2.349999999999994
  0
CIRCLE
  5
1E7
  8
0
  6
CONTINUOUS
 62
     7
 10
247.4761613959
 20
155.7734792374
 30
0.0
 40
1.25
  0
CIRCLE
  5
1E8
  8
0
  6
CONTINUOUS
 62
     7
 10
136.4361613959
 20
155.7734792374
 30
0.0
 40
2.350000000000023
  0
CIRCLE
  5
1E9
  8
0
  6
CONTINUOUS
 62
     7
 10
166.2561613959
 20
169.7734792374
 30
0.0
 40
2.349999999999994
  0
LINE
  5
1EA
  8
0
  6
CONTINUOUS
 62
     7
 10
136.9561616939
 20
150.8112042247
 30
0.0
 11
136.9561616939
 21
152.8932652472
 31
0.0
  0
ARC
  5
1EB
  8
0
  6
CONTINUOUS
 62
     7
 10
136.4561613959
 20
150.8112044842
 30
0.0
 40
0.5000000000000058
 50
235.3555851347
 51
0.0
  0
ARC
  5
1EC
  8
0
  6
CONTINUOUS
 62
     7
 10
144.6991454349
 20
162.74029557
 30
0.0
 40
15.00000000000001
 50
223.4756170239
 51
235.3555851347
  0
LINE
  5
1ED
  8
0
  6
CONTINUOUS
 62
     7
 10
133.8141363722
 20
152.4196085556
 30
0.0
 11
134.099866138
 21
152.8455871193
 31
0.0
  0
LINE
  5
1EE
  8
0
  6
CONTINUOUS
 62
     7
 10
134.099866138
 20
152.8455871193
 30
0.0
 11
133.7650221449
 21
153.2169072924
 31
0.0
  0
LINE
  5
1EF
  8
0
  6
CONTINUOUS
 62
     7
 10
133.7650221449
 20
153.2169072924
 30
0.0
 11
133.3118703824
 21
152.9765897466
 31
0.0
  0
ARC
  5
1F0
  8
0
  6
CONTINUOUS
 62
     7
 10
144.6991454349
 20
162.74029557
 30
0.0
 40
15.00000000000001
 50
218.4756170239
 51
220.6105295488
  0
LINE
  5
1F1
  8
0
  6
CONTINUOUS
 62
     7
 10
132.9560492795
 20
153.4075723065
 30
0.0
 11
133.2778175038
 21
153.8070268033
 31
0.0
  0
LINE
  5
1F2
  8
0
  6
CONTINUOUS
 62
     7
 10
133.2778175038
 20
153.8070268033
 30
0.0
 11
132.9766091567
 21
154.2061190157
 31
0.0
  0
LINE
  5
1F3
  8
0
  6
CONTINUOUS
 62
     7
 10
132.9766091567
 20
154.2061190157
 30
0.0
 11
132.5042386215
 21
154.0062096937
 31
0.0
  0
LINE
  5
1F4
  8
0
  6
CONTINUOUS
 62
     7
 10
132.1873356264
 20
154.466564305
 30
0.0
 11
132.5426947933
 21
154.836454898
 31
0.0
  0
LINE
  5
1F5
  8
0
  6
CONTINUOUS
 62
     7
 10
132.5426947933
 20
154.836454898
 30
0.0
 11
132.2774168711
 21
155.2602802439
 31
0.0
  0
LINE
  5
1F6
  8
0
  6
CONTINUOUS
 62
     7
 10
132.2774168711
 20
155.2602802439
 30
0.0
 11
131.7894187432
 21
155.1023018582
 31
0.0
  0
ARC
  5
1F7
  8
0
  6
CONTINUOUS
 62
     7
 10
144.6991454349
 20
162.74029557
 30
0.0
 40
15.00000000000002
 50
208.4756170239
 51
210.6105295488
  0
LINE
  5
1F8
  8
0
  6
CONTINUOUS
 62
     7
 10
131.5138441187
 20
155.5885248853
 30
0.0
 11
131.9000896674
 21
155.9260361864
 31
0.0
  0
LINE
  5
1F9
  8
0
  6
CONTINUOUS
 62
     7
 10
131.9000896674
 20
155.9260361864
 30
0.0
 11
131.6727575522
 21
156.3713685645
 31
0.0
  0
LINE
  5
1FA
  8
0
  6
CONTINUOUS
 62
     7
 10
252.0122331243
 20
155.9260361864
 30
0.0
 11
252.2395652395
 21
156.3713685645
 31
0.0
  0
ARC
  5
1FB
  8
0
  6
CONTINUOUS
 62
     7
 10
239.2131773568
 20
162.74029557
 30
0.0
 40
15.0
 50
329.3894704512
 51
331.5243829761
  0
LINE
  5
1FC
  8
0
  6
CONTINUOUS
 62
     7
 10
251.6349059206
 20
155.2602802439
 30
0.0
 11
252.1229040485
 21
155.1023018582
 31
0.0
  0
LINE
  5
1FD
  8
0
  6
CONTINUOUS
 62
     7
 10
251.3696279984
 20
154.836454898
 30
0.0
 11
251.6349059206
 21
155.2602802439
 31
0.0
  0
LINE
  5
1FE
  8
0
  6
CONTINUOUS
 62
     7
 10
251.7249871653
 20
154.466564305
 30
0.0
 11
251.3696279984
 21
154.836454898
 31
0.0
  0
ARC
  5
1FF
  8
0
  6
CONTINUOUS
 62
     7
 10
239.2131773568
 20
162.74029557
 30
0.0
 40
15.00000000000001
 50
324.3894704512
 51
326.5243829761
  0
LINE
  5
200
  8
0
  6
CONTINUOUS
 62
     7
 10
250.935713635
 20
154.2061190157
 30
0.0
 11
251.4080841702
 21
154.0062096937
 31
0.0
  0
LINE
  5
201
  8
0
  6
CONTINUOUS
 62
     7
 10
250.634505288
 20
153.8070268033
 30
0.0
 11
250.935713635
 21
154.2061190157
 31
0.0
  0
LINE
  5
202
  8
0
  6
CONTINUOUS
 62
     7
 10
250.9562735122
 20
153.4075723065
 30
0.0
 11
250.634505288
 21
153.8070268033
 31
0.0
  0
ARC
  5
203
  8
0
  6
CONTINUOUS
 62
     7
 10
239.2131773568
 20
162.74029557
 30
0.0
 40
14.99999999999998
 50
319.3894704512
 51
321.5243829761
  0
LINE
  5
204
  8
0
  6
CONTINUOUS
 62
     7
 10
250.1473006468
 20
153.2169072924
 30
0.0
 11
250.6004524093
 21
152.9765897466
 31
0.0
  0
LINE
  5
205
  8
0
  6
CONTINUOUS
 62
     7
 10
249.8124566537
 20
152.8455871193
 30
0.0
 11
250.1473006468
 21
153.2169072924
 31
0.0
  0
LINE
  5
206
  8
0
  6
CONTINUOUS
 62
     7
 10
250.0981864196
 20
152.4196085556
 30
0.0
 11
249.8124566537
 21
152.8455871193
 31
0.0
  0
ARC
  5
207
  8
0
  6
CONTINUOUS
 62
     7
 10
239.2131773568
 20
162.74029557
 30
0.0
 40
14.99999999999998
 50
304.6444148653
 51
316.5243829761
  0
ARC
  5
208
  8
0
  6
CONTINUOUS
 62
     7
 10
247.4561613959
 20
150.8112044842
 30
0.0
 40
0.5
 50
180.0
 51
304.6444148653
  0
LINE
  5
209
  8
0
  6
CONTINUOUS
 62
     7
 10
246.4561600846
 20
152.8932652472
 30
0.0
 11
246.9561610978
 21
152.8932652472
 31
0.0
  0
ARC
  5
20A
  8
0
  6
CONTINUOUS
 62
     7
 10
246.4561613959
 20
154.8932648558
 30
0.0
 40
2.0
 50
180.0
 51
270.0
  0
LINE
  5
20B
  8
0
  6
CONTINUOUS
 62
     7
 10
244.4561597567
 20
157.1479416488
 30
0.0
 11
244.4561597567
 21
154.8932646437
 31
0.0
  0
ARC
  5
20C
  8
0
  6
CONTINUOUS
 62
     7
 10
246.4561613959
 20
157.1479412666
 30
0.0
 40
2.0
 50
90.0
 51
180.0
  0
LINE
  5
20D
  8
0
  6
CONTINUOUS
 62
     7
 10
248.2743252676
 20
159.1479410453
 30
0.0
 11
246.4561600846
 21
159.1479410453
 31
0.0
  0
ARC
  5
20E
  8
0
  6
CONTINUOUS
 62
     7
 10
248.2743256161
 20
161.1479412666
 30
0.0
 40
2.0
 50
270.0
 51
350.0329389653
  0
ARC
  5
20F
  8
0
  6
CONTINUOUS
 62
     7
 10
239.2131773571
 20
162.7402955703
 30
0.0
 40
11.2000000000001
 50
350.0329389653
 51
80.9970049725
  0
ARC
  5
210
  8
0
  6
CONTINUOUS
 62
     7
 10
191.9561613958
 20
-135.5278500525
 30
0.0
 40
313.188596226401
 50
80.9970049725
 51
82.7188955624
  0
LINE
  5
211
  8
0
  6
CONTINUOUS
 62
     7
 10
231.6488948327
 20
175.1352851315
 30
0.0
 11
170.7561620187
 21
175.1352851315
 31
0.0
  0
LINE
  5
212
  8
0
  6
CONTINUOUS
 62
     7
 10
170.7561620187
 20
166.8534792297
 30
0.0
 11
170.7561620187
 21
175.1352851315
 31
0.0
  0
LINE
  5
213
  8
0
  6
CONTINUOUS
 62
     7
 10
161.7561605435
 20
166.8534792297
 30
0.0
 11
170.7561620187
 21
166.8534792297
 31
0.0
  0
LINE
  5
214
  8
0
  6
CONTINUOUS
 62
     7
 10
161.7561605435
 20
175.1352851315
 30
0.0
 11
161.7561605435
 21
166.8534792297
 31
0.0
  0
ARC
  5
215
  8
0
  6
CONTINUOUS
 62
     7
 10
191.9561613958
 20
-135.5278500525
 30
0.0
 40
313.1885962264002
 50
97.2811044376
 51
99.0029950275
  0
ARC
  5
216
  8
0
  6
CONTINUOUS
 62
     7
 10
144.6991454346
 20
162.7402955703
 30
0.0
 40
11.20000000000209
 50
99.0029950275
 51
189.9670610347
  0
ARC
  5
217
  8
0
  6
CONTINUOUS
 62
     7
 10
135.6379971756
 20
161.1479412666
 30
0.0
 40
2.0
 50
189.9670610347
 51
270.0
  0
ARC
  5
218
  8
0
  6
CONTINUOUS
 62
     7
 10
137.4561613959
 20
157.1479412666
 30
0.0
 40
2.0
 50
0.0
 51
90.0
  0
LINE
  5
219
  8
0
  6
CONTINUOUS
 62
     7
 10
139.456163035
 20
157.1479416488
 30
0.0
 11
139.456163035
 21
154.8932646437
 31
0.0
  0
ARC
  5
21A
  8
0
  6
CONTINUOUS
 62
     7
 10
137.4561613959
 20
154.8932648558
 30
0.0
 40
2.0
 50
270.0
 51
0.0
  0
LINE
  5
21B
  8
0
  6
CONTINUOUS
 62
     7
 10
137.4561627072
 20
152.8932652472
 30
0.0
 11
136.9561616939
 21
152.8932652472
 31
0.0
  0
LINE
  5
21C
  8
0
  6
CONTINUOUS
 62
     7
 10
135.6379975241
 20
159.1479410453
 30
0.0
 11
137.4561627072
 21
159.1479410453
 31
0.0
  0
LINE
  5
21D
  8
0
  6
CONTINUOUS
 62
     7
 10
161.7561605435
 20
175.1352851315
 30
0.0
 11
152.263427959
 21
175.1352851315
 31
0.0
  0
LINE
  5
21E
  8
0
  6
CONTINUOUS
 62
     7
 10
246.9561610978
 20
152.8932652472
 30
0.0
 11
246.9561610978
 21
150.8112042247
 31
0.0
  0
LINE
  5
21F
  8
0
  6
CONTINUOUS
 62
     7
 10
252.398478673
 20
155.5885248853
 30
0.0
 11
252.0122331243
 21
155.9260361864
 31
0.0
  0
ARC
  5
220
  8
0
  6
CONTINUOUS
 62
     7
 10
144.6991454349
 20
162.74029557
 30
0.0
 40
14.99999999999998
 50
213.4756170239
 51
215.6105295488
  0
LINE
  5
221
  8
0
  6
CONTINUOUS
 62
     7
 10
252.2395652395
 20
156.3713685645
 30
0.0
 11
252.4131786686
 21
156.3314846753
 31
0.0
  0
LINE
  5
222
  8
0
  6
CONTINUOUS
 62
     7
 10
131.6727575522
 20
156.3713685645
 30
0.0
 11
131.4991441231
 21
156.3314846753
 31
0.0
  0
CIRCLE
  5
223
  8
0
  6
CONTINUOUS
 62
     7
 10
166.2561613959
 20
169.7734792374
 30
0.0
 40
1.25
  0
CIRCLE
  5
224
  8
0
  6
CONTINUOUS
 62
     7
 10
136.4361613959
 20
155.7734792374
 30
0.0
 40
1.25
  0
LINE
  5
225
  8
0
  6
CONTINUOUS
 62
     7
 10
170.7561620187
 20
166.8034792273
 30
0.0
 11
161.7561605435
 21
166.8034792273
 31
0.0
  0
LINE
  5
226
  8
0
  6
CONTINUOUS
 62
     7
 10
170.7561620187
 20
166.8534792297
 30
0.0
 11
170.7561620187
 21
166.8034792273
 31
0.0
  0
LINE
  5
227
  8
0
  6
CONTINUOUS
 62
     7
 10
161.7561605435
 20
166.8034792273
 30
0.0
 11
161.7561605435
 21
166.8534792297
 31
0.0
  0
LINE
  5
228
  8
0
  6
CONTINUOUS
 62
     7
 10
161.7561605435
 20
162.903479304
 30
0.0
 11
170.7561620187
 21
162.903479304
 31
0.0
  0
LINE
  5
229
  8
0
  6
CONTINUOUS
 62
     7
 10
170.7561620187
 20
166.8034792273
 30
0.0
 11
170.7561620187
 21
162.903479304
 31
0.0
  0
LINE
  5
22A
  8
0
  6
CONTINUOUS
 62
     7
 10
161.7561605435
 20
166.8034792273
 30
0.0
 11
161.7561605435
 21
162.903479304
 31
0.0
  0
LINE
  5
22B
  8
0
  6
CONTINUOUS
 62
     7
 10
170.7561620187
 20
162.8534791561
 30
0.0
 11
161.7561605435
 21
162.8534791561
 31
0.0
  0
LINE
  5
22C
  8
0
  6
CONTINUOUS
 62
     7
 10
170.7561620187
 20
162.903479304
 30
0.0
 11
170.7561620187
 21
162.8534791561
 31
0.0
  0
LINE
  5
22D
  8
0
  6
CONTINUOUS
 62
     7
 10
161.7561605435
 20
162.8534791561
 30
0.0
 11
161.7561605435
 21
162.903479304
 31
0.0
  0
ARC
  5
22E
  8
0
  6
CONTINUOUS
 62
     7
 10
166.2561613959
 20
169.7734792374
 30
0.0
 40
1.500000000000004
 50
255.0
 51
195.0
  0
ARC
  5
22F
  8
0
  6
CONTINUOUS
 62
     7
 10
166.2561613959
 20
169.7734792374
 30
0.0
 40
1.500000000000004
 50
255.0
 51
195.0
  0
ARC
  5
230
  8
0
  6
CONTINUOUS
 62
     7
 10
247.4761613959
 20
155.7734792374
 30
0.0
 40
1.500000000000011
 50
255.0
 51
195.0
  0
ARC
  5
231
  8
0
  6
CONTINUOUS
 62
     7
 10
136.4361613959
 20
155.7734792374
 30
0.0
 40
1.500000000000011
 50
255.0
 51
195.0
  0
ARC
  5
232
  8
0
  6
CONTINUOUS
 62
     7
 10
136.4361613959
 20
155.7734792374
 30
0.0
 40
1.500000000000011
 50
255.0
 51
195.0
  0
ARC
  5
233
  8
0
  6
CONTINUOUS
 62
     7
 10
247.4761613959
 20
155.7734792374
 30
0.0
 40
1.500000000000011
 50
255.0
 51
195.0
  0
ENDSEC
  0
EOF
