  0
SECTION
  2
HEADER
  9
$ACADVER
  1
AC1009
  9
$DWGCODEPAGE
  3
ansi_1252
  9
$INSBASE
 10
0.0
 20
0.0
 30
0.0
  9
$EXTMIN
 10
0.0
 20
0.0
 30
0.0
  9
$EXTMAX
 10
420.0
 20
297.0
 30
0.0
  9
$LIMMIN
 10
0.0
 20
0.0
  9
$LIMMAX
 10
420.0
 20
297.0
  9
$ORTHOMODE
 70
     0
  9
$REGENMODE
 70
     1
  9
$FILLMODE
 70
     1
  9
$QTEXTMODE
 70
     0
  9
$MIRRTEXT
 70
     1
  9
$DRAGMODE
 70
     2
  9
$LTSCALE
 40
1.0
  9
$OSMODE
 70
    37
  9
$ATTMODE
 70
     1
  9
$TEXTSIZE
 40
3.5
  9
$TRACEWID
 40
1.0
  9
$TEXTSTYLE
  7
STANDARD
  9
$CLAYER
  8
0
  9
$CELTYPE
  6
BYLAYER
  9
$CECOLOR
 62
   256
  9
$DIMSCALE
 40
1.0
  9
$DIMASZ
 40
3.302
  9
$DIMEXO
 40
1.0
  9
$DIMDLI
 40
3.75
  9
$DIMRND
 40
0.0
  9
$DIMDLE
 40
0.0
  9
$DIMEXE
 40
1.0
  9
$DIMTP
 40
0.0
  9
$DIMTM
 40
0.0
  9
$DIMTXT
 40
3.5
  9
$DIMCEN
 40
2.5
  9
$DIMTSZ
 40
0.0
  9
$DIMTOL
 70
     0
  9
$DIMLIM
 70
     0
  9
$DIMTIH
 70
     1
  9
$DIMTOH
 70
     1
  9
$DIMSE1
 70
     0
  9
$DIMSE2
 70
     0
  9
$DIMTAD
 70
     1
  9
$DIMZIN
 70
     0
  9
$DIMBLK
  1

  9
$DIMASO
 70
     1
  9
$DIMSHO
 70
     1
  9
$DIMPOST
  1

  9
$DIMAPOST
  1

  9
$DIMALT
 70
     0
  9
$DIMALTD
 70
     3
  9
$DIMALTF
 40
0.0393700787
  9
$DIMLFAC
 40
1.0
  9
$DIMTOFL
 70
     1
  9
$DIMTVP
 40
0.0
  9
$DIMTIX
 70
     0
  9
$DIMSOXD
 70
     0
  9
$DIMSAH
 70
     0
  9
$DIMBLK1
  1

  9
$DIMBLK2
  1

  9
$DIMSTYLE
  2
ISO-25
  9
$DIMCLRD
 70
     0
  9
$DIMCLRE
 70
     0
  9
$DIMCLRT
 70
     0
  9
$DIMTFAC
 40
1.0
  9
$DIMGAP
 40
1.524
  9
$LUNITS
 70
     2
  9
$LUPREC
 70
     2
  9
$SKETCHINC
 40
1.0
  9
$FILLETRAD
 40
10.0
  9
$AUNITS
 70
     0
  9
$AUPREC
 70
     2
  9
$MENU
  1
.
  9
$ELEVATION
 40
0.0
  9
$PELEVATION
 40
0.0
  9
$THICKNESS
 40
0.0
  9
$LIMCHECK
 70
     0
  9
$CHAMFERA
 40
0.0
  9
$CHAMFERB
 40
0.0
  9
$SKPOLY
 70
     0
  9
$TDCREATE
 40
2457881.401690521
  9
$TDUPDATE
 40
2457881.401690706
  9
$TDINDWG
 40
0.0000000116
  9
$TDUSRTIMER
 40
0.0000000116
  9
$USRTIMER
 70
     1
  9
$ANGBASE
 50
0.0
  9
$ANGDIR
 70
     0
  9
$PDMODE
 70
     0
  9
$PDSIZE
 40
-1.0
  9
$PLINEWID
 40
0.0
  9
$COORDS
 70
     1
  9
$SPLFRAME
 70
     0
  9
$SPLINETYPE
 70
     6
  9
$SPLINESEGS
 70
     8
  9
$ATTDIA
 70
     0
  9
$ATTREQ
 70
     1
  9
$HANDLING
 70
     1
  9
$HANDSEED
  5
18A
  9
$SURFTAB1
 70
     6
  9
$SURFTAB2
 70
     6
  9
$SURFTYPE
 70
     6
  9
$SURFU
 70
     6
  9
$SURFV
 70
     6
  9
$UCSNAME
  2

  9
$UCSORG
 10
0.0
 20
0.0
 30
0.0
  9
$UCSXDIR
 10
1.0
 20
0.0
 30
0.0
  9
$UCSYDIR
 10
0.0
 20
1.0
 30
0.0
  9
$PUCSNAME
  2

  9
$PUCSORG
 10
0.0
 20
0.0
 30
0.0
  9
$PUCSXDIR
 10
1.0
 20
0.0
 30
0.0
  9
$PUCSYDIR
 10
0.0
 20
1.0
 30
0.0
  9
$USERI1
 70
     0
  9
$USERI2
 70
     0
  9
$USERI3
 70
     0
  9
$USERI4
 70
     0
  9
$USERI5
 70
     0
  9
$USERR1
 40
0.0
  9
$USERR2
 40
0.0
  9
$USERR3
 40
0.0
  9
$USERR4
 40
0.0
  9
$USERR5
 40
0.0
  9
$WORLDVIEW
 70
     1
  9
$SHADEDGE
 70
     3
  9
$SHADEDIF
 70
    70
  9
$TILEMODE
 70
     1
  9
$MAXACTVP
 70
    64
  9
$PLIMCHECK
 70
     0
  9
$PEXTMIN
 10
1.0000000000E+20
 20
1.0000000000E+20
 30
1.0000000000E+20
  9
$PEXTMAX
 10
-1.0000000000E+20
 20
-1.0000000000E+20
 30
-1.0000000000E+20
  9
$PLIMMIN
 10
0.0
 20
0.0
  9
$PLIMMAX
 10
420.0
 20
297.0
  9
$UNITMODE
 70
     0
  9
$VISRETAIN
 70
     1
  9
$PLINEGEN
 70
     0
  9
$PSLTSCALE
 70
     1
  0
ENDSEC
  0
SECTION
  2
TABLES
  0
TABLE
  2
VPORT
 70
     1
  0
VPORT
  2
*ACTIVE
 70
     0
 10
0.0
 20
0.0
 11
1.0
 21
1.0
 12
210.0
 22
148.5
 13
0.0
 23
0.0
 14
10.0
 24
10.0
 15
10.0
 25
10.0
 16
0.0
 26
0.0
 36
1.0
 17
0.0
 27
0.0
 37
0.0
 40
297.0
 41
1.4141414141
 42
50.0
 43
0.0
 44
0.0
 50
0.0
 51
0.0
 71
     0
 72
  2000
 73
     1
 74
     3
 75
     0
 76
     0
 77
     0
 78
     0
  0
ENDTAB
  0
TABLE
  2
LTYPE
 70
     6
  0
LTYPE
  2
CONTINUOUS
 70
     0
  3
Solid line
 72
    65
 73
     0
 40
0.0
  0
LTYPE
  2
HIDDEN
 70
     0
  3
Hidden __ __ __ __ __ __ __ __ __ __ __ __ __ __
 72
    65
 73
     2
 40
1.905
 49
1.27
 49
-0.635
  0
LTYPE
  2
PHANTOM
 70
     0
  3
Phantom ______  __  __  ______  __  __  ______
 72
    65
 73
     6
 40
12.7
 49
6.35
 49
-1.27
 49
1.27
 49
-1.27
 49
1.27
 49
-1.27
  0
LTYPE
  2
CENTER
 70
     0
  3
Center ____ _ ____ _ ____ _ ____ _ ____ _ ____
 72
    65
 73
     4
 40
10.16
 49
6.35
 49
-1.27
 49
1.27
 49
-1.27
  0
LTYPE
  2
CENTERX2
 70
     0
  3
Center (2x) ________  __  ________  __  _____
 72
    65
 73
     4
 40
20.32
 49
12.7
 49
-2.54
 49
2.54
 49
-2.54
  0
LTYPE
  2
DOT2
 70
     0
  3
Dot (.5x) ........................................
 72
    65
 73
     2
 40
0.635
 49
0.0
 49
-0.635
  0
ENDTAB
  0
TABLE
  2
LAYER
 70
     2
  0
LAYER
  2
0
 70
     0
 62
     7
  6
CONTINUOUS
  0
LAYER
  2
FORMAT
 70
     0
 62
     7
  6
CONTINUOUS
  0
ENDTAB
  0
TABLE
  2
STYLE
 70
     1
  0
STYLE
  2
STANDARD
 70
     0
 40
0.0
 41
1.0
 50
0.0
 71
     0
 42
3.5
  3
txt
  4

  0
ENDTAB
  0
TABLE
  2
VIEW
 70
     0
  0
ENDTAB
  0
TABLE
  2
UCS
 70
     0
  0
ENDTAB
  0
TABLE
  2
APPID
 70
     1
  0
APPID
  2
ACAD
 70
     0
  0
ENDTAB
  0
TABLE
  2
DIMSTYLE
 70
     1
  0
DIMSTYLE
  2
ISO-25
 70
     0
  3

  4

  5

  6

  7

 40
1.0
 41
2.5
 42
0.625
 43
3.75
 44
1.25
 45
0.0
 46
0.0
 47
0.0
 48
0.0
140
2.5
141
2.5
142
0.0
143
0.0393700787
144
1.0
145
0.0
146
1.0
147
0.625
 71
     0
 72
     0
 73
     0
 74
     0
 75
     0
 76
     0
 77
     1
 78
     8
170
     0
171
     3
172
     1
173
     0
174
     0
175
     0
176
     0
177
     0
178
     0
  0
ENDTAB
  0
ENDSEC
  0
SECTION
  2
BLOCKS
  0
BLOCK
  8
0
  2
$MODEL_SPACE
 70
     0
 10
0.0
 20
0.0
 30
0.0
  3
$MODEL_SPACE
  1

  0
ENDBLK
  5
21
  8
0
  0
BLOCK
 67
     1
  8
0
  2
$PAPER_SPACE
 70
     0
 10
0.0
 20
0.0
 30
0.0
  3
$PAPER_SPACE
  1

  0
ENDBLK
  5
1D
 67
     1
  8
0
  0
BLOCK
  8
0
  2
SW_CENTERMARKSYMBOL_0
 70
     0
 10
0.0
 20
0.0
 30
0.0
  3
SW_CENTERMARKSYMBOL_0
  1

  0
LINE
  5
FF
  8
0
  6
CONTINUOUS
 62
     0
 10
0.0
 20
0.0
 30
0.0
 11
0.0
 21
2.5
 31
0.0
  0
LINE
  5
100
  8
0
  6
CONTINUOUS
 62
     0
 10
0.0
 20
0.0
 30
0.0
 11
-2.5
 21
0.0
 31
0.0
  0
LINE
  5
101
  8
0
  6
CONTINUOUS
 62
     0
 10
0.0
 20
0.0
 30
0.0
 11
0.0
 21
-2.5
 31
0.0
  0
LINE
  5
102
  8
0
  6
CONTINUOUS
 62
     0
 10
0.0
 20
0.0
 30
0.0
 11
2.5
 21
0.0
 31
0.0
  0
LINE
  5
103
  8
0
  6
CONTINUOUS
 62
     0
 10
0.0
 20
2.5
 30
0.0
 11
0.0
 21
3.75
 31
0.0
  0
LINE
  5
104
  8
0
  6
CONTINUOUS
 62
     0
 10
-2.5
 20
0.0
 30
0.0
 11
-3.75
 21
0.0
 31
0.0
  0
LINE
  5
105
  8
0
  6
CONTINUOUS
 62
     0
 10
0.0
 20
-2.5
 30
0.0
 11
0.0
 21
-3.75
 31
0.0
  0
LINE
  5
106
  8
0
  6
CONTINUOUS
 62
     0
 10
2.5
 20
0.0
 30
0.0
 11
3.75
 21
0.0
 31
0.0
  0
ENDBLK
  5
FE
  8
0
  0
BLOCK
  8
0
  2
SW_CENTERMARKSYMBOL_1
 70
     0
 10
0.0
 20
0.0
 30
0.0
  3
SW_CENTERMARKSYMBOL_1
  1

  0
LINE
  5
10B
  8
0
  6
CONTINUOUS
 62
     0
 10
0.0
 20
0.0
 30
0.0
 11
0.0
 21
2.5
 31
0.0
  0
LINE
  5
10C
  8
0
  6
CONTINUOUS
 62
     0
 10
0.0
 20
0.0
 30
0.0
 11
-2.5
 21
0.0
 31
0.0
  0
LINE
  5
10D
  8
0
  6
CONTINUOUS
 62
     0
 10
0.0
 20
0.0
 30
0.0
 11
0.0
 21
-2.5
 31
0.0
  0
LINE
  5
10E
  8
0
  6
CONTINUOUS
 62
     0
 10
0.0
 20
0.0
 30
0.0
 11
2.5
 21
0.0
 31
0.0
  0
LINE
  5
10F
  8
0
  6
CONTINUOUS
 62
     0
 10
0.0
 20
2.5
 30
0.0
 11
0.0
 21
3.75
 31
0.0
  0
LINE
  5
110
  8
0
  6
CONTINUOUS
 62
     0
 10
-2.5
 20
0.0
 30
0.0
 11
-3.75
 21
0.0
 31
0.0
  0
LINE
  5
111
  8
0
  6
CONTINUOUS
 62
     0
 10
0.0
 20
-2.5
 30
0.0
 11
0.0
 21
-3.75
 31
0.0
  0
LINE
  5
112
  8
0
  6
CONTINUOUS
 62
     0
 10
2.5
 20
0.0
 30
0.0
 11
3.75
 21
0.0
 31
0.0
  0
ENDBLK
  5
10A
  8
0
  0
BLOCK
  8
0
  2
SW_CENTERMARKSYMBOL_2
 70
     0
 10
0.0
 20
0.0
 30
0.0
  3
SW_CENTERMARKSYMBOL_2
  1

  0
LINE
  5
117
  8
0
  6
CONTINUOUS
 62
     0
 10
0.0
 20
0.0
 30
0.0
 11
0.0
 21
2.5
 31
0.0
  0
LINE
  5
118
  8
0
  6
CONTINUOUS
 62
     0
 10
0.0
 20
0.0
 30
0.0
 11
-2.5
 21
0.0
 31
0.0
  0
LINE
  5
119
  8
0
  6
CONTINUOUS
 62
     0
 10
0.0
 20
0.0
 30
0.0
 11
0.0
 21
-2.5
 31
0.0
  0
LINE
  5
11A
  8
0
  6
CONTINUOUS
 62
     0
 10
0.0
 20
0.0
 30
0.0
 11
2.5
 21
0.0
 31
0.0
  0
LINE
  5
11B
  8
0
  6
CONTINUOUS
 62
     0
 10
0.0
 20
2.5
 30
0.0
 11
0.0
 21
3.75
 31
0.0
  0
LINE
  5
11C
  8
0
  6
CONTINUOUS
 62
     0
 10
-2.5
 20
0.0
 30
0.0
 11
-3.75
 21
0.0
 31
0.0
  0
LINE
  5
11D
  8
0
  6
CONTINUOUS
 62
     0
 10
0.0
 20
-2.5
 30
0.0
 11
0.0
 21
-3.75
 31
0.0
  0
LINE
  5
11E
  8
0
  6
CONTINUOUS
 62
     0
 10
2.5
 20
0.0
 30
0.0
 11
3.75
 21
0.0
 31
0.0
  0
ENDBLK
  5
116
  8
0
  0
BLOCK
  8
0
  2
SW_CENTERMARKSYMBOL_3
 70
     0
 10
0.0
 20
0.0
 30
0.0
  3
SW_CENTERMARKSYMBOL_3
  1

  0
LINE
  5
123
  8
0
  6
CONTINUOUS
 62
     0
 10
0.0
 20
0.0
 30
0.0
 11
0.0
 21
2.5
 31
0.0
  0
LINE
  5
124
  8
0
  6
CONTINUOUS
 62
     0
 10
0.0
 20
0.0
 30
0.0
 11
-2.5
 21
0.0
 31
0.0
  0
LINE
  5
125
  8
0
  6
CONTINUOUS
 62
     0
 10
0.0
 20
0.0
 30
0.0
 11
0.0
 21
-2.5
 31
0.0
  0
LINE
  5
126
  8
0
  6
CONTINUOUS
 62
     0
 10
0.0
 20
0.0
 30
0.0
 11
2.5
 21
0.0
 31
0.0
  0
LINE
  5
127
  8
0
  6
CONTINUOUS
 62
     0
 10
0.0
 20
2.5
 30
0.0
 11
0.0
 21
3.75
 31
0.0
  0
LINE
  5
128
  8
0
  6
CONTINUOUS
 62
     0
 10
-2.5
 20
0.0
 30
0.0
 11
-3.75
 21
0.0
 31
0.0
  0
LINE
  5
129
  8
0
  6
CONTINUOUS
 62
     0
 10
0.0
 20
-2.5
 30
0.0
 11
0.0
 21
-3.75
 31
0.0
  0
LINE
  5
12A
  8
0
  6
CONTINUOUS
 62
     0
 10
2.5
 20
0.0
 30
0.0
 11
3.75
 21
0.0
 31
0.0
  0
ENDBLK
  5
122
  8
0
  0
BLOCK
  8
0
  2
SW_CENTERMARKSYMBOL_4
 70
     0
 10
0.0
 20
0.0
 30
0.0
  3
SW_CENTERMARKSYMBOL_4
  1

  0
LINE
  5
12F
  8
0
  6
CONTINUOUS
 62
     0
 10
0.0
 20
0.0
 30
0.0
 11
0.0
 21
2.5
 31
0.0
  0
LINE
  5
130
  8
0
  6
CONTINUOUS
 62
     0
 10
0.0
 20
0.0
 30
0.0
 11
-2.5
 21
0.0
 31
0.0
  0
LINE
  5
131
  8
0
  6
CONTINUOUS
 62
     0
 10
0.0
 20
0.0
 30
0.0
 11
0.0
 21
-2.5
 31
0.0
  0
LINE
  5
132
  8
0
  6
CONTINUOUS
 62
     0
 10
0.0
 20
0.0
 30
0.0
 11
2.5
 21
0.0
 31
0.0
  0
LINE
  5
133
  8
0
  6
CONTINUOUS
 62
     0
 10
0.0
 20
5.0
 30
0.0
 11
0.0
 21
7.5
 31
0.0
  0
LINE
  5
134
  8
0
  6
CONTINUOUS
 62
     0
 10
-5.0
 20
0.0
 30
0.0
 11
-7.5
 21
0.0
 31
0.0
  0
LINE
  5
135
  8
0
  6
CONTINUOUS
 62
     0
 10
0.0
 20
-5.0
 30
0.0
 11
0.0
 21
-7.5
 31
0.0
  0
LINE
  5
136
  8
0
  6
CONTINUOUS
 62
     0
 10
5.0
 20
0.0
 30
0.0
 11
7.5
 21
0.0
 31
0.0
  0
ENDBLK
  5
12E
  8
0
  0
BLOCK
  8
0
  2
SW_CENTERMARKSYMBOL_5
 70
     0
 10
0.0
 20
0.0
 30
0.0
  3
SW_CENTERMARKSYMBOL_5
  1

  0
LINE
  5
13B
  8
0
  6
CONTINUOUS
 62
     0
 10
0.0
 20
0.0
 30
0.0
 11
0.0
 21
2.5
 31
0.0
  0
LINE
  5
13C
  8
0
  6
CONTINUOUS
 62
     0
 10
0.0
 20
0.0
 30
0.0
 11
-2.5
 21
0.0
 31
0.0
  0
LINE
  5
13D
  8
0
  6
CONTINUOUS
 62
     0
 10
0.0
 20
0.0
 30
0.0
 11
0.0
 21
-2.5
 31
0.0
  0
LINE
  5
13E
  8
0
  6
CONTINUOUS
 62
     0
 10
0.0
 20
0.0
 30
0.0
 11
2.5
 21
0.0
 31
0.0
  0
LINE
  5
13F
  8
0
  6
CONTINUOUS
 62
     0
 10
0.0
 20
5.0
 30
0.0
 11
0.0
 21
7.5
 31
0.0
  0
LINE
  5
140
  8
0
  6
CONTINUOUS
 62
     0
 10
-5.0
 20
0.0
 30
0.0
 11
-7.5
 21
0.0
 31
0.0
  0
LINE
  5
141
  8
0
  6
CONTINUOUS
 62
     0
 10
0.0
 20
-5.0
 30
0.0
 11
0.0
 21
-7.5
 31
0.0
  0
LINE
  5
142
  8
0
  6
CONTINUOUS
 62
     0
 10
5.0
 20
0.0
 30
0.0
 11
7.5
 21
0.0
 31
0.0
  0
ENDBLK
  5
13A
  8
0
  0
BLOCK
  8
0
  2
SW_CENTERMARKSYMBOL_6
 70
     0
 10
0.0
 20
0.0
 30
0.0
  3
SW_CENTERMARKSYMBOL_6
  1

  0
LINE
  5
147
  8
0
  6
CONTINUOUS
 62
     0
 10
0.0
 20
0.0
 30
0.0
 11
0.0
 21
2.5
 31
0.0
  0
LINE
  5
148
  8
0
  6
CONTINUOUS
 62
     0
 10
0.0
 20
0.0
 30
0.0
 11
-2.5
 21
0.0
 31
0.0
  0
LINE
  5
149
  8
0
  6
CONTINUOUS
 62
     0
 10
0.0
 20
0.0
 30
0.0
 11
0.0
 21
-2.5
 31
0.0
  0
LINE
  5
14A
  8
0
  6
CONTINUOUS
 62
     0
 10
0.0
 20
0.0
 30
0.0
 11
2.5
 21
0.0
 31
0.0
  0
LINE
  5
14B
  8
0
  6
CONTINUOUS
 62
     0
 10
0.0
 20
5.0
 30
0.0
 11
0.0
 21
7.5
 31
0.0
  0
LINE
  5
14C
  8
0
  6
CONTINUOUS
 62
     0
 10
-5.0
 20
0.0
 30
0.0
 11
-7.5
 21
0.0
 31
0.0
  0
LINE
  5
14D
  8
0
  6
CONTINUOUS
 62
     0
 10
0.0
 20
-5.0
 30
0.0
 11
0.0
 21
-7.5
 31
0.0
  0
LINE
  5
14E
  8
0
  6
CONTINUOUS
 62
     0
 10
5.0
 20
0.0
 30
0.0
 11
7.5
 21
0.0
 31
0.0
  0
ENDBLK
  5
146
  8
0
  0
BLOCK
  8
0
  2
SW_CENTERMARKSYMBOL_7
 70
     0
 10
0.0
 20
0.0
 30
0.0
  3
SW_CENTERMARKSYMBOL_7
  1

  0
LINE
  5
153
  8
0
  6
CONTINUOUS
 62
     0
 10
0.0
 20
0.0
 30
0.0
 11
0.0
 21
2.5
 31
0.0
  0
LINE
  5
154
  8
0
  6
CONTINUOUS
 62
     0
 10
0.0
 20
0.0
 30
0.0
 11
-2.5
 21
0.0
 31
0.0
  0
LINE
  5
155
  8
0
  6
CONTINUOUS
 62
     0
 10
0.0
 20
0.0
 30
0.0
 11
0.0
 21
-2.5
 31
0.0
  0
LINE
  5
156
  8
0
  6
CONTINUOUS
 62
     0
 10
0.0
 20
0.0
 30
0.0
 11
2.5
 21
0.0
 31
0.0
  0
LINE
  5
157
  8
0
  6
CONTINUOUS
 62
     0
 10
0.0
 20
5.0
 30
0.0
 11
0.0
 21
7.5
 31
0.0
  0
LINE
  5
158
  8
0
  6
CONTINUOUS
 62
     0
 10
-5.0
 20
0.0
 30
0.0
 11
-7.5
 21
0.0
 31
0.0
  0
LINE
  5
159
  8
0
  6
CONTINUOUS
 62
     0
 10
0.0
 20
-5.0
 30
0.0
 11
0.0
 21
-7.5
 31
0.0
  0
LINE
  5
15A
  8
0
  6
CONTINUOUS
 62
     0
 10
5.0
 20
0.0
 30
0.0
 11
7.5
 21
0.0
 31
0.0
  0
ENDBLK
  5
152
  8
0
  0
ENDSEC
  0
SECTION
  2
ENTITIES
  0
LINE
  5
70
  8
0
  6
CENTERX2
 62
     7
 10
159.1586085308
 20
108.2448060663
 30
0.0
 11
159.1586085308
 21
218.2448060663
 31
0.0
  0
LINE
  5
71
  8
0
  6
CENTERX2
 62
     7
 10
81.4736529386
 20
218.2448060663
 30
0.0
 11
81.4736529386
 21
108.2448060663
 31
0.0
  0
LINE
  5
72
  8
0
  6
CONTINUOUS
 62
     7
 10
74.2011751425
 20
189.2848060663
 30
0.0
 11
57.8011751425
 21
189.2848060663
 31
0.0
  0
LINE
  5
73
  8
0
  6
CONTINUOUS
 62
     7
 10
74.2011751425
 20
204.6848060663
 30
0.0
 11
74.2011751425
 21
189.2848060663
 31
0.0
  0
LINE
  5
74
  8
0
  6
CONTINUOUS
 62
     7
 10
74.2011751425
 20
204.6848060663
 30
0.0
 11
57.8011751425
 21
204.6848060663
 31
0.0
  0
LINE
  5
75
  8
0
  6
CONTINUOUS
 62
     7
 10
57.8011751425
 20
204.6848060663
 30
0.0
 11
57.8011751425
 21
189.2848060663
 31
0.0
  0
CIRCLE
  5
76
  8
0
  6
CONTINUOUS
 62
     7
 10
70.8311751425
 20
177.8178260663
 30
0.0
 40
3.699999999999989
  0
CIRCLE
  5
77
  8
0
  6
CONTINUOUS
 62
     7
 10
70.8311751425
 20
162.3478360663
 30
0.0
 40
3.699999999999989
  0
CIRCLE
  5
78
  8
0
  6
CONTINUOUS
 62
     7
 10
68.6311751425
 20
121.2448060663
 30
0.0
 40
2.599999999999994
  0
CIRCLE
  5
79
  8
0
  6
CONTINUOUS
 62
     7
 10
76.3619131134
 20
218.7448060663
 30
0.0
 40
2.299999999999997
  0
CIRCLE
  5
7A
  8
0
  6
CONTINUOUS
 62
     7
 10
62.3404721717
 20
137.5228360387
 30
0.0
 40
2.300000000000011
  0
CIRCLE
  5
7B
  8
0
  6
CONTINUOUS
 62
     7
 10
76.3619131134
 20
107.7448060663
 30
0.0
 40
2.299999999999997
  0
LINE
  5
7C
  8
0
  6
CONTINUOUS
 62
     7
 10
181.4010863269
 20
174.0048360663
 30
0.0
 11
166.3010863269
 21
174.0048360663
 31
0.0
  0
LINE
  5
7D
  8
0
  6
CONTINUOUS
 62
     7
 10
166.3010863269
 20
174.0048360663
 30
0.0
 11
166.3010863269
 21
157.1248360663
 31
0.0
  0
LINE
  5
7E
  8
0
  6
CONTINUOUS
 62
     7
 10
166.3010863269
 20
157.1248360663
 30
0.0
 11
181.4010863269
 21
157.1248360663
 31
0.0
  0
LINE
  5
7F
  8
0
  6
CONTINUOUS
 62
     7
 10
181.4010863269
 20
157.1248360663
 30
0.0
 11
181.4010863269
 21
174.0048360663
 31
0.0
  0
LINE
  5
80
  8
0
  6
CONTINUOUS
 62
     7
 10
166.3010863269
 20
193.2148360663
 30
0.0
 11
166.3010863269
 21
177.8148360663
 31
0.0
  0
LINE
  5
81
  8
0
  6
CONTINUOUS
 62
     7
 10
166.3010863269
 20
177.8148360663
 30
0.0
 11
182.7010863269
 21
177.8148360663
 31
0.0
  0
LINE
  5
82
  8
0
  6
CONTINUOUS
 62
     7
 10
182.7010863269
 20
177.8148360663
 30
0.0
 11
182.7010863269
 21
193.2148360663
 31
0.0
  0
LINE
  5
83
  8
0
  6
CONTINUOUS
 62
     7
 10
182.7010863269
 20
193.2148360663
 30
0.0
 11
166.3010863269
 21
193.2148360663
 31
0.0
  0
LINE
  5
84
  8
0
  6
CONTINUOUS
 62
     7
 10
166.9010863269
 20
135.8692360663
 30
0.0
 11
166.9010863269
 21
120.1692360663
 31
0.0
  0
LINE
  5
85
  8
0
  6
CONTINUOUS
 62
     7
 10
166.9010863269
 20
120.1692360663
 30
0.0
 11
169.2510863269
 21
120.1692360663
 31
0.0
  0
LINE
  5
86
  8
0
  6
CONTINUOUS
 62
     7
 10
169.2510863269
 20
120.1692360663
 30
0.0
 11
169.2510863269
 21
135.8692360663
 31
0.0
  0
LINE
  5
87
  8
0
  6
CONTINUOUS
 62
     7
 10
169.2510863269
 20
135.8692360663
 30
0.0
 11
166.9010863269
 21
135.8692360663
 31
0.0
  0
LINE
  5
88
  8
0
  6
CONTINUOUS
 62
     7
 10
166.6010863269
 20
209.0148360663
 30
0.0
 11
166.6010863269
 21
199.0148360663
 31
0.0
  0
LINE
  5
89
  8
0
  6
CONTINUOUS
 62
     7
 10
166.6010863269
 20
199.0148360663
 30
0.0
 11
178.4010863269
 21
199.0148360663
 31
0.0
  0
LINE
  5
8A
  8
0
  6
CONTINUOUS
 62
     7
 10
178.4010863269
 20
199.0148360663
 30
0.0
 11
178.4010863269
 21
209.0148360663
 31
0.0
  0
LINE
  5
8B
  8
0
  6
CONTINUOUS
 62
     7
 10
178.4010863269
 20
209.0148360663
 30
0.0
 11
166.6010863269
 21
209.0148360663
 31
0.0
  0
LINE
  5
8C
  8
0
  6
CONTINUOUS
 62
     7
 10
166.7510863269
 20
149.9282360663
 30
0.0
 11
166.7510863269
 21
140.5282360663
 31
0.0
  0
ARC
  5
8D
  8
0
  6
CONTINUOUS
 62
     7
 10
168.4510863269
 20
140.5282360663
 30
0.0
 40
1.69999999999979
 50
180.0
 51
228.5665953222
  0
LINE
  5
8E
  8
0
  6
CONTINUOUS
 62
     7
 10
167.3261128843
 20
139.2537029151
 30
0.0
 11
168.1084361436
 21
138.5631811429
 31
0.0
  0
ARC
  5
8F
  8
0
  6
CONTINUOUS
 62
     7
 10
167.9760863269
 20
138.4132360663
 30
0.0
 40
0.1999999999985852
 50
16.8881783049
 51
48.5665953222
  0
LINE
  5
90
  8
0
  6
CONTINUOUS
 62
     7
 10
168.1674610356
 20
138.4713370204
 30
0.0
 11
168.2394013028
 21
138.2343779565
 31
0.0
  0
ARC
  5
91
  8
0
  6
CONTINUOUS
 62
     7
 10
169.8660863269
 20
138.7282360663
 30
0.0
 40
1.700000000000728
 50
196.8881783049
 51
270.0
  0
LINE
  5
92
  8
0
  6
CONTINUOUS
 62
     7
 10
169.8660863269
 20
137.0282360663
 30
0.0
 11
172.0010863269
 21
137.0282360663
 31
0.0
  0
ARC
  5
93
  8
0
  6
CONTINUOUS
 62
     7
 10
172.0010863269
 20
138.7282360663
 30
0.0
 40
1.700000000000017
 50
270.0
 51
0.0
  0
LINE
  5
94
  8
0
  6
CONTINUOUS
 62
     7
 10
173.7010863269
 20
138.7282360663
 30
0.0
 11
173.7010863269
 21
151.7282360663
 31
0.0
  0
ARC
  5
95
  8
0
  6
CONTINUOUS
 62
     7
 10
172.0010863269
 20
151.7282360663
 30
0.0
 40
1.700000000000017
 50
0.0
 51
90.0
  0
LINE
  5
96
  8
0
  6
CONTINUOUS
 62
     7
 10
172.0010863269
 20
153.4282360663
 30
0.0
 11
169.8660863269
 21
153.4282360663
 31
0.0
  0
ARC
  5
97
  8
0
  6
CONTINUOUS
 62
     7
 10
169.8660863269
 20
151.7282360663
 30
0.0
 40
1.700000000000024
 50
90.0
 51
163.1118216951
  0
LINE
  5
98
  8
0
  6
CONTINUOUS
 62
     7
 10
168.2394013028
 20
152.2220941761
 30
0.0
 11
168.1674610356
 21
151.9851351122
 31
0.0
  0
ARC
  5
99
  8
0
  6
CONTINUOUS
 62
     7
 10
167.9760863269
 20
152.0432360663
 30
0.0
 40
0.2000000000030505
 50
311.4334046778
 51
343.1118216951
  0
LINE
  5
9A
  8
0
  6
CONTINUOUS
 62
     7
 10
168.1084361436
 20
151.8932909897
 30
0.0
 11
167.3261128843
 21
151.2027692175
 31
0.0
  0
ARC
  5
9B
  8
0
  6
CONTINUOUS
 62
     7
 10
168.4510863269
 20
149.9282360663
 30
0.0
 40
1.699999999999193
 50
131.4334046778
 51
180.0
  0
CIRCLE
  5
9C
  8
0
  6
CONTINUOUS
 62
     7
 10
167.4010863269
 20
196.8148360663
 30
0.0
 40
1.249999999999972
  0
CIRCLE
  5
9D
  8
0
  6
CONTINUOUS
 62
     7
 10
164.270348356
 20
218.7448060663
 30
0.0
 40
2.30000000000004
  0
CIRCLE
  5
9E
  8
0
  6
CONTINUOUS
 62
     7
 10
178.2917892977
 20
137.5228360387
 30
0.0
 40
2.299999999999983
  0
CIRCLE
  5
9F
  8
0
  6
CONTINUOUS
 62
     7
 10
164.270348356
 20
107.7448060663
 30
0.0
 40
2.30000000000004
  0
LINE
  5
A0
  8
0
  6
CONTINUOUS
 62
     7
 10
173.8010863269
 20
116.3474394702
 30
0.0
 11
173.8010863269
 21
120.1421726624
 31
0.0
  0
ARC
  5
A1
  8
0
  6
CONTINUOUS
 62
     7
 10
176.5010863269
 20
118.2448060663
 30
0.0
 40
3.300000000000019
 50
215.0968012276
 51
144.9031987724
  0
LINE
  5
A2
  8
0
  6
CONTINUOUS
 62
     7
 10
79.2763751425
 20
108.2448060663
 30
0.0
 11
79.2763751425
 21
107.2682463546
 31
0.0
  0
ARC
  5
A3
  8
0
  6
CONTINUOUS
 62
     7
 10
69.7695588097
 20
115.987790105
 30
0.0
 40
12.90000000000214
 50
189.0029950275
 51
317.4733064972
  0
ARC
  5
A4
  8
0
  6
CONTINUOUS
 62
     7
 10
368.0377044325
 20
163.2448060663
 30
0.0
 40
314.8885962263995
 50
187.2613970418
 51
189.0029950275
  0
LINE
  5
A5
  8
0
  6
CONTINUOUS
 62
     7
 10
55.6745692008
 20
123.4440550471
 30
0.0
 11
55.6745692008
 21
203.0455570855
 31
0.0
  0
ARC
  5
A6
  8
0
  6
CONTINUOUS
 62
     7
 10
368.0377044325
 20
163.2448060663
 30
0.0
 40
314.888596226401
 50
170.9970049725
 51
172.7386029582
  0
ARC
  5
A7
  8
0
  6
CONTINUOUS
 62
     7
 10
69.7695588097
 20
210.5018220276
 30
0.0
 40
12.90000000000069
 50
42.5266935028
 51
170.9970049725
  0
LINE
  5
A8
  8
0
  6
CONTINUOUS
 62
     7
 10
79.2763751425
 20
219.221365778
 30
0.0
 11
79.2763751425
 21
218.2448060663
 31
0.0
  0
LINE
  5
A9
  8
0
  6
CONTINUOUS
 62
     7
 10
161.3558863269
 20
218.2448060663
 30
0.0
 11
79.2763751425
 21
218.2448060663
 31
0.0
  0
LINE
  5
AA
  8
0
  6
CONTINUOUS
 62
     7
 10
161.3558863269
 20
219.221365778
 30
0.0
 11
161.3558863269
 21
218.2448060663
 31
0.0
  0
ARC
  5
AB
  8
0
  6
CONTINUOUS
 62
     7
 10
170.8627026597
 20
210.5018220276
 30
0.0
 40
12.90000000000068
 50
9.0029950275
 51
137.4733064972
  0
ARC
  5
AC
  8
0
  6
CONTINUOUS
 62
     7
 10
-127.4054429631
 20
163.2448060663
 30
0.0
 40
314.888596226401
 50
7.2613970418
 51
9.0029950275
  0
LINE
  5
AD
  8
0
  6
CONTINUOUS
 62
     7
 10
184.9576922686
 20
123.4440550471
 30
0.0
 11
184.9576922686
 21
203.0455570855
 31
0.0
  0
ARC
  5
AE
  8
0
  6
CONTINUOUS
 62
     7
 10
-127.4054429631
 20
163.2448060663
 30
0.0
 40
314.8885962263994
 50
350.9970049725
 51
352.7386029582
  0
ARC
  5
AF
  8
0
  6
CONTINUOUS
 62
     7
 10
170.8627026597
 20
115.987790105
 30
0.0
 40
12.90000000000216
 50
222.5266935028
 51
350.9970049725
  0
LINE
  5
B0
  8
0
  6
CONTINUOUS
 62
     7
 10
161.3558863269
 20
108.2448060663
 30
0.0
 11
161.3558863269
 21
107.2682463546
 31
0.0
  0
LINE
  5
B1
  8
0
  6
CONTINUOUS
 62
     7
 10
79.2763751425
 20
108.2448060663
 30
0.0
 11
161.3558863269
 21
108.2448060663
 31
0.0
  0
CIRCLE
  5
B2
  8
0
  6
CONTINUOUS
 62
     7
 10
154.4781307347
 20
117.3428060663
 30
0.0
 40
1.25
  0
CIRCLE
  5
B3
  8
0
  6
CONTINUOUS
 62
     7
 10
88.5861307347
 20
211.0648060663
 30
0.0
 40
1.25
  0
CIRCLE
  5
B4
  8
0
  6
CONTINUOUS
 62
     7
 10
88.5861307347
 20
115.5648060663
 30
0.0
 40
1.25
  0
CIRCLE
  5
B5
  8
0
  6
CONTINUOUS
 62
     7
 10
152.9861307347
 20
211.0648060663
 30
0.0
 40
1.25
  0
LINE
  5
B6
  8
0
  6
CONTINUOUS
 62
     7
 10
354.4520652405
 20
223.4018220276
 30
0.0
 11
353.6520652405
 21
223.4018220276
 31
0.0
  0
LINE
  5
B7
  8
0
  6
CONTINUOUS
 62
     7
 10
276.2520652405
 20
223.4018220276
 30
0.0
 11
275.4520652405
 21
223.4018220276
 31
0.0
  0
LINE
  5
B8
  8
0
  6
CONTINUOUS
 62
     7
 10
353.6520652405
 20
103.087790105
 30
0.0
 11
354.4520652405
 21
103.087790105
 31
0.0
  0
LINE
  5
B9
  8
0
  6
CONTINUOUS
 62
     7
 10
275.4520652405
 20
103.087790105
 30
0.0
 11
276.2520652405
 21
103.087790105
 31
0.0
  0
LINE
  5
BA
  8
0
  6
CONTINUOUS
 62
     7
 10
326.9520652405
 20
148.2448060663
 30
0.0
 11
326.9520652405
 21
178.2448060663
 31
0.0
  0
ARC
  5
BB
  8
0
  6
CONTINUOUS
 62
     7
 10
324.9520652405
 20
178.2448060663
 30
0.0
 40
2.0
 50
0.0
 51
90.0
  0
LINE
  5
BC
  8
0
  6
CONTINUOUS
 62
     7
 10
324.9520652405
 20
180.2448060663
 30
0.0
 11
304.9520652405
 21
180.2448060663
 31
0.0
  0
ARC
  5
BD
  8
0
  6
CONTINUOUS
 62
     7
 10
304.9520652405
 20
178.2448060663
 30
0.0
 40
2.0
 50
90.0
 51
180.0
  0
LINE
  5
BE
  8
0
  6
CONTINUOUS
 62
     7
 10
302.9520652405
 20
178.2448060663
 30
0.0
 11
302.9520652405
 21
148.2448060663
 31
0.0
  0
ARC
  5
BF
  8
0
  6
CONTINUOUS
 62
     7
 10
304.9520652405
 20
148.2448060663
 30
0.0
 40
2.0
 50
180.0
 51
270.0
  0
LINE
  5
C0
  8
0
  6
CONTINUOUS
 62
     7
 10
304.9520652405
 20
146.2448060663
 30
0.0
 11
324.9520652405
 21
146.2448060663
 31
0.0
  0
ARC
  5
C1
  8
0
  6
CONTINUOUS
 62
     7
 10
324.9520652405
 20
148.2448060663
 30
0.0
 40
2.0
 50
270.0
 51
0.0
  0
LINE
  5
C2
  8
0
  6
CONTINUOUS
 62
     7
 10
302.4520652405
 20
178.2448060663
 30
0.0
 11
302.4520652405
 21
148.2448060663
 31
0.0
  0
ARC
  5
C3
  8
0
  6
CONTINUOUS
 62
     7
 10
304.9520652405
 20
178.2448060663
 30
0.0
 40
2.5
 50
90.0
 51
180.0
  0
LINE
  5
C4
  8
0
  6
CONTINUOUS
 62
     7
 10
324.9520652405
 20
180.7448060663
 30
0.0
 11
304.9520652405
 21
180.7448060663
 31
0.0
  0
ARC
  5
C5
  8
0
  6
CONTINUOUS
 62
     7
 10
324.9520652405
 20
178.2448060663
 30
0.0
 40
2.5
 50
0.0
 51
90.0
  0
LINE
  5
C6
  8
0
  6
CONTINUOUS
 62
     7
 10
327.4520652405
 20
148.2448060663
 30
0.0
 11
327.4520652405
 21
178.2448060663
 31
0.0
  0
ARC
  5
C7
  8
0
  6
CONTINUOUS
 62
     7
 10
324.9520652405
 20
148.2448060663
 30
0.0
 40
2.5
 50
270.0
 51
0.0
  0
LINE
  5
C8
  8
0
  6
CONTINUOUS
 62
     7
 10
304.9520652405
 20
145.7448060663
 30
0.0
 11
324.9520652405
 21
145.7448060663
 31
0.0
  0
ARC
  5
C9
  8
0
  6
CONTINUOUS
 62
     7
 10
304.9520652405
 20
148.2448060663
 30
0.0
 40
2.5
 50
180.0
 51
270.0
  0
CIRCLE
  5
CA
  8
0
  6
CONTINUOUS
 62
     7
 10
347.4520652405
 20
202.7448060663
 30
0.0
 40
4.5
  0
CIRCLE
  5
CB
  8
0
  6
CONTINUOUS
 62
     7
 10
347.4520652405
 20
202.7448060663
 30
0.0
 40
5.0
  0
CIRCLE
  5
CC
  8
0
  6
CONTINUOUS
 62
     7
 10
347.4520652405
 20
123.7448060663
 30
0.0
 40
5.0
  0
CIRCLE
  5
CD
  8
0
  6
CONTINUOUS
 62
     7
 10
347.4520652405
 20
123.7448060663
 30
0.0
 40
4.5
  0
CIRCLE
  5
CE
  8
0
  6
CONTINUOUS
 62
     7
 10
282.4520652405
 20
202.7448060663
 30
0.0
 40
5.0
  0
CIRCLE
  5
CF
  8
0
  6
CONTINUOUS
 62
     7
 10
282.4520652405
 20
202.7448060663
 30
0.0
 40
4.5
  0
CIRCLE
  5
D0
  8
0
  6
CONTINUOUS
 62
     7
 10
282.4520652405
 20
123.7448060663
 30
0.0
 40
4.5
  0
CIRCLE
  5
D1
  8
0
  6
CONTINUOUS
 62
     7
 10
282.4520652405
 20
123.7448060663
 30
0.0
 40
5.0
  0
LINE
  5
D2
  8
0
  6
CONTINUOUS
 62
     7
 10
352.8520652405
 20
218.2448060663
 30
0.0
 11
354.4520652405
 21
218.2448060663
 31
0.0
  0
LINE
  5
D3
  8
0
  6
CONTINUOUS
 62
     7
 10
354.4520652405
 20
108.2448060663
 30
0.0
 11
354.4520652405
 21
218.2448060663
 31
0.0
  0
LINE
  5
D4
  8
0
  6
CONTINUOUS
 62
     7
 10
354.4520652405
 20
108.2448060663
 30
0.0
 11
352.8520652405
 21
108.2448060663
 31
0.0
  0
LINE
  5
D5
  8
0
  6
CONTINUOUS
 62
     7
 10
352.8520652405
 20
108.2448060663
 30
0.0
 11
352.8520652405
 21
218.2448060663
 31
0.0
  0
LINE
  5
D6
  8
0
  6
CONTINUOUS
 62
     7
 10
277.0520652405
 20
218.2448060663
 30
0.0
 11
277.0520652405
 21
108.2448060663
 31
0.0
  0
LINE
  5
D7
  8
0
  6
CONTINUOUS
 62
     7
 10
277.0520652405
 20
218.2448060663
 30
0.0
 11
352.8520652405
 21
218.2448060663
 31
0.0
  0
LINE
  5
D8
  8
0
  6
CONTINUOUS
 62
     7
 10
352.8520652405
 20
108.2448060663
 30
0.0
 11
277.0520652405
 21
108.2448060663
 31
0.0
  0
CIRCLE
  5
D9
  8
0
  6
CONTINUOUS
 62
     7
 10
349.1140652405
 20
209.1468060663
 30
0.0
 40
1.25
  0
CIRCLE
  5
DA
  8
0
  6
CONTINUOUS
 62
     7
 10
283.2220652405
 20
115.4248060663
 30
0.0
 40
1.25
  0
CIRCLE
  5
DB
  8
0
  6
CONTINUOUS
 62
     7
 10
347.6220652405
 20
115.4248060663
 30
0.0
 40
1.25
  0
CIRCLE
  5
DC
  8
0
  6
CONTINUOUS
 62
     7
 10
283.2220652405
 20
210.9248060663
 30
0.0
 40
1.250000000000028
  0
LINE
  5
DD
  8
0
  6
CONTINUOUS
 62
     7
 10
277.0520652405
 20
108.2448060663
 30
0.0
 11
275.4520652405
 21
108.2448060663
 31
0.0
  0
LINE
  5
DE
  8
0
  6
CONTINUOUS
 62
     7
 10
275.4520652405
 20
218.2448060663
 30
0.0
 11
275.4520652405
 21
108.2448060663
 31
0.0
  0
LINE
  5
DF
  8
0
  6
CONTINUOUS
 62
     7
 10
275.4520652405
 20
218.2448060663
 30
0.0
 11
277.0520652405
 21
218.2448060663
 31
0.0
  0
ARC
  5
E0
  8
0
  6
CONTINUOUS
 62
     7
 10
272.6714749164
 20
107.7449235321
 30
0.0
 40
2.965978038778893
 50
350.751599864
 51
9.7028756947
  0
POLYLINE
  5
E1
  8
0
  6
CONTINUOUS
 62
     7
 66
     1
 10
0.0
 20
0.0
 30
0.0
 70
   128
  0
VERTEX
  5
15C
  8
0
  6
CONTINUOUS
 62
     7
 10
275.5988977753
 20
107.2682463546
 30
0.0
  0
VERTEX
  5
15D
  8
0
  6
CONTINUOUS
 62
     7
 10
275.9155461294
 20
106.7979213914
 30
0.0
  0
VERTEX
  5
15E
  8
0
  6
CONTINUOUS
 62
     7
 10
276.1395394094
 20
106.3162011944
 30
0.0
  0
VERTEX
  5
15F
  8
0
  6
CONTINUOUS
 62
     7
 10
276.2039736516
 20
105.9957098003
 30
0.0
  0
VERTEX
  5
160
  8
0
  6
CONTINUOUS
 62
     7
 10
276.1814557789
 20
105.6783608406
 30
0.0
  0
VERTEX
  5
161
  8
0
  6
CONTINUOUS
 62
     7
 10
276.0449879993
 20
105.3307497533
 30
0.0
  0
VERTEX
  5
162
  8
0
  6
CONTINUOUS
 62
     7
 10
275.8129099812
 20
105.0119470157
 30
0.0
  0
VERTEX
  5
163
  8
0
  6
CONTINUOUS
 62
     7
 10
275.6408556143
 20
104.8356225038
 30
0.0
  0
VERTEX
  5
164
  8
0
  6
CONTINUOUS
 62
     7
 10
275.4520652405
 20
104.6708169018
 30
0.0
  0
SEQEND
  5
184
  8
0
  6
CONTINUOUS
 62
     7
  0
LINE
  5
E2
  8
0
  6
CONTINUOUS
 62
     7
 10
275.4520652405
 20
108.2448060663
 30
0.0
 11
275.4520652405
 21
104.6708169018
 31
0.0
  0
POLYLINE
  5
E3
  8
0
  6
CONTINUOUS
 62
     7
 66
     1
 10
0.0
 20
0.0
 30
0.0
 70
   128
  0
VERTEX
  5
165
  8
0
  6
CONTINUOUS
 62
     7
 10
354.3091058082
 20
218.2448060663
 30
0.0
  0
VERTEX
  5
166
  8
0
  6
CONTINUOUS
 62
     7
 10
354.291933421
 20
218.3591430017
 30
0.0
  0
VERTEX
  5
167
  8
0
  6
CONTINUOUS
 62
     7
 10
354.3052327058
 20
219.221365778
 30
0.0
  0
SEQEND
  5
185
  8
0
  6
CONTINUOUS
 62
     7
  0
POLYLINE
  5
E4
  8
0
  6
CONTINUOUS
 62
     7
 66
     1
 10
0.0
 20
0.0
 30
0.0
 70
   128
  0
VERTEX
  5
168
  8
0
  6
CONTINUOUS
 62
     7
 10
354.4520652405
 20
221.8187952308
 30
0.0
  0
VERTEX
  5
169
  8
0
  6
CONTINUOUS
 62
     7
 10
354.0329485901
 20
221.4094201423
 30
0.0
  0
VERTEX
  5
16A
  8
0
  6
CONTINUOUS
 62
     7
 10
353.7486604002
 20
220.9083290343
 30
0.0
  0
VERTEX
  5
16B
  8
0
  6
CONTINUOUS
 62
     7
 10
353.6973004518
 20
220.5936282121
 30
0.0
  0
VERTEX
  5
16C
  8
0
  6
CONTINUOUS
 62
     7
 10
353.741995831
 20
220.2503205028
 30
0.0
  0
VERTEX
  5
16D
  8
0
  6
CONTINUOUS
 62
     7
 10
353.9165255345
 20
219.8205440778
 30
0.0
  0
VERTEX
  5
16E
  8
0
  6
CONTINUOUS
 62
     7
 10
354.1908787931
 20
219.3795156332
 30
0.0
  0
VERTEX
  5
16F
  8
0
  6
CONTINUOUS
 62
     7
 10
354.3052327058
 20
219.221365778
 30
0.0
  0
SEQEND
  5
186
  8
0
  6
CONTINUOUS
 62
     7
  0
LINE
  5
E5
  8
0
  6
CONTINUOUS
 62
     7
 10
354.4520652405
 20
218.2448060663
 30
0.0
 11
354.4520652405
 21
221.8187952308
 31
0.0
  0
POLYLINE
  5
E6
  8
0
  6
CONTINUOUS
 62
     7
 66
     1
 10
0.0
 20
0.0
 30
0.0
 70
   128
  0
VERTEX
  5
170
  8
0
  6
CONTINUOUS
 62
     7
 10
354.3052327058
 20
107.2682463546
 30
0.0
  0
VERTEX
  5
171
  8
0
  6
CONTINUOUS
 62
     7
 10
353.9885843517
 20
106.7979213914
 30
0.0
  0
VERTEX
  5
172
  8
0
  6
CONTINUOUS
 62
     7
 10
353.7645910717
 20
106.3162011944
 30
0.0
  0
VERTEX
  5
173
  8
0
  6
CONTINUOUS
 62
     7
 10
353.7001568295
 20
105.9957098003
 30
0.0
  0
VERTEX
  5
174
  8
0
  6
CONTINUOUS
 62
     7
 10
353.7226747022
 20
105.6783608406
 30
0.0
  0
VERTEX
  5
175
  8
0
  6
CONTINUOUS
 62
     7
 10
353.8591424817
 20
105.3307497533
 30
0.0
  0
VERTEX
  5
176
  8
0
  6
CONTINUOUS
 62
     7
 10
354.0912204999
 20
105.0119470157
 30
0.0
  0
VERTEX
  5
177
  8
0
  6
CONTINUOUS
 62
     7
 10
354.2632748667
 20
104.8356225038
 30
0.0
  0
VERTEX
  5
178
  8
0
  6
CONTINUOUS
 62
     7
 10
354.4520652405
 20
104.6708169018
 30
0.0
  0
SEQEND
  5
187
  8
0
  6
CONTINUOUS
 62
     7
  0
ARC
  5
E7
  8
0
  6
CONTINUOUS
 62
     7
 10
357.2326555647
 20
107.7449235321
 30
0.0
 40
2.965978038778949
 50
170.2971243053
 51
189.248400136
  0
LINE
  5
E8
  8
0
  6
CONTINUOUS
 62
     7
 10
354.4520652405
 20
104.6708169018
 30
0.0
 11
354.4520652405
 21
108.2448060663
 31
0.0
  0
POLYLINE
  5
E9
  8
0
  6
CONTINUOUS
 62
     7
 66
     1
 10
0.0
 20
0.0
 30
0.0
 70
   128
  0
VERTEX
  5
179
  8
0
  6
CONTINUOUS
 62
     7
 10
275.4520652405
 20
221.8187952308
 30
0.0
  0
VERTEX
  5
17A
  8
0
  6
CONTINUOUS
 62
     7
 10
275.871181891
 20
221.4094201423
 30
0.0
  0
VERTEX
  5
17B
  8
0
  6
CONTINUOUS
 62
     7
 10
276.1554700809
 20
220.9083290343
 30
0.0
  0
VERTEX
  5
17C
  8
0
  6
CONTINUOUS
 62
     7
 10
276.2068300293
 20
220.5936282121
 30
0.0
  0
VERTEX
  5
17D
  8
0
  6
CONTINUOUS
 62
     7
 10
276.1621346501
 20
220.2503205028
 30
0.0
  0
VERTEX
  5
17E
  8
0
  6
CONTINUOUS
 62
     7
 10
275.9876049466
 20
219.8205440778
 30
0.0
  0
VERTEX
  5
17F
  8
0
  6
CONTINUOUS
 62
     7
 10
275.713251688
 20
219.3795156332
 30
0.0
  0
VERTEX
  5
180
  8
0
  6
CONTINUOUS
 62
     7
 10
275.5988977753
 20
219.221365778
 30
0.0
  0
SEQEND
  5
188
  8
0
  6
CONTINUOUS
 62
     7
  0
POLYLINE
  5
EA
  8
0
  6
CONTINUOUS
 62
     7
 66
     1
 10
0.0
 20
0.0
 30
0.0
 70
   128
  0
VERTEX
  5
181
  8
0
  6
CONTINUOUS
 62
     7
 10
275.5950246729
 20
218.2448060663
 30
0.0
  0
VERTEX
  5
182
  8
0
  6
CONTINUOUS
 62
     7
 10
275.6121970601
 20
218.3591430017
 30
0.0
  0
VERTEX
  5
183
  8
0
  6
CONTINUOUS
 62
     7
 10
275.5988977753
 20
219.221365778
 30
0.0
  0
SEQEND
  5
189
  8
0
  6
CONTINUOUS
 62
     7
  0
LINE
  5
EB
  8
0
  6
CONTINUOUS
 62
     7
 10
275.4520652405
 20
221.8187952308
 30
0.0
 11
275.4520652405
 21
218.2448060663
 31
0.0
  0
LINE
  5
EC
  8
0
  6
CONTINUOUS
 62
     7
 10
353.6520652405
 20
219.221365778
 30
0.0
 11
354.3052327058
 21
219.221365778
 31
0.0
  0
LINE
  5
ED
  8
0
  6
CONTINUOUS
 62
     7
 10
353.6520652405
 20
218.2448060663
 30
0.0
 11
353.6520652405
 21
219.221365778
 31
0.0
  0
LINE
  5
EE
  8
0
  6
CONTINUOUS
 62
     7
 10
276.2520652405
 20
219.221365778
 30
0.0
 11
275.5988977753
 21
219.221365778
 31
0.0
  0
LINE
  5
EF
  8
0
  6
CONTINUOUS
 62
     7
 10
276.2520652405
 20
218.2448060663
 30
0.0
 11
276.2520652405
 21
219.221365778
 31
0.0
  0
LINE
  5
F0
  8
0
  6
CONTINUOUS
 62
     7
 10
353.6520652405
 20
223.4018220276
 30
0.0
 11
353.6520652405
 21
219.221365778
 31
0.0
  0
LINE
  5
F1
  8
0
  6
CONTINUOUS
 62
     7
 10
354.4520652405
 20
223.4018220276
 30
0.0
 11
354.4520652405
 21
221.8187952308
 31
0.0
  0
LINE
  5
F2
  8
0
  6
CONTINUOUS
 62
     7
 10
276.2520652405
 20
223.4018220276
 30
0.0
 11
276.2520652405
 21
219.221365778
 31
0.0
  0
LINE
  5
F3
  8
0
  6
CONTINUOUS
 62
     7
 10
275.4520652405
 20
223.4018220276
 30
0.0
 11
275.4520652405
 21
221.8187952308
 31
0.0
  0
LINE
  5
F4
  8
0
  6
CONTINUOUS
 62
     7
 10
353.6520652405
 20
107.2682463546
 30
0.0
 11
354.3052327058
 21
107.2682463546
 31
0.0
  0
LINE
  5
F5
  8
0
  6
CONTINUOUS
 62
     7
 10
353.6520652405
 20
107.2682463546
 30
0.0
 11
353.6520652405
 21
108.2448060663
 31
0.0
  0
LINE
  5
F6
  8
0
  6
CONTINUOUS
 62
     7
 10
353.6520652405
 20
107.2682463546
 30
0.0
 11
353.6520652405
 21
103.087790105
 31
0.0
  0
LINE
  5
F7
  8
0
  6
CONTINUOUS
 62
     7
 10
354.4520652405
 20
104.6708169018
 30
0.0
 11
354.4520652405
 21
103.087790105
 31
0.0
  0
LINE
  5
F8
  8
0
  6
CONTINUOUS
 62
     7
 10
276.2520652405
 20
107.2682463546
 30
0.0
 11
275.5988977753
 21
107.2682463546
 31
0.0
  0
LINE
  5
F9
  8
0
  6
CONTINUOUS
 62
     7
 10
276.2520652405
 20
107.2682463546
 30
0.0
 11
276.2520652405
 21
108.2448060663
 31
0.0
  0
LINE
  5
FA
  8
0
  6
CONTINUOUS
 62
     7
 10
276.2520652405
 20
107.2682463546
 30
0.0
 11
276.2520652405
 21
103.087790105
 31
0.0
  0
LINE
  5
FB
  8
0
  6
CONTINUOUS
 62
     7
 10
275.4520652405
 20
104.6708169018
 30
0.0
 11
275.4520652405
 21
103.087790105
 31
0.0
  0
INSERT
  5
107
  8
0
  6
CONTINUOUS
 62
     7
  2
SW_CENTERMARKSYMBOL_0
 10
349.1140652405
 20
209.1468060663
 30
0.0
  0
INSERT
  5
113
  8
0
  6
CONTINUOUS
 62
     7
  2
SW_CENTERMARKSYMBOL_1
 10
283.2220652405
 20
115.4248060663
 30
0.0
  0
INSERT
  5
11F
  8
0
  6
CONTINUOUS
 62
     7
  2
SW_CENTERMARKSYMBOL_2
 10
347.6220652405
 20
115.4248060663
 30
0.0
  0
INSERT
  5
12B
  8
0
  6
CONTINUOUS
 62
     7
  2
SW_CENTERMARKSYMBOL_3
 10
283.2220652405
 20
210.9248060663
 30
0.0
  0
INSERT
  5
137
  8
0
  6
CONTINUOUS
 62
     7
  2
SW_CENTERMARKSYMBOL_4
 10
282.4520652405
 20
202.7448060663
 30
0.0
  0
INSERT
  5
143
  8
0
  6
CONTINUOUS
 62
     7
  2
SW_CENTERMARKSYMBOL_5
 10
347.4520652405
 20
202.7448060663
 30
0.0
  0
INSERT
  5
14F
  8
0
  6
CONTINUOUS
 62
     7
  2
SW_CENTERMARKSYMBOL_6
 10
347.4520652405
 20
123.7448060663
 30
0.0
  0
INSERT
  5
15B
  8
0
  6
CONTINUOUS
 62
     7
  2
SW_CENTERMARKSYMBOL_7
 10
282.4520652405
 20
123.7448060663
 30
0.0
  0
ENDSEC
  0
EOF
