  0
SECTION
  2
HEADER
  9
$ACADVER
  1
AC1009
  9
$DWGCODEPAGE
  3
ansi_1252
  9
$INSBASE
 10
0.0
 20
0.0
 30
0.0
  9
$EXTMIN
 10
0.0
 20
0.0
 30
0.0
  9
$EXTMAX
 10
420.0
 20
297.0
 30
0.0
  9
$LIMMIN
 10
0.0
 20
0.0
  9
$LIMMAX
 10
420.0
 20
297.0
  9
$ORTHOMODE
 70
     0
  9
$REGENMODE
 70
     1
  9
$FILLMODE
 70
     1
  9
$QTEXTMODE
 70
     0
  9
$MIRRTEXT
 70
     1
  9
$DRAGMODE
 70
     2
  9
$LTSCALE
 40
1.0
  9
$OSMODE
 70
    37
  9
$ATTMODE
 70
     1
  9
$TEXTSIZE
 40
3.5
  9
$TRACEWID
 40
1.0
  9
$TEXTSTYLE
  7
STANDARD
  9
$CLAYER
  8
0
  9
$CELTYPE
  6
BYLAYER
  9
$CECOLOR
 62
   256
  9
$DIMSCALE
 40
1.0
  9
$DIMASZ
 40
3.302
  9
$DIMEXO
 40
1.0
  9
$DIMDLI
 40
3.75
  9
$DIMRND
 40
0.0
  9
$DIMDLE
 40
0.0
  9
$DIMEXE
 40
1.0
  9
$DIMTP
 40
0.0
  9
$DIMTM
 40
0.0
  9
$DIMTXT
 40
3.5
  9
$DIMCEN
 40
2.5
  9
$DIMTSZ
 40
0.0
  9
$DIMTOL
 70
     0
  9
$DIMLIM
 70
     0
  9
$DIMTIH
 70
     1
  9
$DIMTOH
 70
     1
  9
$DIMSE1
 70
     0
  9
$DIMSE2
 70
     0
  9
$DIMTAD
 70
     1
  9
$DIMZIN
 70
     0
  9
$DIMBLK
  1

  9
$DIMASO
 70
     1
  9
$DIMSHO
 70
     1
  9
$DIMPOST
  1

  9
$DIMAPOST
  1

  9
$DIMALT
 70
     0
  9
$DIMALTD
 70
     3
  9
$DIMALTF
 40
0.0393700787
  9
$DIMLFAC
 40
1.0
  9
$DIMTOFL
 70
     1
  9
$DIMTVP
 40
0.0
  9
$DIMTIX
 70
     0
  9
$DIMSOXD
 70
     0
  9
$DIMSAH
 70
     0
  9
$DIMBLK1
  1

  9
$DIMBLK2
  1

  9
$DIMSTYLE
  2
ISO-25
  9
$DIMCLRD
 70
     0
  9
$DIMCLRE
 70
     0
  9
$DIMCLRT
 70
     0
  9
$DIMTFAC
 40
1.0
  9
$DIMGAP
 40
1.524
  9
$LUNITS
 70
     2
  9
$LUPREC
 70
     2
  9
$SKETCHINC
 40
1.0
  9
$FILLETRAD
 40
10.0
  9
$AUNITS
 70
     0
  9
$AUPREC
 70
     2
  9
$MENU
  1
.
  9
$ELEVATION
 40
0.0
  9
$PELEVATION
 40
0.0
  9
$THICKNESS
 40
0.0
  9
$LIMCHECK
 70
     0
  9
$CHAMFERA
 40
0.0
  9
$CHAMFERB
 40
0.0
  9
$SKPOLY
 70
     0
  9
$TDCREATE
 40
2457882.494973877
  9
$TDUPDATE
 40
2457882.494975799
  9
$TDINDWG
 40
0.0000000116
  9
$TDUSRTIMER
 40
0.0000000116
  9
$USRTIMER
 70
     1
  9
$ANGBASE
 50
0.0
  9
$ANGDIR
 70
     0
  9
$PDMODE
 70
     0
  9
$PDSIZE
 40
-1.0
  9
$PLINEWID
 40
0.0
  9
$COORDS
 70
     1
  9
$SPLFRAME
 70
     0
  9
$SPLINETYPE
 70
     6
  9
$SPLINESEGS
 70
     8
  9
$ATTDIA
 70
     0
  9
$ATTREQ
 70
     1
  9
$HANDLING
 70
     1
  9
$HANDSEED
  5
47E
  9
$SURFTAB1
 70
     6
  9
$SURFTAB2
 70
     6
  9
$SURFTYPE
 70
     6
  9
$SURFU
 70
     6
  9
$SURFV
 70
     6
  9
$UCSNAME
  2

  9
$UCSORG
 10
0.0
 20
0.0
 30
0.0
  9
$UCSXDIR
 10
1.0
 20
0.0
 30
0.0
  9
$UCSYDIR
 10
0.0
 20
1.0
 30
0.0
  9
$PUCSNAME
  2

  9
$PUCSORG
 10
0.0
 20
0.0
 30
0.0
  9
$PUCSXDIR
 10
1.0
 20
0.0
 30
0.0
  9
$PUCSYDIR
 10
0.0
 20
1.0
 30
0.0
  9
$USERI1
 70
     0
  9
$USERI2
 70
     0
  9
$USERI3
 70
     0
  9
$USERI4
 70
     0
  9
$USERI5
 70
     0
  9
$USERR1
 40
0.0
  9
$USERR2
 40
0.0
  9
$USERR3
 40
0.0
  9
$USERR4
 40
0.0
  9
$USERR5
 40
0.0
  9
$WORLDVIEW
 70
     1
  9
$SHADEDGE
 70
     3
  9
$SHADEDIF
 70
    70
  9
$TILEMODE
 70
     1
  9
$MAXACTVP
 70
    64
  9
$PLIMCHECK
 70
     0
  9
$PEXTMIN
 10
1.0000000000E+20
 20
1.0000000000E+20
 30
1.0000000000E+20
  9
$PEXTMAX
 10
-1.0000000000E+20
 20
-1.0000000000E+20
 30
-1.0000000000E+20
  9
$PLIMMIN
 10
0.0
 20
0.0
  9
$PLIMMAX
 10
420.0
 20
297.0
  9
$UNITMODE
 70
     0
  9
$VISRETAIN
 70
     1
  9
$PLINEGEN
 70
     0
  9
$PSLTSCALE
 70
     1
  0
ENDSEC
  0
SECTION
  2
TABLES
  0
TABLE
  2
VPORT
 70
     1
  0
VPORT
  2
*ACTIVE
 70
     0
 10
0.0
 20
0.0
 11
1.0
 21
1.0
 12
210.0
 22
148.5
 13
0.0
 23
0.0
 14
10.0
 24
10.0
 15
10.0
 25
10.0
 16
0.0
 26
0.0
 36
1.0
 17
0.0
 27
0.0
 37
0.0
 40
297.0
 41
1.4141414141
 42
50.0
 43
0.0
 44
0.0
 50
0.0
 51
0.0
 71
     0
 72
  2000
 73
     1
 74
     3
 75
     0
 76
     0
 77
     0
 78
     0
  0
ENDTAB
  0
TABLE
  2
LTYPE
 70
     6
  0
LTYPE
  2
CONTINUOUS
 70
     0
  3
Solid line
 72
    65
 73
     0
 40
0.0
  0
LTYPE
  2
HIDDEN
 70
     0
  3
Hidden __ __ __ __ __ __ __ __ __ __ __ __ __ __
 72
    65
 73
     2
 40
1.905
 49
1.27
 49
-0.635
  0
LTYPE
  2
PHANTOM
 70
     0
  3
Phantom ______  __  __  ______  __  __  ______
 72
    65
 73
     6
 40
12.7
 49
6.35
 49
-1.27
 49
1.27
 49
-1.27
 49
1.27
 49
-1.27
  0
LTYPE
  2
CENTER
 70
     0
  3
Center ____ _ ____ _ ____ _ ____ _ ____ _ ____
 72
    65
 73
     4
 40
10.16
 49
6.35
 49
-1.27
 49
1.27
 49
-1.27
  0
LTYPE
  2
CENTERX2
 70
     0
  3
Center (2x) ________  __  ________  __  _____
 72
    65
 73
     4
 40
20.32
 49
12.7
 49
-2.54
 49
2.54
 49
-2.54
  0
LTYPE
  2
DOT2
 70
     0
  3
Dot (.5x) ........................................
 72
    65
 73
     2
 40
0.635
 49
0.0
 49
-0.635
  0
ENDTAB
  0
TABLE
  2
LAYER
 70
     2
  0
LAYER
  2
0
 70
     0
 62
     7
  6
CONTINUOUS
  0
LAYER
  2
FORMAT
 70
     0
 62
     7
  6
CONTINUOUS
  0
ENDTAB
  0
TABLE
  2
STYLE
 70
     1
  0
STYLE
  2
STANDARD
 70
     0
 40
0.0
 41
1.0
 50
0.0
 71
     0
 42
3.5
  3
txt
  4

  0
ENDTAB
  0
TABLE
  2
VIEW
 70
     0
  0
ENDTAB
  0
TABLE
  2
UCS
 70
     0
  0
ENDTAB
  0
TABLE
  2
APPID
 70
     1
  0
APPID
  2
ACAD
 70
     0
  0
ENDTAB
  0
TABLE
  2
DIMSTYLE
 70
     1
  0
DIMSTYLE
  2
ISO-25
 70
     0
  3

  4

  5

  6

  7

 40
1.0
 41
2.5
 42
0.625
 43
3.75
 44
1.25
 45
0.0
 46
0.0
 47
0.0
 48
0.0
140
2.5
141
2.5
142
0.0
143
0.0393700787
144
1.0
145
0.0
146
1.0
147
0.625
 71
     0
 72
     0
 73
     0
 74
     0
 75
     0
 76
     0
 77
     1
 78
     8
170
     0
171
     3
172
     1
173
     0
174
     0
175
     0
176
     0
177
     0
178
     0
  0
ENDTAB
  0
ENDSEC
  0
SECTION
  2
BLOCKS
  0
BLOCK
  8
0
  2
$MODEL_SPACE
 70
     0
 10
0.0
 20
0.0
 30
0.0
  3
$MODEL_SPACE
  1

  0
ENDBLK
  5
21
  8
0
  0
BLOCK
 67
     1
  8
0
  2
$PAPER_SPACE
 70
     0
 10
0.0
 20
0.0
 30
0.0
  3
$PAPER_SPACE
  1

  0
ENDBLK
  5
1D
 67
     1
  8
0
  0
BLOCK
  8
0
  2
SW_NOTE_0
 70
     0
 10
0.0
 20
0.0
 30
0.0
  3
SW_NOTE_0
  1

  0
TEXT
  5
415
  8
0
  6
CONTINUOUS
 62
     0
 10
-92.9815841584
 20
-41.2817595613
 30
0.0
 40
3.5
  1
SILK PRINT SHOULD BE PERFORMED ACCORDING TO THE GRAPHICS FILE AND NOT ACCORDING TO THIS DRAWING.
 41
0.6453125
 11
-92.9815841584
 21
-42.518169778
 31
0.0
 73
     1
  0
TEXT
  5
416
  8
0
  6
CONTINUOUS
 62
     0
 10
-92.9815841584
 20
-45.8074540917
 30
0.0
 40
3.5
  1
DXF IS FOR POSITIONING PURPOSES ONLY
 41
0.6513888889
 11
-92.9815841584
 21
-47.0438643084
 31
0.0
 73
     1
  0
LINE
  5
417
  8
0
  6
CONTINUOUS
 62
     0
 10
-93.5153611833
 20
-39.7423762916
 30
0.0
 11
0.0
 21
0.0
 31
0.0
  0
INSERT
  5
420
  8
0
  6
CONTINUOUS
 62
     0
  2
_DOT
 10
0.0
 20
0.0
 30
14.1620403475
 41
1.016
 42
1.016
 50
23.0246345837
  0
ENDBLK
  5
414
  8
0
  0
BLOCK
  8
0
  2
_DOT
 70
     0
 10
0.0
 20
0.0
 30
0.0
  3
_DOT
  1

  0
POLYLINE
  5
41B
  8
0
  6
BYBLOCK
 62
     0
 66
     1
 10
0.0
 20
0.0
 30
0.0
 70
     1
 40
0.5
 41
0.5
  0
VERTEX
  5
41D
  8
0
  6
BYBLOCK
 62
     0
 10
-0.25
 20
0.0
 30
0.0
 42
1.0
  0
VERTEX
  5
41E
  8
0
  6
BYBLOCK
 62
     0
 10
0.25
 20
0.0
 30
0.0
 42
1.0
  0
SEQEND
  5
41F
  8
0
  6
BYBLOCK
 62
     0
  0
LINE
  5
41C
  8
0
  6
BYBLOCK
 62
     0
 10
-0.5
 20
0.0
 30
0.0
 11
-1.0
 21
0.0
 31
0.0
  0
ENDBLK
  5
41A
  8
0
  0
ENDSEC
  0
SECTION
  2
ENTITIES
  0
LINE
  5
70
  8
0
  6
CONTINUOUS
 62
     7
 10
267.4667961125
 20
119.5670565102
 30
0.0
 11
267.4667961125
 21
199.5670547221
 31
0.0
  0
LINE
  5
71
  8
0
  6
CONTINUOUS
 62
     7
 10
142.9527676825
 20
199.5670547221
 30
0.0
 11
142.9527676825
 21
119.5670565102
 31
0.0
  0
LINE
  5
72
  8
0
  6
CONTINUOUS
 62
     7
 10
175.7094427173
 20
199.5670547221
 30
0.0
 11
175.7094427173
 21
119.5670565102
 31
0.0
  0
LINE
  5
73
  8
0
  6
CONTINUOUS
 62
     7
 10
175.7094427173
 20
199.5670547221
 30
0.0
 11
176.2094437305
 21
199.5670547221
 31
0.0
  0
LINE
  5
74
  8
0
  6
CONTINUOUS
 62
     7
 10
176.2094437305
 20
199.5670547221
 30
0.0
 11
176.2094437305
 21
119.5670565102
 31
0.0
  0
LINE
  5
75
  8
0
  6
CONTINUOUS
 62
     7
 10
175.7094427173
 20
119.5670565102
 30
0.0
 11
176.2094437305
 21
119.5670565102
 31
0.0
  0
LINE
  5
76
  8
0
  6
CONTINUOUS
 62
     7
 10
177.7094430451
 20
199.5670547221
 30
0.0
 11
177.7094430451
 21
119.5670565102
 31
0.0
  0
LINE
  5
77
  8
0
  6
CONTINUOUS
 62
     7
 10
177.7094430451
 20
199.5670547221
 30
0.0
 11
177.9594435517
 21
199.5670547221
 31
0.0
  0
LINE
  5
78
  8
0
  6
CONTINUOUS
 62
     7
 10
177.9594435517
 20
199.5670547221
 30
0.0
 11
177.9594435517
 21
119.5670565102
 31
0.0
  0
LINE
  5
79
  8
0
  6
CONTINUOUS
 62
     7
 10
177.7094430451
 20
119.5670565102
 30
0.0
 11
177.9594435517
 21
119.5670565102
 31
0.0
  0
LINE
  5
7A
  8
0
  6
CONTINUOUS
 62
     7
 10
176.2094437305
 20
199.5670547221
 30
0.0
 11
176.4594442372
 21
199.5670547221
 31
0.0
  0
LINE
  5
7B
  8
0
  6
CONTINUOUS
 62
     7
 10
176.4594442372
 20
199.5670547221
 30
0.0
 11
176.4594442372
 21
119.5670565102
 31
0.0
  0
LINE
  5
7C
  8
0
  6
CONTINUOUS
 62
     7
 10
176.2094437305
 20
119.5670565102
 30
0.0
 11
176.4594442372
 21
119.5670565102
 31
0.0
  0
LINE
  5
7D
  8
0
  6
CONTINUOUS
 62
     7
 10
172.7094440882
 20
199.5670547221
 30
0.0
 11
172.7094440882
 21
119.5670565102
 31
0.0
  0
LINE
  5
7E
  8
0
  6
CONTINUOUS
 62
     7
 10
172.7094440882
 20
199.5670547221
 30
0.0
 11
173.2094451014
 21
199.5670547221
 31
0.0
  0
LINE
  5
7F
  8
0
  6
CONTINUOUS
 62
     7
 10
173.2094451014
 20
199.5670547221
 30
0.0
 11
173.2094451014
 21
119.5670565102
 31
0.0
  0
LINE
  5
80
  8
0
  6
CONTINUOUS
 62
     7
 10
172.7094440882
 20
119.5670565102
 30
0.0
 11
173.2094451014
 21
119.5670565102
 31
0.0
  0
LINE
  5
81
  8
0
  6
CONTINUOUS
 62
     7
 10
173.2094451014
 20
199.5670547221
 30
0.0
 11
173.4594418828
 21
199.5670547221
 31
0.0
  0
LINE
  5
82
  8
0
  6
CONTINUOUS
 62
     7
 10
173.4594418828
 20
199.5670547221
 30
0.0
 11
173.4594418828
 21
119.5670565102
 31
0.0
  0
LINE
  5
83
  8
0
  6
CONTINUOUS
 62
     7
 10
173.2094451014
 20
119.5670565102
 30
0.0
 11
173.4594418828
 21
119.5670565102
 31
0.0
  0
LINE
  5
84
  8
0
  6
CONTINUOUS
 62
     7
 10
168.7094434325
 20
199.5670547221
 30
0.0
 11
168.7094434325
 21
119.5670565102
 31
0.0
  0
LINE
  5
85
  8
0
  6
CONTINUOUS
 62
     7
 10
168.7094434325
 20
199.5670547221
 30
0.0
 11
168.9594439392
 21
199.5670547221
 31
0.0
  0
LINE
  5
86
  8
0
  6
CONTINUOUS
 62
     7
 10
168.9594439392
 20
199.5670547221
 30
0.0
 11
168.9594439392
 21
119.5670565102
 31
0.0
  0
LINE
  5
87
  8
0
  6
CONTINUOUS
 62
     7
 10
168.7094434325
 20
119.5670565102
 30
0.0
 11
168.9594439392
 21
119.5670565102
 31
0.0
  0
LINE
  5
88
  8
0
  6
CONTINUOUS
 62
     7
 10
177.2094438945
 20
199.5670547221
 30
0.0
 11
177.2094438945
 21
119.5670565102
 31
0.0
  0
LINE
  5
89
  8
0
  6
CONTINUOUS
 62
     7
 10
177.2094438945
 20
199.5670547221
 30
0.0
 11
177.7094430451
 21
199.5670547221
 31
0.0
  0
LINE
  5
8A
  8
0
  6
CONTINUOUS
 62
     7
 10
177.2094438945
 20
119.5670565102
 30
0.0
 11
177.7094430451
 21
119.5670565102
 31
0.0
  0
LINE
  5
8B
  8
0
  6
CONTINUOUS
 62
     7
 10
168.2094424192
 20
199.5670547221
 30
0.0
 11
168.2094424192
 21
119.5670565102
 31
0.0
  0
LINE
  5
8C
  8
0
  6
CONTINUOUS
 62
     7
 10
168.2094424192
 20
199.5670547221
 30
0.0
 11
168.7094434325
 21
199.5670547221
 31
0.0
  0
LINE
  5
8D
  8
0
  6
CONTINUOUS
 62
     7
 10
168.2094424192
 20
119.5670565102
 30
0.0
 11
168.7094434325
 21
119.5670565102
 31
0.0
  0
LINE
  5
8E
  8
0
  6
CONTINUOUS
 62
     7
 10
210.20944325
 20
199.5670547221
 30
0.0
 11
210.20944325
 21
119.5670565102
 31
0.0
  0
LINE
  5
8F
  8
0
  6
CONTINUOUS
 62
     7
 10
210.20944325
 20
199.5670547221
 30
0.0
 11
210.7094433319
 21
199.5670547221
 31
0.0
  0
LINE
  5
90
  8
0
  6
CONTINUOUS
 62
     7
 10
210.7094433319
 20
199.5670547221
 30
0.0
 11
210.7094433319
 21
119.5670565102
 31
0.0
  0
LINE
  5
91
  8
0
  6
CONTINUOUS
 62
     7
 10
210.20944325
 20
119.5670565102
 30
0.0
 11
210.7094433319
 21
119.5670565102
 31
0.0
  0
LINE
  5
92
  8
0
  6
CONTINUOUS
 62
     7
 10
187.7094428216
 20
199.5670547221
 30
0.0
 11
187.7094428216
 21
119.5670565102
 31
0.0
  0
LINE
  5
93
  8
0
  6
CONTINUOUS
 62
     7
 10
187.7094428216
 20
199.5670547221
 30
0.0
 11
188.2094438348
 21
199.5670547221
 31
0.0
  0
LINE
  5
94
  8
0
  6
CONTINUOUS
 62
     7
 10
188.2094438348
 20
199.5670547221
 30
0.0
 11
188.2094438348
 21
119.5670565102
 31
0.0
  0
LINE
  5
95
  8
0
  6
CONTINUOUS
 62
     7
 10
187.7094428216
 20
119.5670565102
 30
0.0
 11
188.2094438348
 21
119.5670565102
 31
0.0
  0
LINE
  5
96
  8
0
  6
CONTINUOUS
 62
     7
 10
185.2094433431
 20
199.5670547221
 30
0.0
 11
185.2094433431
 21
119.5670565102
 31
0.0
  0
LINE
  5
97
  8
0
  6
CONTINUOUS
 62
     7
 10
185.2094433431
 20
199.5670547221
 30
0.0
 11
185.4594438497
 21
199.5670547221
 31
0.0
  0
LINE
  5
98
  8
0
  6
CONTINUOUS
 62
     7
 10
185.4594438497
 20
199.5670547221
 30
0.0
 11
185.4594438497
 21
119.5670565102
 31
0.0
  0
LINE
  5
99
  8
0
  6
CONTINUOUS
 62
     7
 10
185.2094433431
 20
119.5670565102
 30
0.0
 11
185.4594438497
 21
119.5670565102
 31
0.0
  0
LINE
  5
9A
  8
0
  6
CONTINUOUS
 62
     7
 10
183.2094430153
 20
199.5670547221
 30
0.0
 11
183.2094430153
 21
119.5670565102
 31
0.0
  0
LINE
  5
9B
  8
0
  6
CONTINUOUS
 62
     7
 10
183.2094430153
 20
199.5670547221
 30
0.0
 11
183.7094440286
 21
199.5670547221
 31
0.0
  0
LINE
  5
9C
  8
0
  6
CONTINUOUS
 62
     7
 10
183.7094440286
 20
199.5670547221
 30
0.0
 11
183.7094440286
 21
119.5670565102
 31
0.0
  0
LINE
  5
9D
  8
0
  6
CONTINUOUS
 62
     7
 10
183.2094430153
 20
119.5670565102
 30
0.0
 11
183.7094440286
 21
119.5670565102
 31
0.0
  0
LINE
  5
9E
  8
0
  6
CONTINUOUS
 62
     7
 10
184.7094441925
 20
199.5670547221
 30
0.0
 11
184.7094441925
 21
119.5670565102
 31
0.0
  0
LINE
  5
9F
  8
0
  6
CONTINUOUS
 62
     7
 10
184.7094441925
 20
199.5670547221
 30
0.0
 11
185.2094433431
 21
199.5670547221
 31
0.0
  0
LINE
  5
A0
  8
0
  6
CONTINUOUS
 62
     7
 10
184.7094441925
 20
119.5670565102
 30
0.0
 11
185.2094433431
 21
119.5670565102
 31
0.0
  0
LINE
  5
A1
  8
0
  6
CONTINUOUS
 62
     7
 10
165.7094448034
 20
199.5670547221
 30
0.0
 11
165.7094448034
 21
119.5670565102
 31
0.0
  0
LINE
  5
A2
  8
0
  6
CONTINUOUS
 62
     7
 10
165.7094448034
 20
199.5670547221
 30
0.0
 11
165.9594453101
 21
199.5670547221
 31
0.0
  0
LINE
  5
A3
  8
0
  6
CONTINUOUS
 62
     7
 10
165.9594453101
 20
199.5670547221
 30
0.0
 11
165.9594453101
 21
119.5670565102
 31
0.0
  0
LINE
  5
A4
  8
0
  6
CONTINUOUS
 62
     7
 10
165.7094448034
 20
119.5670565102
 30
0.0
 11
165.9594453101
 21
119.5670565102
 31
0.0
  0
LINE
  5
A5
  8
0
  6
CONTINUOUS
 62
     7
 10
192.2094435592
 20
199.5670547221
 30
0.0
 11
192.2094435592
 21
119.5670565102
 31
0.0
  0
LINE
  5
A6
  8
0
  6
CONTINUOUS
 62
     7
 10
192.2094435592
 20
199.5670547221
 30
0.0
 11
192.7094436411
 21
199.5670547221
 31
0.0
  0
LINE
  5
A7
  8
0
  6
CONTINUOUS
 62
     7
 10
192.7094436411
 20
199.5670547221
 30
0.0
 11
192.7094436411
 21
119.5670565102
 31
0.0
  0
LINE
  5
A8
  8
0
  6
CONTINUOUS
 62
     7
 10
192.2094435592
 20
119.5670565102
 30
0.0
 11
192.7094436411
 21
119.5670565102
 31
0.0
  0
LINE
  5
A9
  8
0
  6
CONTINUOUS
 62
     7
 10
165.2094437901
 20
199.5670547221
 30
0.0
 11
165.2094437901
 21
119.5670565102
 31
0.0
  0
LINE
  5
AA
  8
0
  6
CONTINUOUS
 62
     7
 10
165.2094437901
 20
199.5670547221
 30
0.0
 11
165.7094448034
 21
199.5670547221
 31
0.0
  0
LINE
  5
AB
  8
0
  6
CONTINUOUS
 62
     7
 10
165.2094437901
 20
119.5670565102
 30
0.0
 11
165.7094448034
 21
119.5670565102
 31
0.0
  0
LINE
  5
AC
  8
0
  6
CONTINUOUS
 62
     7
 10
192.7094436411
 20
199.5670547221
 30
0.0
 11
192.9594432164
 21
199.5670547221
 31
0.0
  0
LINE
  5
AD
  8
0
  6
CONTINUOUS
 62
     7
 10
192.9594432164
 20
199.5670547221
 30
0.0
 11
192.9594432164
 21
119.5670565102
 31
0.0
  0
LINE
  5
AE
  8
0
  6
CONTINUOUS
 62
     7
 10
192.7094436411
 20
119.5670565102
 30
0.0
 11
192.9594432164
 21
119.5670565102
 31
0.0
  0
LINE
  5
AF
  8
0
  6
CONTINUOUS
 62
     7
 10
188.2094438348
 20
199.5670547221
 30
0.0
 11
188.4594443415
 21
199.5670547221
 31
0.0
  0
LINE
  5
B0
  8
0
  6
CONTINUOUS
 62
     7
 10
188.4594443415
 20
199.5670547221
 30
0.0
 11
188.4594443415
 21
119.5670565102
 31
0.0
  0
LINE
  5
B1
  8
0
  6
CONTINUOUS
 62
     7
 10
188.2094438348
 20
119.5670565102
 30
0.0
 11
188.4594443415
 21
119.5670565102
 31
0.0
  0
LINE
  5
B2
  8
0
  6
CONTINUOUS
 62
     7
 10
180.7094435368
 20
199.5670547221
 30
0.0
 11
180.7094435368
 21
119.5670565102
 31
0.0
  0
LINE
  5
B3
  8
0
  6
CONTINUOUS
 62
     7
 10
180.7094435368
 20
199.5670547221
 30
0.0
 11
180.9594440435
 21
199.5670547221
 31
0.0
  0
LINE
  5
B4
  8
0
  6
CONTINUOUS
 62
     7
 10
180.9594440435
 20
199.5670547221
 30
0.0
 11
180.9594440435
 21
119.5670565102
 31
0.0
  0
LINE
  5
B5
  8
0
  6
CONTINUOUS
 62
     7
 10
180.7094435368
 20
119.5670565102
 30
0.0
 11
180.9594440435
 21
119.5670565102
 31
0.0
  0
LINE
  5
B6
  8
0
  6
CONTINUOUS
 62
     7
 10
210.7094433319
 20
199.5670547221
 30
0.0
 11
210.9594433729
 21
199.5670547221
 31
0.0
  0
LINE
  5
B7
  8
0
  6
CONTINUOUS
 62
     7
 10
210.9594433729
 20
199.5670547221
 30
0.0
 11
210.9594433729
 21
119.5670565102
 31
0.0
  0
LINE
  5
B8
  8
0
  6
CONTINUOUS
 62
     7
 10
210.7094433319
 20
119.5670565102
 30
0.0
 11
210.9594433729
 21
119.5670565102
 31
0.0
  0
LINE
  5
B9
  8
0
  6
CONTINUOUS
 62
     7
 10
195.7094432015
 20
199.5670547221
 30
0.0
 11
195.7094432015
 21
119.5670565102
 31
0.0
  0
LINE
  5
BA
  8
0
  6
CONTINUOUS
 62
     7
 10
195.7094432015
 20
199.5670547221
 30
0.0
 11
195.9594437082
 21
199.5670547221
 31
0.0
  0
LINE
  5
BB
  8
0
  6
CONTINUOUS
 62
     7
 10
195.9594437082
 20
199.5670547221
 30
0.0
 11
195.9594437082
 21
119.5670565102
 31
0.0
  0
LINE
  5
BC
  8
0
  6
CONTINUOUS
 62
     7
 10
195.7094432015
 20
119.5670565102
 30
0.0
 11
195.9594437082
 21
119.5670565102
 31
0.0
  0
LINE
  5
BD
  8
0
  6
CONTINUOUS
 62
     7
 10
180.2094443862
 20
199.5670547221
 30
0.0
 11
180.2094443862
 21
119.5670565102
 31
0.0
  0
LINE
  5
BE
  8
0
  6
CONTINUOUS
 62
     7
 10
180.2094443862
 20
199.5670547221
 30
0.0
 11
180.7094435368
 21
199.5670547221
 31
0.0
  0
LINE
  5
BF
  8
0
  6
CONTINUOUS
 62
     7
 10
180.2094443862
 20
119.5670565102
 30
0.0
 11
180.7094435368
 21
119.5670565102
 31
0.0
  0
LINE
  5
C0
  8
0
  6
CONTINUOUS
 62
     7
 10
183.7094440286
 20
199.5670547221
 30
0.0
 11
183.9594426726
 21
199.5670547221
 31
0.0
  0
LINE
  5
C1
  8
0
  6
CONTINUOUS
 62
     7
 10
183.9594426726
 20
199.5670547221
 30
0.0
 11
183.9594426726
 21
119.5670565102
 31
0.0
  0
LINE
  5
C2
  8
0
  6
CONTINUOUS
 62
     7
 10
183.7094440286
 20
119.5670565102
 30
0.0
 11
183.9594426726
 21
119.5670565102
 31
0.0
  0
LINE
  5
C3
  8
0
  6
CONTINUOUS
 62
     7
 10
195.2094431196
 20
199.5670547221
 30
0.0
 11
195.2094431196
 21
119.5670565102
 31
0.0
  0
LINE
  5
C4
  8
0
  6
CONTINUOUS
 62
     7
 10
195.2094431196
 20
199.5670547221
 30
0.0
 11
195.7094432015
 21
199.5670547221
 31
0.0
  0
LINE
  5
C5
  8
0
  6
CONTINUOUS
 62
     7
 10
195.2094431196
 20
119.5670565102
 30
0.0
 11
195.7094432015
 21
119.5670565102
 31
0.0
  0
LINE
  5
C6
  8
0
  6
CONTINUOUS
 62
     7
 10
244.709444714
 20
199.5670547221
 30
0.0
 11
244.709444714
 21
119.5670565102
 31
0.0
  0
LINE
  5
C7
  8
0
  6
CONTINUOUS
 62
     7
 10
244.709444714
 20
199.5670547221
 30
0.0
 11
245.209442002
 21
199.5670547221
 31
0.0
  0
LINE
  5
C8
  8
0
  6
CONTINUOUS
 62
     7
 10
245.209442002
 20
199.5670547221
 30
0.0
 11
245.209442002
 21
119.5670565102
 31
0.0
  0
LINE
  5
C9
  8
0
  6
CONTINUOUS
 62
     7
 10
244.709444714
 20
119.5670565102
 30
0.0
 11
245.209442002
 21
119.5670565102
 31
0.0
  0
LINE
  5
CA
  8
0
  6
CONTINUOUS
 62
     7
 10
170.2094427471
 20
199.5670547221
 30
0.0
 11
170.2094427471
 21
119.5670565102
 31
0.0
  0
LINE
  5
CB
  8
0
  6
CONTINUOUS
 62
     7
 10
170.2094427471
 20
199.5670547221
 30
0.0
 11
170.4594432537
 21
199.5670547221
 31
0.0
  0
LINE
  5
CC
  8
0
  6
CONTINUOUS
 62
     7
 10
170.4594432537
 20
199.5670547221
 30
0.0
 11
170.4594432537
 21
119.5670565102
 31
0.0
  0
LINE
  5
CD
  8
0
  6
CONTINUOUS
 62
     7
 10
170.2094427471
 20
119.5670565102
 30
0.0
 11
170.4594432537
 21
119.5670565102
 31
0.0
  0
LINE
  5
CE
  8
0
  6
CONTINUOUS
 62
     7
 10
169.7094417338
 20
199.5670547221
 30
0.0
 11
169.7094417338
 21
119.5670565102
 31
0.0
  0
LINE
  5
CF
  8
0
  6
CONTINUOUS
 62
     7
 10
169.7094417338
 20
199.5670547221
 30
0.0
 11
170.2094427471
 21
199.5670547221
 31
0.0
  0
LINE
  5
D0
  8
0
  6
CONTINUOUS
 62
     7
 10
169.7094417338
 20
119.5670565102
 30
0.0
 11
170.2094427471
 21
119.5670565102
 31
0.0
  0
LINE
  5
D1
  8
0
  6
CONTINUOUS
 62
     7
 10
174.2094434027
 20
199.5670547221
 30
0.0
 11
174.2094434027
 21
119.5670565102
 31
0.0
  0
LINE
  5
D2
  8
0
  6
CONTINUOUS
 62
     7
 10
174.2094434027
 20
199.5670547221
 30
0.0
 11
174.7094425533
 21
199.5670547221
 31
0.0
  0
LINE
  5
D3
  8
0
  6
CONTINUOUS
 62
     7
 10
174.7094425533
 20
199.5670547221
 30
0.0
 11
174.7094425533
 21
119.5670565102
 31
0.0
  0
LINE
  5
D4
  8
0
  6
CONTINUOUS
 62
     7
 10
174.2094434027
 20
119.5670565102
 30
0.0
 11
174.7094425533
 21
119.5670565102
 31
0.0
  0
LINE
  5
D5
  8
0
  6
CONTINUOUS
 62
     7
 10
245.209442002
 20
199.5670547221
 30
0.0
 11
245.4594425086
 21
199.5670547221
 31
0.0
  0
LINE
  5
D6
  8
0
  6
CONTINUOUS
 62
     7
 10
245.4594425086
 20
199.5670547221
 30
0.0
 11
245.4594425086
 21
119.5670565102
 31
0.0
  0
LINE
  5
D7
  8
0
  6
CONTINUOUS
 62
     7
 10
245.209442002
 20
119.5670565102
 30
0.0
 11
245.4594425086
 21
119.5670565102
 31
0.0
  0
LINE
  5
D8
  8
0
  6
CONTINUOUS
 62
     7
 10
171.2094447736
 20
199.5670547221
 30
0.0
 11
171.2094447736
 21
119.5670565102
 31
0.0
  0
LINE
  5
D9
  8
0
  6
CONTINUOUS
 62
     7
 10
171.2094447736
 20
199.5670547221
 30
0.0
 11
171.7094420616
 21
199.5670547221
 31
0.0
  0
LINE
  5
DA
  8
0
  6
CONTINUOUS
 62
     7
 10
171.7094420616
 20
199.5670547221
 30
0.0
 11
171.7094420616
 21
119.5670565102
 31
0.0
  0
LINE
  5
DB
  8
0
  6
CONTINUOUS
 62
     7
 10
171.2094447736
 20
119.5670565102
 30
0.0
 11
171.7094420616
 21
119.5670565102
 31
0.0
  0
LINE
  5
DC
  8
0
  6
CONTINUOUS
 62
     7
 10
167.209444118
 20
199.5670547221
 30
0.0
 11
167.209444118
 21
119.5670565102
 31
0.0
  0
LINE
  5
DD
  8
0
  6
CONTINUOUS
 62
     7
 10
167.209444118
 20
199.5670547221
 30
0.0
 11
167.4594446246
 21
199.5670547221
 31
0.0
  0
LINE
  5
DE
  8
0
  6
CONTINUOUS
 62
     7
 10
167.4594446246
 20
199.5670547221
 30
0.0
 11
167.4594446246
 21
119.5670565102
 31
0.0
  0
LINE
  5
DF
  8
0
  6
CONTINUOUS
 62
     7
 10
167.209444118
 20
119.5670565102
 30
0.0
 11
167.4594446246
 21
119.5670565102
 31
0.0
  0
LINE
  5
E0
  8
0
  6
CONTINUOUS
 62
     7
 10
174.7094425533
 20
199.5670547221
 30
0.0
 11
174.95944306
 21
199.5670547221
 31
0.0
  0
LINE
  5
E1
  8
0
  6
CONTINUOUS
 62
     7
 10
174.95944306
 20
199.5670547221
 30
0.0
 11
174.95944306
 21
119.5670565102
 31
0.0
  0
LINE
  5
E2
  8
0
  6
CONTINUOUS
 62
     7
 10
174.7094425533
 20
119.5670565102
 30
0.0
 11
174.95944306
 21
119.5670565102
 31
0.0
  0
LINE
  5
E3
  8
0
  6
CONTINUOUS
 62
     7
 10
171.7094420616
 20
199.5670547221
 30
0.0
 11
171.9594425682
 21
199.5670547221
 31
0.0
  0
LINE
  5
E4
  8
0
  6
CONTINUOUS
 62
     7
 10
171.9594425682
 20
199.5670547221
 30
0.0
 11
171.9594425682
 21
119.5670565102
 31
0.0
  0
LINE
  5
E5
  8
0
  6
CONTINUOUS
 62
     7
 10
171.7094420616
 20
119.5670565102
 30
0.0
 11
171.9594425682
 21
119.5670565102
 31
0.0
  0
LINE
  5
E6
  8
0
  6
CONTINUOUS
 62
     7
 10
166.7094431047
 20
199.5670547221
 30
0.0
 11
166.7094431047
 21
119.5670565102
 31
0.0
  0
LINE
  5
E7
  8
0
  6
CONTINUOUS
 62
     7
 10
166.7094431047
 20
199.5670547221
 30
0.0
 11
167.209444118
 21
199.5670547221
 31
0.0
  0
LINE
  5
E8
  8
0
  6
CONTINUOUS
 62
     7
 10
166.7094431047
 20
119.5670565102
 30
0.0
 11
167.209444118
 21
119.5670565102
 31
0.0
  0
LINE
  5
E9
  8
0
  6
CONTINUOUS
 62
     7
 10
179.2094442223
 20
199.5670547221
 30
0.0
 11
179.2094442223
 21
119.5670565102
 31
0.0
  0
LINE
  5
EA
  8
0
  6
CONTINUOUS
 62
     7
 10
179.2094442223
 20
199.5670547221
 30
0.0
 11
179.4594428663
 21
199.5670547221
 31
0.0
  0
LINE
  5
EB
  8
0
  6
CONTINUOUS
 62
     7
 10
179.4594428663
 20
199.5670547221
 30
0.0
 11
179.4594428663
 21
119.5670565102
 31
0.0
  0
LINE
  5
EC
  8
0
  6
CONTINUOUS
 62
     7
 10
179.2094442223
 20
119.5670565102
 30
0.0
 11
179.4594428663
 21
119.5670565102
 31
0.0
  0
LINE
  5
ED
  8
0
  6
CONTINUOUS
 62
     7
 10
214.7094435219
 20
199.5670547221
 30
0.0
 11
214.7094435219
 21
119.5670565102
 31
0.0
  0
LINE
  5
EE
  8
0
  6
CONTINUOUS
 62
     7
 10
214.7094435219
 20
199.5670547221
 30
0.0
 11
215.2094436039
 21
199.5670547221
 31
0.0
  0
LINE
  5
EF
  8
0
  6
CONTINUOUS
 62
     7
 10
215.2094436039
 20
199.5670547221
 30
0.0
 11
215.2094436039
 21
119.5670565102
 31
0.0
  0
LINE
  5
F0
  8
0
  6
CONTINUOUS
 62
     7
 10
214.7094435219
 20
119.5670565102
 30
0.0
 11
215.2094436039
 21
119.5670565102
 31
0.0
  0
LINE
  5
F1
  8
0
  6
CONTINUOUS
 62
     7
 10
239.2094447438
 20
199.5670547221
 30
0.0
 11
239.2094447438
 21
119.5670565102
 31
0.0
  0
LINE
  5
F2
  8
0
  6
CONTINUOUS
 62
     7
 10
239.2094447438
 20
199.5670547221
 30
0.0
 11
239.4594452505
 21
199.5670547221
 31
0.0
  0
LINE
  5
F3
  8
0
  6
CONTINUOUS
 62
     7
 10
239.4594452505
 20
199.5670547221
 30
0.0
 11
239.4594452505
 21
119.5670565102
 31
0.0
  0
LINE
  5
F4
  8
0
  6
CONTINUOUS
 62
     7
 10
239.2094447438
 20
119.5670565102
 30
0.0
 11
239.4594452505
 21
119.5670565102
 31
0.0
  0
LINE
  5
F5
  8
0
  6
CONTINUOUS
 62
     7
 10
237.709441704
 20
199.5670547221
 30
0.0
 11
237.709441704
 21
119.5670565102
 31
0.0
  0
LINE
  5
F6
  8
0
  6
CONTINUOUS
 62
     7
 10
237.709441704
 20
199.5670547221
 30
0.0
 11
237.9594422106
 21
199.5670547221
 31
0.0
  0
LINE
  5
F7
  8
0
  6
CONTINUOUS
 62
     7
 10
237.9594422106
 20
199.5670547221
 30
0.0
 11
237.9594422106
 21
119.5670565102
 31
0.0
  0
LINE
  5
F8
  8
0
  6
CONTINUOUS
 62
     7
 10
237.709441704
 20
119.5670565102
 30
0.0
 11
237.9594422106
 21
119.5670565102
 31
0.0
  0
LINE
  5
F9
  8
0
  6
CONTINUOUS
 62
     7
 10
186.209443507
 20
199.5670547221
 30
0.0
 11
186.209443507
 21
119.5670565102
 31
0.0
  0
LINE
  5
FA
  8
0
  6
CONTINUOUS
 62
     7
 10
186.209443507
 20
199.5670547221
 30
0.0
 11
186.7094426577
 21
199.5670547221
 31
0.0
  0
LINE
  5
FB
  8
0
  6
CONTINUOUS
 62
     7
 10
186.7094426577
 20
199.5670547221
 30
0.0
 11
186.7094426577
 21
119.5670565102
 31
0.0
  0
LINE
  5
FC
  8
0
  6
CONTINUOUS
 62
     7
 10
186.209443507
 20
119.5670565102
 30
0.0
 11
186.7094426577
 21
119.5670565102
 31
0.0
  0
LINE
  5
FD
  8
0
  6
CONTINUOUS
 62
     7
 10
222.7094429706
 20
199.5670547221
 30
0.0
 11
222.7094429706
 21
119.5670565102
 31
0.0
  0
LINE
  5
FE
  8
0
  6
CONTINUOUS
 62
     7
 10
222.7094429706
 20
199.5670547221
 30
0.0
 11
222.9594434772
 21
199.5670547221
 31
0.0
  0
LINE
  5
FF
  8
0
  6
CONTINUOUS
 62
     7
 10
222.9594434772
 20
199.5670547221
 30
0.0
 11
222.9594434772
 21
119.5670565102
 31
0.0
  0
LINE
  5
100
  8
0
  6
CONTINUOUS
 62
     7
 10
222.7094429706
 20
119.5670565102
 30
0.0
 11
222.9594434772
 21
119.5670565102
 31
0.0
  0
LINE
  5
101
  8
0
  6
CONTINUOUS
 62
     7
 10
224.2094441478
 20
199.5670547221
 30
0.0
 11
224.2094441478
 21
119.5670565102
 31
0.0
  0
LINE
  5
102
  8
0
  6
CONTINUOUS
 62
     7
 10
224.2094441478
 20
199.5670547221
 30
0.0
 11
224.4594427918
 21
199.5670547221
 31
0.0
  0
LINE
  5
103
  8
0
  6
CONTINUOUS
 62
     7
 10
224.4594427918
 20
199.5670547221
 30
0.0
 11
224.4594427918
 21
119.5670565102
 31
0.0
  0
LINE
  5
104
  8
0
  6
CONTINUOUS
 62
     7
 10
224.2094441478
 20
119.5670565102
 30
0.0
 11
224.4594427918
 21
119.5670565102
 31
0.0
  0
LINE
  5
105
  8
0
  6
CONTINUOUS
 62
     7
 10
226.7094436262
 20
199.5670547221
 30
0.0
 11
226.7094436262
 21
119.5670565102
 31
0.0
  0
LINE
  5
106
  8
0
  6
CONTINUOUS
 62
     7
 10
226.7094436262
 20
199.5670547221
 30
0.0
 11
227.2094427769
 21
199.5670547221
 31
0.0
  0
LINE
  5
107
  8
0
  6
CONTINUOUS
 62
     7
 10
227.2094427769
 20
199.5670547221
 30
0.0
 11
227.2094427769
 21
119.5670565102
 31
0.0
  0
LINE
  5
108
  8
0
  6
CONTINUOUS
 62
     7
 10
226.7094436262
 20
119.5670565102
 30
0.0
 11
227.2094427769
 21
119.5670565102
 31
0.0
  0
LINE
  5
109
  8
0
  6
CONTINUOUS
 62
     7
 10
189.2094439988
 20
199.5670547221
 30
0.0
 11
189.2094439988
 21
119.5670565102
 31
0.0
  0
LINE
  5
10A
  8
0
  6
CONTINUOUS
 62
     7
 10
189.2094439988
 20
199.5670547221
 30
0.0
 11
189.7094431494
 21
199.5670547221
 31
0.0
  0
LINE
  5
10B
  8
0
  6
CONTINUOUS
 62
     7
 10
189.7094431494
 20
199.5670547221
 30
0.0
 11
189.7094431494
 21
119.5670565102
 31
0.0
  0
LINE
  5
10C
  8
0
  6
CONTINUOUS
 62
     7
 10
189.2094439988
 20
119.5670565102
 30
0.0
 11
189.7094431494
 21
119.5670565102
 31
0.0
  0
LINE
  5
10D
  8
0
  6
CONTINUOUS
 62
     7
 10
222.2094438199
 20
199.5670547221
 30
0.0
 11
222.2094438199
 21
119.5670565102
 31
0.0
  0
LINE
  5
10E
  8
0
  6
CONTINUOUS
 62
     7
 10
222.2094438199
 20
199.5670547221
 30
0.0
 11
222.7094429706
 21
199.5670547221
 31
0.0
  0
LINE
  5
10F
  8
0
  6
CONTINUOUS
 62
     7
 10
222.2094438199
 20
119.5670565102
 30
0.0
 11
222.7094429706
 21
119.5670565102
 31
0.0
  0
LINE
  5
110
  8
0
  6
CONTINUOUS
 62
     7
 10
197.2094434474
 20
199.5670547221
 30
0.0
 11
197.2094434474
 21
119.5670565102
 31
0.0
  0
LINE
  5
111
  8
0
  6
CONTINUOUS
 62
     7
 10
197.2094434474
 20
199.5670547221
 30
0.0
 11
197.4594434884
 21
199.5670547221
 31
0.0
  0
LINE
  5
112
  8
0
  6
CONTINUOUS
 62
     7
 10
197.4594434884
 20
199.5670547221
 30
0.0
 11
197.4594434884
 21
119.5670565102
 31
0.0
  0
LINE
  5
113
  8
0
  6
CONTINUOUS
 62
     7
 10
197.2094434474
 20
119.5670565102
 30
0.0
 11
197.4594434884
 21
119.5670565102
 31
0.0
  0
LINE
  5
114
  8
0
  6
CONTINUOUS
 62
     7
 10
219.2094433282
 20
199.5670547221
 30
0.0
 11
219.2094433282
 21
119.5670565102
 31
0.0
  0
LINE
  5
115
  8
0
  6
CONTINUOUS
 62
     7
 10
219.2094433282
 20
199.5670547221
 30
0.0
 11
219.7094434102
 21
199.5670547221
 31
0.0
  0
LINE
  5
116
  8
0
  6
CONTINUOUS
 62
     7
 10
219.7094434102
 20
199.5670547221
 30
0.0
 11
219.7094434102
 21
119.5670565102
 31
0.0
  0
LINE
  5
117
  8
0
  6
CONTINUOUS
 62
     7
 10
219.2094433282
 20
119.5670565102
 30
0.0
 11
219.7094434102
 21
119.5670565102
 31
0.0
  0
LINE
  5
118
  8
0
  6
CONTINUOUS
 62
     7
 10
227.2094427769
 20
199.5670547221
 30
0.0
 11
227.4594432835
 21
199.5670547221
 31
0.0
  0
LINE
  5
119
  8
0
  6
CONTINUOUS
 62
     7
 10
227.4594432835
 20
199.5670547221
 30
0.0
 11
227.4594432835
 21
119.5670565102
 31
0.0
  0
LINE
  5
11A
  8
0
  6
CONTINUOUS
 62
     7
 10
227.2094427769
 20
119.5670565102
 30
0.0
 11
227.4594432835
 21
119.5670565102
 31
0.0
  0
LINE
  5
11B
  8
0
  6
CONTINUOUS
 62
     7
 10
217.7094430823
 20
199.5670547221
 30
0.0
 11
217.7094430823
 21
119.5670565102
 31
0.0
  0
LINE
  5
11C
  8
0
  6
CONTINUOUS
 62
     7
 10
217.7094430823
 20
199.5670547221
 30
0.0
 11
218.2094431643
 21
199.5670547221
 31
0.0
  0
LINE
  5
11D
  8
0
  6
CONTINUOUS
 62
     7
 10
218.2094431643
 20
199.5670547221
 30
0.0
 11
218.2094431643
 21
119.5670565102
 31
0.0
  0
LINE
  5
11E
  8
0
  6
CONTINUOUS
 62
     7
 10
217.7094430823
 20
119.5670565102
 30
0.0
 11
218.2094431643
 21
119.5670565102
 31
0.0
  0
LINE
  5
11F
  8
0
  6
CONTINUOUS
 62
     7
 10
182.2094428514
 20
199.5670547221
 30
0.0
 11
182.2094428514
 21
119.5670565102
 31
0.0
  0
LINE
  5
120
  8
0
  6
CONTINUOUS
 62
     7
 10
182.2094428514
 20
199.5670547221
 30
0.0
 11
182.459443358
 21
199.5670547221
 31
0.0
  0
LINE
  5
121
  8
0
  6
CONTINUOUS
 62
     7
 10
182.459443358
 20
199.5670547221
 30
0.0
 11
182.459443358
 21
119.5670565102
 31
0.0
  0
LINE
  5
122
  8
0
  6
CONTINUOUS
 62
     7
 10
182.2094428514
 20
119.5670565102
 30
0.0
 11
182.459443358
 21
119.5670565102
 31
0.0
  0
LINE
  5
123
  8
0
  6
CONTINUOUS
 62
     7
 10
241.7094423596
 20
199.5670547221
 30
0.0
 11
241.7094423596
 21
119.5670565102
 31
0.0
  0
LINE
  5
124
  8
0
  6
CONTINUOUS
 62
     7
 10
241.7094423596
 20
199.5670547221
 30
0.0
 11
242.2094433729
 21
199.5670547221
 31
0.0
  0
LINE
  5
125
  8
0
  6
CONTINUOUS
 62
     7
 10
242.2094433729
 20
199.5670547221
 30
0.0
 11
242.2094433729
 21
119.5670565102
 31
0.0
  0
LINE
  5
126
  8
0
  6
CONTINUOUS
 62
     7
 10
241.7094423596
 20
119.5670565102
 30
0.0
 11
242.2094433729
 21
119.5670565102
 31
0.0
  0
LINE
  5
127
  8
0
  6
CONTINUOUS
 62
     7
 10
240.2094430451
 20
199.5670547221
 30
0.0
 11
240.2094430451
 21
119.5670565102
 31
0.0
  0
LINE
  5
128
  8
0
  6
CONTINUOUS
 62
     7
 10
240.2094430451
 20
199.5670547221
 30
0.0
 11
240.7094440584
 21
199.5670547221
 31
0.0
  0
LINE
  5
129
  8
0
  6
CONTINUOUS
 62
     7
 10
240.7094440584
 20
199.5670547221
 30
0.0
 11
240.7094440584
 21
119.5670565102
 31
0.0
  0
LINE
  5
12A
  8
0
  6
CONTINUOUS
 62
     7
 10
240.2094430451
 20
119.5670565102
 30
0.0
 11
240.7094440584
 21
119.5670565102
 31
0.0
  0
LINE
  5
12B
  8
0
  6
CONTINUOUS
 62
     7
 10
223.7094431345
 20
199.5670547221
 30
0.0
 11
223.7094431345
 21
119.5670565102
 31
0.0
  0
LINE
  5
12C
  8
0
  6
CONTINUOUS
 62
     7
 10
223.7094431345
 20
199.5670547221
 30
0.0
 11
224.2094441478
 21
199.5670547221
 31
0.0
  0
LINE
  5
12D
  8
0
  6
CONTINUOUS
 62
     7
 10
223.7094431345
 20
119.5670565102
 30
0.0
 11
224.2094441478
 21
119.5670565102
 31
0.0
  0
LINE
  5
12E
  8
0
  6
CONTINUOUS
 62
     7
 10
211.7094434958
 20
199.5670547221
 30
0.0
 11
211.7094434958
 21
119.5670565102
 31
0.0
  0
LINE
  5
12F
  8
0
  6
CONTINUOUS
 62
     7
 10
211.7094434958
 20
199.5670547221
 30
0.0
 11
212.2094435778
 21
199.5670547221
 31
0.0
  0
LINE
  5
130
  8
0
  6
CONTINUOUS
 62
     7
 10
212.2094435778
 20
199.5670547221
 30
0.0
 11
212.2094435778
 21
119.5670565102
 31
0.0
  0
LINE
  5
131
  8
0
  6
CONTINUOUS
 62
     7
 10
211.7094434958
 20
119.5670565102
 30
0.0
 11
212.2094435778
 21
119.5670565102
 31
0.0
  0
LINE
  5
132
  8
0
  6
CONTINUOUS
 62
     7
 10
230.2094432686
 20
199.5670547221
 30
0.0
 11
230.2094432686
 21
119.5670565102
 31
0.0
  0
LINE
  5
133
  8
0
  6
CONTINUOUS
 62
     7
 10
230.2094432686
 20
199.5670547221
 30
0.0
 11
230.4594437752
 21
199.5670547221
 31
0.0
  0
LINE
  5
134
  8
0
  6
CONTINUOUS
 62
     7
 10
230.4594437752
 20
199.5670547221
 30
0.0
 11
230.4594437752
 21
119.5670565102
 31
0.0
  0
LINE
  5
135
  8
0
  6
CONTINUOUS
 62
     7
 10
230.2094432686
 20
119.5670565102
 30
0.0
 11
230.4594437752
 21
119.5670565102
 31
0.0
  0
LINE
  5
136
  8
0
  6
CONTINUOUS
 62
     7
 10
194.209443887
 20
199.5670547221
 30
0.0
 11
194.209443887
 21
119.5670565102
 31
0.0
  0
LINE
  5
137
  8
0
  6
CONTINUOUS
 62
     7
 10
194.209443887
 20
199.5670547221
 30
0.0
 11
194.4594434623
 21
199.5670547221
 31
0.0
  0
LINE
  5
138
  8
0
  6
CONTINUOUS
 62
     7
 10
194.4594434623
 20
199.5670547221
 30
0.0
 11
194.4594434623
 21
119.5670565102
 31
0.0
  0
LINE
  5
139
  8
0
  6
CONTINUOUS
 62
     7
 10
194.209443887
 20
119.5670565102
 30
0.0
 11
194.4594434623
 21
119.5670565102
 31
0.0
  0
LINE
  5
13A
  8
0
  6
CONTINUOUS
 62
     7
 10
196.7094433655
 20
199.5670547221
 30
0.0
 11
196.7094433655
 21
119.5670565102
 31
0.0
  0
LINE
  5
13B
  8
0
  6
CONTINUOUS
 62
     7
 10
196.7094433655
 20
199.5670547221
 30
0.0
 11
197.2094434474
 21
199.5670547221
 31
0.0
  0
LINE
  5
13C
  8
0
  6
CONTINUOUS
 62
     7
 10
196.7094433655
 20
119.5670565102
 30
0.0
 11
197.2094434474
 21
119.5670565102
 31
0.0
  0
LINE
  5
13D
  8
0
  6
CONTINUOUS
 62
     7
 10
231.2094434325
 20
199.5670547221
 30
0.0
 11
231.2094434325
 21
119.5670565102
 31
0.0
  0
LINE
  5
13E
  8
0
  6
CONTINUOUS
 62
     7
 10
231.2094434325
 20
199.5670547221
 30
0.0
 11
231.7094425832
 21
199.5670547221
 31
0.0
  0
LINE
  5
13F
  8
0
  6
CONTINUOUS
 62
     7
 10
231.7094425832
 20
199.5670547221
 30
0.0
 11
231.7094425832
 21
119.5670565102
 31
0.0
  0
LINE
  5
140
  8
0
  6
CONTINUOUS
 62
     7
 10
231.2094434325
 20
119.5670565102
 30
0.0
 11
231.7094425832
 21
119.5670565102
 31
0.0
  0
LINE
  5
141
  8
0
  6
CONTINUOUS
 62
     7
 10
186.7094426577
 20
199.5670547221
 30
0.0
 11
186.9594431643
 21
199.5670547221
 31
0.0
  0
LINE
  5
142
  8
0
  6
CONTINUOUS
 62
     7
 10
186.9594431643
 20
199.5670547221
 30
0.0
 11
186.9594431643
 21
119.5670565102
 31
0.0
  0
LINE
  5
143
  8
0
  6
CONTINUOUS
 62
     7
 10
186.7094426577
 20
119.5670565102
 30
0.0
 11
186.9594431643
 21
119.5670565102
 31
0.0
  0
LINE
  5
144
  8
0
  6
CONTINUOUS
 62
     7
 10
242.2094433729
 20
199.5670547221
 30
0.0
 11
242.4594438796
 21
199.5670547221
 31
0.0
  0
LINE
  5
145
  8
0
  6
CONTINUOUS
 62
     7
 10
242.4594438796
 20
199.5670547221
 30
0.0
 11
242.4594438796
 21
119.5670565102
 31
0.0
  0
LINE
  5
146
  8
0
  6
CONTINUOUS
 62
     7
 10
242.2094433729
 20
119.5670565102
 30
0.0
 11
242.4594438796
 21
119.5670565102
 31
0.0
  0
LINE
  5
147
  8
0
  6
CONTINUOUS
 62
     7
 10
215.2094436039
 20
199.5670547221
 30
0.0
 11
215.4594431792
 21
199.5670547221
 31
0.0
  0
LINE
  5
148
  8
0
  6
CONTINUOUS
 62
     7
 10
215.4594431792
 20
199.5670547221
 30
0.0
 11
215.4594431792
 21
119.5670565102
 31
0.0
  0
LINE
  5
149
  8
0
  6
CONTINUOUS
 62
     7
 10
215.2094436039
 20
119.5670565102
 30
0.0
 11
215.4594431792
 21
119.5670565102
 31
0.0
  0
LINE
  5
14A
  8
0
  6
CONTINUOUS
 62
     7
 10
225.7094434623
 20
199.5670547221
 30
0.0
 11
225.7094434623
 21
119.5670565102
 31
0.0
  0
LINE
  5
14B
  8
0
  6
CONTINUOUS
 62
     7
 10
225.7094434623
 20
199.5670547221
 30
0.0
 11
225.959443969
 21
199.5670547221
 31
0.0
  0
LINE
  5
14C
  8
0
  6
CONTINUOUS
 62
     7
 10
225.959443969
 20
199.5670547221
 30
0.0
 11
225.959443969
 21
119.5670565102
 31
0.0
  0
LINE
  5
14D
  8
0
  6
CONTINUOUS
 62
     7
 10
225.7094434623
 20
119.5670565102
 30
0.0
 11
225.959443969
 21
119.5670565102
 31
0.0
  0
LINE
  5
14E
  8
0
  6
CONTINUOUS
 62
     7
 10
216.7094438497
 20
199.5670547221
 30
0.0
 11
216.7094438497
 21
119.5670565102
 31
0.0
  0
LINE
  5
14F
  8
0
  6
CONTINUOUS
 62
     7
 10
216.7094438497
 20
199.5670547221
 30
0.0
 11
216.9594434251
 21
199.5670547221
 31
0.0
  0
LINE
  5
150
  8
0
  6
CONTINUOUS
 62
     7
 10
216.9594434251
 20
199.5670547221
 30
0.0
 11
216.9594434251
 21
119.5670565102
 31
0.0
  0
LINE
  5
151
  8
0
  6
CONTINUOUS
 62
     7
 10
216.7094438497
 20
119.5670565102
 30
0.0
 11
216.9594434251
 21
119.5670565102
 31
0.0
  0
LINE
  5
152
  8
0
  6
CONTINUOUS
 62
     7
 10
234.7094430749
 20
199.5670547221
 30
0.0
 11
234.7094430749
 21
119.5670565102
 31
0.0
  0
LINE
  5
153
  8
0
  6
CONTINUOUS
 62
     7
 10
234.7094430749
 20
199.5670547221
 30
0.0
 11
234.9594435815
 21
199.5670547221
 31
0.0
  0
LINE
  5
154
  8
0
  6
CONTINUOUS
 62
     7
 10
234.9594435815
 20
199.5670547221
 30
0.0
 11
234.9594435815
 21
119.5670565102
 31
0.0
  0
LINE
  5
155
  8
0
  6
CONTINUOUS
 62
     7
 10
234.7094430749
 20
119.5670565102
 30
0.0
 11
234.9594435815
 21
119.5670565102
 31
0.0
  0
LINE
  5
156
  8
0
  6
CONTINUOUS
 62
     7
 10
189.7094431494
 20
199.5670547221
 30
0.0
 11
189.959443656
 21
199.5670547221
 31
0.0
  0
LINE
  5
157
  8
0
  6
CONTINUOUS
 62
     7
 10
189.959443656
 20
199.5670547221
 30
0.0
 11
189.959443656
 21
119.5670565102
 31
0.0
  0
LINE
  5
158
  8
0
  6
CONTINUOUS
 62
     7
 10
189.7094431494
 20
119.5670565102
 30
0.0
 11
189.959443656
 21
119.5670565102
 31
0.0
  0
LINE
  5
159
  8
0
  6
CONTINUOUS
 62
     7
 10
218.2094431643
 20
199.5670547221
 30
0.0
 11
218.4594436709
 21
199.5670547221
 31
0.0
  0
LINE
  5
15A
  8
0
  6
CONTINUOUS
 62
     7
 10
218.4594436709
 20
199.5670547221
 30
0.0
 11
218.4594436709
 21
119.5670565102
 31
0.0
  0
LINE
  5
15B
  8
0
  6
CONTINUOUS
 62
     7
 10
218.2094431643
 20
119.5670565102
 30
0.0
 11
218.4594436709
 21
119.5670565102
 31
0.0
  0
LINE
  5
15C
  8
0
  6
CONTINUOUS
 62
     7
 10
232.7094427471
 20
199.5670547221
 30
0.0
 11
232.7094427471
 21
119.5670565102
 31
0.0
  0
LINE
  5
15D
  8
0
  6
CONTINUOUS
 62
     7
 10
232.7094427471
 20
199.5670547221
 30
0.0
 11
233.2094437603
 21
199.5670547221
 31
0.0
  0
LINE
  5
15E
  8
0
  6
CONTINUOUS
 62
     7
 10
233.2094437603
 20
199.5670547221
 30
0.0
 11
233.2094437603
 21
119.5670565102
 31
0.0
  0
LINE
  5
15F
  8
0
  6
CONTINUOUS
 62
     7
 10
232.7094427471
 20
119.5670565102
 30
0.0
 11
233.2094437603
 21
119.5670565102
 31
0.0
  0
LINE
  5
160
  8
0
  6
CONTINUOUS
 62
     7
 10
216.2094437678
 20
199.5670547221
 30
0.0
 11
216.2094437678
 21
119.5670565102
 31
0.0
  0
LINE
  5
161
  8
0
  6
CONTINUOUS
 62
     7
 10
216.2094437678
 20
199.5670547221
 30
0.0
 11
216.7094438497
 21
199.5670547221
 31
0.0
  0
LINE
  5
162
  8
0
  6
CONTINUOUS
 62
     7
 10
216.2094437678
 20
119.5670565102
 30
0.0
 11
216.7094438497
 21
119.5670565102
 31
0.0
  0
LINE
  5
163
  8
0
  6
CONTINUOUS
 62
     7
 10
219.7094434102
 20
199.5670547221
 30
0.0
 11
219.9594439168
 21
199.5670547221
 31
0.0
  0
LINE
  5
164
  8
0
  6
CONTINUOUS
 62
     7
 10
219.9594439168
 20
199.5670547221
 30
0.0
 11
219.9594439168
 21
119.5670565102
 31
0.0
  0
LINE
  5
165
  8
0
  6
CONTINUOUS
 62
     7
 10
219.7094434102
 20
119.5670565102
 30
0.0
 11
219.9594439168
 21
119.5670565102
 31
0.0
  0
LINE
  5
166
  8
0
  6
CONTINUOUS
 62
     7
 10
178.709443209
 20
199.5670547221
 30
0.0
 11
178.709443209
 21
119.5670565102
 31
0.0
  0
LINE
  5
167
  8
0
  6
CONTINUOUS
 62
     7
 10
178.709443209
 20
199.5670547221
 30
0.0
 11
179.2094442223
 21
199.5670547221
 31
0.0
  0
LINE
  5
168
  8
0
  6
CONTINUOUS
 62
     7
 10
178.709443209
 20
119.5670565102
 30
0.0
 11
179.2094442223
 21
119.5670565102
 31
0.0
  0
LINE
  5
169
  8
0
  6
CONTINUOUS
 62
     7
 10
229.709444118
 20
199.5670547221
 30
0.0
 11
229.709444118
 21
119.5670565102
 31
0.0
  0
LINE
  5
16A
  8
0
  6
CONTINUOUS
 62
     7
 10
229.709444118
 20
199.5670547221
 30
0.0
 11
230.2094432686
 21
199.5670547221
 31
0.0
  0
LINE
  5
16B
  8
0
  6
CONTINUOUS
 62
     7
 10
229.709444118
 20
119.5670565102
 30
0.0
 11
230.2094432686
 21
119.5670565102
 31
0.0
  0
LINE
  5
16C
  8
0
  6
CONTINUOUS
 62
     7
 10
237.209444416
 20
199.5670547221
 30
0.0
 11
237.209444416
 21
119.5670565102
 31
0.0
  0
LINE
  5
16D
  8
0
  6
CONTINUOUS
 62
     7
 10
237.209444416
 20
199.5670547221
 30
0.0
 11
237.709441704
 21
199.5670547221
 31
0.0
  0
LINE
  5
16E
  8
0
  6
CONTINUOUS
 62
     7
 10
237.209444416
 20
119.5670565102
 30
0.0
 11
237.709441704
 21
119.5670565102
 31
0.0
  0
LINE
  5
16F
  8
0
  6
CONTINUOUS
 62
     7
 10
212.2094435778
 20
199.5670547221
 30
0.0
 11
212.4594436188
 21
199.5670547221
 31
0.0
  0
LINE
  5
170
  8
0
  6
CONTINUOUS
 62
     7
 10
212.4594436188
 20
199.5670547221
 30
0.0
 11
212.4594436188
 21
119.5670565102
 31
0.0
  0
LINE
  5
171
  8
0
  6
CONTINUOUS
 62
     7
 10
212.2094435778
 20
119.5670565102
 30
0.0
 11
212.4594436188
 21
119.5670565102
 31
0.0
  0
LINE
  5
172
  8
0
  6
CONTINUOUS
 62
     7
 10
243.7094426875
 20
199.5670547221
 30
0.0
 11
243.7094426875
 21
119.5670565102
 31
0.0
  0
LINE
  5
173
  8
0
  6
CONTINUOUS
 62
     7
 10
243.7094426875
 20
199.5670547221
 30
0.0
 11
243.9594431941
 21
199.5670547221
 31
0.0
  0
LINE
  5
174
  8
0
  6
CONTINUOUS
 62
     7
 10
243.9594431941
 20
199.5670547221
 30
0.0
 11
243.9594431941
 21
119.5670565102
 31
0.0
  0
LINE
  5
175
  8
0
  6
CONTINUOUS
 62
     7
 10
243.7094426875
 20
119.5670565102
 30
0.0
 11
243.9594431941
 21
119.5670565102
 31
0.0
  0
LINE
  5
176
  8
0
  6
CONTINUOUS
 62
     7
 10
240.7094440584
 20
199.5670547221
 30
0.0
 11
240.959444565
 21
199.5670547221
 31
0.0
  0
LINE
  5
177
  8
0
  6
CONTINUOUS
 62
     7
 10
240.959444565
 20
199.5670547221
 30
0.0
 11
240.959444565
 21
119.5670565102
 31
0.0
  0
LINE
  5
178
  8
0
  6
CONTINUOUS
 62
     7
 10
240.7094440584
 20
119.5670565102
 30
0.0
 11
240.959444565
 21
119.5670565102
 31
0.0
  0
LINE
  5
179
  8
0
  6
CONTINUOUS
 62
     7
 10
193.709443805
 20
199.5670547221
 30
0.0
 11
193.709443805
 21
119.5670565102
 31
0.0
  0
LINE
  5
17A
  8
0
  6
CONTINUOUS
 62
     7
 10
193.709443805
 20
199.5670547221
 30
0.0
 11
194.209443887
 21
199.5670547221
 31
0.0
  0
LINE
  5
17B
  8
0
  6
CONTINUOUS
 62
     7
 10
193.709443805
 20
119.5670565102
 30
0.0
 11
194.209443887
 21
119.5670565102
 31
0.0
  0
LINE
  5
17C
  8
0
  6
CONTINUOUS
 62
     7
 10
225.2094443117
 20
199.5670547221
 30
0.0
 11
225.2094443117
 21
119.5670565102
 31
0.0
  0
LINE
  5
17D
  8
0
  6
CONTINUOUS
 62
     7
 10
225.2094443117
 20
199.5670547221
 30
0.0
 11
225.7094434623
 21
199.5670547221
 31
0.0
  0
LINE
  5
17E
  8
0
  6
CONTINUOUS
 62
     7
 10
225.2094443117
 20
119.5670565102
 30
0.0
 11
225.7094434623
 21
119.5670565102
 31
0.0
  0
LINE
  5
17F
  8
0
  6
CONTINUOUS
 62
     7
 10
233.2094437603
 20
199.5670547221
 30
0.0
 11
233.459444267
 21
199.5670547221
 31
0.0
  0
LINE
  5
180
  8
0
  6
CONTINUOUS
 62
     7
 10
233.459444267
 20
199.5670547221
 30
0.0
 11
233.459444267
 21
119.5670565102
 31
0.0
  0
LINE
  5
181
  8
0
  6
CONTINUOUS
 62
     7
 10
233.2094437603
 20
119.5670565102
 30
0.0
 11
233.459444267
 21
119.5670565102
 31
0.0
  0
LINE
  5
182
  8
0
  6
CONTINUOUS
 62
     7
 10
181.7094437007
 20
199.5670547221
 30
0.0
 11
181.7094437007
 21
119.5670565102
 31
0.0
  0
LINE
  5
183
  8
0
  6
CONTINUOUS
 62
     7
 10
181.7094437007
 20
199.5670547221
 30
0.0
 11
182.2094428514
 21
199.5670547221
 31
0.0
  0
LINE
  5
184
  8
0
  6
CONTINUOUS
 62
     7
 10
181.7094437007
 20
119.5670565102
 30
0.0
 11
182.2094428514
 21
119.5670565102
 31
0.0
  0
LINE
  5
185
  8
0
  6
CONTINUOUS
 62
     7
 10
238.7094437305
 20
199.5670547221
 30
0.0
 11
238.7094437305
 21
119.5670565102
 31
0.0
  0
LINE
  5
186
  8
0
  6
CONTINUOUS
 62
     7
 10
238.7094437305
 20
199.5670547221
 30
0.0
 11
239.2094447438
 21
199.5670547221
 31
0.0
  0
LINE
  5
187
  8
0
  6
CONTINUOUS
 62
     7
 10
238.7094437305
 20
119.5670565102
 30
0.0
 11
239.2094447438
 21
119.5670565102
 31
0.0
  0
LINE
  5
188
  8
0
  6
CONTINUOUS
 62
     7
 10
231.7094425832
 20
199.5670547221
 30
0.0
 11
231.9594430898
 21
199.5670547221
 31
0.0
  0
LINE
  5
189
  8
0
  6
CONTINUOUS
 62
     7
 10
231.9594430898
 20
199.5670547221
 30
0.0
 11
231.9594430898
 21
119.5670565102
 31
0.0
  0
LINE
  5
18A
  8
0
  6
CONTINUOUS
 62
     7
 10
231.7094425832
 20
119.5670565102
 30
0.0
 11
231.9594430898
 21
119.5670565102
 31
0.0
  0
LINE
  5
18B
  8
0
  6
CONTINUOUS
 62
     7
 10
243.2094416742
 20
199.5670547221
 30
0.0
 11
243.2094416742
 21
119.5670565102
 31
0.0
  0
LINE
  5
18C
  8
0
  6
CONTINUOUS
 62
     7
 10
243.2094416742
 20
199.5670547221
 30
0.0
 11
243.7094426875
 21
199.5670547221
 31
0.0
  0
LINE
  5
18D
  8
0
  6
CONTINUOUS
 62
     7
 10
243.2094416742
 20
119.5670565102
 30
0.0
 11
243.7094426875
 21
119.5670565102
 31
0.0
  0
LINE
  5
18E
  8
0
  6
CONTINUOUS
 62
     7
 10
234.2094439243
 20
199.5670547221
 30
0.0
 11
234.2094439243
 21
119.5670565102
 31
0.0
  0
LINE
  5
18F
  8
0
  6
CONTINUOUS
 62
     7
 10
234.2094439243
 20
199.5670547221
 30
0.0
 11
234.7094430749
 21
199.5670547221
 31
0.0
  0
LINE
  5
190
  8
0
  6
CONTINUOUS
 62
     7
 10
234.2094439243
 20
119.5670565102
 30
0.0
 11
234.7094430749
 21
119.5670565102
 31
0.0
  0
ARC
  5
191
  8
0
  6
CONTINUOUS
 62
     7
 10
202.6888872572
 20
171.2871363636
 30
0.0
 40
1.402183331788267
 50
180.0625587351
 51
273.4998712351
  0
ARC
  5
192
  8
0
  6
CONTINUOUS
 62
     7
 10
202.6669335663
 20
171.29356459
 30
0.0
 40
1.380251753620287
 50
85.5308756101
 51
180.330397383
  0
ARC
  5
193
  8
0
  6
CONTINUOUS
 62
     7
 10
202.8535529096
 20
171.2771657321
 30
0.0
 40
1.394696948833427
 50
0.1738913313
 51
93.2499298563
  0
ARC
  5
194
  8
0
  6
CONTINUOUS
 62
     7
 10
202.8712687077
 20
171.2612846687
 30
0.0
 40
1.377121624916454
 50
265.9699619065
 51
0.836879039
  0
LINE
  5
195
  8
0
  6
CONTINUOUS
 62
     7
 10
198.2094436113
 20
199.5670547221
 30
0.0
 11
198.2094436113
 21
119.5670565102
 31
0.0
  0
LINE
  5
196
  8
0
  6
CONTINUOUS
 62
     7
 10
198.2094436113
 20
199.5670547221
 30
0.0
 11
209.2094435517
 21
199.5670547221
 31
0.0
  0
LINE
  5
197
  8
0
  6
CONTINUOUS
 62
     7
 10
209.2094435517
 20
199.5670547221
 30
0.0
 11
209.2094435517
 21
119.5670565102
 31
0.0
  0
POLYLINE
  5
198
  8
0
  6
CONTINUOUS
 62
     7
 66
     1
 10
0.0
 20
0.0
 30
0.0
 70
   128
  0
VERTEX
  5
422
  8
0
  6
CONTINUOUS
 62
     7
 10
201.5334998884
 20
150.7090826962
 30
0.0
  0
VERTEX
  5
423
  8
0
  6
CONTINUOUS
 62
     7
 10
202.4682997887
 20
150.8443349484
 30
0.0
  0
VERTEX
  5
424
  8
0
  6
CONTINUOUS
 62
     7
 10
203.2119853117
 20
150.8619276319
 30
0.0
  0
SEQEND
  5
46C
  8
0
  6
CONTINUOUS
 62
     7
  0
ARC
  5
199
  8
0
  6
CONTINUOUS
 62
     7
 10
202.1564007322
 20
148.761621912
 30
0.0
 40
2.044653752428841
 50
107.7370223498
 51
185.1616465803
  0
ARC
  5
19A
  8
0
  6
CONTINUOUS
 62
     7
 10
202.2175679397
 20
148.4196221417
 30
0.0
 40
2.103475765441413
 50
175.6908580828
 51
245.8032900957
  0
POLYLINE
  5
19B
  8
0
  6
CONTINUOUS
 62
     7
 66
     1
 10
0.0
 20
0.0
 30
0.0
 70
   128
  0
VERTEX
  5
425
  8
0
  6
CONTINUOUS
 62
     7
 10
203.1755270597
 20
146.2850043062
 30
0.0
  0
VERTEX
  5
426
  8
0
  6
CONTINUOUS
 62
     7
 10
202.1450714835
 20
146.3299331698
 30
0.0
  0
VERTEX
  5
427
  8
0
  6
CONTINUOUS
 62
     7
 10
201.3554149468
 20
146.5009500716
 30
0.0
  0
SEQEND
  5
46D
  8
0
  6
CONTINUOUS
 62
     7
  0
LINE
  5
19C
  8
0
  6
CONTINUOUS
 62
     7
 10
205.3251665144
 20
146.2850043062
 30
0.0
 11
203.1755270597
 21
146.2850043062
 31
0.0
  0
LINE
  5
19D
  8
0
  6
CONTINUOUS
 62
     7
 10
205.3251665144
 20
147.5414143387
 30
0.0
 11
205.3251665144
 21
146.2850043062
 31
0.0
  0
LINE
  5
19E
  8
0
  6
CONTINUOUS
 62
     7
 10
202.8277707447
 20
147.5414143387
 30
0.0
 11
205.3251665144
 21
147.5414143387
 31
0.0
  0
POLYLINE
  5
19F
  8
0
  6
CONTINUOUS
 62
     7
 66
     1
 10
0.0
 20
0.0
 30
0.0
 70
   128
  0
VERTEX
  5
428
  8
0
  6
CONTINUOUS
 62
     7
 10
201.8868653264
 20
147.628353301
 30
0.0
  0
VERTEX
  5
429
  8
0
  6
CONTINUOUS
 62
     7
 10
202.4105505713
 20
147.5509333867
 30
0.0
  0
VERTEX
  5
42A
  8
0
  6
CONTINUOUS
 62
     7
 10
202.8277707447
 20
147.5414143387
 30
0.0
  0
SEQEND
  5
46E
  8
0
  6
CONTINUOUS
 62
     7
  0
ARC
  5
1A0
  8
0
  6
CONTINUOUS
 62
     7
 10
202.2241310998
 20
148.5056338358
 30
0.0
 40
0.9398772997452032
 50
175.8612929504
 51
248.9710131989
  0
POLYLINE
  5
1A1
  8
0
  6
CONTINUOUS
 62
     7
 66
     1
 10
0.0
 20
0.0
 30
0.0
 70
   128
  0
VERTEX
  5
42B
  8
0
  6
CONTINUOUS
 62
     7
 10
202.8698378869
 20
149.6055175993
 30
0.0
  0
VERTEX
  5
42C
  8
0
  6
CONTINUOUS
 62
     7
 10
202.3260439907
 20
149.5848981175
 30
0.0
  0
VERTEX
  5
42D
  8
0
  6
CONTINUOUS
 62
     7
 10
201.7977216907
 20
149.4661749784
 30
0.0
  0
VERTEX
  5
42E
  8
0
  6
CONTINUOUS
 62
     7
 10
201.5732913439
 20
149.3135433156
 30
0.0
  0
VERTEX
  5
42F
  8
0
  6
CONTINUOUS
 62
     7
 10
201.407192291
 20
149.0989721823
 30
0.0
  0
VERTEX
  5
430
  8
0
  6
CONTINUOUS
 62
     7
 10
201.2867047612
 20
148.573465969
 30
0.0
  0
SEQEND
  5
46F
  8
0
  6
CONTINUOUS
 62
     7
  0
LINE
  5
1A2
  8
0
  6
CONTINUOUS
 62
     7
 10
205.3251665144
 20
149.6055175993
 30
0.0
 11
202.8698378869
 21
149.6055175993
 31
0.0
  0
LINE
  5
1A3
  8
0
  6
CONTINUOUS
 62
     7
 10
205.3251665144
 20
150.8619276319
 30
0.0
 11
205.3251665144
 21
149.6055175993
 31
0.0
  0
LINE
  5
1A4
  8
0
  6
CONTINUOUS
 62
     7
 10
203.2119853117
 20
150.8619276319
 30
0.0
 11
205.3251665144
 21
150.8619276319
 31
0.0
  0
ARC
  5
1A5
  8
0
  6
CONTINUOUS
 62
     7
 10
203.1874944226
 20
160.6362944233
 30
0.0
 40
2.227464158003524
 50
313.7998023259
 51
0.3780072337
  0
ARC
  5
1A6
  8
0
  6
CONTINUOUS
 62
     7
 10
202.9362199853
 20
160.5941523713
 30
0.0
 40
2.479341689536051
 50
1.3135900129
 51
94.1300024167
  0
ARC
  5
1A7
  8
0
  6
CONTINUOUS
 62
     7
 10
202.6452070994
 20
160.5434293857
 30
0.0
 40
2.526130480183046
 50
87.4486204006
 51
178.4189173857
  0
POLYLINE
  5
1A8
  8
0
  6
CONTINUOUS
 62
     7
 66
     1
 10
0.0
 20
0.0
 30
0.0
 70
   128
  0
VERTEX
  5
431
  8
0
  6
CONTINUOUS
 62
     7
 10
200.7678747338
 20
159.0285940655
 30
0.0
  0
VERTEX
  5
432
  8
0
  6
CONTINUOUS
 62
     7
 10
200.2460877572
 20
159.8546035565
 30
0.0
  0
VERTEX
  5
433
  8
0
  6
CONTINUOUS
 62
     7
 10
200.120038369
 20
160.6131293556
 30
0.0
  0
SEQEND
  5
470
  8
0
  6
CONTINUOUS
 62
     7
  0
LINE
  5
1A9
  8
0
  6
CONTINUOUS
 62
     7
 10
200.2097820093
 20
159.0285940655
 30
0.0
 11
200.7678747338
 21
159.0285940655
 31
0.0
  0
LINE
  5
1AA
  8
0
  6
CONTINUOUS
 62
     7
 10
200.2097820093
 20
157.7721838584
 30
0.0
 11
200.2097820093
 21
159.0285940655
 31
0.0
  0
LINE
  5
1AB
  8
0
  6
CONTINUOUS
 62
     7
 10
207.3892690402
 20
157.7721838584
 30
0.0
 11
200.2097820093
 21
157.7721838584
 31
0.0
  0
LINE
  5
1AC
  8
0
  6
CONTINUOUS
 62
     7
 10
207.3892690402
 20
159.0285940655
 30
0.0
 11
207.3892690402
 21
157.7721838584
 31
0.0
  0
LINE
  5
1AD
  8
0
  6
CONTINUOUS
 62
     7
 10
204.7292129879
 20
159.0285940655
 30
0.0
 11
207.3892690402
 21
159.0285940655
 31
0.0
  0
ARC
  5
1AE
  8
0
  6
CONTINUOUS
 62
     7
 10
206.6099475745
 20
164.6543612848
 30
0.0
 40
0.8363285218506981
 50
87.9084137969
 51
178.556535421
  0
ARC
  5
1AF
  8
0
  6
CONTINUOUS
 62
     7
 10
206.5932538544
 20
164.6938107916
 30
0.0
 40
0.8195755742889854
 50
181.2851720995
 51
272.0269421216
  0
ARC
  5
1B0
  8
0
  6
CONTINUOUS
 62
     7
 10
206.6460570537
 20
164.7076649337
 30
0.0
 40
0.833257313635762
 50
268.3622099469
 51
358.4581598797
  0
ARC
  5
1B1
  8
0
  6
CONTINUOUS
 62
     7
 10
206.6633882506
 20
164.6747628351
 30
0.0
 40
0.8156917779544902
 50
0.7362749346
 51
91.6099626387
  0
ARC
  5
1B2
  8
0
  6
CONTINUOUS
 62
     7
 10
202.8074969913
 20
171.3658351796
 30
0.0
 40
2.56057651924349
 50
41.3661796133
 51
90.9897321329
  0
ARC
  5
1B3
  8
0
  6
CONTINUOUS
 62
     7
 10
202.7281665854
 20
171.318098661
 30
0.0
 40
2.608167224168168
 50
89.2288840549
 51
180.3133617564
  0
ARC
  5
1B4
  8
0
  6
CONTINUOUS
 62
     7
 10
202.7660087957
 20
171.2802146527
 30
0.0
 40
2.649062563643949
 50
270.1226805798
 51
0.6321951106
  0
POLYLINE
  5
1B5
  8
0
  6
CONTINUOUS
 62
     7
 66
     1
 10
0.0
 20
0.0
 30
0.0
 70
   128
  0
VERTEX
  5
434
  8
0
  6
CONTINUOUS
 62
     7
 10
204.7292129879
 20
173.0580407638
 30
0.0
  0
VERTEX
  5
435
  8
0
  6
CONTINUOUS
 62
     7
 10
205.2800044564
 20
172.1411155049
 30
0.0
  0
VERTEX
  5
436
  8
0
  6
CONTINUOUS
 62
     7
 10
205.4149101038
 20
171.3094435144
 30
0.0
  0
SEQEND
  5
471
  8
0
  6
CONTINUOUS
 62
     7
  0
ARC
  5
1B6
  8
0
  6
CONTINUOUS
 62
     7
 10
206.4276474869
 20
175.046329936
 30
0.0
 40
3.813655328141732
 50
102.3183656331
 51
149.041126376
  0
ARC
  5
1B7
  8
0
  6
CONTINUOUS
 62
     7
 10
201.4435009659
 20
177.9878604517
 30
0.0
 40
1.974059579751601
 50
284.866056107
 51
330.2453598934
  0
ARC
  5
1B8
  8
0
  6
CONTINUOUS
 62
     7
 10
202.0223153563
 20
176.8147481328
 30
0.0
 40
0.7384248721308551
 50
174.996131098
 51
264.3772683893
  0
POLYLINE
  5
1B9
  8
0
  6
CONTINUOUS
 62
     7
 66
     1
 10
0.0
 20
0.0
 30
0.0
 70
   128
  0
VERTEX
  5
437
  8
0
  6
CONTINUOUS
 62
     7
 10
202.1841409311
 20
178.02618942
 30
0.0
  0
VERTEX
  5
438
  8
0
  6
CONTINUOUS
 62
     7
 10
201.5169500534
 20
177.4980308
 30
0.0
  0
VERTEX
  5
439
  8
0
  6
CONTINUOUS
 62
     7
 10
201.3479916074
 20
177.2083503637
 30
0.0
  0
VERTEX
  5
43A
  8
0
  6
CONTINUOUS
 62
     7
 10
201.2867047612
 20
176.8791557733
 30
0.0
  0
SEQEND
  5
472
  8
0
  6
CONTINUOUS
 62
     7
  0
LINE
  5
1BA
  8
0
  6
CONTINUOUS
 62
     7
 10
201.520879769
 20
179.1311589513
 30
0.0
 11
202.1841409311
 21
178.02618942
 31
0.0
  0
ARC
  5
1BB
  8
0
  6
CONTINUOUS
 62
     7
 10
202.4268484146
 20
176.9124070576
 30
0.0
 40
2.396589066231124
 50
112.2113501539
 51
179.6886688824
  0
ARC
  5
1BC
  8
0
  6
CONTINUOUS
 62
     7
 10
202.0039216504
 20
176.8009253051
 30
0.0
 40
1.977550128927134
 50
176.3903397458
 51
270.5493746046
  0
ARC
  5
1BD
  8
0
  6
CONTINUOUS
 62
     7
 10
201.9745718431
 20
177.0738195829
 30
0.0
 40
2.250872018170179
 50
271.2298486147
 51
317.2880377759
  0
POLYLINE
  5
1BE
  8
0
  6
CONTINUOUS
 62
     7
 66
     1
 10
0.0
 20
0.0
 30
0.0
 70
   128
  0
VERTEX
  5
43B
  8
0
  6
CONTINUOUS
 62
     7
 10
204.4361440509
 20
176.4486668143
 30
0.0
  0
VERTEX
  5
43C
  8
0
  6
CONTINUOUS
 62
     7
 10
203.9908124295
 20
175.9374005232
 30
0.0
  0
VERTEX
  5
43D
  8
0
  6
CONTINUOUS
 62
     7
 10
203.6284518123
 20
175.5470236275
 30
0.0
  0
SEQEND
  5
473
  8
0
  6
CONTINUOUS
 62
     7
  0
POLYLINE
  5
1BF
  8
0
  6
CONTINUOUS
 62
     7
 66
     1
 10
0.0
 20
0.0
 30
0.0
 70
   128
  0
VERTEX
  5
43E
  8
0
  6
CONTINUOUS
 62
     7
 10
205.339188951
 20
177.3993869755
 30
0.0
  0
VERTEX
  5
43F
  8
0
  6
CONTINUOUS
 62
     7
 10
204.8197825367
 20
176.880332965
 30
0.0
  0
VERTEX
  5
440
  8
0
  6
CONTINUOUS
 62
     7
 10
204.4361440509
 20
176.4486668143
 30
0.0
  0
SEQEND
  5
474
  8
0
  6
CONTINUOUS
 62
     7
  0
POLYLINE
  5
1C0
  8
0
  6
CONTINUOUS
 62
     7
 66
     1
 10
0.0
 20
0.0
 30
0.0
 70
   128
  0
VERTEX
  5
441
  8
0
  6
CONTINUOUS
 62
     7
 10
205.6743251612
 20
177.5157743577
 30
0.0
  0
VERTEX
  5
442
  8
0
  6
CONTINUOUS
 62
     7
 10
205.4771816053
 20
177.4770518277
 30
0.0
  0
VERTEX
  5
443
  8
0
  6
CONTINUOUS
 62
     7
 10
205.339188951
 20
177.3993869755
 30
0.0
  0
SEQEND
  5
475
  8
0
  6
CONTINUOUS
 62
     7
  0
ARC
  5
1C1
  8
0
  6
CONTINUOUS
 62
     7
 10
205.6188356011
 20
177.0020375925
 30
0.0
 40
0.5167248350310134
 50
354.1385085339
 51
83.83528728
  0
ARC
  5
1C2
  8
0
  6
CONTINUOUS
 62
     7
 10
204.8791500287
 20
177.0838889739
 30
0.0
 40
1.260915810250511
 50
295.1441806676
 51
353.8711484908
  0
LINE
  5
1C3
  8
0
  6
CONTINUOUS
 62
     7
 10
206.2744854644
 20
175.0029533613
 30
0.0
 11
205.4149101038
 21
175.9424557421
 31
0.0
  0
ARC
  5
1C4
  8
0
  6
CONTINUOUS
 62
     7
 10
204.9654248846
 20
177.045898529
 30
0.0
 40
2.42636859518057
 50
302.6505819812
 51
357.3861576095
  0
LINE
  5
1C5
  8
0
  6
CONTINUOUS
 62
     7
 10
200.2097820093
 20
166.3875685517
 30
0.0
 11
200.2097820093
 21
167.6439785842
 31
0.0
  0
LINE
  5
1C6
  8
0
  6
CONTINUOUS
 62
     7
 10
207.3892690402
 20
166.3875685517
 30
0.0
 11
200.2097820093
 21
166.3875685517
 31
0.0
  0
LINE
  5
1C7
  8
0
  6
CONTINUOUS
 62
     7
 10
207.3892690402
 20
167.6439785842
 30
0.0
 11
207.3892690402
 21
166.3875685517
 31
0.0
  0
LINE
  5
1C8
  8
0
  6
CONTINUOUS
 62
     7
 10
200.2097820093
 20
167.6439785842
 30
0.0
 11
207.3892690402
 21
167.6439785842
 31
0.0
  0
LINE
  5
1C9
  8
0
  6
CONTINUOUS
 62
     7
 10
200.2097820093
 20
164.0542353015
 30
0.0
 11
200.2097820093
 21
165.310645334
 31
0.0
  0
LINE
  5
1CA
  8
0
  6
CONTINUOUS
 62
     7
 10
205.3251665144
 20
164.0542353015
 30
0.0
 11
200.2097820093
 21
164.0542353015
 31
0.0
  0
LINE
  5
1CB
  8
0
  6
CONTINUOUS
 62
     7
 10
205.3251665144
 20
165.310645334
 30
0.0
 11
205.3251665144
 21
164.0542353015
 31
0.0
  0
LINE
  5
1CC
  8
0
  6
CONTINUOUS
 62
     7
 10
200.2097820093
 20
165.310645334
 30
0.0
 11
205.3251665144
 21
165.310645334
 31
0.0
  0
LINE
  5
1CD
  8
0
  6
CONTINUOUS
 62
     7
 10
200.2097820093
 20
155.0798759308
 30
0.0
 11
200.2097820093
 21
156.3362864289
 31
0.0
  0
LINE
  5
1CE
  8
0
  6
CONTINUOUS
 62
     7
 10
203.2610639159
 20
155.0798759308
 30
0.0
 11
200.2097820093
 21
155.0798759308
 31
0.0
  0
LINE
  5
1CF
  8
0
  6
CONTINUOUS
 62
     7
 10
203.2610639159
 20
154.6535942215
 30
0.0
 11
203.2610639159
 21
155.0798759308
 31
0.0
  0
LINE
  5
1D0
  8
0
  6
CONTINUOUS
 62
     7
 10
200.2097820093
 20
153.1111261319
 30
0.0
 11
203.2610639159
 21
154.6535942215
 31
0.0
  0
LINE
  5
1D1
  8
0
  6
CONTINUOUS
 62
     7
 10
200.2097820093
 20
151.7144910503
 30
0.0
 11
200.2097820093
 21
153.1111261319
 31
0.0
  0
LINE
  5
1D2
  8
0
  6
CONTINUOUS
 62
     7
 10
203.404092828
 20
153.3298761096
 30
0.0
 11
200.2097820093
 21
151.7144910503
 31
0.0
  0
ARC
  5
1D3
  8
0
  6
CONTINUOUS
 62
     7
 10
205.1435516408
 20
153.8394971468
 30
0.0
 40
1.812575670882603
 50
196.3293591288
 51
272.4615705093
  0
POLYLINE
  5
1D4
  8
0
  6
CONTINUOUS
 62
     7
 66
     1
 10
0.0
 20
0.0
 30
0.0
 70
   128
  0
VERTEX
  5
444
  8
0
  6
CONTINUOUS
 62
     7
 10
207.2097819925
 20
154.8723441992
 30
0.0
  0
VERTEX
  5
445
  8
0
  6
CONTINUOUS
 62
     7
 10
207.1914784771
 20
154.2088257592
 30
0.0
  0
VERTEX
  5
446
  8
0
  6
CONTINUOUS
 62
     7
 10
207.1138983753
 20
153.5499555502
 30
0.0
  0
VERTEX
  5
447
  8
0
  6
CONTINUOUS
 62
     7
 10
206.8948182438
 20
152.9267140176
 30
0.0
  0
VERTEX
  5
448
  8
0
  6
CONTINUOUS
 62
     7
 10
206.5864113553
 20
152.5379459817
 30
0.0
  0
VERTEX
  5
449
  8
0
  6
CONTINUOUS
 62
     7
 10
206.1824723075
 20
152.2491037357
 30
0.0
  0
VERTEX
  5
44A
  8
0
  6
CONTINUOUS
 62
     7
 10
205.2214004877
 20
152.0285940241
 30
0.0
  0
SEQEND
  5
476
  8
0
  6
CONTINUOUS
 62
     7
  0
LINE
  5
1D5
  8
0
  6
CONTINUOUS
 62
     7
 10
207.2097819925
 20
156.3362864289
 30
0.0
 11
207.2097819925
 21
154.8723441992
 31
0.0
  0
LINE
  5
1D6
  8
0
  6
CONTINUOUS
 62
     7
 10
200.2097820093
 20
156.3362864289
 30
0.0
 11
207.2097819925
 21
156.3362864289
 31
0.0
  0
LINE
  5
1D7
  8
0
  6
CONTINUOUS
 62
     7
 10
200.2097820093
 20
143.7721842412
 30
0.0
 11
200.2097820093
 21
145.0285942737
 31
0.0
  0
LINE
  5
1D8
  8
0
  6
CONTINUOUS
 62
     7
 10
202.2458396547
 20
143.7721842412
 30
0.0
 11
200.2097820093
 21
143.7721842412
 31
0.0
  0
POLYLINE
  5
1D9
  8
0
  6
CONTINUOUS
 62
     7
 66
     1
 10
0.0
 20
0.0
 30
0.0
 70
   128
  0
VERTEX
  5
44B
  8
0
  6
CONTINUOUS
 62
     7
 10
203.2750863743
 20
143.7132892642
 30
0.0
  0
VERTEX
  5
44C
  8
0
  6
CONTINUOUS
 62
     7
 10
202.7000852556
 20
143.7656426314
 30
0.0
  0
VERTEX
  5
44D
  8
0
  6
CONTINUOUS
 62
     7
 10
202.2458396547
 20
143.7721842412
 30
0.0
  0
SEQEND
  5
477
  8
0
  6
CONTINUOUS
 62
     7
  0
ARC
  5
1DA
  8
0
  6
CONTINUOUS
 62
     7
 10
203.1199236375
 20
142.5955133961
 30
0.0
 40
1.128493848501102
 50
1.0063100079
 51
82.0970571409
  0
POLYLINE
  5
1DB
  8
0
  6
CONTINUOUS
 62
     7
 66
     1
 10
0.0
 20
0.0
 30
0.0
 70
   128
  0
VERTEX
  5
44E
  8
0
  6
CONTINUOUS
 62
     7
 10
202.4309358255
 20
141.7080809805
 30
0.0
  0
VERTEX
  5
44F
  8
0
  6
CONTINUOUS
 62
     7
 10
203.0109171916
 20
141.7200168107
 30
0.0
  0
VERTEX
  5
450
  8
0
  6
CONTINUOUS
 62
     7
 10
203.5870959677
 20
141.7813406769
 30
0.0
  0
VERTEX
  5
451
  8
0
  6
CONTINUOUS
 62
     7
 10
203.8571570462
 20
141.8848515931
 30
0.0
  0
VERTEX
  5
452
  8
0
  6
CONTINUOUS
 62
     7
 10
204.0767976011
 20
142.0720567439
 30
0.0
  0
VERTEX
  5
453
  8
0
  6
CONTINUOUS
 62
     7
 10
204.2088227042
 20
142.3287497345
 30
0.0
  0
VERTEX
  5
454
  8
0
  6
CONTINUOUS
 62
     7
 10
204.2482434351
 20
142.6153325919
 30
0.0
  0
SEQEND
  5
478
  8
0
  6
CONTINUOUS
 62
     7
  0
LINE
  5
1DC
  8
0
  6
CONTINUOUS
 62
     7
 10
200.2097820093
 20
141.7080809805
 30
0.0
 11
202.4309358255
 21
141.7080809805
 31
0.0
  0
LINE
  5
1DD
  8
0
  6
CONTINUOUS
 62
     7
 10
200.2097820093
 20
140.451670948
 30
0.0
 11
200.2097820093
 21
141.7080809805
 31
0.0
  0
LINE
  5
1DE
  8
0
  6
CONTINUOUS
 62
     7
 10
203.5639485272
 20
140.451670948
 30
0.0
 11
200.2097820093
 21
140.451670948
 31
0.0
  0
POLYLINE
  5
1DF
  8
0
  6
CONTINUOUS
 62
     7
 66
     1
 10
0.0
 20
0.0
 30
0.0
 70
   128
  0
VERTEX
  5
455
  8
0
  6
CONTINUOUS
 62
     7
 10
204.8876665228
 20
140.9074006114
 30
0.0
  0
VERTEX
  5
456
  8
0
  6
CONTINUOUS
 62
     7
 10
204.1909940469
 20
140.5234274898
 30
0.0
  0
VERTEX
  5
457
  8
0
  6
CONTINUOUS
 62
     7
 10
203.5639485272
 20
140.451670948
 30
0.0
  0
SEQEND
  5
479
  8
0
  6
CONTINUOUS
 62
     7
  0
POLYLINE
  5
1E0
  8
0
  6
CONTINUOUS
 62
     7
 66
     1
 10
0.0
 20
0.0
 30
0.0
 70
   128
  0
VERTEX
  5
458
  8
0
  6
CONTINUOUS
 62
     7
 10
205.4149101038
 20
142.22410633
 30
0.0
  0
VERTEX
  5
459
  8
0
  6
CONTINUOUS
 62
     7
 10
205.2505309563
 20
141.4316886548
 30
0.0
  0
VERTEX
  5
45A
  8
0
  6
CONTINUOUS
 62
     7
 10
204.8876665228
 20
140.9074006114
 30
0.0
  0
SEQEND
  5
47A
  8
0
  6
CONTINUOUS
 62
     7
  0
POLYLINE
  5
1E1
  8
0
  6
CONTINUOUS
 62
     7
 66
     1
 10
0.0
 20
0.0
 30
0.0
 70
   128
  0
VERTEX
  5
45B
  8
0
  6
CONTINUOUS
 62
     7
 10
204.7839004824
 20
143.7721842412
 30
0.0
  0
VERTEX
  5
45C
  8
0
  6
CONTINUOUS
 62
     7
 10
205.278379997
 20
142.9585007462
 30
0.0
  0
VERTEX
  5
45D
  8
0
  6
CONTINUOUS
 62
     7
 10
205.4149101038
 20
142.22410633
 30
0.0
  0
SEQEND
  5
47B
  8
0
  6
CONTINUOUS
 62
     7
  0
LINE
  5
1E2
  8
0
  6
CONTINUOUS
 62
     7
 10
205.3251665144
 20
143.7721842412
 30
0.0
 11
204.7839004824
 21
143.7721842412
 31
0.0
  0
LINE
  5
1E3
  8
0
  6
CONTINUOUS
 62
     7
 10
205.3251665144
 20
145.0285942737
 30
0.0
 11
205.3251665144
 21
143.7721842412
 31
0.0
  0
LINE
  5
1E4
  8
0
  6
CONTINUOUS
 62
     7
 10
200.2097820093
 20
145.0285942737
 30
0.0
 11
205.3251665144
 21
145.0285942737
 31
0.0
  0
ARC
  5
1E5
  8
0
  6
CONTINUOUS
 62
     7
 10
202.7560280953
 20
171.2673538372
 30
0.0
 40
2.636242145735568
 50
179.2071156412
 51
270.3401984783
  0
ARC
  5
1E6
  8
0
  6
CONTINUOUS
 62
     7
 10
205.6007888098
 20
176.9831127038
 30
0.0
 40
1.789120676042634
 50
358.4668949511
 51
89.5759949874
  0
LINE
  5
1E7
  8
0
  6
CONTINUOUS
 62
     7
 10
198.2094436113
 20
119.5670565102
 30
0.0
 11
209.2094435517
 21
119.5670565102
 31
0.0
  0
LINE
  5
1E8
  8
0
  6
CONTINUOUS
 62
     7
 10
205.9533716689
 20
154.6521916497
 30
0.0
 11
205.9533716689
 21
155.0798759308
 31
0.0
  0
POLYLINE
  5
1E9
  8
0
  6
CONTINUOUS
 62
     7
 66
     1
 10
0.0
 20
0.0
 30
0.0
 70
   128
  0
VERTEX
  5
45E
  8
0
  6
CONTINUOUS
 62
     7
 10
205.2382274102
 20
153.2850045223
 30
0.0
  0
VERTEX
  5
45F
  8
0
  6
CONTINUOUS
 62
     7
 10
205.4523574204
 20
153.3199128207
 30
0.0
  0
VERTEX
  5
460
  8
0
  6
CONTINUOUS
 62
     7
 10
205.6407871002
 20
153.4273962933
 30
0.0
  0
VERTEX
  5
461
  8
0
  6
CONTINUOUS
 62
     7
 10
205.7846911063
 20
153.5901286151
 30
0.0
  0
VERTEX
  5
462
  8
0
  6
CONTINUOUS
 62
     7
 10
205.8765136914
 20
153.7870833162
 30
0.0
  0
VERTEX
  5
463
  8
0
  6
CONTINUOUS
 62
     7
 10
205.9421492319
 20
154.2168127816
 30
0.0
  0
VERTEX
  5
464
  8
0
  6
CONTINUOUS
 62
     7
 10
205.9533716689
 20
154.6521916497
 30
0.0
  0
SEQEND
  5
47C
  8
0
  6
CONTINUOUS
 62
     7
  0
POLYLINE
  5
1EA
  8
0
  6
CONTINUOUS
 62
     7
 66
     1
 10
0.0
 20
0.0
 30
0.0
 70
   128
  0
VERTEX
  5
465
  8
0
  6
CONTINUOUS
 62
     7
 10
204.5174741813
 20
154.5904929261
 30
0.0
  0
VERTEX
  5
466
  8
0
  6
CONTINUOUS
 62
     7
 10
204.533966216
 20
154.1657930683
 30
0.0
  0
VERTEX
  5
467
  8
0
  6
CONTINUOUS
 62
     7
 10
204.6074881961
 20
153.747739594
 30
0.0
  0
VERTEX
  5
468
  8
0
  6
CONTINUOUS
 62
     7
 10
204.6917635759
 20
153.5531471927
 30
0.0
  0
VERTEX
  5
469
  8
0
  6
CONTINUOUS
 62
     7
 10
204.8352175495
 20
153.3978128318
 30
0.0
  0
VERTEX
  5
46A
  8
0
  6
CONTINUOUS
 62
     7
 10
205.0276343086
 20
153.3102894645
 30
0.0
  0
VERTEX
  5
46B
  8
0
  6
CONTINUOUS
 62
     7
 10
205.2382274102
 20
153.2850045223
 30
0.0
  0
SEQEND
  5
47D
  8
0
  6
CONTINUOUS
 62
     7
  0
LINE
  5
1EB
  8
0
  6
CONTINUOUS
 62
     7
 10
204.5174741813
 20
155.0798759308
 30
0.0
 11
204.5174741813
 21
154.5904929261
 31
0.0
  0
LINE
  5
1EC
  8
0
  6
CONTINUOUS
 62
     7
 10
205.9533716689
 20
155.0798759308
 30
0.0
 11
204.5174741813
 21
155.0798759308
 31
0.0
  0
LINE
  5
1ED
  8
0
  6
CONTINUOUS
 62
     7
 10
155.6837014083
 20
199.5670547221
 30
0.0
 11
155.6837014083
 21
119.5670565102
 31
0.0
  0
LINE
  5
1EE
  8
0
  6
CONTINUOUS
 62
     7
 10
163.2494419043
 20
199.5670547221
 30
0.0
 11
155.6837014083
 21
199.5670547221
 31
0.0
  0
LINE
  5
1EF
  8
0
  6
CONTINUOUS
 62
     7
 10
163.2494419043
 20
199.5670547221
 30
0.0
 11
163.2494419043
 21
119.5670565102
 31
0.0
  0
LINE
  5
1F0
  8
0
  6
CONTINUOUS
 62
     7
 10
163.2494419043
 20
119.5670565102
 30
0.0
 11
155.6837014083
 21
119.5670565102
 31
0.0
  0
LINE
  5
1F1
  8
0
  6
CONTINUOUS
 62
     7
 10
172.4594435815
 20
199.5670547221
 30
0.0
 11
172.4594435815
 21
119.5670565102
 31
0.0
  0
LINE
  5
1F2
  8
0
  6
CONTINUOUS
 62
     7
 10
172.4594435815
 20
199.5670547221
 30
0.0
 11
172.7094440882
 21
199.5670547221
 31
0.0
  0
LINE
  5
1F3
  8
0
  6
CONTINUOUS
 62
     7
 10
172.4594435815
 20
119.5670565102
 30
0.0
 11
172.7094440882
 21
119.5670565102
 31
0.0
  0
LINE
  5
1F4
  8
0
  6
CONTINUOUS
 62
     7
 10
166.4594425981
 20
199.5670547221
 30
0.0
 11
166.4594425981
 21
119.5670565102
 31
0.0
  0
LINE
  5
1F5
  8
0
  6
CONTINUOUS
 62
     7
 10
166.4594425981
 20
199.5670547221
 30
0.0
 11
166.7094431047
 21
199.5670547221
 31
0.0
  0
LINE
  5
1F6
  8
0
  6
CONTINUOUS
 62
     7
 10
166.4594425981
 20
119.5670565102
 30
0.0
 11
166.7094431047
 21
119.5670565102
 31
0.0
  0
ARC
  5
1F7
  8
0
  6
CONTINUOUS
 62
     7
 10
202.7032296211
 20
160.3534938615
 30
0.0
 40
1.416806833973842
 50
178.8568739991
 51
273.1667342091
  0
ARC
  5
1F8
  8
0
  6
CONTINUOUS
 62
     7
 10
202.7089161173
 20
160.3900543875
 30
0.0
 40
1.422235547514291
 50
87.2444549485
 51
180.3341818074
  0
ARC
  5
1F9
  8
0
  6
CONTINUOUS
 62
     7
 10
202.8442730018
 20
160.4081202784
 30
0.0
 40
1.40412379468558
 50
359.1531686329
 51
92.734311487
  0
ARC
  5
1FA
  8
0
  6
CONTINUOUS
 62
     7
 10
202.8469770665
 20
160.3394075013
 30
0.0
 40
1.402086892355838
 50
267.3231898972
 51
1.9602747373
  0
LINE
  5
1FB
  8
0
  6
CONTINUOUS
 62
     7
 10
244.4594442074
 20
199.5670547221
 30
0.0
 11
244.4594442074
 21
119.5670565102
 31
0.0
  0
LINE
  5
1FC
  8
0
  6
CONTINUOUS
 62
     7
 10
244.4594442074
 20
199.5670547221
 30
0.0
 11
244.709444714
 21
199.5670547221
 31
0.0
  0
LINE
  5
1FD
  8
0
  6
CONTINUOUS
 62
     7
 10
244.4594442074
 20
119.5670565102
 30
0.0
 11
244.709444714
 21
119.5670565102
 31
0.0
  0
LINE
  5
1FE
  8
0
  6
CONTINUOUS
 62
     7
 10
170.959444267
 20
199.5670547221
 30
0.0
 11
170.959444267
 21
119.5670565102
 31
0.0
  0
LINE
  5
1FF
  8
0
  6
CONTINUOUS
 62
     7
 10
170.959444267
 20
199.5670547221
 30
0.0
 11
171.2094447736
 21
199.5670547221
 31
0.0
  0
LINE
  5
200
  8
0
  6
CONTINUOUS
 62
     7
 10
170.959444267
 20
119.5670565102
 30
0.0
 11
171.2094447736
 21
119.5670565102
 31
0.0
  0
LINE
  5
201
  8
0
  6
CONTINUOUS
 62
     7
 10
175.4594440733
 20
199.5670547221
 30
0.0
 11
175.4594440733
 21
119.5670565102
 31
0.0
  0
LINE
  5
202
  8
0
  6
CONTINUOUS
 62
     7
 10
175.4594440733
 20
199.5670547221
 30
0.0
 11
175.7094427173
 21
199.5670547221
 31
0.0
  0
LINE
  5
203
  8
0
  6
CONTINUOUS
 62
     7
 10
175.4594440733
 20
119.5670565102
 30
0.0
 11
175.7094427173
 21
119.5670565102
 31
0.0
  0
LINE
  5
204
  8
0
  6
CONTINUOUS
 62
     7
 10
163.2494419043
 20
199.5670547221
 30
0.0
 11
164.2094417636
 21
199.5670547221
 31
0.0
  0
LINE
  5
205
  8
0
  6
CONTINUOUS
 62
     7
 10
164.2094417636
 20
199.5670547221
 30
0.0
 11
164.2094417636
 21
119.5670565102
 31
0.0
  0
LINE
  5
206
  8
0
  6
CONTINUOUS
 62
     7
 10
163.2494419043
 20
119.5670565102
 30
0.0
 11
164.2094417636
 21
119.5670565102
 31
0.0
  0
LINE
  5
207
  8
0
  6
CONTINUOUS
 62
     7
 10
247.1701218907
 20
199.5670547221
 30
0.0
 11
247.1701218907
 21
119.5670565102
 31
0.0
  0
LINE
  5
208
  8
0
  6
CONTINUOUS
 62
     7
 10
246.2094440286
 20
199.5670547221
 30
0.0
 11
246.2094440286
 21
119.5670565102
 31
0.0
  0
LINE
  5
209
  8
0
  6
CONTINUOUS
 62
     7
 10
246.2094440286
 20
199.5670547221
 30
0.0
 11
247.1701218907
 21
199.5670547221
 31
0.0
  0
LINE
  5
20A
  8
0
  6
CONTINUOUS
 62
     7
 10
246.2094440286
 20
119.5670565102
 30
0.0
 11
247.1701218907
 21
119.5670565102
 31
0.0
  0
LINE
  5
20B
  8
0
  6
CONTINUOUS
 62
     7
 10
245.9594435219
 20
199.5670547221
 30
0.0
 11
245.9594435219
 21
119.5670565102
 31
0.0
  0
LINE
  5
20C
  8
0
  6
CONTINUOUS
 62
     7
 10
245.9594435219
 20
199.5670547221
 30
0.0
 11
246.2094440286
 21
199.5670547221
 31
0.0
  0
LINE
  5
20D
  8
0
  6
CONTINUOUS
 62
     7
 10
245.9594435219
 20
119.5670565102
 30
0.0
 11
246.2094440286
 21
119.5670565102
 31
0.0
  0
LINE
  5
20E
  8
0
  6
CONTINUOUS
 62
     7
 10
167.9594419126
 20
199.5670547221
 30
0.0
 11
167.9594419126
 21
119.5670565102
 31
0.0
  0
LINE
  5
20F
  8
0
  6
CONTINUOUS
 62
     7
 10
167.9594419126
 20
199.5670547221
 30
0.0
 11
168.2094424192
 21
199.5670547221
 31
0.0
  0
LINE
  5
210
  8
0
  6
CONTINUOUS
 62
     7
 10
167.9594419126
 20
119.5670565102
 30
0.0
 11
168.2094424192
 21
119.5670565102
 31
0.0
  0
LINE
  5
211
  8
0
  6
CONTINUOUS
 62
     7
 10
173.9594428961
 20
199.5670547221
 30
0.0
 11
173.9594428961
 21
119.5670565102
 31
0.0
  0
LINE
  5
212
  8
0
  6
CONTINUOUS
 62
     7
 10
173.9594428961
 20
199.5670547221
 30
0.0
 11
174.2094434027
 21
199.5670547221
 31
0.0
  0
LINE
  5
213
  8
0
  6
CONTINUOUS
 62
     7
 10
173.9594428961
 20
119.5670565102
 30
0.0
 11
174.2094434027
 21
119.5670565102
 31
0.0
  0
LINE
  5
214
  8
0
  6
CONTINUOUS
 62
     7
 10
169.4594449524
 20
199.5670547221
 30
0.0
 11
169.4594449524
 21
119.5670565102
 31
0.0
  0
LINE
  5
215
  8
0
  6
CONTINUOUS
 62
     7
 10
169.4594449524
 20
199.5670547221
 30
0.0
 11
169.7094417338
 21
199.5670547221
 31
0.0
  0
LINE
  5
216
  8
0
  6
CONTINUOUS
 62
     7
 10
169.4594449524
 20
119.5670565102
 30
0.0
 11
169.7094417338
 21
119.5670565102
 31
0.0
  0
LINE
  5
217
  8
0
  6
CONTINUOUS
 62
     7
 10
181.4594431941
 20
199.5670547221
 30
0.0
 11
181.4594431941
 21
119.5670565102
 31
0.0
  0
LINE
  5
218
  8
0
  6
CONTINUOUS
 62
     7
 10
181.4594431941
 20
199.5670547221
 30
0.0
 11
181.7094437007
 21
199.5670547221
 31
0.0
  0
LINE
  5
219
  8
0
  6
CONTINUOUS
 62
     7
 10
181.4594431941
 20
119.5670565102
 30
0.0
 11
181.7094437007
 21
119.5670565102
 31
0.0
  0
LINE
  5
21A
  8
0
  6
CONTINUOUS
 62
     7
 10
220.7094435741
 20
199.5670547221
 30
0.0
 11
220.7094435741
 21
119.5670565102
 31
0.0
  0
LINE
  5
21B
  8
0
  6
CONTINUOUS
 62
     7
 10
221.209443656
 20
199.5670547221
 30
0.0
 11
221.209443656
 21
119.5670565102
 31
0.0
  0
LINE
  5
21C
  8
0
  6
CONTINUOUS
 62
     7
 10
220.7094435741
 20
199.5670547221
 30
0.0
 11
221.209443656
 21
199.5670547221
 31
0.0
  0
LINE
  5
21D
  8
0
  6
CONTINUOUS
 62
     7
 10
220.7094435741
 20
119.5670565102
 30
0.0
 11
221.209443656
 21
119.5670565102
 31
0.0
  0
LINE
  5
21E
  8
0
  6
CONTINUOUS
 62
     7
 10
220.4594430674
 20
199.5670547221
 30
0.0
 11
220.4594430674
 21
119.5670565102
 31
0.0
  0
LINE
  5
21F
  8
0
  6
CONTINUOUS
 62
     7
 10
220.4594430674
 20
199.5670547221
 30
0.0
 11
220.7094435741
 21
199.5670547221
 31
0.0
  0
LINE
  5
220
  8
0
  6
CONTINUOUS
 62
     7
 10
220.4594430674
 20
119.5670565102
 30
0.0
 11
220.7094435741
 21
119.5670565102
 31
0.0
  0
LINE
  5
221
  8
0
  6
CONTINUOUS
 62
     7
 10
213.2094432761
 20
199.5670547221
 30
0.0
 11
213.2094432761
 21
119.5670565102
 31
0.0
  0
LINE
  5
222
  8
0
  6
CONTINUOUS
 62
     7
 10
213.709443358
 20
199.5670547221
 30
0.0
 11
213.709443358
 21
119.5670565102
 31
0.0
  0
LINE
  5
223
  8
0
  6
CONTINUOUS
 62
     7
 10
213.2094432761
 20
199.5670547221
 30
0.0
 11
213.709443358
 21
199.5670547221
 31
0.0
  0
LINE
  5
224
  8
0
  6
CONTINUOUS
 62
     7
 10
213.2094432761
 20
119.5670565102
 30
0.0
 11
213.709443358
 21
119.5670565102
 31
0.0
  0
LINE
  5
225
  8
0
  6
CONTINUOUS
 62
     7
 10
194.9594435443
 20
199.5670547221
 30
0.0
 11
194.9594435443
 21
119.5670565102
 31
0.0
  0
LINE
  5
226
  8
0
  6
CONTINUOUS
 62
     7
 10
194.9594435443
 20
199.5670547221
 30
0.0
 11
195.2094431196
 21
199.5670547221
 31
0.0
  0
LINE
  5
227
  8
0
  6
CONTINUOUS
 62
     7
 10
194.9594435443
 20
119.5670565102
 30
0.0
 11
195.2094431196
 21
119.5670565102
 31
0.0
  0
LINE
  5
228
  8
0
  6
CONTINUOUS
 62
     7
 10
241.459441853
 20
199.5670547221
 30
0.0
 11
241.459441853
 21
119.5670565102
 31
0.0
  0
LINE
  5
229
  8
0
  6
CONTINUOUS
 62
     7
 10
241.459441853
 20
199.5670547221
 30
0.0
 11
241.7094423596
 21
199.5670547221
 31
0.0
  0
LINE
  5
22A
  8
0
  6
CONTINUOUS
 62
     7
 10
241.459441853
 20
119.5670565102
 30
0.0
 11
241.7094423596
 21
119.5670565102
 31
0.0
  0
LINE
  5
22B
  8
0
  6
CONTINUOUS
 62
     7
 10
223.4594426279
 20
199.5670547221
 30
0.0
 11
223.4594426279
 21
119.5670565102
 31
0.0
  0
LINE
  5
22C
  8
0
  6
CONTINUOUS
 62
     7
 10
223.4594426279
 20
199.5670547221
 30
0.0
 11
223.7094431345
 21
199.5670547221
 31
0.0
  0
LINE
  5
22D
  8
0
  6
CONTINUOUS
 62
     7
 10
223.4594426279
 20
119.5670565102
 30
0.0
 11
223.7094431345
 21
119.5670565102
 31
0.0
  0
LINE
  5
22E
  8
0
  6
CONTINUOUS
 62
     7
 10
226.4594431196
 20
199.5670547221
 30
0.0
 11
226.4594431196
 21
119.5670565102
 31
0.0
  0
LINE
  5
22F
  8
0
  6
CONTINUOUS
 62
     7
 10
226.4594431196
 20
199.5670547221
 30
0.0
 11
226.7094436262
 21
199.5670547221
 31
0.0
  0
LINE
  5
230
  8
0
  6
CONTINUOUS
 62
     7
 10
226.4594431196
 20
119.5670565102
 30
0.0
 11
226.7094436262
 21
119.5670565102
 31
0.0
  0
LINE
  5
231
  8
0
  6
CONTINUOUS
 62
     7
 10
197.9594435704
 20
199.5670547221
 30
0.0
 11
197.9594435704
 21
119.5670565102
 31
0.0
  0
LINE
  5
232
  8
0
  6
CONTINUOUS
 62
     7
 10
197.9594435704
 20
199.5670547221
 30
0.0
 11
198.2094436113
 21
199.5670547221
 31
0.0
  0
LINE
  5
233
  8
0
  6
CONTINUOUS
 62
     7
 10
197.9594435704
 20
119.5670565102
 30
0.0
 11
198.2094436113
 21
119.5670565102
 31
0.0
  0
LINE
  5
234
  8
0
  6
CONTINUOUS
 62
     7
 10
235.4594427322
 20
199.5670547221
 30
0.0
 11
235.4594427322
 21
119.5670565102
 31
0.0
  0
LINE
  5
235
  8
0
  6
CONTINUOUS
 62
     7
 10
235.7094432388
 20
199.5670547221
 30
0.0
 11
235.7094432388
 21
119.5670565102
 31
0.0
  0
LINE
  5
236
  8
0
  6
CONTINUOUS
 62
     7
 10
235.4594427322
 20
199.5670547221
 30
0.0
 11
235.7094432388
 21
199.5670547221
 31
0.0
  0
LINE
  5
237
  8
0
  6
CONTINUOUS
 62
     7
 10
235.4594427322
 20
119.5670565102
 30
0.0
 11
235.7094432388
 21
119.5670565102
 31
0.0
  0
LINE
  5
238
  8
0
  6
CONTINUOUS
 62
     7
 10
218.9594437529
 20
199.5670547221
 30
0.0
 11
218.9594437529
 21
119.5670565102
 31
0.0
  0
LINE
  5
239
  8
0
  6
CONTINUOUS
 62
     7
 10
218.9594437529
 20
199.5670547221
 30
0.0
 11
219.2094433282
 21
199.5670547221
 31
0.0
  0
LINE
  5
23A
  8
0
  6
CONTINUOUS
 62
     7
 10
218.9594437529
 20
119.5670565102
 30
0.0
 11
219.2094433282
 21
119.5670565102
 31
0.0
  0
LINE
  5
23B
  8
0
  6
CONTINUOUS
 62
     7
 10
190.459443738
 20
199.5670547221
 30
0.0
 11
190.459443738
 21
119.5670565102
 31
0.0
  0
LINE
  5
23C
  8
0
  6
CONTINUOUS
 62
     7
 10
190.7094433133
 20
199.5670547221
 30
0.0
 11
190.7094433133
 21
119.5670565102
 31
0.0
  0
LINE
  5
23D
  8
0
  6
CONTINUOUS
 62
     7
 10
190.459443738
 20
199.5670547221
 30
0.0
 11
190.7094433133
 21
199.5670547221
 31
0.0
  0
LINE
  5
23E
  8
0
  6
CONTINUOUS
 62
     7
 10
190.459443738
 20
119.5670565102
 30
0.0
 11
190.7094433133
 21
119.5670565102
 31
0.0
  0
LINE
  5
23F
  8
0
  6
CONTINUOUS
 62
     7
 10
238.4594432239
 20
199.5670547221
 30
0.0
 11
238.4594432239
 21
119.5670565102
 31
0.0
  0
LINE
  5
240
  8
0
  6
CONTINUOUS
 62
     7
 10
238.4594432239
 20
199.5670547221
 30
0.0
 11
238.7094437305
 21
199.5670547221
 31
0.0
  0
LINE
  5
241
  8
0
  6
CONTINUOUS
 62
     7
 10
238.4594432239
 20
119.5670565102
 30
0.0
 11
238.7094437305
 21
119.5670565102
 31
0.0
  0
LINE
  5
242
  8
0
  6
CONTINUOUS
 62
     7
 10
254.7358623867
 20
119.5670565102
 30
0.0
 11
254.7358623867
 21
199.5670547221
 31
0.0
  0
LINE
  5
243
  8
0
  6
CONTINUOUS
 62
     7
 10
254.7358623867
 20
199.5670547221
 30
0.0
 11
247.1701218907
 21
199.5670547221
 31
0.0
  0
LINE
  5
244
  8
0
  6
CONTINUOUS
 62
     7
 10
254.7358623867
 20
119.5670565102
 30
0.0
 11
247.1701218907
 21
119.5670565102
 31
0.0
  0
LINE
  5
245
  8
0
  6
CONTINUOUS
 62
     7
 10
236.2094442521
 20
199.5670547221
 30
0.0
 11
236.2094442521
 21
119.5670565102
 31
0.0
  0
LINE
  5
246
  8
0
  6
CONTINUOUS
 62
     7
 10
236.4594428961
 20
199.5670547221
 30
0.0
 11
236.4594428961
 21
119.5670565102
 31
0.0
  0
LINE
  5
247
  8
0
  6
CONTINUOUS
 62
     7
 10
236.2094442521
 20
199.5670547221
 30
0.0
 11
236.4594428961
 21
199.5670547221
 31
0.0
  0
LINE
  5
248
  8
0
  6
CONTINUOUS
 62
     7
 10
236.2094442521
 20
119.5670565102
 30
0.0
 11
236.4594428961
 21
119.5670565102
 31
0.0
  0
LINE
  5
249
  8
0
  6
CONTINUOUS
 62
     7
 10
191.2094433953
 20
199.5670547221
 30
0.0
 11
191.2094433953
 21
119.5670565102
 31
0.0
  0
LINE
  5
24A
  8
0
  6
CONTINUOUS
 62
     7
 10
191.4594439019
 20
199.5670547221
 30
0.0
 11
191.4594439019
 21
119.5670565102
 31
0.0
  0
LINE
  5
24B
  8
0
  6
CONTINUOUS
 62
     7
 10
191.2094433953
 20
199.5670547221
 30
0.0
 11
191.4594439019
 21
199.5670547221
 31
0.0
  0
LINE
  5
24C
  8
0
  6
CONTINUOUS
 62
     7
 10
191.2094433953
 20
119.5670565102
 30
0.0
 11
191.4594439019
 21
119.5670565102
 31
0.0
  0
LINE
  5
24D
  8
0
  6
CONTINUOUS
 62
     7
 10
239.9594425384
 20
199.5670547221
 30
0.0
 11
239.9594425384
 21
119.5670565102
 31
0.0
  0
LINE
  5
24E
  8
0
  6
CONTINUOUS
 62
     7
 10
239.9594425384
 20
199.5670547221
 30
0.0
 11
240.2094430451
 21
199.5670547221
 31
0.0
  0
LINE
  5
24F
  8
0
  6
CONTINUOUS
 62
     7
 10
239.9594425384
 20
119.5670565102
 30
0.0
 11
240.2094430451
 21
119.5670565102
 31
0.0
  0
LINE
  5
250
  8
0
  6
CONTINUOUS
 62
     7
 10
176.9594433878
 20
199.5670547221
 30
0.0
 11
176.9594433878
 21
119.5670565102
 31
0.0
  0
LINE
  5
251
  8
0
  6
CONTINUOUS
 62
     7
 10
176.9594433878
 20
199.5670547221
 30
0.0
 11
177.2094438945
 21
199.5670547221
 31
0.0
  0
LINE
  5
252
  8
0
  6
CONTINUOUS
 62
     7
 10
176.9594433878
 20
119.5670565102
 30
0.0
 11
177.2094438945
 21
119.5670565102
 31
0.0
  0
LINE
  5
253
  8
0
  6
CONTINUOUS
 62
     7
 10
221.4594441627
 20
199.5670547221
 30
0.0
 11
221.4594441627
 21
119.5670565102
 31
0.0
  0
LINE
  5
254
  8
0
  6
CONTINUOUS
 62
     7
 10
221.209443656
 20
199.5670547221
 30
0.0
 11
221.4594441627
 21
199.5670547221
 31
0.0
  0
LINE
  5
255
  8
0
  6
CONTINUOUS
 62
     7
 10
221.209443656
 20
119.5670565102
 30
0.0
 11
221.4594441627
 21
119.5670565102
 31
0.0
  0
LINE
  5
256
  8
0
  6
CONTINUOUS
 62
     7
 10
178.4594427024
 20
199.5670547221
 30
0.0
 11
178.4594427024
 21
119.5670565102
 31
0.0
  0
LINE
  5
257
  8
0
  6
CONTINUOUS
 62
     7
 10
178.4594427024
 20
199.5670547221
 30
0.0
 11
178.709443209
 21
199.5670547221
 31
0.0
  0
LINE
  5
258
  8
0
  6
CONTINUOUS
 62
     7
 10
178.4594427024
 20
119.5670565102
 30
0.0
 11
178.709443209
 21
119.5670565102
 31
0.0
  0
LINE
  5
259
  8
0
  6
CONTINUOUS
 62
     7
 10
242.9594448928
 20
199.5670547221
 30
0.0
 11
242.9594448928
 21
119.5670565102
 31
0.0
  0
LINE
  5
25A
  8
0
  6
CONTINUOUS
 62
     7
 10
242.9594448928
 20
199.5670547221
 30
0.0
 11
243.2094416742
 21
199.5670547221
 31
0.0
  0
LINE
  5
25B
  8
0
  6
CONTINUOUS
 62
     7
 10
242.9594448928
 20
119.5670565102
 30
0.0
 11
243.2094416742
 21
119.5670565102
 31
0.0
  0
LINE
  5
25C
  8
0
  6
CONTINUOUS
 62
     7
 10
217.459443507
 20
199.5670547221
 30
0.0
 11
217.459443507
 21
119.5670565102
 31
0.0
  0
LINE
  5
25D
  8
0
  6
CONTINUOUS
 62
     7
 10
217.459443507
 20
199.5670547221
 30
0.0
 11
217.7094430823
 21
199.5670547221
 31
0.0
  0
LINE
  5
25E
  8
0
  6
CONTINUOUS
 62
     7
 10
217.459443507
 20
119.5670565102
 30
0.0
 11
217.7094430823
 21
119.5670565102
 31
0.0
  0
LINE
  5
25F
  8
0
  6
CONTINUOUS
 62
     7
 10
190.7094433133
 20
199.5670547221
 30
0.0
 11
191.2094433953
 21
199.5670547221
 31
0.0
  0
LINE
  5
260
  8
0
  6
CONTINUOUS
 62
     7
 10
190.7094433133
 20
119.5670565102
 30
0.0
 11
191.2094433953
 21
119.5670565102
 31
0.0
  0
LINE
  5
261
  8
0
  6
CONTINUOUS
 62
     7
 10
227.9594442968
 20
199.5670547221
 30
0.0
 11
227.9594442968
 21
119.5670565102
 31
0.0
  0
LINE
  5
262
  8
0
  6
CONTINUOUS
 62
     7
 10
228.2094429408
 20
199.5670547221
 30
0.0
 11
228.2094429408
 21
119.5670565102
 31
0.0
  0
LINE
  5
263
  8
0
  6
CONTINUOUS
 62
     7
 10
227.9594442968
 20
199.5670547221
 30
0.0
 11
228.2094429408
 21
199.5670547221
 31
0.0
  0
LINE
  5
264
  8
0
  6
CONTINUOUS
 62
     7
 10
227.9594442968
 20
119.5670565102
 30
0.0
 11
228.2094429408
 21
119.5670565102
 31
0.0
  0
LINE
  5
265
  8
0
  6
CONTINUOUS
 62
     7
 10
209.4594435927
 20
199.5670547221
 30
0.0
 11
209.4594435927
 21
119.5670565102
 31
0.0
  0
LINE
  5
266
  8
0
  6
CONTINUOUS
 62
     7
 10
209.2094435517
 20
199.5670547221
 30
0.0
 11
209.4594435927
 21
199.5670547221
 31
0.0
  0
LINE
  5
267
  8
0
  6
CONTINUOUS
 62
     7
 10
209.2094435517
 20
119.5670565102
 30
0.0
 11
209.4594435927
 21
119.5670565102
 31
0.0
  0
LINE
  5
268
  8
0
  6
CONTINUOUS
 62
     7
 10
164.4594422702
 20
199.5670547221
 30
0.0
 11
164.4594422702
 21
119.5670565102
 31
0.0
  0
LINE
  5
269
  8
0
  6
CONTINUOUS
 62
     7
 10
164.2094417636
 20
199.5670547221
 30
0.0
 11
164.4594422702
 21
199.5670547221
 31
0.0
  0
LINE
  5
26A
  8
0
  6
CONTINUOUS
 62
     7
 10
164.2094417636
 20
119.5670565102
 30
0.0
 11
164.4594422702
 21
119.5670565102
 31
0.0
  0
LINE
  5
26B
  8
0
  6
CONTINUOUS
 62
     7
 10
211.4594434549
 20
199.5670547221
 30
0.0
 11
211.4594434549
 21
119.5670565102
 31
0.0
  0
LINE
  5
26C
  8
0
  6
CONTINUOUS
 62
     7
 10
211.4594434549
 20
199.5670547221
 30
0.0
 11
211.7094434958
 21
199.5670547221
 31
0.0
  0
LINE
  5
26D
  8
0
  6
CONTINUOUS
 62
     7
 10
211.4594434549
 20
119.5670565102
 30
0.0
 11
211.7094434958
 21
119.5670565102
 31
0.0
  0
LINE
  5
26E
  8
0
  6
CONTINUOUS
 62
     7
 10
184.4594436858
 20
199.5670547221
 30
0.0
 11
184.4594436858
 21
119.5670565102
 31
0.0
  0
LINE
  5
26F
  8
0
  6
CONTINUOUS
 62
     7
 10
184.4594436858
 20
199.5670547221
 30
0.0
 11
184.7094441925
 21
199.5670547221
 31
0.0
  0
LINE
  5
270
  8
0
  6
CONTINUOUS
 62
     7
 10
184.4594436858
 20
119.5670565102
 30
0.0
 11
184.7094441925
 21
119.5670565102
 31
0.0
  0
LINE
  5
271
  8
0
  6
CONTINUOUS
 62
     7
 10
235.7094432388
 20
199.5670547221
 30
0.0
 11
236.2094442521
 21
199.5670547221
 31
0.0
  0
LINE
  5
272
  8
0
  6
CONTINUOUS
 62
     7
 10
235.7094432388
 20
119.5670565102
 30
0.0
 11
236.2094442521
 21
119.5670565102
 31
0.0
  0
LINE
  5
273
  8
0
  6
CONTINUOUS
 62
     7
 10
232.4594441031
 20
199.5670547221
 30
0.0
 11
232.4594441031
 21
119.5670565102
 31
0.0
  0
LINE
  5
274
  8
0
  6
CONTINUOUS
 62
     7
 10
232.4594441031
 20
199.5670547221
 30
0.0
 11
232.7094427471
 21
199.5670547221
 31
0.0
  0
LINE
  5
275
  8
0
  6
CONTINUOUS
 62
     7
 10
232.4594441031
 20
119.5670565102
 30
0.0
 11
232.7094427471
 21
119.5670565102
 31
0.0
  0
LINE
  5
276
  8
0
  6
CONTINUOUS
 62
     7
 10
224.959443805
 20
199.5670547221
 30
0.0
 11
224.959443805
 21
119.5670565102
 31
0.0
  0
LINE
  5
277
  8
0
  6
CONTINUOUS
 62
     7
 10
224.959443805
 20
199.5670547221
 30
0.0
 11
225.2094443117
 21
199.5670547221
 31
0.0
  0
LINE
  5
278
  8
0
  6
CONTINUOUS
 62
     7
 10
224.959443805
 20
119.5670565102
 30
0.0
 11
225.2094443117
 21
119.5670565102
 31
0.0
  0
LINE
  5
279
  8
0
  6
CONTINUOUS
 62
     7
 10
215.9594432612
 20
199.5670547221
 30
0.0
 11
215.9594432612
 21
119.5670565102
 31
0.0
  0
LINE
  5
27A
  8
0
  6
CONTINUOUS
 62
     7
 10
215.9594432612
 20
199.5670547221
 30
0.0
 11
216.2094437678
 21
199.5670547221
 31
0.0
  0
LINE
  5
27B
  8
0
  6
CONTINUOUS
 62
     7
 10
215.9594432612
 20
119.5670565102
 30
0.0
 11
216.2094437678
 21
119.5670565102
 31
0.0
  0
LINE
  5
27C
  8
0
  6
CONTINUOUS
 62
     7
 10
196.4594437901
 20
199.5670547221
 30
0.0
 11
196.4594437901
 21
119.5670565102
 31
0.0
  0
LINE
  5
27D
  8
0
  6
CONTINUOUS
 62
     7
 10
196.4594437901
 20
199.5670547221
 30
0.0
 11
196.7094433655
 21
199.5670547221
 31
0.0
  0
LINE
  5
27E
  8
0
  6
CONTINUOUS
 62
     7
 10
196.4594437901
 20
119.5670565102
 30
0.0
 11
196.7094433655
 21
119.5670565102
 31
0.0
  0
LINE
  5
27F
  8
0
  6
CONTINUOUS
 62
     7
 10
188.9594434921
 20
199.5670547221
 30
0.0
 11
188.9594434921
 21
119.5670565102
 31
0.0
  0
LINE
  5
280
  8
0
  6
CONTINUOUS
 62
     7
 10
188.9594434921
 20
199.5670547221
 30
0.0
 11
189.2094439988
 21
199.5670547221
 31
0.0
  0
LINE
  5
281
  8
0
  6
CONTINUOUS
 62
     7
 10
188.9594434921
 20
119.5670565102
 30
0.0
 11
189.2094439988
 21
119.5670565102
 31
0.0
  0
LINE
  5
282
  8
0
  6
CONTINUOUS
 62
     7
 10
228.7094439541
 20
199.5670547221
 30
0.0
 11
228.7094439541
 21
119.5670565102
 31
0.0
  0
LINE
  5
283
  8
0
  6
CONTINUOUS
 62
     7
 10
228.2094429408
 20
199.5670547221
 30
0.0
 11
228.7094439541
 21
199.5670547221
 31
0.0
  0
LINE
  5
284
  8
0
  6
CONTINUOUS
 62
     7
 10
228.2094429408
 20
119.5670565102
 30
0.0
 11
228.7094439541
 21
119.5670565102
 31
0.0
  0
LINE
  5
285
  8
0
  6
CONTINUOUS
 62
     7
 10
236.9594439094
 20
199.5670547221
 30
0.0
 11
236.9594439094
 21
119.5670565102
 31
0.0
  0
LINE
  5
286
  8
0
  6
CONTINUOUS
 62
     7
 10
236.9594439094
 20
199.5670547221
 30
0.0
 11
237.209444416
 21
199.5670547221
 31
0.0
  0
LINE
  5
287
  8
0
  6
CONTINUOUS
 62
     7
 10
236.9594439094
 20
119.5670565102
 30
0.0
 11
237.209444416
 21
119.5670565102
 31
0.0
  0
LINE
  5
288
  8
0
  6
CONTINUOUS
 62
     7
 10
191.9594430525
 20
199.5670547221
 30
0.0
 11
191.9594430525
 21
119.5670565102
 31
0.0
  0
LINE
  5
289
  8
0
  6
CONTINUOUS
 62
     7
 10
191.9594430525
 20
199.5670547221
 30
0.0
 11
192.2094435592
 21
199.5670547221
 31
0.0
  0
LINE
  5
28A
  8
0
  6
CONTINUOUS
 62
     7
 10
191.9594430525
 20
119.5670565102
 30
0.0
 11
192.2094435592
 21
119.5670565102
 31
0.0
  0
LINE
  5
28B
  8
0
  6
CONTINUOUS
 62
     7
 10
229.4594436113
 20
199.5670547221
 30
0.0
 11
229.4594436113
 21
119.5670565102
 31
0.0
  0
LINE
  5
28C
  8
0
  6
CONTINUOUS
 62
     7
 10
229.4594436113
 20
199.5670547221
 30
0.0
 11
229.709444118
 21
199.5670547221
 31
0.0
  0
LINE
  5
28D
  8
0
  6
CONTINUOUS
 62
     7
 10
229.4594436113
 20
119.5670565102
 30
0.0
 11
229.709444118
 21
119.5670565102
 31
0.0
  0
LINE
  5
28E
  8
0
  6
CONTINUOUS
 62
     7
 10
182.9594443713
 20
199.5670547221
 30
0.0
 11
182.9594443713
 21
119.5670565102
 31
0.0
  0
LINE
  5
28F
  8
0
  6
CONTINUOUS
 62
     7
 10
182.9594443713
 20
199.5670547221
 30
0.0
 11
183.2094430153
 21
199.5670547221
 31
0.0
  0
LINE
  5
290
  8
0
  6
CONTINUOUS
 62
     7
 10
182.9594443713
 20
119.5670565102
 30
0.0
 11
183.2094430153
 21
119.5670565102
 31
0.0
  0
LINE
  5
291
  8
0
  6
CONTINUOUS
 62
     7
 10
221.9594433133
 20
199.5670547221
 30
0.0
 11
221.9594433133
 21
119.5670565102
 31
0.0
  0
LINE
  5
292
  8
0
  6
CONTINUOUS
 62
     7
 10
221.9594433133
 20
199.5670547221
 30
0.0
 11
222.2094438199
 21
199.5670547221
 31
0.0
  0
LINE
  5
293
  8
0
  6
CONTINUOUS
 62
     7
 10
221.9594433133
 20
119.5670565102
 30
0.0
 11
222.2094438199
 21
119.5670565102
 31
0.0
  0
LINE
  5
294
  8
0
  6
CONTINUOUS
 62
     7
 10
193.4594432984
 20
199.5670547221
 30
0.0
 11
193.4594432984
 21
119.5670565102
 31
0.0
  0
LINE
  5
295
  8
0
  6
CONTINUOUS
 62
     7
 10
193.4594432984
 20
199.5670547221
 30
0.0
 11
193.709443805
 21
199.5670547221
 31
0.0
  0
LINE
  5
296
  8
0
  6
CONTINUOUS
 62
     7
 10
193.4594432984
 20
119.5670565102
 30
0.0
 11
193.709443805
 21
119.5670565102
 31
0.0
  0
LINE
  5
297
  8
0
  6
CONTINUOUS
 62
     7
 10
228.9594425981
 20
199.5670547221
 30
0.0
 11
228.9594425981
 21
119.5670565102
 31
0.0
  0
LINE
  5
298
  8
0
  6
CONTINUOUS
 62
     7
 10
228.7094439541
 20
199.5670547221
 30
0.0
 11
228.9594425981
 21
199.5670547221
 31
0.0
  0
LINE
  5
299
  8
0
  6
CONTINUOUS
 62
     7
 10
228.7094439541
 20
119.5670565102
 30
0.0
 11
228.9594425981
 21
119.5670565102
 31
0.0
  0
LINE
  5
29A
  8
0
  6
CONTINUOUS
 62
     7
 10
214.4594439466
 20
199.5670547221
 30
0.0
 11
214.4594439466
 21
119.5670565102
 31
0.0
  0
LINE
  5
29B
  8
0
  6
CONTINUOUS
 62
     7
 10
214.4594439466
 20
199.5670547221
 30
0.0
 11
214.7094435219
 21
199.5670547221
 31
0.0
  0
LINE
  5
29C
  8
0
  6
CONTINUOUS
 62
     7
 10
214.4594439466
 20
119.5670565102
 30
0.0
 11
214.7094435219
 21
119.5670565102
 31
0.0
  0
LINE
  5
29D
  8
0
  6
CONTINUOUS
 62
     7
 10
185.9594430004
 20
199.5670547221
 30
0.0
 11
185.9594430004
 21
119.5670565102
 31
0.0
  0
LINE
  5
29E
  8
0
  6
CONTINUOUS
 62
     7
 10
185.9594430004
 20
199.5670547221
 30
0.0
 11
186.209443507
 21
199.5670547221
 31
0.0
  0
LINE
  5
29F
  8
0
  6
CONTINUOUS
 62
     7
 10
185.9594430004
 20
119.5670565102
 30
0.0
 11
186.209443507
 21
119.5670565102
 31
0.0
  0
LINE
  5
2A0
  8
0
  6
CONTINUOUS
 62
     7
 10
187.4594441776
 20
199.5670547221
 30
0.0
 11
187.4594441776
 21
119.5670565102
 31
0.0
  0
LINE
  5
2A1
  8
0
  6
CONTINUOUS
 62
     7
 10
187.4594441776
 20
199.5670547221
 30
0.0
 11
187.7094428216
 21
199.5670547221
 31
0.0
  0
LINE
  5
2A2
  8
0
  6
CONTINUOUS
 62
     7
 10
187.4594441776
 20
119.5670565102
 30
0.0
 11
187.7094428216
 21
119.5670565102
 31
0.0
  0
LINE
  5
2A3
  8
0
  6
CONTINUOUS
 62
     7
 10
233.9594434176
 20
199.5670547221
 30
0.0
 11
233.9594434176
 21
119.5670565102
 31
0.0
  0
LINE
  5
2A4
  8
0
  6
CONTINUOUS
 62
     7
 10
233.9594434176
 20
199.5670547221
 30
0.0
 11
234.2094439243
 21
199.5670547221
 31
0.0
  0
LINE
  5
2A5
  8
0
  6
CONTINUOUS
 62
     7
 10
233.9594434176
 20
119.5670565102
 30
0.0
 11
234.2094439243
 21
119.5670565102
 31
0.0
  0
LINE
  5
2A6
  8
0
  6
CONTINUOUS
 62
     7
 10
179.9594438796
 20
199.5670547221
 30
0.0
 11
179.9594438796
 21
119.5670565102
 31
0.0
  0
LINE
  5
2A7
  8
0
  6
CONTINUOUS
 62
     7
 10
179.9594438796
 20
199.5670547221
 30
0.0
 11
180.2094443862
 21
199.5670547221
 31
0.0
  0
LINE
  5
2A8
  8
0
  6
CONTINUOUS
 62
     7
 10
179.9594438796
 20
119.5670565102
 30
0.0
 11
180.2094443862
 21
119.5670565102
 31
0.0
  0
LINE
  5
2A9
  8
0
  6
CONTINUOUS
 62
     7
 10
230.9594429259
 20
199.5670547221
 30
0.0
 11
230.9594429259
 21
119.5670565102
 31
0.0
  0
LINE
  5
2AA
  8
0
  6
CONTINUOUS
 62
     7
 10
230.9594429259
 20
199.5670547221
 30
0.0
 11
231.2094434325
 21
199.5670547221
 31
0.0
  0
LINE
  5
2AB
  8
0
  6
CONTINUOUS
 62
     7
 10
230.9594429259
 20
119.5670565102
 30
0.0
 11
231.2094434325
 21
119.5670565102
 31
0.0
  0
LINE
  5
2AC
  8
0
  6
CONTINUOUS
 62
     7
 10
209.9594436747
 20
199.5670547221
 30
0.0
 11
209.9594436747
 21
119.5670565102
 31
0.0
  0
LINE
  5
2AD
  8
0
  6
CONTINUOUS
 62
     7
 10
209.9594436747
 20
199.5670547221
 30
0.0
 11
210.20944325
 21
199.5670547221
 31
0.0
  0
LINE
  5
2AE
  8
0
  6
CONTINUOUS
 62
     7
 10
209.9594436747
 20
119.5670565102
 30
0.0
 11
210.20944325
 21
119.5670565102
 31
0.0
  0
LINE
  5
2AF
  8
0
  6
CONTINUOUS
 62
     7
 10
213.9594438647
 20
199.5670547221
 30
0.0
 11
213.9594438647
 21
119.5670565102
 31
0.0
  0
LINE
  5
2B0
  8
0
  6
CONTINUOUS
 62
     7
 10
213.709443358
 20
199.5670547221
 30
0.0
 11
213.9594438647
 21
199.5670547221
 31
0.0
  0
LINE
  5
2B1
  8
0
  6
CONTINUOUS
 62
     7
 10
213.709443358
 20
119.5670565102
 30
0.0
 11
213.9594438647
 21
119.5670565102
 31
0.0
  0
LINE
  5
2B2
  8
0
  6
CONTINUOUS
 62
     7
 10
164.9594432835
 20
199.5670547221
 30
0.0
 11
164.9594432835
 21
119.5670565102
 31
0.0
  0
LINE
  5
2B3
  8
0
  6
CONTINUOUS
 62
     7
 10
164.9594432835
 20
199.5670547221
 30
0.0
 11
165.2094437901
 21
199.5670547221
 31
0.0
  0
LINE
  5
2B4
  8
0
  6
CONTINUOUS
 62
     7
 10
164.9594432835
 20
119.5670565102
 30
0.0
 11
165.2094437901
 21
119.5670565102
 31
0.0
  0
LINE
  5
2B5
  8
0
  6
CONTINUOUS
 62
     7
 10
212.9594437007
 20
199.5670547221
 30
0.0
 11
212.9594437007
 21
119.5670565102
 31
0.0
  0
LINE
  5
2B6
  8
0
  6
CONTINUOUS
 62
     7
 10
212.9594437007
 20
199.5670547221
 30
0.0
 11
213.2094432761
 21
199.5670547221
 31
0.0
  0
LINE
  5
2B7
  8
0
  6
CONTINUOUS
 62
     7
 10
212.9594437007
 20
119.5670565102
 30
0.0
 11
213.2094432761
 21
119.5670565102
 31
0.0
  0
LINE
  5
2B8
  8
0
  6
CONTINUOUS
 62
     7
 10
209.4594435927
 20
199.5670547221
 30
0.0
 11
209.9594436747
 21
199.5670547221
 31
0.0
  0
LINE
  5
2B9
  8
0
  6
CONTINUOUS
 62
     7
 10
209.4594435927
 20
119.5670565102
 30
0.0
 11
209.9594436747
 21
119.5670565102
 31
0.0
  0
LINE
  5
2BA
  8
0
  6
CONTINUOUS
 62
     7
 10
225.959443969
 20
199.5670547221
 30
0.0
 11
226.4594431196
 21
199.5670547221
 31
0.0
  0
LINE
  5
2BB
  8
0
  6
CONTINUOUS
 62
     7
 10
225.959443969
 20
119.5670565102
 30
0.0
 11
226.4594431196
 21
119.5670565102
 31
0.0
  0
LINE
  5
2BC
  8
0
  6
CONTINUOUS
 62
     7
 10
171.9594425682
 20
199.5670547221
 30
0.0
 11
172.4594435815
 21
199.5670547221
 31
0.0
  0
LINE
  5
2BD
  8
0
  6
CONTINUOUS
 62
     7
 10
171.9594425682
 20
119.5670565102
 30
0.0
 11
172.4594435815
 21
119.5670565102
 31
0.0
  0
LINE
  5
2BE
  8
0
  6
CONTINUOUS
 62
     7
 10
242.4594438796
 20
199.5670547221
 30
0.0
 11
242.9594448928
 21
199.5670547221
 31
0.0
  0
LINE
  5
2BF
  8
0
  6
CONTINUOUS
 62
     7
 10
242.4594438796
 20
119.5670565102
 30
0.0
 11
242.9594448928
 21
119.5670565102
 31
0.0
  0
LINE
  5
2C0
  8
0
  6
CONTINUOUS
 62
     7
 10
239.4594452505
 20
199.5670547221
 30
0.0
 11
239.9594425384
 21
199.5670547221
 31
0.0
  0
LINE
  5
2C1
  8
0
  6
CONTINUOUS
 62
     7
 10
239.4594452505
 20
119.5670565102
 30
0.0
 11
239.9594425384
 21
119.5670565102
 31
0.0
  0
LINE
  5
2C2
  8
0
  6
CONTINUOUS
 62
     7
 10
180.9594440435
 20
199.5670547221
 30
0.0
 11
181.4594431941
 21
199.5670547221
 31
0.0
  0
LINE
  5
2C3
  8
0
  6
CONTINUOUS
 62
     7
 10
180.9594440435
 20
119.5670565102
 30
0.0
 11
181.4594431941
 21
119.5670565102
 31
0.0
  0
LINE
  5
2C4
  8
0
  6
CONTINUOUS
 62
     7
 10
222.9594434772
 20
199.5670547221
 30
0.0
 11
223.4594426279
 21
199.5670547221
 31
0.0
  0
LINE
  5
2C5
  8
0
  6
CONTINUOUS
 62
     7
 10
222.9594434772
 20
119.5670565102
 30
0.0
 11
223.4594426279
 21
119.5670565102
 31
0.0
  0
LINE
  5
2C6
  8
0
  6
CONTINUOUS
 62
     7
 10
219.9594439168
 20
199.5670547221
 30
0.0
 11
220.4594430674
 21
199.5670547221
 31
0.0
  0
LINE
  5
2C7
  8
0
  6
CONTINUOUS
 62
     7
 10
219.9594439168
 20
119.5670565102
 30
0.0
 11
220.4594430674
 21
119.5670565102
 31
0.0
  0
LINE
  5
2C8
  8
0
  6
CONTINUOUS
 62
     7
 10
243.9594431941
 20
199.5670547221
 30
0.0
 11
244.4594442074
 21
199.5670547221
 31
0.0
  0
LINE
  5
2C9
  8
0
  6
CONTINUOUS
 62
     7
 10
243.9594431941
 20
119.5670565102
 30
0.0
 11
244.4594442074
 21
119.5670565102
 31
0.0
  0
LINE
  5
2CA
  8
0
  6
CONTINUOUS
 62
     7
 10
237.9594422106
 20
199.5670547221
 30
0.0
 11
238.4594432239
 21
199.5670547221
 31
0.0
  0
LINE
  5
2CB
  8
0
  6
CONTINUOUS
 62
     7
 10
237.9594422106
 20
119.5670565102
 30
0.0
 11
238.4594432239
 21
119.5670565102
 31
0.0
  0
LINE
  5
2CC
  8
0
  6
CONTINUOUS
 62
     7
 10
179.4594428663
 20
199.5670547221
 30
0.0
 11
179.9594438796
 21
199.5670547221
 31
0.0
  0
LINE
  5
2CD
  8
0
  6
CONTINUOUS
 62
     7
 10
179.4594428663
 20
119.5670565102
 30
0.0
 11
179.9594438796
 21
119.5670565102
 31
0.0
  0
LINE
  5
2CE
  8
0
  6
CONTINUOUS
 62
     7
 10
197.4594434884
 20
199.5670547221
 30
0.0
 11
197.9594435704
 21
199.5670547221
 31
0.0
  0
LINE
  5
2CF
  8
0
  6
CONTINUOUS
 62
     7
 10
197.4594434884
 20
119.5670565102
 30
0.0
 11
197.9594435704
 21
119.5670565102
 31
0.0
  0
LINE
  5
2D0
  8
0
  6
CONTINUOUS
 62
     7
 10
212.4594436188
 20
199.5670547221
 30
0.0
 11
212.9594437007
 21
199.5670547221
 31
0.0
  0
LINE
  5
2D1
  8
0
  6
CONTINUOUS
 62
     7
 10
212.4594436188
 20
119.5670565102
 30
0.0
 11
212.9594437007
 21
119.5670565102
 31
0.0
  0
LINE
  5
2D2
  8
0
  6
CONTINUOUS
 62
     7
 10
176.4594442372
 20
199.5670547221
 30
0.0
 11
176.9594433878
 21
199.5670547221
 31
0.0
  0
LINE
  5
2D3
  8
0
  6
CONTINUOUS
 62
     7
 10
176.4594442372
 20
119.5670565102
 30
0.0
 11
176.9594433878
 21
119.5670565102
 31
0.0
  0
LINE
  5
2D4
  8
0
  6
CONTINUOUS
 62
     7
 10
194.4594434623
 20
199.5670547221
 30
0.0
 11
194.9594435443
 21
199.5670547221
 31
0.0
  0
LINE
  5
2D5
  8
0
  6
CONTINUOUS
 62
     7
 10
194.4594434623
 20
119.5670565102
 30
0.0
 11
194.9594435443
 21
119.5670565102
 31
0.0
  0
LINE
  5
2D6
  8
0
  6
CONTINUOUS
 62
     7
 10
213.9594438647
 20
199.5670547221
 30
0.0
 11
214.4594439466
 21
199.5670547221
 31
0.0
  0
LINE
  5
2D7
  8
0
  6
CONTINUOUS
 62
     7
 10
213.9594438647
 20
119.5670565102
 30
0.0
 11
214.4594439466
 21
119.5670565102
 31
0.0
  0
LINE
  5
2D8
  8
0
  6
CONTINUOUS
 62
     7
 10
177.9594435517
 20
199.5670547221
 30
0.0
 11
178.4594427024
 21
199.5670547221
 31
0.0
  0
LINE
  5
2D9
  8
0
  6
CONTINUOUS
 62
     7
 10
177.9594435517
 20
119.5670565102
 30
0.0
 11
178.4594427024
 21
119.5670565102
 31
0.0
  0
LINE
  5
2DA
  8
0
  6
CONTINUOUS
 62
     7
 10
224.4594427918
 20
199.5670547221
 30
0.0
 11
224.959443805
 21
199.5670547221
 31
0.0
  0
LINE
  5
2DB
  8
0
  6
CONTINUOUS
 62
     7
 10
224.4594427918
 20
119.5670565102
 30
0.0
 11
224.959443805
 21
119.5670565102
 31
0.0
  0
LINE
  5
2DC
  8
0
  6
CONTINUOUS
 62
     7
 10
215.4594431792
 20
199.5670547221
 30
0.0
 11
215.9594432612
 21
199.5670547221
 31
0.0
  0
LINE
  5
2DD
  8
0
  6
CONTINUOUS
 62
     7
 10
215.4594431792
 20
119.5670565102
 30
0.0
 11
215.9594432612
 21
119.5670565102
 31
0.0
  0
LINE
  5
2DE
  8
0
  6
CONTINUOUS
 62
     7
 10
170.4594432537
 20
199.5670547221
 30
0.0
 11
170.959444267
 21
199.5670547221
 31
0.0
  0
LINE
  5
2DF
  8
0
  6
CONTINUOUS
 62
     7
 10
170.4594432537
 20
119.5670565102
 30
0.0
 11
170.959444267
 21
119.5670565102
 31
0.0
  0
LINE
  5
2E0
  8
0
  6
CONTINUOUS
 62
     7
 10
216.9594434251
 20
199.5670547221
 30
0.0
 11
217.459443507
 21
199.5670547221
 31
0.0
  0
LINE
  5
2E1
  8
0
  6
CONTINUOUS
 62
     7
 10
216.9594434251
 20
119.5670565102
 30
0.0
 11
217.459443507
 21
119.5670565102
 31
0.0
  0
LINE
  5
2E2
  8
0
  6
CONTINUOUS
 62
     7
 10
188.4594443415
 20
199.5670547221
 30
0.0
 11
188.9594434921
 21
199.5670547221
 31
0.0
  0
LINE
  5
2E3
  8
0
  6
CONTINUOUS
 62
     7
 10
188.4594443415
 20
119.5670565102
 30
0.0
 11
188.9594434921
 21
119.5670565102
 31
0.0
  0
LINE
  5
2E4
  8
0
  6
CONTINUOUS
 62
     7
 10
234.9594435815
 20
199.5670547221
 30
0.0
 11
235.4594427322
 21
199.5670547221
 31
0.0
  0
LINE
  5
2E5
  8
0
  6
CONTINUOUS
 62
     7
 10
234.9594435815
 20
119.5670565102
 30
0.0
 11
235.4594427322
 21
119.5670565102
 31
0.0
  0
LINE
  5
2E6
  8
0
  6
CONTINUOUS
 62
     7
 10
227.4594432835
 20
199.5670547221
 30
0.0
 11
227.9594442968
 21
199.5670547221
 31
0.0
  0
LINE
  5
2E7
  8
0
  6
CONTINUOUS
 62
     7
 10
227.4594432835
 20
119.5670565102
 30
0.0
 11
227.9594442968
 21
119.5670565102
 31
0.0
  0
LINE
  5
2E8
  8
0
  6
CONTINUOUS
 62
     7
 10
218.4594436709
 20
199.5670547221
 30
0.0
 11
218.9594437529
 21
199.5670547221
 31
0.0
  0
LINE
  5
2E9
  8
0
  6
CONTINUOUS
 62
     7
 10
218.4594436709
 20
119.5670565102
 30
0.0
 11
218.9594437529
 21
119.5670565102
 31
0.0
  0
LINE
  5
2EA
  8
0
  6
CONTINUOUS
 62
     7
 10
191.4594439019
 20
199.5670547221
 30
0.0
 11
191.9594430525
 21
199.5670547221
 31
0.0
  0
LINE
  5
2EB
  8
0
  6
CONTINUOUS
 62
     7
 10
191.4594439019
 20
119.5670565102
 30
0.0
 11
191.9594430525
 21
119.5670565102
 31
0.0
  0
LINE
  5
2EC
  8
0
  6
CONTINUOUS
 62
     7
 10
210.9594433729
 20
199.5670547221
 30
0.0
 11
211.4594434549
 21
199.5670547221
 31
0.0
  0
LINE
  5
2ED
  8
0
  6
CONTINUOUS
 62
     7
 10
210.9594433729
 20
119.5670565102
 30
0.0
 11
211.4594434549
 21
119.5670565102
 31
0.0
  0
LINE
  5
2EE
  8
0
  6
CONTINUOUS
 62
     7
 10
182.459443358
 20
199.5670547221
 30
0.0
 11
182.9594443713
 21
199.5670547221
 31
0.0
  0
LINE
  5
2EF
  8
0
  6
CONTINUOUS
 62
     7
 10
182.459443358
 20
119.5670565102
 30
0.0
 11
182.9594443713
 21
119.5670565102
 31
0.0
  0
LINE
  5
2F0
  8
0
  6
CONTINUOUS
 62
     7
 10
192.9594432164
 20
199.5670547221
 30
0.0
 11
193.4594432984
 21
199.5670547221
 31
0.0
  0
LINE
  5
2F1
  8
0
  6
CONTINUOUS
 62
     7
 10
192.9594432164
 20
119.5670565102
 30
0.0
 11
193.4594432984
 21
119.5670565102
 31
0.0
  0
LINE
  5
2F2
  8
0
  6
CONTINUOUS
 62
     7
 10
174.95944306
 20
199.5670547221
 30
0.0
 11
175.4594440733
 21
199.5670547221
 31
0.0
  0
LINE
  5
2F3
  8
0
  6
CONTINUOUS
 62
     7
 10
174.95944306
 20
119.5670565102
 30
0.0
 11
175.4594440733
 21
119.5670565102
 31
0.0
  0
LINE
  5
2F4
  8
0
  6
CONTINUOUS
 62
     7
 10
221.4594441627
 20
199.5670547221
 30
0.0
 11
221.9594433133
 21
199.5670547221
 31
0.0
  0
LINE
  5
2F5
  8
0
  6
CONTINUOUS
 62
     7
 10
221.4594441627
 20
119.5670565102
 30
0.0
 11
221.9594433133
 21
119.5670565102
 31
0.0
  0
LINE
  5
2F6
  8
0
  6
CONTINUOUS
 62
     7
 10
230.4594437752
 20
199.5670547221
 30
0.0
 11
230.9594429259
 21
199.5670547221
 31
0.0
  0
LINE
  5
2F7
  8
0
  6
CONTINUOUS
 62
     7
 10
230.4594437752
 20
119.5670565102
 30
0.0
 11
230.9594429259
 21
119.5670565102
 31
0.0
  0
LINE
  5
2F8
  8
0
  6
CONTINUOUS
 62
     7
 10
167.4594446246
 20
199.5670547221
 30
0.0
 11
167.9594419126
 21
199.5670547221
 31
0.0
  0
LINE
  5
2F9
  8
0
  6
CONTINUOUS
 62
     7
 10
167.4594446246
 20
119.5670565102
 30
0.0
 11
167.9594419126
 21
119.5670565102
 31
0.0
  0
LINE
  5
2FA
  8
0
  6
CONTINUOUS
 62
     7
 10
185.4594438497
 20
199.5670547221
 30
0.0
 11
185.9594430004
 21
199.5670547221
 31
0.0
  0
LINE
  5
2FB
  8
0
  6
CONTINUOUS
 62
     7
 10
185.4594438497
 20
119.5670565102
 30
0.0
 11
185.9594430004
 21
119.5670565102
 31
0.0
  0
LINE
  5
2FC
  8
0
  6
CONTINUOUS
 62
     7
 10
240.959444565
 20
199.5670547221
 30
0.0
 11
241.459441853
 21
199.5670547221
 31
0.0
  0
LINE
  5
2FD
  8
0
  6
CONTINUOUS
 62
     7
 10
240.959444565
 20
119.5670565102
 30
0.0
 11
241.459441853
 21
119.5670565102
 31
0.0
  0
LINE
  5
2FE
  8
0
  6
CONTINUOUS
 62
     7
 10
195.9594437082
 20
199.5670547221
 30
0.0
 11
196.4594437901
 21
199.5670547221
 31
0.0
  0
LINE
  5
2FF
  8
0
  6
CONTINUOUS
 62
     7
 10
195.9594437082
 20
119.5670565102
 30
0.0
 11
196.4594437901
 21
119.5670565102
 31
0.0
  0
LINE
  5
300
  8
0
  6
CONTINUOUS
 62
     7
 10
186.9594431643
 20
199.5670547221
 30
0.0
 11
187.4594441776
 21
199.5670547221
 31
0.0
  0
LINE
  5
301
  8
0
  6
CONTINUOUS
 62
     7
 10
186.9594431643
 20
119.5670565102
 30
0.0
 11
187.4594441776
 21
119.5670565102
 31
0.0
  0
LINE
  5
302
  8
0
  6
CONTINUOUS
 62
     7
 10
233.459444267
 20
199.5670547221
 30
0.0
 11
233.9594434176
 21
199.5670547221
 31
0.0
  0
LINE
  5
303
  8
0
  6
CONTINUOUS
 62
     7
 10
233.459444267
 20
119.5670565102
 30
0.0
 11
233.9594434176
 21
119.5670565102
 31
0.0
  0
LINE
  5
304
  8
0
  6
CONTINUOUS
 62
     7
 10
165.9594453101
 20
199.5670547221
 30
0.0
 11
166.4594425981
 21
199.5670547221
 31
0.0
  0
LINE
  5
305
  8
0
  6
CONTINUOUS
 62
     7
 10
165.9594453101
 20
119.5670565102
 30
0.0
 11
166.4594425981
 21
119.5670565102
 31
0.0
  0
LINE
  5
306
  8
0
  6
CONTINUOUS
 62
     7
 10
183.9594426726
 20
199.5670547221
 30
0.0
 11
184.4594436858
 21
199.5670547221
 31
0.0
  0
LINE
  5
307
  8
0
  6
CONTINUOUS
 62
     7
 10
183.9594426726
 20
119.5670565102
 30
0.0
 11
184.4594436858
 21
119.5670565102
 31
0.0
  0
LINE
  5
308
  8
0
  6
CONTINUOUS
 62
     7
 10
245.4594425086
 20
199.5670547221
 30
0.0
 11
245.9594435219
 21
199.5670547221
 31
0.0
  0
LINE
  5
309
  8
0
  6
CONTINUOUS
 62
     7
 10
245.4594425086
 20
119.5670565102
 30
0.0
 11
245.9594435219
 21
119.5670565102
 31
0.0
  0
LINE
  5
30A
  8
0
  6
CONTINUOUS
 62
     7
 10
228.9594425981
 20
199.5670547221
 30
0.0
 11
229.4594436113
 21
199.5670547221
 31
0.0
  0
LINE
  5
30B
  8
0
  6
CONTINUOUS
 62
     7
 10
228.9594425981
 20
119.5670565102
 30
0.0
 11
229.4594436113
 21
119.5670565102
 31
0.0
  0
LINE
  5
30C
  8
0
  6
CONTINUOUS
 62
     7
 10
189.959443656
 20
199.5670547221
 30
0.0
 11
190.459443738
 21
199.5670547221
 31
0.0
  0
LINE
  5
30D
  8
0
  6
CONTINUOUS
 62
     7
 10
189.959443656
 20
119.5670565102
 30
0.0
 11
190.459443738
 21
119.5670565102
 31
0.0
  0
LINE
  5
30E
  8
0
  6
CONTINUOUS
 62
     7
 10
173.4594418828
 20
199.5670547221
 30
0.0
 11
173.9594428961
 21
199.5670547221
 31
0.0
  0
LINE
  5
30F
  8
0
  6
CONTINUOUS
 62
     7
 10
173.4594418828
 20
119.5670565102
 30
0.0
 11
173.9594428961
 21
119.5670565102
 31
0.0
  0
LINE
  5
310
  8
0
  6
CONTINUOUS
 62
     7
 10
168.9594439392
 20
199.5670547221
 30
0.0
 11
169.4594449524
 21
199.5670547221
 31
0.0
  0
LINE
  5
311
  8
0
  6
CONTINUOUS
 62
     7
 10
168.9594439392
 20
119.5670565102
 30
0.0
 11
169.4594449524
 21
119.5670565102
 31
0.0
  0
LINE
  5
312
  8
0
  6
CONTINUOUS
 62
     7
 10
231.9594430898
 20
199.5670547221
 30
0.0
 11
232.4594441031
 21
199.5670547221
 31
0.0
  0
LINE
  5
313
  8
0
  6
CONTINUOUS
 62
     7
 10
231.9594430898
 20
119.5670565102
 30
0.0
 11
232.4594441031
 21
119.5670565102
 31
0.0
  0
LINE
  5
314
  8
0
  6
CONTINUOUS
 62
     7
 10
164.4594422702
 20
199.5670547221
 30
0.0
 11
164.9594432835
 21
199.5670547221
 31
0.0
  0
LINE
  5
315
  8
0
  6
CONTINUOUS
 62
     7
 10
164.4594422702
 20
119.5670565102
 30
0.0
 11
164.9594432835
 21
119.5670565102
 31
0.0
  0
LINE
  5
316
  8
0
  6
CONTINUOUS
 62
     7
 10
236.4594428961
 20
199.5670547221
 30
0.0
 11
236.9594439094
 21
199.5670547221
 31
0.0
  0
LINE
  5
317
  8
0
  6
CONTINUOUS
 62
     7
 10
236.4594428961
 20
119.5670565102
 30
0.0
 11
236.9594439094
 21
119.5670565102
 31
0.0
  0
LINE
  5
318
  8
0
  6
CONTINUOUS
 62
     7
 10
255.2287778978
 20
199.5670547221
 30
0.0
 11
255.2287778978
 21
119.5670565102
 31
0.0
  0
LINE
  5
319
  8
0
  6
CONTINUOUS
 62
     7
 10
254.7358623867
 20
199.5670547221
 30
0.0
 11
255.2287778978
 21
199.5670547221
 31
0.0
  0
LINE
  5
31A
  8
0
  6
CONTINUOUS
 62
     7
 10
255.2287778978
 20
119.5670565102
 30
0.0
 11
254.7358623867
 21
119.5670565102
 31
0.0
  0
LINE
  5
31B
  8
0
  6
CONTINUOUS
 62
     7
 10
155.1907858972
 20
199.5670547221
 30
0.0
 11
155.1907858972
 21
119.5670565102
 31
0.0
  0
LINE
  5
31C
  8
0
  6
CONTINUOUS
 62
     7
 10
155.1907858972
 20
199.5670547221
 30
0.0
 11
155.6837014083
 21
199.5670547221
 31
0.0
  0
LINE
  5
31D
  8
0
  6
CONTINUOUS
 62
     7
 10
155.6837014083
 20
119.5670565102
 30
0.0
 11
155.1907858972
 21
119.5670565102
 31
0.0
  0
LINE
  5
31E
  8
0
  6
CONTINUOUS
 62
     7
 10
255.2472329859
 20
199.5670547221
 30
0.0
 11
255.2472329859
 21
119.5670565102
 31
0.0
  0
LINE
  5
31F
  8
0
  6
CONTINUOUS
 62
     7
 10
255.2287778978
 20
199.5670547221
 30
0.0
 11
255.2472329859
 21
199.5670547221
 31
0.0
  0
LINE
  5
320
  8
0
  6
CONTINUOUS
 62
     7
 10
255.2287778978
 20
119.5670565102
 30
0.0
 11
255.2472329859
 21
119.5670565102
 31
0.0
  0
LINE
  5
321
  8
0
  6
CONTINUOUS
 62
     7
 10
155.1723308091
 20
199.5670547221
 30
0.0
 11
155.1723308091
 21
119.5670565102
 31
0.0
  0
LINE
  5
322
  8
0
  6
CONTINUOUS
 62
     7
 10
155.1907858972
 20
199.5670547221
 30
0.0
 11
155.1723308091
 21
199.5670547221
 31
0.0
  0
LINE
  5
323
  8
0
  6
CONTINUOUS
 62
     7
 10
155.1907858972
 20
119.5670565102
 30
0.0
 11
155.1723308091
 21
119.5670565102
 31
0.0
  0
LINE
  5
324
  8
0
  6
CONTINUOUS
 62
     7
 10
154.4572911386
 20
199.5670547221
 30
0.0
 11
154.4572911386
 21
119.5670565102
 31
0.0
  0
LINE
  5
325
  8
0
  6
CONTINUOUS
 62
     7
 10
153.916311932
 20
199.5670547221
 30
0.0
 11
153.916311932
 21
119.5670565102
 31
0.0
  0
LINE
  5
326
  8
0
  6
CONTINUOUS
 62
     7
 10
153.916311932
 20
199.5670547221
 30
0.0
 11
154.4572911386
 21
199.5670547221
 31
0.0
  0
LINE
  5
327
  8
0
  6
CONTINUOUS
 62
     7
 10
154.4572911386
 20
119.5670565102
 30
0.0
 11
153.916311932
 21
119.5670565102
 31
0.0
  0
LINE
  5
328
  8
0
  6
CONTINUOUS
 62
     7
 10
255.9622726564
 20
199.5670547221
 30
0.0
 11
255.9622726564
 21
119.5670565102
 31
0.0
  0
LINE
  5
329
  8
0
  6
CONTINUOUS
 62
     7
 10
256.503251863
 20
199.5670547221
 30
0.0
 11
256.503251863
 21
119.5670565102
 31
0.0
  0
LINE
  5
32A
  8
0
  6
CONTINUOUS
 62
     7
 10
255.9622726564
 20
199.5670547221
 30
0.0
 11
256.503251863
 21
199.5670547221
 31
0.0
  0
LINE
  5
32B
  8
0
  6
CONTINUOUS
 62
     7
 10
256.503251863
 20
119.5670565102
 30
0.0
 11
255.9622726564
 21
119.5670565102
 31
0.0
  0
LINE
  5
32C
  8
0
  6
CONTINUOUS
 62
     7
 10
154.6833380286
 20
199.5670547221
 30
0.0
 11
154.6833380286
 21
119.5670565102
 31
0.0
  0
LINE
  5
32D
  8
0
  6
CONTINUOUS
 62
     7
 10
154.6833380286
 20
199.5670547221
 30
0.0
 11
154.4572911386
 21
199.5670547221
 31
0.0
  0
LINE
  5
32E
  8
0
  6
CONTINUOUS
 62
     7
 10
154.6833380286
 20
119.5670565102
 30
0.0
 11
154.4572911386
 21
119.5670565102
 31
0.0
  0
LINE
  5
32F
  8
0
  6
CONTINUOUS
 62
     7
 10
255.7362257664
 20
199.5670547221
 30
0.0
 11
255.7362257664
 21
119.5670565102
 31
0.0
  0
LINE
  5
330
  8
0
  6
CONTINUOUS
 62
     7
 10
255.7362257664
 20
199.5670547221
 30
0.0
 11
255.9622726564
 21
199.5670547221
 31
0.0
  0
LINE
  5
331
  8
0
  6
CONTINUOUS
 62
     7
 10
255.7362257664
 20
119.5670565102
 30
0.0
 11
255.9622726564
 21
119.5670565102
 31
0.0
  0
LINE
  5
332
  8
0
  6
CONTINUOUS
 62
     7
 10
255.2472329859
 20
199.5670547221
 30
0.0
 11
255.7362257664
 21
199.5670547221
 31
0.0
  0
LINE
  5
333
  8
0
  6
CONTINUOUS
 62
     7
 10
255.2472329859
 20
119.5670565102
 30
0.0
 11
255.7362257664
 21
119.5670565102
 31
0.0
  0
LINE
  5
334
  8
0
  6
CONTINUOUS
 62
     7
 10
155.1723308091
 20
199.5670547221
 30
0.0
 11
154.6833380286
 21
199.5670547221
 31
0.0
  0
LINE
  5
335
  8
0
  6
CONTINUOUS
 62
     7
 10
155.1723308091
 20
119.5670565102
 30
0.0
 11
154.6833380286
 21
119.5670565102
 31
0.0
  0
LINE
  5
336
  8
0
  6
CONTINUOUS
 62
     7
 10
257.220314366
 20
199.5670547221
 30
0.0
 11
257.220314366
 21
119.5670565102
 31
0.0
  0
LINE
  5
337
  8
0
  6
CONTINUOUS
 62
     7
 10
257.747003359
 20
199.5670547221
 30
0.0
 11
257.747003359
 21
119.5670565102
 31
0.0
  0
LINE
  5
338
  8
0
  6
CONTINUOUS
 62
     7
 10
257.220314366
 20
199.5670547221
 30
0.0
 11
257.747003359
 21
199.5670547221
 31
0.0
  0
LINE
  5
339
  8
0
  6
CONTINUOUS
 62
     7
 10
257.747003359
 20
119.5670565102
 30
0.0
 11
257.220314366
 21
119.5670565102
 31
0.0
  0
LINE
  5
33A
  8
0
  6
CONTINUOUS
 62
     7
 10
153.1992494289
 20
199.5670547221
 30
0.0
 11
153.1992494289
 21
119.5670565102
 31
0.0
  0
LINE
  5
33B
  8
0
  6
CONTINUOUS
 62
     7
 10
152.672560436
 20
199.5670547221
 30
0.0
 11
152.672560436
 21
119.5670565102
 31
0.0
  0
LINE
  5
33C
  8
0
  6
CONTINUOUS
 62
     7
 10
152.672560436
 20
199.5670547221
 30
0.0
 11
153.1992494289
 21
199.5670547221
 31
0.0
  0
LINE
  5
33D
  8
0
  6
CONTINUOUS
 62
     7
 10
153.1992494289
 20
119.5670565102
 30
0.0
 11
152.672560436
 21
119.5670565102
 31
0.0
  0
LINE
  5
33E
  8
0
  6
CONTINUOUS
 62
     7
 10
256.954999191
 20
199.5670547221
 30
0.0
 11
256.954999191
 21
119.5670565102
 31
0.0
  0
LINE
  5
33F
  8
0
  6
CONTINUOUS
 62
     7
 10
256.954999191
 20
199.5670547221
 30
0.0
 11
257.220314366
 21
199.5670547221
 31
0.0
  0
LINE
  5
340
  8
0
  6
CONTINUOUS
 62
     7
 10
256.954999191
 20
119.5670565102
 30
0.0
 11
257.220314366
 21
119.5670565102
 31
0.0
  0
LINE
  5
341
  8
0
  6
CONTINUOUS
 62
     7
 10
153.464564604
 20
199.5670547221
 30
0.0
 11
153.464564604
 21
119.5670565102
 31
0.0
  0
LINE
  5
342
  8
0
  6
CONTINUOUS
 62
     7
 10
153.464564604
 20
199.5670547221
 30
0.0
 11
153.1992494289
 21
199.5670547221
 31
0.0
  0
LINE
  5
343
  8
0
  6
CONTINUOUS
 62
     7
 10
153.464564604
 20
119.5670565102
 30
0.0
 11
153.1992494289
 21
119.5670565102
 31
0.0
  0
LINE
  5
344
  8
0
  6
CONTINUOUS
 62
     7
 10
153.916311932
 20
199.5670547221
 30
0.0
 11
153.464564604
 21
199.5670547221
 31
0.0
  0
LINE
  5
345
  8
0
  6
CONTINUOUS
 62
     7
 10
153.916311932
 20
119.5670565102
 30
0.0
 11
153.464564604
 21
119.5670565102
 31
0.0
  0
LINE
  5
346
  8
0
  6
CONTINUOUS
 62
     7
 10
256.503251863
 20
199.5670547221
 30
0.0
 11
256.954999191
 21
199.5670547221
 31
0.0
  0
LINE
  5
347
  8
0
  6
CONTINUOUS
 62
     7
 10
256.503251863
 20
119.5670565102
 30
0.0
 11
256.954999191
 21
119.5670565102
 31
0.0
  0
LINE
  5
348
  8
0
  6
CONTINUOUS
 62
     7
 10
151.9773840134
 20
199.5670547221
 30
0.0
 11
151.9773840134
 21
119.5670565102
 31
0.0
  0
LINE
  5
349
  8
0
  6
CONTINUOUS
 62
     7
 10
152.2799483661
 20
199.5670547221
 30
0.0
 11
152.2799483661
 21
119.5670565102
 31
0.0
  0
LINE
  5
34A
  8
0
  6
CONTINUOUS
 62
     7
 10
152.2799483661
 20
199.5670547221
 30
0.0
 11
151.9773840134
 21
199.5670547221
 31
0.0
  0
LINE
  5
34B
  8
0
  6
CONTINUOUS
 62
     7
 10
152.2799483661
 20
119.5670565102
 30
0.0
 11
151.9773840134
 21
119.5670565102
 31
0.0
  0
LINE
  5
34C
  8
0
  6
CONTINUOUS
 62
     7
 10
151.4689936463
 20
199.5670547221
 30
0.0
 11
151.4689936463
 21
119.5670565102
 31
0.0
  0
LINE
  5
34D
  8
0
  6
CONTINUOUS
 62
     7
 10
151.4689936463
 20
199.5670547221
 30
0.0
 11
151.9773840134
 21
199.5670547221
 31
0.0
  0
LINE
  5
34E
  8
0
  6
CONTINUOUS
 62
     7
 10
151.9773840134
 20
119.5670565102
 30
0.0
 11
151.4689936463
 21
119.5670565102
 31
0.0
  0
LINE
  5
34F
  8
0
  6
CONTINUOUS
 62
     7
 10
258.1396154289
 20
199.5670547221
 30
0.0
 11
258.1396154289
 21
119.5670565102
 31
0.0
  0
LINE
  5
350
  8
0
  6
CONTINUOUS
 62
     7
 10
258.4421797816
 20
199.5670547221
 30
0.0
 11
258.4421797816
 21
119.5670565102
 31
0.0
  0
LINE
  5
351
  8
0
  6
CONTINUOUS
 62
     7
 10
258.1396154289
 20
199.5670547221
 30
0.0
 11
258.4421797816
 21
199.5670547221
 31
0.0
  0
LINE
  5
352
  8
0
  6
CONTINUOUS
 62
     7
 10
258.1396154289
 20
119.5670565102
 30
0.0
 11
258.4421797816
 21
119.5670565102
 31
0.0
  0
LINE
  5
353
  8
0
  6
CONTINUOUS
 62
     7
 10
258.9505701487
 20
199.5670547221
 30
0.0
 11
258.9505701487
 21
119.5670565102
 31
0.0
  0
LINE
  5
354
  8
0
  6
CONTINUOUS
 62
     7
 10
258.4421797816
 20
199.5670547221
 30
0.0
 11
258.9505701487
 21
199.5670547221
 31
0.0
  0
LINE
  5
355
  8
0
  6
CONTINUOUS
 62
     7
 10
258.9505701487
 20
119.5670565102
 30
0.0
 11
258.4421797816
 21
119.5670565102
 31
0.0
  0
LINE
  5
356
  8
0
  6
CONTINUOUS
 62
     7
 10
257.747003359
 20
199.5670547221
 30
0.0
 11
258.1396154289
 21
199.5670547221
 31
0.0
  0
LINE
  5
357
  8
0
  6
CONTINUOUS
 62
     7
 10
257.747003359
 20
119.5670565102
 30
0.0
 11
258.1396154289
 21
119.5670565102
 31
0.0
  0
LINE
  5
358
  8
0
  6
CONTINUOUS
 62
     7
 10
152.672560436
 20
199.5670547221
 30
0.0
 11
152.2799483661
 21
199.5670547221
 31
0.0
  0
LINE
  5
359
  8
0
  6
CONTINUOUS
 62
     7
 10
152.672560436
 20
119.5670565102
 30
0.0
 11
152.2799483661
 21
119.5670565102
 31
0.0
  0
LINE
  5
35A
  8
0
  6
CONTINUOUS
 62
     7
 10
259.6185705785
 20
199.5670547221
 30
0.0
 11
259.6185705785
 21
119.5670565102
 31
0.0
  0
LINE
  5
35B
  8
0
  6
CONTINUOUS
 62
     7
 10
260.104791743
 20
199.5670547221
 30
0.0
 11
260.104791743
 21
119.5670565102
 31
0.0
  0
LINE
  5
35C
  8
0
  6
CONTINUOUS
 62
     7
 10
259.6185705785
 20
199.5670547221
 30
0.0
 11
260.104791743
 21
199.5670547221
 31
0.0
  0
LINE
  5
35D
  8
0
  6
CONTINUOUS
 62
     7
 10
260.104791743
 20
119.5670565102
 30
0.0
 11
259.6185705785
 21
119.5670565102
 31
0.0
  0
LINE
  5
35E
  8
0
  6
CONTINUOUS
 62
     7
 10
259.2810555522
 20
199.5670547221
 30
0.0
 11
259.2810555522
 21
119.5670565102
 31
0.0
  0
LINE
  5
35F
  8
0
  6
CONTINUOUS
 62
     7
 10
259.2810555522
 20
199.5670547221
 30
0.0
 11
259.6185705785
 21
199.5670547221
 31
0.0
  0
LINE
  5
360
  8
0
  6
CONTINUOUS
 62
     7
 10
259.2810555522
 20
119.5670565102
 30
0.0
 11
259.6185705785
 21
119.5670565102
 31
0.0
  0
LINE
  5
361
  8
0
  6
CONTINUOUS
 62
     7
 10
150.8009932165
 20
199.5670547221
 30
0.0
 11
150.8009932165
 21
119.5670565102
 31
0.0
  0
LINE
  5
362
  8
0
  6
CONTINUOUS
 62
     7
 10
151.1385082428
 20
199.5670547221
 30
0.0
 11
151.1385082428
 21
119.5670565102
 31
0.0
  0
LINE
  5
363
  8
0
  6
CONTINUOUS
 62
     7
 10
151.1385082428
 20
199.5670547221
 30
0.0
 11
150.8009932165
 21
199.5670547221
 31
0.0
  0
LINE
  5
364
  8
0
  6
CONTINUOUS
 62
     7
 10
151.1385082428
 20
119.5670565102
 30
0.0
 11
150.8009932165
 21
119.5670565102
 31
0.0
  0
LINE
  5
365
  8
0
  6
CONTINUOUS
 62
     7
 10
150.314772052
 20
199.5670547221
 30
0.0
 11
150.314772052
 21
119.5670565102
 31
0.0
  0
LINE
  5
366
  8
0
  6
CONTINUOUS
 62
     7
 10
150.314772052
 20
199.5670547221
 30
0.0
 11
150.8009932165
 21
199.5670547221
 31
0.0
  0
LINE
  5
367
  8
0
  6
CONTINUOUS
 62
     7
 10
150.8009932165
 20
119.5670565102
 30
0.0
 11
150.314772052
 21
119.5670565102
 31
0.0
  0
LINE
  5
368
  8
0
  6
CONTINUOUS
 62
     7
 10
258.9505701487
 20
199.5670547221
 30
0.0
 11
259.2810555522
 21
199.5670547221
 31
0.0
  0
LINE
  5
369
  8
0
  6
CONTINUOUS
 62
     7
 10
258.9505701487
 20
119.5670565102
 30
0.0
 11
259.2810555522
 21
119.5670565102
 31
0.0
  0
LINE
  5
36A
  8
0
  6
CONTINUOUS
 62
     7
 10
151.4689936463
 20
199.5670547221
 30
0.0
 11
151.1385082428
 21
199.5670547221
 31
0.0
  0
LINE
  5
36B
  8
0
  6
CONTINUOUS
 62
     7
 10
151.4689936463
 20
119.5670565102
 30
0.0
 11
151.1385082428
 21
119.5670565102
 31
0.0
  0
LINE
  5
36C
  8
0
  6
CONTINUOUS
 62
     7
 10
260.7405274336
 20
199.5670547221
 30
0.0
 11
260.7405274336
 21
119.5670565102
 31
0.0
  0
LINE
  5
36D
  8
0
  6
CONTINUOUS
 62
     7
 10
261.2008839075
 20
199.5670547221
 30
0.0
 11
261.2008839075
 21
119.5670565102
 31
0.0
  0
LINE
  5
36E
  8
0
  6
CONTINUOUS
 62
     7
 10
260.7405274336
 20
199.5670547221
 30
0.0
 11
261.2008839075
 21
199.5670547221
 31
0.0
  0
LINE
  5
36F
  8
0
  6
CONTINUOUS
 62
     7
 10
261.2008839075
 20
119.5670565102
 30
0.0
 11
260.7405274336
 21
119.5670565102
 31
0.0
  0
LINE
  5
370
  8
0
  6
CONTINUOUS
 62
     7
 10
260.3706396346
 20
199.5670547221
 30
0.0
 11
260.3706396346
 21
119.5670565102
 31
0.0
  0
LINE
  5
371
  8
0
  6
CONTINUOUS
 62
     7
 10
260.3706396346
 20
199.5670547221
 30
0.0
 11
260.7405274336
 21
199.5670547221
 31
0.0
  0
LINE
  5
372
  8
0
  6
CONTINUOUS
 62
     7
 10
260.3706396346
 20
119.5670565102
 30
0.0
 11
260.7405274336
 21
119.5670565102
 31
0.0
  0
LINE
  5
373
  8
0
  6
CONTINUOUS
 62
     7
 10
149.6790363614
 20
199.5670547221
 30
0.0
 11
149.6790363614
 21
119.5670565102
 31
0.0
  0
LINE
  5
374
  8
0
  6
CONTINUOUS
 62
     7
 10
149.2186798875
 20
199.5670547221
 30
0.0
 11
149.2186798875
 21
119.5670565102
 31
0.0
  0
LINE
  5
375
  8
0
  6
CONTINUOUS
 62
     7
 10
149.2186798875
 20
199.5670547221
 30
0.0
 11
149.6790363614
 21
199.5670547221
 31
0.0
  0
LINE
  5
376
  8
0
  6
CONTINUOUS
 62
     7
 10
149.6790363614
 20
119.5670565102
 30
0.0
 11
149.2186798875
 21
119.5670565102
 31
0.0
  0
LINE
  5
377
  8
0
  6
CONTINUOUS
 62
     7
 10
150.0489241604
 20
199.5670547221
 30
0.0
 11
150.0489241604
 21
119.5670565102
 31
0.0
  0
LINE
  5
378
  8
0
  6
CONTINUOUS
 62
     7
 10
150.0489241604
 20
199.5670547221
 30
0.0
 11
149.6790363614
 21
199.5670547221
 31
0.0
  0
LINE
  5
379
  8
0
  6
CONTINUOUS
 62
     7
 10
150.0489241604
 20
119.5670565102
 30
0.0
 11
149.6790363614
 21
119.5670565102
 31
0.0
  0
LINE
  5
37A
  8
0
  6
CONTINUOUS
 62
     7
 10
150.314772052
 20
199.5670547221
 30
0.0
 11
150.0489241604
 21
199.5670547221
 31
0.0
  0
LINE
  5
37B
  8
0
  6
CONTINUOUS
 62
     7
 10
150.314772052
 20
119.5670565102
 30
0.0
 11
150.0489241604
 21
119.5670565102
 31
0.0
  0
LINE
  5
37C
  8
0
  6
CONTINUOUS
 62
     7
 10
260.104791743
 20
199.5670547221
 30
0.0
 11
260.3706396346
 21
199.5670547221
 31
0.0
  0
LINE
  5
37D
  8
0
  6
CONTINUOUS
 62
     7
 10
260.104791743
 20
119.5670565102
 30
0.0
 11
260.3706396346
 21
119.5670565102
 31
0.0
  0
LINE
  5
37E
  8
0
  6
CONTINUOUS
 62
     7
 10
261.4000677292
 20
199.5670547221
 30
0.0
 11
261.4000677292
 21
119.5670565102
 31
0.0
  0
LINE
  5
37F
  8
0
  6
CONTINUOUS
 62
     7
 10
261.799519432
 20
199.5670547221
 30
0.0
 11
261.799519432
 21
119.5670565102
 31
0.0
  0
LINE
  5
380
  8
0
  6
CONTINUOUS
 62
     7
 10
261.4000677292
 20
199.5670547221
 30
0.0
 11
261.799519432
 21
199.5670547221
 31
0.0
  0
LINE
  5
381
  8
0
  6
CONTINUOUS
 62
     7
 10
261.4000677292
 20
119.5670565102
 30
0.0
 11
261.799519432
 21
119.5670565102
 31
0.0
  0
LINE
  5
382
  8
0
  6
CONTINUOUS
 62
     7
 10
148.620044363
 20
199.5670547221
 30
0.0
 11
148.620044363
 21
119.5670565102
 31
0.0
  0
LINE
  5
383
  8
0
  6
CONTINUOUS
 62
     7
 10
149.0194960658
 20
199.5670547221
 30
0.0
 11
149.0194960658
 21
119.5670565102
 31
0.0
  0
LINE
  5
384
  8
0
  6
CONTINUOUS
 62
     7
 10
149.0194960658
 20
199.5670547221
 30
0.0
 11
148.620044363
 21
199.5670547221
 31
0.0
  0
LINE
  5
385
  8
0
  6
CONTINUOUS
 62
     7
 10
149.0194960658
 20
119.5670565102
 30
0.0
 11
148.620044363
 21
119.5670565102
 31
0.0
  0
LINE
  5
386
  8
0
  6
CONTINUOUS
 62
     7
 10
148.1890580778
 20
199.5670547221
 30
0.0
 11
148.1890580778
 21
119.5670565102
 31
0.0
  0
LINE
  5
387
  8
0
  6
CONTINUOUS
 62
     7
 10
148.1890580778
 20
199.5670547221
 30
0.0
 11
148.620044363
 21
199.5670547221
 31
0.0
  0
LINE
  5
388
  8
0
  6
CONTINUOUS
 62
     7
 10
148.620044363
 20
119.5670565102
 30
0.0
 11
148.1890580778
 21
119.5670565102
 31
0.0
  0
LINE
  5
389
  8
0
  6
CONTINUOUS
 62
     7
 10
262.2305057172
 20
199.5670547221
 30
0.0
 11
262.2305057172
 21
119.5670565102
 31
0.0
  0
LINE
  5
38A
  8
0
  6
CONTINUOUS
 62
     7
 10
261.799519432
 20
199.5670547221
 30
0.0
 11
262.2305057172
 21
199.5670547221
 31
0.0
  0
LINE
  5
38B
  8
0
  6
CONTINUOUS
 62
     7
 10
262.2305057172
 20
119.5670565102
 30
0.0
 11
261.799519432
 21
119.5670565102
 31
0.0
  0
LINE
  5
38C
  8
0
  6
CONTINUOUS
 62
     7
 10
149.2186798875
 20
199.5670547221
 30
0.0
 11
149.0194960658
 21
199.5670547221
 31
0.0
  0
LINE
  5
38D
  8
0
  6
CONTINUOUS
 62
     7
 10
149.2186798875
 20
119.5670565102
 30
0.0
 11
149.0194960658
 21
119.5670565102
 31
0.0
  0
LINE
  5
38E
  8
0
  6
CONTINUOUS
 62
     7
 10
261.2008839075
 20
199.5670547221
 30
0.0
 11
261.4000677292
 21
199.5670547221
 31
0.0
  0
LINE
  5
38F
  8
0
  6
CONTINUOUS
 62
     7
 10
261.2008839075
 20
119.5670565102
 30
0.0
 11
261.4000677292
 21
119.5670565102
 31
0.0
  0
LINE
  5
390
  8
0
  6
CONTINUOUS
 62
     7
 10
148.0580582444
 20
199.5670547221
 30
0.0
 11
148.0580582444
 21
119.5670565102
 31
0.0
  0
LINE
  5
391
  8
0
  6
CONTINUOUS
 62
     7
 10
148.1890580778
 20
199.5670547221
 30
0.0
 11
148.0580582444
 21
199.5670547221
 31
0.0
  0
LINE
  5
392
  8
0
  6
CONTINUOUS
 62
     7
 10
148.1890580778
 20
119.5670565102
 30
0.0
 11
148.0580582444
 21
119.5670565102
 31
0.0
  0
LINE
  5
393
  8
0
  6
CONTINUOUS
 62
     7
 10
262.3615055506
 20
199.5670547221
 30
0.0
 11
262.3615055506
 21
119.5670565102
 31
0.0
  0
LINE
  5
394
  8
0
  6
CONTINUOUS
 62
     7
 10
262.2305057172
 20
199.5670547221
 30
0.0
 11
262.3615055506
 21
199.5670547221
 31
0.0
  0
LINE
  5
395
  8
0
  6
CONTINUOUS
 62
     7
 10
262.2305057172
 20
119.5670565102
 30
0.0
 11
262.3615055506
 21
119.5670565102
 31
0.0
  0
LINE
  5
396
  8
0
  6
CONTINUOUS
 62
     7
 10
262.7874850456
 20
199.5670547221
 30
0.0
 11
262.7874850456
 21
119.5670565102
 31
0.0
  0
LINE
  5
397
  8
0
  6
CONTINUOUS
 62
     7
 10
262.3615055506
 20
199.5670547221
 30
0.0
 11
262.7874850456
 21
199.5670547221
 31
0.0
  0
LINE
  5
398
  8
0
  6
CONTINUOUS
 62
     7
 10
262.3615055506
 20
119.5670565102
 30
0.0
 11
262.7874850456
 21
119.5670565102
 31
0.0
  0
LINE
  5
399
  8
0
  6
CONTINUOUS
 62
     7
 10
263.1858154361
 20
199.5670547221
 30
0.0
 11
263.1858154361
 21
119.5670565102
 31
0.0
  0
LINE
  5
39A
  8
0
  6
CONTINUOUS
 62
     7
 10
262.7874850456
 20
199.5670547221
 30
0.0
 11
263.1858154361
 21
199.5670547221
 31
0.0
  0
LINE
  5
39B
  8
0
  6
CONTINUOUS
 62
     7
 10
263.1858154361
 20
119.5670565102
 30
0.0
 11
262.7874850456
 21
119.5670565102
 31
0.0
  0
LINE
  5
39C
  8
0
  6
CONTINUOUS
 62
     7
 10
147.6320787494
 20
199.5670547221
 30
0.0
 11
147.6320787494
 21
119.5670565102
 31
0.0
  0
LINE
  5
39D
  8
0
  6
CONTINUOUS
 62
     7
 10
147.2337483589
 20
199.5670547221
 30
0.0
 11
147.2337483589
 21
119.5670565102
 31
0.0
  0
LINE
  5
39E
  8
0
  6
CONTINUOUS
 62
     7
 10
147.2337483589
 20
199.5670547221
 30
0.0
 11
147.6320787494
 21
199.5670547221
 31
0.0
  0
LINE
  5
39F
  8
0
  6
CONTINUOUS
 62
     7
 10
147.6320787494
 20
119.5670565102
 30
0.0
 11
147.2337483589
 21
119.5670565102
 31
0.0
  0
LINE
  5
3A0
  8
0
  6
CONTINUOUS
 62
     7
 10
148.0580582444
 20
199.5670547221
 30
0.0
 11
147.6320787494
 21
199.5670547221
 31
0.0
  0
LINE
  5
3A1
  8
0
  6
CONTINUOUS
 62
     7
 10
148.0580582444
 20
119.5670565102
 30
0.0
 11
147.6320787494
 21
119.5670565102
 31
0.0
  0
LINE
  5
3A2
  8
0
  6
CONTINUOUS
 62
     7
 10
147.1719197158
 20
199.5670547221
 30
0.0
 11
147.1719197158
 21
119.5670565102
 31
0.0
  0
LINE
  5
3A3
  8
0
  6
CONTINUOUS
 62
     7
 10
147.2337483589
 20
199.5670547221
 30
0.0
 11
147.1719197158
 21
199.5670547221
 31
0.0
  0
LINE
  5
3A4
  8
0
  6
CONTINUOUS
 62
     7
 10
147.2337483589
 20
119.5670565102
 30
0.0
 11
147.1719197158
 21
119.5670565102
 31
0.0
  0
LINE
  5
3A5
  8
0
  6
CONTINUOUS
 62
     7
 10
263.2476440792
 20
199.5670547221
 30
0.0
 11
263.2476440792
 21
119.5670565102
 31
0.0
  0
LINE
  5
3A6
  8
0
  6
CONTINUOUS
 62
     7
 10
263.1858154361
 20
199.5670547221
 30
0.0
 11
263.2476440792
 21
199.5670547221
 31
0.0
  0
LINE
  5
3A7
  8
0
  6
CONTINUOUS
 62
     7
 10
263.1858154361
 20
119.5670565102
 30
0.0
 11
263.2476440792
 21
119.5670565102
 31
0.0
  0
LINE
  5
3A8
  8
0
  6
CONTINUOUS
 62
     7
 10
263.6969029133
 20
199.5670547221
 30
0.0
 11
263.6969029133
 21
119.5670565102
 31
0.0
  0
LINE
  5
3A9
  8
0
  6
CONTINUOUS
 62
     7
 10
264.0595524733
 20
199.5670547221
 30
0.0
 11
264.0595524733
 21
119.5670565102
 31
0.0
  0
LINE
  5
3AA
  8
0
  6
CONTINUOUS
 62
     7
 10
263.6969029133
 20
199.5670547221
 30
0.0
 11
264.0595524733
 21
199.5670547221
 31
0.0
  0
LINE
  5
3AB
  8
0
  6
CONTINUOUS
 62
     7
 10
264.0595524733
 20
119.5670565102
 30
0.0
 11
263.6969029133
 21
119.5670565102
 31
0.0
  0
LINE
  5
3AC
  8
0
  6
CONTINUOUS
 62
     7
 10
146.7226608817
 20
199.5670547221
 30
0.0
 11
146.7226608817
 21
119.5670565102
 31
0.0
  0
LINE
  5
3AD
  8
0
  6
CONTINUOUS
 62
     7
 10
146.3600113217
 20
199.5670547221
 30
0.0
 11
146.3600113217
 21
119.5670565102
 31
0.0
  0
LINE
  5
3AE
  8
0
  6
CONTINUOUS
 62
     7
 10
146.3600113217
 20
199.5670547221
 30
0.0
 11
146.7226608817
 21
199.5670547221
 31
0.0
  0
LINE
  5
3AF
  8
0
  6
CONTINUOUS
 62
     7
 10
146.7226608817
 20
119.5670565102
 30
0.0
 11
146.3600113217
 21
119.5670565102
 31
0.0
  0
LINE
  5
3B0
  8
0
  6
CONTINUOUS
 62
     7
 10
263.2476440792
 20
199.5670547221
 30
0.0
 11
263.6969029133
 21
199.5670547221
 31
0.0
  0
LINE
  5
3B1
  8
0
  6
CONTINUOUS
 62
     7
 10
263.2476440792
 20
119.5670565102
 30
0.0
 11
263.6969029133
 21
119.5670565102
 31
0.0
  0
LINE
  5
3B2
  8
0
  6
CONTINUOUS
 62
     7
 10
147.1719197158
 20
199.5670547221
 30
0.0
 11
146.7226608817
 21
199.5670547221
 31
0.0
  0
LINE
  5
3B3
  8
0
  6
CONTINUOUS
 62
     7
 10
147.1719197158
 20
119.5670565102
 30
0.0
 11
146.7226608817
 21
119.5670565102
 31
0.0
  0
LINE
  5
3B4
  8
0
  6
CONTINUOUS
 62
     7
 10
145.8987123494
 20
199.5670547221
 30
0.0
 11
145.8987123494
 21
119.5670565102
 31
0.0
  0
LINE
  5
3B5
  8
0
  6
CONTINUOUS
 62
     7
 10
146.3600113217
 20
199.5670547221
 30
0.0
 11
145.8987123494
 21
199.5670547221
 31
0.0
  0
LINE
  5
3B6
  8
0
  6
CONTINUOUS
 62
     7
 10
146.3600113217
 20
119.5670565102
 30
0.0
 11
145.8987123494
 21
119.5670565102
 31
0.0
  0
LINE
  5
3B7
  8
0
  6
CONTINUOUS
 62
     7
 10
264.5208514456
 20
199.5670547221
 30
0.0
 11
264.5208514456
 21
119.5670565102
 31
0.0
  0
LINE
  5
3B8
  8
0
  6
CONTINUOUS
 62
     7
 10
264.8450560097
 20
199.5670547221
 30
0.0
 11
264.8450560097
 21
119.5670565102
 31
0.0
  0
LINE
  5
3B9
  8
0
  6
CONTINUOUS
 62
     7
 10
264.5208514456
 20
199.5670547221
 30
0.0
 11
264.8450560097
 21
199.5670547221
 31
0.0
  0
LINE
  5
3BA
  8
0
  6
CONTINUOUS
 62
     7
 10
264.8450560097
 20
119.5670565102
 30
0.0
 11
264.5208514456
 21
119.5670565102
 31
0.0
  0
LINE
  5
3BB
  8
0
  6
CONTINUOUS
 62
     7
 10
145.5745077853
 20
199.5670547221
 30
0.0
 11
145.5745077853
 21
119.5670565102
 31
0.0
  0
LINE
  5
3BC
  8
0
  6
CONTINUOUS
 62
     7
 10
145.5745077853
 20
199.5670547221
 30
0.0
 11
145.8987123494
 21
199.5670547221
 31
0.0
  0
LINE
  5
3BD
  8
0
  6
CONTINUOUS
 62
     7
 10
145.8987123494
 20
119.5670565102
 30
0.0
 11
145.5745077853
 21
119.5670565102
 31
0.0
  0
LINE
  5
3BE
  8
0
  6
CONTINUOUS
 62
     7
 10
264.0595524733
 20
199.5670547221
 30
0.0
 11
264.5208514456
 21
199.5670547221
 31
0.0
  0
LINE
  5
3BF
  8
0
  6
CONTINUOUS
 62
     7
 10
264.0595524733
 20
119.5670565102
 30
0.0
 11
264.5208514456
 21
119.5670565102
 31
0.0
  0
LINE
  5
3C0
  8
0
  6
CONTINUOUS
 62
     7
 10
145.1664990906
 20
199.5670547221
 30
0.0
 11
145.1664990906
 21
119.5670565102
 31
0.0
  0
LINE
  5
3C1
  8
0
  6
CONTINUOUS
 62
     7
 10
145.5745077853
 20
199.5670547221
 30
0.0
 11
145.1664990906
 21
199.5670547221
 31
0.0
  0
LINE
  5
3C2
  8
0
  6
CONTINUOUS
 62
     7
 10
145.5745077853
 20
119.5670565102
 30
0.0
 11
145.1664990906
 21
119.5670565102
 31
0.0
  0
LINE
  5
3C3
  8
0
  6
CONTINUOUS
 62
     7
 10
144.8832056646
 20
199.5670547221
 30
0.0
 11
144.8832056646
 21
119.5670565102
 31
0.0
  0
LINE
  5
3C4
  8
0
  6
CONTINUOUS
 62
     7
 10
144.8832056646
 20
199.5670547221
 30
0.0
 11
145.1664990906
 21
199.5670547221
 31
0.0
  0
LINE
  5
3C5
  8
0
  6
CONTINUOUS
 62
     7
 10
145.1664990906
 20
119.5670565102
 30
0.0
 11
144.8832056646
 21
119.5670565102
 31
0.0
  0
LINE
  5
3C6
  8
0
  6
CONTINUOUS
 62
     7
 10
265.2530647044
 20
199.5670547221
 30
0.0
 11
265.2530647044
 21
119.5670565102
 31
0.0
  0
LINE
  5
3C7
  8
0
  6
CONTINUOUS
 62
     7
 10
265.5363581304
 20
199.5670547221
 30
0.0
 11
265.5363581304
 21
119.5670565102
 31
0.0
  0
LINE
  5
3C8
  8
0
  6
CONTINUOUS
 62
     7
 10
265.2530647044
 20
199.5670547221
 30
0.0
 11
265.5363581304
 21
199.5670547221
 31
0.0
  0
LINE
  5
3C9
  8
0
  6
CONTINUOUS
 62
     7
 10
265.5363581304
 20
119.5670565102
 30
0.0
 11
265.2530647044
 21
119.5670565102
 31
0.0
  0
LINE
  5
3CA
  8
0
  6
CONTINUOUS
 62
     7
 10
264.8450560097
 20
199.5670547221
 30
0.0
 11
265.2530647044
 21
199.5670547221
 31
0.0
  0
LINE
  5
3CB
  8
0
  6
CONTINUOUS
 62
     7
 10
264.8450560097
 20
119.5670565102
 30
0.0
 11
265.2530647044
 21
119.5670565102
 31
0.0
  0
LINE
  5
3CC
  8
0
  6
CONTINUOUS
 62
     7
 10
265.8879622046
 20
199.5670547221
 30
0.0
 11
265.8879622046
 21
119.5670565102
 31
0.0
  0
LINE
  5
3CD
  8
0
  6
CONTINUOUS
 62
     7
 10
266.1281912748
 20
199.5670547221
 30
0.0
 11
266.1281912748
 21
119.5670565102
 31
0.0
  0
LINE
  5
3CE
  8
0
  6
CONTINUOUS
 62
     7
 10
265.8879622046
 20
199.5670547221
 30
0.0
 11
266.1281912748
 21
199.5670547221
 31
0.0
  0
LINE
  5
3CF
  8
0
  6
CONTINUOUS
 62
     7
 10
266.1281912748
 20
119.5670565102
 30
0.0
 11
265.8879622046
 21
119.5670565102
 31
0.0
  0
LINE
  5
3D0
  8
0
  6
CONTINUOUS
 62
     7
 10
265.5363581304
 20
199.5670547221
 30
0.0
 11
265.8879622046
 21
199.5670547221
 31
0.0
  0
LINE
  5
3D1
  8
0
  6
CONTINUOUS
 62
     7
 10
265.5363581304
 20
119.5670565102
 30
0.0
 11
265.8879622046
 21
119.5670565102
 31
0.0
  0
LINE
  5
3D2
  8
0
  6
CONTINUOUS
 62
     7
 10
144.5316015903
 20
199.5670547221
 30
0.0
 11
144.5316015903
 21
119.5670565102
 31
0.0
  0
LINE
  5
3D3
  8
0
  6
CONTINUOUS
 62
     7
 10
144.2913725202
 20
199.5670547221
 30
0.0
 11
144.2913725202
 21
119.5670565102
 31
0.0
  0
LINE
  5
3D4
  8
0
  6
CONTINUOUS
 62
     7
 10
144.2913725202
 20
199.5670547221
 30
0.0
 11
144.5316015903
 21
199.5670547221
 31
0.0
  0
LINE
  5
3D5
  8
0
  6
CONTINUOUS
 62
     7
 10
144.5316015903
 20
119.5670565102
 30
0.0
 11
144.2913725202
 21
119.5670565102
 31
0.0
  0
LINE
  5
3D6
  8
0
  6
CONTINUOUS
 62
     7
 10
144.8832056646
 20
199.5670547221
 30
0.0
 11
144.5316015903
 21
199.5670547221
 31
0.0
  0
LINE
  5
3D7
  8
0
  6
CONTINUOUS
 62
     7
 10
144.8832056646
 20
119.5670565102
 30
0.0
 11
144.5316015903
 21
119.5670565102
 31
0.0
  0
LINE
  5
3D8
  8
0
  6
CONTINUOUS
 62
     7
 10
266.4207196955
 20
199.5670547221
 30
0.0
 11
266.4207196955
 21
119.5670565102
 31
0.0
  0
LINE
  5
3D9
  8
0
  6
CONTINUOUS
 62
     7
 10
266.616051567
 20
199.5670547221
 30
0.0
 11
266.616051567
 21
119.5670565102
 31
0.0
  0
LINE
  5
3DA
  8
0
  6
CONTINUOUS
 62
     7
 10
266.4207196955
 20
199.5670547221
 30
0.0
 11
266.616051567
 21
199.5670547221
 31
0.0
  0
LINE
  5
3DB
  8
0
  6
CONTINUOUS
 62
     7
 10
266.616051567
 20
119.5670565102
 30
0.0
 11
266.4207196955
 21
119.5670565102
 31
0.0
  0
LINE
  5
3DC
  8
0
  6
CONTINUOUS
 62
     7
 10
266.1281912748
 20
199.5670547221
 30
0.0
 11
266.4207196955
 21
199.5670547221
 31
0.0
  0
LINE
  5
3DD
  8
0
  6
CONTINUOUS
 62
     7
 10
266.1281912748
 20
119.5670565102
 30
0.0
 11
266.4207196955
 21
119.5670565102
 31
0.0
  0
LINE
  5
3DE
  8
0
  6
CONTINUOUS
 62
     7
 10
143.9988440995
 20
199.5670547221
 30
0.0
 11
143.9988440995
 21
119.5670565102
 31
0.0
  0
LINE
  5
3DF
  8
0
  6
CONTINUOUS
 62
     7
 10
144.2913725202
 20
199.5670547221
 30
0.0
 11
143.9988440995
 21
199.5670547221
 31
0.0
  0
LINE
  5
3E0
  8
0
  6
CONTINUOUS
 62
     7
 10
144.2913725202
 20
119.5670565102
 30
0.0
 11
143.9988440995
 21
119.5670565102
 31
0.0
  0
LINE
  5
3E1
  8
0
  6
CONTINUOUS
 62
     7
 10
143.803512228
 20
199.5670547221
 30
0.0
 11
143.803512228
 21
119.5670565102
 31
0.0
  0
LINE
  5
3E2
  8
0
  6
CONTINUOUS
 62
     7
 10
143.803512228
 20
199.5670547221
 30
0.0
 11
143.9988440995
 21
199.5670547221
 31
0.0
  0
LINE
  5
3E3
  8
0
  6
CONTINUOUS
 62
     7
 10
143.9988440995
 20
119.5670565102
 30
0.0
 11
143.803512228
 21
119.5670565102
 31
0.0
  0
LINE
  5
3E4
  8
0
  6
CONTINUOUS
 62
     7
 10
266.8472803359
 20
199.5670547221
 30
0.0
 11
266.8472803359
 21
119.5670565102
 31
0.0
  0
LINE
  5
3E5
  8
0
  6
CONTINUOUS
 62
     7
 10
266.616051567
 20
199.5670547221
 30
0.0
 11
266.8472803359
 21
199.5670547221
 31
0.0
  0
LINE
  5
3E6
  8
0
  6
CONTINUOUS
 62
     7
 10
266.616051567
 20
119.5670565102
 30
0.0
 11
266.8472803359
 21
119.5670565102
 31
0.0
  0
LINE
  5
3E7
  8
0
  6
CONTINUOUS
 62
     7
 10
266.9962323431
 20
199.5670547221
 30
0.0
 11
266.9962323431
 21
119.5670565102
 31
0.0
  0
LINE
  5
3E8
  8
0
  6
CONTINUOUS
 62
     7
 10
266.8472803359
 20
199.5670547221
 30
0.0
 11
266.9962323431
 21
199.5670547221
 31
0.0
  0
LINE
  5
3E9
  8
0
  6
CONTINUOUS
 62
     7
 10
266.9962323431
 20
119.5670565102
 30
0.0
 11
266.8472803359
 21
119.5670565102
 31
0.0
  0
LINE
  5
3EA
  8
0
  6
CONTINUOUS
 62
     7
 10
143.5722834591
 20
199.5670547221
 30
0.0
 11
143.5722834591
 21
119.5670565102
 31
0.0
  0
LINE
  5
3EB
  8
0
  6
CONTINUOUS
 62
     7
 10
143.803512228
 20
199.5670547221
 30
0.0
 11
143.5722834591
 21
199.5670547221
 31
0.0
  0
LINE
  5
3EC
  8
0
  6
CONTINUOUS
 62
     7
 10
143.803512228
 20
119.5670565102
 30
0.0
 11
143.5722834591
 21
119.5670565102
 31
0.0
  0
LINE
  5
3ED
  8
0
  6
CONTINUOUS
 62
     7
 10
143.4233314518
 20
199.5670547221
 30
0.0
 11
143.4233314518
 21
119.5670565102
 31
0.0
  0
LINE
  5
3EE
  8
0
  6
CONTINUOUS
 62
     7
 10
143.4233314518
 20
199.5670547221
 30
0.0
 11
143.5722834591
 21
199.5670547221
 31
0.0
  0
LINE
  5
3EF
  8
0
  6
CONTINUOUS
 62
     7
 10
143.5722834591
 20
119.5670565102
 30
0.0
 11
143.4233314518
 21
119.5670565102
 31
0.0
  0
LINE
  5
3F0
  8
0
  6
CONTINUOUS
 62
     7
 10
143.2551681225
 20
199.5670547221
 30
0.0
 11
143.2551681225
 21
119.5670565102
 31
0.0
  0
LINE
  5
3F1
  8
0
  6
CONTINUOUS
 62
     7
 10
143.4233314518
 20
199.5670547221
 30
0.0
 11
143.2551681225
 21
199.5670547221
 31
0.0
  0
LINE
  5
3F2
  8
0
  6
CONTINUOUS
 62
     7
 10
143.4233314518
 20
119.5670565102
 30
0.0
 11
143.2551681225
 21
119.5670565102
 31
0.0
  0
LINE
  5
3F3
  8
0
  6
CONTINUOUS
 62
     7
 10
267.1643956725
 20
199.5670547221
 30
0.0
 11
267.1643956725
 21
119.5670565102
 31
0.0
  0
LINE
  5
3F4
  8
0
  6
CONTINUOUS
 62
     7
 10
266.9962323431
 20
199.5670547221
 30
0.0
 11
267.1643956725
 21
199.5670547221
 31
0.0
  0
LINE
  5
3F5
  8
0
  6
CONTINUOUS
 62
     7
 10
266.9962323431
 20
119.5670565102
 30
0.0
 11
267.1643956725
 21
119.5670565102
 31
0.0
  0
LINE
  5
3F6
  8
0
  6
CONTINUOUS
 62
     7
 10
143.1537321929
 20
199.5670547221
 30
0.0
 11
143.1537321929
 21
119.5670565102
 31
0.0
  0
LINE
  5
3F7
  8
0
  6
CONTINUOUS
 62
     7
 10
143.1537321929
 20
199.5670547221
 30
0.0
 11
143.2551681225
 21
199.5670547221
 31
0.0
  0
LINE
  5
3F8
  8
0
  6
CONTINUOUS
 62
     7
 10
143.2551681225
 20
119.5670565102
 30
0.0
 11
143.1537321929
 21
119.5670565102
 31
0.0
  0
LINE
  5
3F9
  8
0
  6
CONTINUOUS
 62
     7
 10
267.265831602
 20
199.5670547221
 30
0.0
 11
267.265831602
 21
119.5670565102
 31
0.0
  0
LINE
  5
3FA
  8
0
  6
CONTINUOUS
 62
     7
 10
267.1643956725
 20
199.5670547221
 30
0.0
 11
267.265831602
 21
199.5670547221
 31
0.0
  0
LINE
  5
3FB
  8
0
  6
CONTINUOUS
 62
     7
 10
267.265831602
 20
119.5670565102
 30
0.0
 11
267.1643956725
 21
119.5670565102
 31
0.0
  0
LINE
  5
3FC
  8
0
  6
CONTINUOUS
 62
     7
 10
267.3696517174
 20
199.5670547221
 30
0.0
 11
267.3696517174
 21
119.5670565102
 31
0.0
  0
LINE
  5
3FD
  8
0
  6
CONTINUOUS
 62
     7
 10
267.265831602
 20
199.5670547221
 30
0.0
 11
267.3696517174
 21
199.5670547221
 31
0.0
  0
LINE
  5
3FE
  8
0
  6
CONTINUOUS
 62
     7
 10
267.265831602
 20
119.5670565102
 30
0.0
 11
267.3696517174
 21
119.5670565102
 31
0.0
  0
LINE
  5
3FF
  8
0
  6
CONTINUOUS
 62
     7
 10
143.0499120776
 20
199.5670547221
 30
0.0
 11
143.0499120776
 21
119.5670565102
 31
0.0
  0
LINE
  5
400
  8
0
  6
CONTINUOUS
 62
     7
 10
143.1537321929
 20
199.5670547221
 30
0.0
 11
143.0499120776
 21
199.5670547221
 31
0.0
  0
LINE
  5
401
  8
0
  6
CONTINUOUS
 62
     7
 10
143.1537321929
 20
119.5670565102
 30
0.0
 11
143.0499120776
 21
119.5670565102
 31
0.0
  0
LINE
  5
402
  8
0
  6
CONTINUOUS
 62
     7
 10
267.4228004341
 20
199.5670547221
 30
0.0
 11
267.4228004341
 21
119.5670565102
 31
0.0
  0
LINE
  5
403
  8
0
  6
CONTINUOUS
 62
     7
 10
267.3696517174
 20
199.5670547221
 30
0.0
 11
267.4228004341
 21
199.5670547221
 31
0.0
  0
LINE
  5
404
  8
0
  6
CONTINUOUS
 62
     7
 10
267.4228004341
 20
119.5670565102
 30
0.0
 11
267.3696517174
 21
119.5670565102
 31
0.0
  0
LINE
  5
405
  8
0
  6
CONTINUOUS
 62
     7
 10
142.9967633609
 20
199.5670547221
 30
0.0
 11
142.9967633609
 21
119.5670565102
 31
0.0
  0
LINE
  5
406
  8
0
  6
CONTINUOUS
 62
     7
 10
142.9967633609
 20
199.5670547221
 30
0.0
 11
143.0499120776
 21
199.5670547221
 31
0.0
  0
LINE
  5
407
  8
0
  6
CONTINUOUS
 62
     7
 10
143.0499120776
 20
119.5670565102
 30
0.0
 11
142.9967633609
 21
119.5670565102
 31
0.0
  0
LINE
  5
408
  8
0
  6
CONTINUOUS
 62
     7
 10
267.4614875738
 20
199.5670547221
 30
0.0
 11
267.4614875738
 21
119.5670565102
 31
0.0
  0
LINE
  5
409
  8
0
  6
CONTINUOUS
 62
     7
 10
267.4228004341
 20
199.5670547221
 30
0.0
 11
267.4614875738
 21
199.5670547221
 31
0.0
  0
LINE
  5
40A
  8
0
  6
CONTINUOUS
 62
     7
 10
267.4228004341
 20
119.5670565102
 30
0.0
 11
267.4614875738
 21
119.5670565102
 31
0.0
  0
LINE
  5
40B
  8
0
  6
CONTINUOUS
 62
     7
 10
142.9580762212
 20
199.5670547221
 30
0.0
 11
142.9580762212
 21
119.5670565102
 31
0.0
  0
LINE
  5
40C
  8
0
  6
CONTINUOUS
 62
     7
 10
142.9967633609
 20
199.5670547221
 30
0.0
 11
142.9580762212
 21
199.5670547221
 31
0.0
  0
LINE
  5
40D
  8
0
  6
CONTINUOUS
 62
     7
 10
142.9967633609
 20
119.5670565102
 30
0.0
 11
142.9580762212
 21
119.5670565102
 31
0.0
  0
LINE
  5
40E
  8
0
  6
CONTINUOUS
 62
     7
 10
267.4614875738
 20
199.5670547221
 30
0.0
 11
267.4667961125
 21
199.5670547221
 31
0.0
  0
LINE
  5
40F
  8
0
  6
CONTINUOUS
 62
     7
 10
267.4667961125
 20
119.5670565102
 30
0.0
 11
267.4614875738
 21
119.5670565102
 31
0.0
  0
LINE
  5
410
  8
0
  6
CONTINUOUS
 62
     7
 10
142.9527676825
 20
199.5670547221
 30
0.0
 11
142.9580762212
 21
199.5670547221
 31
0.0
  0
LINE
  5
411
  8
0
  6
CONTINUOUS
 62
     7
 10
142.9580762212
 20
119.5670565102
 30
0.0
 11
142.9527676825
 21
119.5670565102
 31
0.0
  0
INSERT
  5
421
  8
0
  6
CONTINUOUS
 62
     7
  2
SW_NOTE_0
 10
204.3189915463
 20
137.0022772277
 30
0.0
  0
ENDSEC
  0
EOF
