<?xml version="1.0" encoding="UTF-8"?>
<svg xmlns="http://www.w3.org/2000/svg" xmlns:xlink="http://www.w3.org/1999/xlink" width="220pt" height="210pt" viewBox="0 0 220 210" version="1.1">
<g id="surface1">
<path style=" stroke:none;fill-rule:evenodd;fill:rgb(0%,0%,0%);fill-opacity:1;" d="M 215.609375 203.703125 C 215.609375 202 213.058594 202 213.058594 203.703125 C 213.058594 205.402344 215.609375 205.402344 215.609375 203.703125 "/>
<path style=" stroke:none;fill-rule:evenodd;fill:rgb(0%,0%,0%);fill-opacity:1;" d="M 207.105469 203.703125 C 207.105469 202 204.554688 202 204.554688 203.703125 C 204.554688 205.402344 207.105469 205.402344 207.105469 203.703125 "/>
<path style=" stroke:none;fill-rule:evenodd;fill:rgb(0%,0%,0%);fill-opacity:1;" d="M 54.269531 201.554688 C 54.269531 199.664062 51.433594 199.664062 51.433594 201.554688 C 51.433594 203.445312 54.269531 203.445312 54.269531 201.554688 "/>
<path style=" stroke:none;fill-rule:evenodd;fill:rgb(0%,0%,0%);fill-opacity:1;" d="M 31.589844 201.554688 C 31.589844 199.664062 28.757812 199.664062 28.757812 201.554688 C 28.757812 203.445312 31.589844 203.445312 31.589844 201.554688 "/>
<path style=" stroke:none;fill-rule:evenodd;fill:rgb(0%,0%,0%);fill-opacity:1;" d="M 142.925781 26.808594 C 142.925781 24.917969 140.089844 24.917969 140.089844 26.808594 C 140.089844 28.699219 142.925781 28.699219 142.925781 26.808594 "/>
<path style=" stroke:none;fill-rule:evenodd;fill:rgb(0%,0%,0%);fill-opacity:1;" d="M 186.777344 26.808594 C 186.777344 24.917969 183.941406 24.917969 183.941406 26.808594 C 183.941406 28.699219 186.777344 28.699219 186.777344 26.808594 "/>
<path style=" stroke:none;fill-rule:evenodd;fill:rgb(0%,0%,0%);fill-opacity:1;" d="M 186.777344 5.546875 C 186.777344 3.660156 183.941406 3.660156 183.941406 5.546875 C 183.941406 7.4375 186.777344 7.4375 186.777344 5.546875 "/>
<path style=" stroke:none;fill-rule:evenodd;fill:rgb(0%,0%,0%);fill-opacity:1;" d="M 142.925781 5.546875 C 142.925781 3.660156 140.089844 3.660156 140.089844 5.546875 C 140.089844 7.4375 142.925781 7.4375 142.925781 5.546875 "/>
<path style=" stroke:none;fill-rule:evenodd;fill:rgb(0%,0%,0%);fill-opacity:1;" d="M 171.488281 77.390625 C 171.488281 75.3125 168.371094 75.3125 168.371094 77.390625 C 168.371094 79.472656 171.488281 79.472656 171.488281 77.390625 "/>
<path style=" stroke:none;fill-rule:evenodd;fill:rgb(0%,0%,0%);fill-opacity:1;" d="M 148.550781 141.570312 C 148.550781 139.488281 145.433594 139.488281 145.433594 141.570312 C 145.433594 143.648438 148.550781 143.648438 148.550781 141.570312 "/>
<path style=" stroke:none;fill-rule:evenodd;fill:rgb(0%,0%,0%);fill-opacity:1;" d="M 153.15625 114.746094 C 153.15625 112.667969 150.039062 112.667969 150.039062 114.746094 C 150.039062 116.828125 153.15625 116.828125 153.15625 114.746094 "/>
<path style=" stroke:none;fill-rule:evenodd;fill:rgb(0%,0%,0%);fill-opacity:1;" d="M 149.261719 70.703125 C 149.261719 67.679688 144.726562 67.679688 144.726562 70.703125 C 144.726562 73.726562 149.261719 73.726562 149.261719 70.703125 "/>
<path style=" stroke:none;fill-rule:evenodd;fill:rgb(0%,0%,0%);fill-opacity:1;" d="M 139.113281 182.515625 C 139.113281 176.277344 129.757812 176.277344 129.757812 182.515625 C 129.757812 188.75 139.113281 188.75 139.113281 182.515625 "/>
<path style=" stroke:none;fill-rule:evenodd;fill:rgb(0%,0%,0%);fill-opacity:1;" d="M 171.511719 182.515625 C 171.511719 176.277344 162.15625 176.277344 162.15625 182.515625 C 162.15625 188.75 171.511719 188.75 171.511719 182.515625 "/>
<path style=" stroke:none;fill-rule:evenodd;fill:rgb(0%,0%,0%);fill-opacity:1;" d="M 16.03125 140.433594 C 16.03125 133.253906 5.261719 133.253906 5.261719 140.433594 C 5.261719 147.617188 16.03125 147.617188 16.03125 140.433594 "/>
<path style=" stroke:none;fill-rule:evenodd;fill:rgb(0%,0%,0%);fill-opacity:1;" d="M 84.488281 140.433594 C 84.488281 133.253906 73.71875 133.253906 73.71875 140.433594 C 73.71875 147.617188 84.488281 147.617188 84.488281 140.433594 "/>
<path style=" stroke:none;fill-rule:evenodd;fill:rgb(0%,0%,0%);fill-opacity:1;" d="M 84.488281 71.835938 C 84.488281 64.65625 73.71875 64.65625 73.71875 71.835938 C 73.71875 79.019531 84.488281 79.019531 84.488281 71.835938 "/>
<path style=" stroke:none;fill-rule:evenodd;fill:rgb(0%,0%,0%);fill-opacity:1;" d="M 16.03125 71.835938 C 16.03125 64.65625 5.261719 64.65625 5.261719 71.835938 C 5.261719 79.019531 16.03125 79.019531 16.03125 71.835938 "/>
</g>
</svg>
