<?xml version="1.0" encoding="UTF-8"?>
<svg xmlns="http://www.w3.org/2000/svg" xmlns:xlink="http://www.w3.org/1999/xlink" width="217pt" height="203pt" viewBox="0 0 217 203" version="1.1">
<g id="surface1">
<path style=" stroke:none;fill-rule:evenodd;fill:rgb(0%,0%,0%);fill-opacity:1;" d="M 15.550781 192.980469 C 15.550781 186.066406 5.183594 186.066406 5.183594 192.980469 C 5.183594 199.890625 15.550781 199.890625 15.550781 192.980469 "/>
<path style=" stroke:none;fill-rule:evenodd;fill:rgb(0%,0%,0%);fill-opacity:1;" d="M 56.652344 192.980469 C 56.652344 186.066406 46.285156 186.066406 46.285156 192.980469 C 46.285156 199.890625 56.652344 199.890625 56.652344 192.980469 "/>
<path style=" stroke:none;fill-rule:evenodd;fill:rgb(0%,0%,0%);fill-opacity:1;" d="M 15.265625 176.085938 C 15.265625 169.558594 5.472656 169.558594 5.472656 176.085938 C 5.472656 182.613281 15.265625 182.613281 15.265625 176.085938 "/>
<path style=" stroke:none;fill-rule:evenodd;fill:rgb(0%,0%,0%);fill-opacity:1;" d="M 56.367188 176.085938 C 56.367188 169.558594 46.574219 169.558594 46.574219 176.085938 C 46.574219 182.613281 56.367188 182.613281 56.367188 176.085938 "/>
<path style=" stroke:none;fill-rule:evenodd;fill:rgb(0%,0%,0%);fill-opacity:1;" d="M 136.558594 25.277344 C 136.558594 17.984375 125.613281 17.984375 125.613281 25.277344 C 125.613281 32.574219 136.558594 32.574219 136.558594 25.277344 "/>
<path style=" stroke:none;fill-rule:evenodd;fill:rgb(0%,0%,0%);fill-opacity:1;" d="M 120.96875 25.277344 C 120.96875 17.984375 110.023438 17.984375 110.023438 25.277344 C 110.023438 32.574219 120.96875 32.574219 120.96875 25.277344 "/>
<path style=" stroke:none;fill-rule:evenodd;fill:rgb(0%,0%,0%);fill-opacity:1;" d="M 92.707031 25.277344 C 92.707031 17.984375 81.761719 17.984375 81.761719 25.277344 C 81.761719 32.574219 92.707031 32.574219 92.707031 25.277344 "/>
<path style=" stroke:none;fill-rule:evenodd;fill:rgb(0%,0%,0%);fill-opacity:1;" d="M 77.117188 25.277344 C 77.117188 17.984375 66.171875 17.984375 66.171875 25.277344 C 66.171875 32.574219 77.117188 32.574219 77.117188 25.277344 "/>
<path style=" stroke:none;fill-rule:evenodd;fill:rgb(0%,0%,0%);fill-opacity:1;" d="M 124.511719 10.253906 C 124.511719 2.960938 113.566406 2.960938 113.566406 10.253906 C 113.566406 17.550781 124.511719 17.550781 124.511719 10.253906 "/>
<path style=" stroke:none;fill-rule:evenodd;fill:rgb(0%,0%,0%);fill-opacity:1;" d="M 80.660156 10.253906 C 80.660156 2.960938 69.714844 2.960938 69.714844 10.253906 C 69.714844 17.550781 80.660156 17.550781 80.660156 10.253906 "/>
<path style=" stroke:none;fill-rule:evenodd;fill:rgb(0%,0%,0%);fill-opacity:1;" d="M 212.464844 173.390625 C 212.464844 171.46875 209.582031 171.46875 209.582031 173.390625 C 209.582031 175.308594 212.464844 175.308594 212.464844 173.390625 "/>
<path style=" stroke:none;fill-rule:evenodd;fill:rgb(0%,0%,0%);fill-opacity:1;" d="M 199.429688 181.894531 C 199.429688 179.589844 195.972656 179.589844 195.972656 181.894531 C 195.972656 184.199219 199.429688 184.199219 199.429688 181.894531 "/>
<path style=" stroke:none;fill-rule:evenodd;fill:rgb(0%,0%,0%);fill-opacity:1;" d="M 199.71875 164.886719 C 199.71875 162.199219 195.683594 162.199219 195.683594 164.886719 C 195.683594 167.574219 199.71875 167.574219 199.71875 164.886719 "/>
</g>
</svg>
